<svg width="29" height="29" viewBox="0 0 29 29" fill="none" xmlns="http://www.w3.org/2000/svg">
<path d="M19.4191 0.372559C18.0137 0.372237 16.6277 0.701125 15.3723 1.33287C14.1169 1.96461 13.0269 2.88164 12.1897 4.01047C11.3525 5.13931 10.7914 6.44855 10.5513 7.83329C10.3112 9.21804 10.3988 10.6398 10.8071 11.9846L0.419067 22.3726V28.3726H6.41907L16.8071 17.9846C18.045 18.3603 19.3493 18.4648 20.6313 18.2908C21.9132 18.1169 23.1425 17.6686 24.2356 16.9766C25.3286 16.2846 26.2596 15.365 26.9651 14.2807C27.6706 13.1963 28.134 11.9726 28.3238 10.6929C28.5136 9.41321 28.4252 8.10766 28.0648 6.8652C27.7044 5.62275 27.0804 4.47259 26.2353 3.49312C25.3902 2.51365 24.3438 1.72788 23.1675 1.18937C21.9913 0.650858 20.7127 0.372259 19.4191 0.372559ZM19.4191 16.3726C18.7306 16.3722 18.0459 16.2704 17.3871 16.0706L16.2401 15.7226L15.3931 16.5696L12.2121 19.7506L10.8331 18.3726L9.41907 19.7866L10.7981 21.1656L9.21207 22.7516L7.83307 21.3726L6.41907 22.7866L7.79807 24.1656L5.59107 26.3726H2.41907V23.2006L12.2211 13.3986L13.0691 12.5516L12.7211 11.4046C12.2936 9.99555 12.3214 8.48764 12.8004 7.09532C13.2794 5.70301 14.1853 4.49719 15.3891 3.64938C16.5929 2.80158 18.0335 2.35498 19.5058 2.37309C20.9781 2.3912 22.4072 2.87311 23.5898 3.75028C24.7724 4.62744 25.6483 5.85518 26.0929 7.25886C26.5375 8.66254 26.5282 10.1707 26.0662 11.5687C25.6043 12.9668 24.7132 14.1836 23.5198 15.0461C22.3264 15.9085 20.8915 16.3727 19.4191 16.3726Z" fill="#BFBFBF"/>
<path d="M20.4191 10.3726C21.5236 10.3726 22.4191 9.47713 22.4191 8.37256C22.4191 7.26799 21.5236 6.37256 20.4191 6.37256C19.3145 6.37256 18.4191 7.26799 18.4191 8.37256C18.4191 9.47713 19.3145 10.3726 20.4191 10.3726Z" fill="#BFBFBF"/>
</svg>
