<svg width="12" height="14" viewBox="0 0 12 14" fill="none" xmlns="http://www.w3.org/2000/svg">
<path d="M3.99665 11.0285C3.96081 11.0168 3.73431 10.9147 3.87585 10.4844H3.87382C4.24275 10.1045 4.52469 9.49302 4.52469 8.89105C4.52469 7.96545 3.9092 7.48022 3.19387 7.48022C2.47809 7.48022 1.86598 7.96523 1.86598 8.89105C1.86598 9.4955 2.14634 10.1094 2.51753 10.4885C2.66222 10.868 2.40349 11.0089 2.3494 11.0285C1.60026 11.2996 0.721313 11.7934 0.721313 12.2809V12.4637C0.721313 13.1278 2.00909 13.2788 3.20086 13.2788C4.39443 13.2788 5.66598 13.1278 5.66598 12.4637V12.2809C5.66598 11.7787 4.78274 11.2888 3.99665 11.0285ZM2.75349 12.9912C2.75349 12.4168 3.11927 11.6413 3.11927 11.6413L2.86618 11.4427C2.86618 11.253 3.19365 11.0544 3.19365 11.0544C3.19365 11.0544 3.52021 11.2561 3.52021 11.4427L3.26802 11.6413C3.26802 11.6413 3.6338 12.4138 3.6338 12.9976C3.6338 13.0891 2.75349 13.0679 2.75349 12.9912V12.9912Z" fill="#BFBFBF"/>
<path d="M10.2546 11.0285C10.2187 11.0168 9.99225 10.9147 10.1338 10.4844H10.1318C10.5007 10.1045 10.7826 9.49302 10.7826 8.89105C10.7826 7.96545 10.1671 7.48022 9.45181 7.48022C8.73602 7.48022 8.12391 7.96523 8.12391 8.89105C8.12391 9.4955 8.40428 10.1094 8.77546 10.4885C8.92015 10.868 8.66143 11.0089 8.60734 11.0285C7.8582 11.2996 6.97925 11.7934 6.97925 12.2809V12.4637C6.97925 13.1278 8.26702 13.2788 9.45879 13.2788C10.6524 13.2788 11.9239 13.1278 11.9239 12.4637V12.2809C11.9239 11.7787 11.0407 11.2888 10.2546 11.0285ZM9.01143 12.9912C9.01143 12.4168 9.37721 11.6413 9.37721 11.6413L9.12411 11.4427C9.12411 11.253 9.45158 11.0544 9.45158 11.0544C9.45158 11.0544 9.77814 11.2561 9.77814 11.4427L9.52595 11.6413C9.52595 11.6413 9.89173 12.4138 9.89173 12.9976C9.89173 13.0891 9.01143 13.0679 9.01143 12.9912V12.9912Z" fill="#BFBFBF"/>
<path d="M7.14972 3.6818C7.11389 3.67008 6.88739 3.56799 7.02892 3.13776H7.02689C7.39583 2.75778 7.67777 2.14634 7.67777 1.54437C7.67777 0.618771 7.06228 0.133545 6.34695 0.133545C5.63117 0.133545 5.01905 0.618546 5.01905 1.54437C5.01905 2.14882 5.29942 2.76274 5.67061 3.14181C5.81529 3.52134 5.55657 3.6622 5.50248 3.6818C4.75334 3.95293 3.87439 4.44672 3.87439 4.9342V5.11697C3.87439 5.78114 5.16217 5.93214 6.35393 5.93214C7.5475 5.93214 8.81905 5.78114 8.81905 5.11697V4.9342C8.81905 4.43207 7.93582 3.94211 7.14972 3.6818ZM5.90657 5.64457C5.90657 5.0701 6.27235 4.29459 6.27235 4.29459L6.01926 4.09604C6.01926 3.90627 6.34672 3.70772 6.34672 3.70772C6.34672 3.70772 6.67329 3.90943 6.67329 4.09604L6.42109 4.29459C6.42109 4.29459 6.78687 5.06717 6.78687 5.65088C6.78687 5.74238 5.90657 5.7212 5.90657 5.64457V5.64457Z" fill="#BFBFBF"/>
<line x1="5.01084" y1="5.64017" x2="3.3008" y2="8.7854" stroke="#BFBFBF" stroke-width="0.5"/>
<line x1="9.2353" y1="8.79148" x2="7.27739" y2="5.41712" stroke="#BFBFBF" stroke-width="0.5"/>
</svg>
