<svg width="23" height="29" viewBox="0 0 23 29" fill="none" xmlns="http://www.w3.org/2000/svg">
<path d="M20.4202 3.36108H17.4202V2.36108C17.4202 1.83065 17.2095 1.32194 16.8344 0.94687C16.4593 0.571798 15.9506 0.361084 15.4202 0.361084H7.42017C6.88973 0.361084 6.38103 0.571798 6.00595 0.94687C5.63088 1.32194 5.42017 1.83065 5.42017 2.36108V3.36108H2.42017C1.88973 3.36108 1.38103 3.5718 1.00595 3.94687C0.63088 4.32194 0.420166 4.83065 0.420166 5.36108V26.3611C0.420166 26.8915 0.63088 27.4002 1.00595 27.7753C1.38103 28.1504 1.88973 28.3611 2.42017 28.3611H20.4202C20.9506 28.3611 21.4593 28.1504 21.8344 27.7753C22.2095 27.4002 22.4202 26.8915 22.4202 26.3611V5.36108C22.4202 4.83065 22.2095 4.32194 21.8344 3.94687C21.4593 3.5718 20.9506 3.36108 20.4202 3.36108ZM7.42017 2.36108H15.4202V6.36108H7.42017V2.36108ZM20.4202 26.3611H2.42017V5.36108H5.42017V8.36108H17.4202V5.36108H20.4202V26.3611Z" fill="#BFBFBF"/>
</svg>
