<svg width="136" height="136" viewBox="0 0 136 136" fill="none" xmlns="http://www.w3.org/2000/svg">
<g filter="url(#filter0_d_4149_1089)">
<circle cx="68" cy="64" r="64" fill="#0F73A5"/>
<ellipse cx="68" cy="64" rx="40" ry="40" fill="#2FC1F4"/>
<path d="M80.85 57.2795V62.7795H64.45V74.1795C64.45 75.1128 64.5833 75.8128 64.85 76.2795C65.1167 76.7128 65.7167 76.9295 66.65 76.9295C67.4167 76.9295 68.1667 76.8128 68.9 76.5795C69.6333 76.3128 70.3 75.9795 70.9 75.5795C71.5 75.1461 71.9833 74.6461 72.35 74.0795C72.7167 73.5128 72.9 72.9295 72.9 72.3295C72.9 72.0295 72.7667 71.7461 72.5 71.4795C72.2333 71.2128 71.7167 71.0795 70.95 71.0795C70.35 71.0795 69.8167 71.1295 69.35 71.2295L68.55 66.1295C69.15 65.9628 69.8167 65.8461 70.55 65.7795C71.3167 65.7128 72.1 65.6795 72.9 65.6795C74.8667 65.6795 76.45 66.1295 77.65 67.0295C78.85 67.9295 79.45 69.3295 79.45 71.2295C79.45 73.0295 79.0333 74.6295 78.2 76.0295C77.3667 77.4295 76.2667 78.5961 74.9 79.5295C73.5333 80.4628 72.0333 81.1795 70.4 81.6795C68.8 82.1461 67.2333 82.3795 65.7 82.3795C64.3 82.3795 63.1167 82.2128 62.15 81.8795C61.2167 81.5461 60.4667 81.1128 59.9 80.5795C59.5333 80.2128 59.1833 79.7961 58.85 79.3295C58.55 78.8628 58.3 78.2128 58.1 77.3795C57.9333 76.5461 57.85 75.4295 57.85 74.0295V62.7795H53.65V57.2795H80.85ZM57.35 44.9295C58.45 44.9295 59.4167 45.0628 60.25 45.3295C61.0833 45.5961 61.7833 46.0128 62.35 46.5795C63.0167 47.2128 63.5333 48.0961 63.9 49.2295C64.2667 50.3628 64.45 51.9628 64.45 54.0295V57.4795H57.85V54.2795C57.85 53.4461 57.7833 52.7461 57.65 52.1795C57.5167 51.6128 57.25 51.1961 56.85 50.9295C56.45 50.6295 55.85 50.4795 55.05 50.4795C54.6167 50.4795 54.15 50.5295 53.65 50.6295C53.1833 50.7295 52.7 50.8795 52.2 51.0795L50.3 46.2795C51.6 45.8128 52.7667 45.4795 53.8 45.2795C54.8333 45.0461 56.0167 44.9295 57.35 44.9295Z" fill="#F7F6FB"/>
<path d="M47.5327 111.2V109.298H56.4922V111.2H53.1523V120.207H50.8725V111.2H47.5327ZM58.515 120.207H56.0434L59.8094 109.298H62.7817L66.5423 120.207H64.0708L61.3382 111.791H61.2529L58.515 120.207ZM58.3605 115.919H64.1986V117.72H58.3605V115.919ZM67.8554 120.207V109.298H70.1618V114.108H70.3057L74.2314 109.298H76.996L72.9477 114.183L77.0439 120.207H74.2847L71.2964 115.722L70.1618 117.107V120.207H67.8554ZM80.0775 120.207H77.6059L81.3719 109.298H84.3442L88.1048 120.207H85.6333L82.9007 111.791H82.8154L80.0775 120.207ZM79.923 115.919H85.7611V117.72H79.923V115.919Z" fill="white"/>
<path d="M20.0013 70.0693L9.09223 70.0709L9.09159 65.703C9.09147 64.9005 9.21033 64.231 9.44818 63.6948C9.68603 63.1585 10.0162 62.7554 10.4388 62.4855C10.8578 62.2155 11.3407 62.0805 11.8876 62.0804C12.3137 62.0804 12.6884 62.1655 13.0115 62.3359C13.3312 62.5063 13.594 62.7407 13.8 63.0389C14.0025 63.3337 14.1463 63.671 14.2316 64.051L14.3381 64.0509C14.3558 63.6355 14.473 63.2466 14.6895 62.8843C14.9061 62.5185 15.2097 62.222 15.6003 61.9946C15.9873 61.7673 16.4489 61.6536 16.9852 61.6535C17.564 61.6534 18.0807 61.7972 18.5353 62.0848C18.9863 62.3688 19.3433 62.7895 19.6062 63.347C19.869 63.9045 20.0005 64.5916 20.0006 65.4084L20.0013 70.0693ZM18.1153 67.7631L18.1151 65.8828C18.115 65.24 17.9924 64.7713 17.7473 64.4766C17.4987 64.1819 17.1684 64.0345 16.7565 64.0346C16.4546 64.0346 16.1883 64.1075 15.9575 64.2531C15.7267 64.3987 15.5456 64.6065 15.4143 64.8764C15.2829 65.1428 15.2173 65.4606 15.2173 65.8299L15.2176 67.7635L18.1153 67.7631ZM13.6569 67.7638L13.6566 66.0539C13.6566 65.7378 13.6015 65.4573 13.4914 65.2123C13.3777 64.9637 13.2179 64.7684 13.0119 64.6264C12.8059 64.4809 12.5591 64.4081 12.2714 64.4081C11.8773 64.4082 11.5595 64.5485 11.318 64.8291C11.0766 65.1061 10.9559 65.5003 10.956 66.0117L10.9562 67.7642L13.6569 67.7638Z" fill="white"/>
<path d="M21.4624 53.5724L20.6832 55.918L11.5417 48.8334L12.4788 46.0126L23.9932 45.9544L23.214 48.3L14.384 48.1848L14.3571 48.2657L21.4624 53.5724ZM17.3538 52.3391L19.1944 46.7987L20.899 47.3781L19.0585 52.9185L17.3538 52.3391Z" fill="white"/>
<path d="M24.2378 25.8652L32.7591 32.6766L31.5326 34.2465L23.2474 33.6994L23.1982 33.7624L28.5615 38.0494L27.1415 39.867L18.6202 33.0555L19.8663 31.4605L28.1244 32.0336L28.1835 31.9581L22.8244 27.6743L24.2378 25.8652Z" fill="white"/>
<path d="M40.4717 17.2706C40.2726 17.0897 40.0638 16.9506 39.8454 16.8532C39.625 16.7529 39.3959 16.6959 39.158 16.6821C38.9213 16.6635 38.6782 16.6887 38.4288 16.7578C38.1825 16.825 37.9331 16.9382 37.6808 17.0973C37.2092 17.3946 36.8673 17.7739 36.6552 18.2351C36.446 18.6944 36.3811 19.2118 36.4605 19.7873C36.538 20.3597 36.7761 20.9694 37.1748 21.6163C37.5735 22.2633 38.0102 22.7519 38.4849 23.0823C38.9597 23.4126 39.4493 23.5845 39.954 23.598C40.4568 23.6084 40.9515 23.4602 41.4381 23.1533C41.8797 22.8749 42.2082 22.5586 42.4237 22.2044C42.6404 21.8453 42.7419 21.4686 42.7282 21.0742C42.7176 20.6779 42.5902 20.2817 42.3462 19.8857L42.779 19.6946L40.4 21.1947L39.4889 19.7164L43.3503 17.2816L44.0714 18.4515C44.5744 19.2678 44.8354 20.0771 44.8544 20.8795C44.8716 21.6789 44.6776 22.4267 44.2724 23.123C43.8654 23.8162 43.2744 24.4071 42.4995 24.8958C41.6343 25.4413 40.7561 25.7285 39.8646 25.7575C38.9713 25.7834 38.1225 25.5567 37.3182 25.0774C36.515 24.5931 35.8116 23.8612 35.2079 22.8817C34.744 22.129 34.4386 21.3896 34.2915 20.6638C34.1456 19.933 34.1427 19.2379 34.2829 18.5786C34.423 17.9194 34.6882 17.3176 35.0786 16.7734C35.469 16.2292 35.9691 15.7649 36.5789 15.3804C37.1015 15.0508 37.6357 14.8211 38.1813 14.6911C38.725 14.5582 39.2568 14.5209 39.7766 14.5793C40.2995 14.6358 40.7904 14.786 41.2493 15.0298C41.7063 15.2705 42.108 15.6008 42.4543 16.0205L40.4717 17.2706Z" fill="white"/>
<path d="M52.9053 19.6136L50.306 9.01867L52.5431 8.45715L54.6893 17.2052L59.2254 16.0666L59.6785 17.9134L52.9053 19.6136Z" fill="white"/>
<path d="M68.1794 17.2029L65.7141 17.0256L70.235 6.41339L73.1996 6.6265L76.1861 17.7784L73.7208 17.6012L71.5851 9.00977L71.5001 9.00366L68.1794 17.2029ZM68.3258 12.9143L74.1489 13.3329L74.0227 15.1289L68.1996 14.7103L68.3258 12.9143Z" fill="white"/>
<path d="M86.2547 20.9963L82.7073 19.4564L86.9683 9.41386L90.545 10.9665C91.5516 11.4035 92.3327 11.9807 92.8885 12.6981C93.4457 13.4123 93.7609 14.2285 93.8342 15.1468C93.9107 16.0666 93.7277 17.0478 93.2853 18.0907C92.8414 19.1367 92.2629 19.9502 91.5497 20.531C90.8398 21.1131 90.0331 21.4462 89.1295 21.5301C88.2293 21.6154 87.271 21.4375 86.2547 20.9963ZM85.5949 18.5556L86.9386 19.1389C87.564 19.4104 88.1373 19.5276 88.6583 19.4906C89.184 19.4517 89.6542 19.2435 90.0689 18.8661C90.4883 18.4869 90.8568 17.9229 91.1744 17.1743C91.4893 16.4322 91.6375 15.7785 91.619 15.213C91.6037 14.6489 91.4299 14.1631 91.0975 13.7556C90.7651 13.348 90.2862 13.0085 89.6607 12.737L88.3122 12.1515L85.5949 18.5556Z" fill="white"/>
<path d="M96.5349 26.7154L103.678 18.4704L109.179 23.3465L107.934 24.7837L104.159 21.4376L102.457 23.4022L105.949 26.4975L104.703 27.9347L101.212 24.8395L99.506 26.8081L103.297 30.1684L102.052 31.6056L96.5349 26.7154Z" fill="white"/>
<path d="M116.464 38.1911C116.808 37.9292 116.998 37.5974 117.034 37.1957C117.07 36.7941 116.945 36.356 116.659 35.8814C116.465 35.559 116.255 35.3147 116.031 35.1485C115.81 34.9804 115.585 34.8855 115.356 34.8638C115.129 34.845 114.916 34.8971 114.716 35.0201C114.546 35.1165 114.422 35.2409 114.344 35.3933C114.268 35.5488 114.226 35.7229 114.217 35.9157C114.212 36.1066 114.23 36.3123 114.272 36.5328C114.317 36.7514 114.378 36.9765 114.455 37.2083L114.761 38.1709C114.916 38.6344 115.02 39.0831 115.074 39.5169C115.128 39.9508 115.12 40.3604 115.05 40.7459C114.979 41.1313 114.836 41.4847 114.619 41.806C114.404 42.1304 114.104 42.4133 113.718 42.6548C113.148 43.002 112.567 43.1596 111.976 43.1277C111.39 43.097 110.819 42.8816 110.263 42.4817C109.712 42.083 109.207 41.5034 108.749 40.7429C108.295 39.9885 108.014 39.2606 107.907 38.5593C107.801 37.861 107.879 37.2164 108.141 36.6255C108.408 36.0358 108.87 35.5275 109.529 35.1006L110.681 37.0125C110.382 37.2257 110.176 37.4756 110.063 37.7623C109.955 38.0502 109.928 38.3606 109.983 38.6935C110.044 39.0276 110.176 39.365 110.382 39.7057C110.583 40.0403 110.806 40.3011 111.052 40.4878C111.299 40.6777 111.549 40.7879 111.804 40.8187C112.059 40.8494 112.298 40.7958 112.522 40.6579C112.731 40.5294 112.868 40.359 112.935 40.1467C113.004 39.9375 113.017 39.6835 112.974 39.3847C112.933 39.089 112.85 38.7456 112.727 38.3546L112.368 37.1806C112.084 36.2753 112.007 35.4697 112.137 34.7638C112.267 34.0579 112.677 33.495 113.365 33.0751C113.925 32.7256 114.507 32.5735 115.111 32.6187C115.716 32.667 116.298 32.8862 116.856 33.2763C117.414 33.6664 117.899 34.2021 118.309 34.8836C118.727 35.5771 118.973 36.2552 119.049 36.9176C119.126 37.5831 119.042 38.1898 118.796 38.7378C118.55 39.2857 118.153 39.7347 117.605 40.0847L116.464 38.1911Z" fill="white"/>
<path d="M113.572 50.2428L124.205 47.8057L124.709 50.0564L120.322 51.0619L121.345 55.6309L125.733 54.6254L126.236 56.8708L115.602 59.3079L115.099 57.0624L119.492 56.0557L118.468 51.4868L114.076 52.4935L113.572 50.2428Z" fill="white"/>
<path d="M126.664 69.7014L115.77 69.1408L115.885 66.8373L126.78 67.3979L126.664 69.7014Z" fill="white"/>
</g>
<defs>
<filter id="filter0_d_4149_1089" x="0" y="0" width="136" height="136" filterUnits="userSpaceOnUse" color-interpolation-filters="sRGB">
<feFlood flood-opacity="0" result="BackgroundImageFix"/>
<feColorMatrix in="SourceAlpha" type="matrix" values="0 0 0 0 0 0 0 0 0 0 0 0 0 0 0 0 0 0 127 0" result="hardAlpha"/>
<feOffset dy="4"/>
<feGaussianBlur stdDeviation="2"/>
<feComposite in2="hardAlpha" operator="out"/>
<feColorMatrix type="matrix" values="0 0 0 0 0 0 0 0 0 0 0 0 0 0 0 0 0 0 0.25 0"/>
<feBlend mode="normal" in2="BackgroundImageFix" result="effect1_dropShadow_4149_1089"/>
<feBlend mode="normal" in="SourceGraphic" in2="effect1_dropShadow_4149_1089" result="shape"/>
</filter>
</defs>
</svg>
