<svg width="136" height="136" viewBox="0 0 136 136" fill="none" xmlns="http://www.w3.org/2000/svg">
<g filter="url(#filter0_d_4145_651)">
<circle cx="68" cy="64" r="64" fill="#0F73A5"/>
<circle cx="68" cy="64" r="40" fill="#2FC1F4"/>
<path d="M79.6108 40.7205L65.5483 86.1751H63.2045L77.196 40.7205H79.6108ZM73.2188 40.7205L59.1562 86.1751L56.8125 86.2461L70.804 40.7916L73.2188 40.7205ZM84.245 57.9968H76.468C76.326 56.9907 76.036 56.097 75.598 55.3157C75.16 54.5226 74.5978 53.8479 73.9112 53.2916C73.2247 52.7352 72.4316 52.3091 71.532 52.0132C70.6442 51.7172 69.6795 51.5693 68.6378 51.5693C66.7557 51.5693 65.1162 52.0368 63.7195 52.972C62.3227 53.8953 61.2396 55.2447 60.4702 57.0203C59.7008 58.784 59.3161 60.9265 59.3161 63.4478C59.3161 66.0401 59.7008 68.2182 60.4702 69.9819C61.2514 71.7456 62.3404 73.0773 63.7372 73.9769C65.134 74.8766 66.7498 75.3264 68.5845 75.3264C69.6143 75.3264 70.5672 75.1902 71.4432 74.918C72.331 74.6457 73.1181 74.2492 73.8047 73.7284C74.4912 73.1957 75.0594 72.5506 75.5092 71.793C75.9709 71.0354 76.2905 70.1713 76.468 69.2007L84.245 69.2362C84.0438 70.9052 83.5407 72.5151 82.7358 74.0657C81.9427 75.6045 80.8714 76.9836 79.522 78.2028C78.1844 79.4102 76.5864 80.369 74.728 81.0792C72.8814 81.7776 70.7921 82.1268 68.4602 82.1268C65.2169 82.1268 62.3168 81.3929 59.7599 79.9251C57.215 78.4573 55.2027 76.3325 53.723 73.5508C52.2552 70.7691 51.5213 67.4014 51.5213 63.4478C51.5213 59.4824 52.267 56.1088 53.7585 53.3271C55.25 50.5454 57.2741 48.4265 59.831 46.9705C62.3878 45.5027 65.2642 44.7688 68.4602 44.7688C70.5672 44.7688 72.5204 45.0648 74.3196 45.6566C76.1307 46.2485 77.7346 47.1126 79.1314 48.249C80.5282 49.3735 81.6645 50.7525 82.5405 52.386C83.4283 54.0196 83.9964 55.8898 84.245 57.9968Z" fill="white"/>
<path d="M11.208 57.6798L10.9091 59.9937C10.6043 59.9973 10.3272 60.0492 10.0779 60.1495C9.82513 60.2493 9.60277 60.3907 9.41086 60.5736C9.21894 60.7564 9.06166 60.976 8.93903 61.2323C8.81686 61.4851 8.73575 61.7664 8.69571 62.0763C8.62336 62.6363 8.69945 63.1421 8.92399 63.5936C9.145 64.0447 9.50486 64.4188 10.0036 64.716C10.4987 65.0127 11.1214 65.2095 11.8716 65.3064C12.6429 65.4061 13.3057 65.3753 13.86 65.2142C14.4148 65.0496 14.8529 64.7768 15.1742 64.3958C15.4956 64.0148 15.6915 63.5513 15.762 63.0054C15.8016 62.699 15.7978 62.4103 15.7504 62.1392C15.7036 61.8646 15.6158 61.6152 15.4873 61.3909C15.3552 61.1661 15.1851 60.9723 14.977 60.8093C14.7693 60.6428 14.5245 60.5145 14.2425 60.4244L14.552 58.1119C15.0409 58.2359 15.5005 58.4475 15.9309 58.7466C16.3583 59.0417 16.7274 59.4134 17.0383 59.8618C17.3461 60.3062 17.57 60.8185 17.7098 61.3987C17.8466 61.975 17.8702 62.61 17.7806 63.3038C17.6559 64.2688 17.3261 65.1035 16.7911 65.8078C16.2565 66.5085 15.547 67.0256 14.6625 67.3589C13.7784 67.6887 12.7482 67.7776 11.5719 67.6256C10.3921 67.4731 9.41704 67.1216 8.64674 66.5709C7.87643 66.0202 7.32383 65.3365 6.98893 64.5198C6.6505 63.7027 6.54272 62.8187 6.66557 61.8678C6.74657 61.2409 6.90969 60.6711 7.15495 60.1586C7.40066 59.6425 7.71942 59.1985 8.11121 58.8266C8.49948 58.4542 8.95346 58.1691 9.47315 57.9713C9.99329 57.77 10.5716 57.6728 11.208 57.6798Z" fill="white"/>
<path d="M19.6819 40.4871C20.7503 41.0103 21.5601 41.6579 22.1112 42.43C22.6638 43.1989 22.9676 44.0278 23.0226 44.9167C23.0759 45.8009 22.891 46.6751 22.4677 47.5394C22.0413 48.4101 21.4609 49.0946 20.7265 49.593C19.9921 50.0913 19.1518 50.3579 18.2055 50.3927C17.2593 50.4275 16.2535 50.1841 15.1883 49.6624C14.12 49.1392 13.3094 48.4931 12.7568 47.7242C12.2041 46.9553 11.9011 46.1288 11.8478 45.2446C11.7912 44.3589 11.9762 43.4807 12.4026 42.61C12.8258 41.7458 13.4047 41.0644 14.1391 40.5661C14.8718 40.0629 15.7114 39.794 16.6576 39.7592C17.6054 39.7212 18.6136 39.9638 19.6819 40.4871ZM18.6534 42.5871C17.9614 42.2482 17.327 42.066 16.7503 42.0406C16.1751 42.012 15.6734 42.1241 15.2451 42.377C14.8168 42.6299 14.48 43.0066 14.2348 43.5074C13.9896 44.0081 13.8984 44.5051 13.9612 44.9985C14.024 45.4919 14.2423 45.9586 14.6159 46.3987C14.9912 46.8355 15.5248 47.2234 16.2169 47.5623C16.9089 47.9012 17.5425 48.085 18.1177 48.1136C18.6944 48.1391 19.1969 48.0253 19.6252 47.7725C20.0535 47.5196 20.3903 47.1428 20.6355 46.6421C20.8807 46.1414 20.9719 45.6443 20.9091 45.1509C20.8463 44.6575 20.6272 44.1924 20.252 43.7556C19.8783 43.3156 19.3455 42.9261 18.6534 42.5871Z" fill="white"/>
<path d="M26.9412 27.9145C26.6012 27.6483 26.2335 27.5498 25.8382 27.6189C25.4429 27.6879 25.0538 27.9227 24.6709 28.323C24.4108 28.5951 24.2296 28.8616 24.1274 29.1226C24.0227 29.3811 23.9892 29.6242 24.0269 29.8519C24.0671 30.0771 24.1719 30.2706 24.3412 30.4326C24.4775 30.5728 24.6289 30.6611 24.7955 30.6975C24.9645 30.7314 25.1427 30.7275 25.3302 30.6856C25.5151 30.6413 25.7081 30.5704 25.9094 30.473C26.1081 30.3731 26.3089 30.2556 26.5119 30.1205L27.3587 29.5742C27.7646 29.3039 28.1691 29.0864 28.5723 28.9217C28.9756 28.757 29.3715 28.659 29.7601 28.6277C30.1487 28.5965 30.5253 28.6446 30.8898 28.7721C31.2567 28.897 31.6057 29.1153 31.9367 29.4269C32.4167 29.8909 32.7172 30.4142 32.8382 30.9967C32.9591 31.5742 32.8986 32.1846 32.6567 32.8279C32.4148 33.4663 31.987 34.1062 31.3734 34.7478C30.7647 35.3843 30.137 35.8454 29.4904 36.1311C28.8461 36.4142 28.2064 36.505 27.5712 36.4037C26.9359 36.2973 26.3286 35.9793 25.7491 35.4497L27.2917 33.8367C27.5732 34.0715 27.8664 34.2069 28.1711 34.2428C28.4757 34.2737 28.7809 34.2192 29.0867 34.0792C29.3924 33.9343 29.6827 33.7181 29.9576 33.4307C30.2276 33.1484 30.4209 32.864 30.5376 32.5776C30.6567 32.2886 30.6984 32.0164 30.6626 31.761C30.6267 31.5056 30.5138 31.2871 30.3239 31.1055C30.1469 30.9361 29.9477 30.8464 29.7264 30.8362C29.5076 30.8235 29.2602 30.8768 28.984 30.996C28.7104 31.1126 28.4014 31.2815 28.0572 31.5026L27.0206 32.1549C26.2233 32.665 25.4685 32.948 24.7565 33.0041C24.0444 33.0602 23.3983 32.8083 22.8182 32.2486C22.3384 31.7947 22.0429 31.2688 21.9316 30.671C21.8228 30.0706 21.8842 29.4489 22.116 28.8057C22.3479 28.1626 22.7386 27.5536 23.2884 26.9787C23.8481 26.3936 24.4366 25.9786 25.054 25.7338C25.6739 25.4864 26.2788 25.4113 26.8687 25.5087C27.4586 25.6061 27.992 25.8755 28.469 26.3169L26.9412 27.9145Z" fill="white"/>
<path d="M34.4211 19.9978L33.4934 18.3378L41.3144 13.967L42.2421 15.627L39.3267 17.2563L43.7209 25.1192L41.7307 26.2314L37.3365 18.3685L34.4211 19.9978Z" fill="white"/>
<path d="M55.0522 20.5467L52.6262 21.019L54.2377 9.59129L57.1552 9.02321L62.9315 19.0124L60.5055 19.4848L56.2148 11.746L56.1311 11.7623L55.0522 20.5467ZM54.081 16.3672L59.8115 15.2514L60.1556 17.0187L54.4251 18.1345L54.081 16.3672Z" fill="white"/>
<path d="M78.3462 19.9458L81.4496 9.48745L85.5758 10.7118C86.3656 10.9462 86.9977 11.2875 87.4722 11.7358C87.9511 12.1816 88.2607 12.705 88.4009 13.3059C88.5455 13.9045 88.5153 14.5493 88.3103 15.2404C88.1042 15.9349 87.7771 16.4879 87.329 16.8995C86.8819 17.3076 86.3347 17.5601 85.6874 17.657C85.0434 17.7548 84.3198 17.6845 83.5163 17.4461L80.7536 16.6263L81.281 14.8492L83.6862 15.5629C84.1083 15.6882 84.4762 15.7344 84.7897 15.7015C85.1032 15.6686 85.3624 15.5566 85.5672 15.3655C85.7755 15.1754 85.9307 14.9084 86.0327 14.5646C86.1357 14.2173 86.1528 13.9038 86.084 13.6241C86.0185 13.3454 85.8627 13.1028 85.6165 12.8964C85.3747 12.6876 85.041 12.5201 84.6155 12.3938L83.1243 11.9513L80.5574 20.6019L78.3462 19.9458ZM85.4064 16.8624L86.5934 22.3931L84.1524 21.6687L83.0216 16.1547L85.4064 16.8624Z" fill="white"/>
<path d="M99.5213 16.8821L94.0172 26.3009L92.0259 25.1372L97.5299 15.7184L99.5213 16.8821Z" fill="white"/>
<path d="M111.978 32.1839L110.333 30.5291C110.517 30.2861 110.646 30.0354 110.72 29.777C110.796 29.5161 110.82 29.2538 110.794 28.99C110.767 28.7263 110.69 28.4674 110.562 28.2134C110.438 27.9619 110.265 27.7253 110.045 27.5037C109.647 27.1032 109.201 26.8533 108.706 26.7538C108.214 26.6519 107.698 26.7068 107.158 26.9186C106.62 27.1278 106.082 27.4991 105.546 28.0323C104.994 28.5805 104.612 29.123 104.4 29.6597C104.19 30.1989 104.137 30.7123 104.241 31.1998C104.344 31.6872 104.59 32.1261 104.978 32.5165C105.196 32.7357 105.427 32.9096 105.67 33.0384C105.916 33.1698 106.166 33.2534 106.422 33.2893C106.681 33.3228 106.938 33.3072 107.195 33.2427C107.454 33.1808 107.705 33.066 107.949 32.8985L109.586 34.5608C109.189 34.871 108.74 35.1044 108.239 35.2611C107.744 35.4177 107.224 35.4814 106.68 35.4521C106.14 35.4229 105.598 35.2856 105.054 35.0404C104.515 34.7952 103.998 34.4244 103.505 33.9283C102.819 33.2381 102.362 32.4658 102.134 31.6114C101.908 30.7594 101.934 29.8819 102.213 28.9788C102.495 28.0782 103.056 27.2098 103.897 26.3737C104.741 25.5351 105.617 24.9803 106.524 24.7094C107.431 24.4385 108.31 24.4211 109.161 24.6572C110.014 24.8909 110.778 25.3477 111.454 26.0278C111.9 26.4761 112.25 26.9543 112.505 27.4623C112.762 27.9728 112.917 28.4968 112.971 29.0344C113.027 29.5694 112.974 30.1028 112.811 30.6347C112.651 31.169 112.374 31.6854 111.978 32.1839Z" fill="white"/>
<path d="M111.884 44.504L110.797 42.2843L122.251 40.8683L123.558 43.5377L115.415 51.7132L114.328 49.4935L120.684 43.3377L120.647 43.2612L111.884 44.504ZM115.667 42.4793L118.235 47.7223L116.618 48.5142L114.05 43.2712L115.667 42.4793Z" fill="white"/>
<path d="M129.36 65.7656L118.541 67.1634L118.286 65.1877L124.487 59.6009L124.477 59.5217L117.667 60.4014L117.372 58.114L128.191 56.7162L128.45 58.7236L122.249 64.2727L122.262 64.3678L129.066 63.4887L129.36 65.7656Z" fill="white"/>
<path d="M47.2125 109.023L45.4564 107.487C45.623 107.232 45.734 106.972 45.7894 106.71C45.8472 106.444 45.8535 106.181 45.8083 105.919C45.7632 105.658 45.6683 105.405 45.5236 105.161C45.3815 104.919 45.1929 104.695 44.9577 104.489C44.5327 104.117 44.0701 103.899 43.57 103.834C43.0723 103.767 42.5612 103.858 42.0367 104.107C41.5146 104.353 41.0046 104.761 40.5066 105.33C39.9946 105.915 39.6513 106.483 39.4767 107.033C39.3048 107.586 39.2877 108.102 39.4254 108.581C39.5631 109.06 39.8392 109.481 40.2535 109.843C40.486 110.046 40.7281 110.204 40.9797 110.315C41.2339 110.429 41.49 110.495 41.7479 110.513C42.0081 110.528 42.2638 110.495 42.515 110.413C42.7689 110.333 43.0117 110.201 43.2435 110.017L44.9927 111.561C44.6176 111.898 44.186 112.162 43.698 112.353C43.215 112.544 42.7007 112.644 42.1552 112.653C41.6147 112.661 41.0644 112.562 40.5045 112.355C39.9496 112.148 39.4088 111.815 38.8823 111.354C38.1499 110.713 37.64 109.975 37.3525 109.138C37.0677 108.304 37.033 107.427 37.2483 106.507C37.4662 105.589 37.9656 104.683 38.7465 103.791C39.5297 102.895 40.3644 102.281 41.2506 101.947C42.1368 101.613 43.0124 101.535 43.8773 101.711C44.7445 101.885 45.539 102.287 46.2607 102.918C46.7365 103.334 47.1191 103.787 47.4085 104.276C47.7006 104.767 47.8921 105.279 47.9831 105.812C48.0764 106.341 48.0606 106.877 47.9358 107.419C47.8136 107.963 47.5725 108.498 47.2125 109.023Z" fill="white"/>
<path d="M60.6737 116.461C60.2938 117.588 59.7568 118.475 59.0629 119.122C58.3723 119.77 57.5899 120.179 56.7157 120.349C55.8459 120.517 54.9551 120.447 54.0431 120.139C53.1244 119.83 52.3703 119.343 51.7807 118.68C51.1912 118.016 50.8177 117.218 50.6602 116.284C50.5028 115.35 50.6135 114.322 50.9923 113.198C51.3723 112.07 51.9076 111.183 52.5982 110.535C53.2887 109.887 54.0689 109.479 54.9386 109.311C55.8095 109.14 56.7043 109.21 57.623 109.519C58.5349 109.827 59.2857 110.312 59.8752 110.975C60.4693 111.637 60.8451 112.434 61.0025 113.368C61.1633 114.303 61.0537 115.334 60.6737 116.461ZM58.4578 115.714C58.704 114.984 58.8022 114.331 58.7525 113.756C58.7061 113.182 58.5297 112.699 58.2233 112.307C57.917 111.916 57.4996 111.631 56.9713 111.452C56.443 111.274 55.9383 111.249 55.4572 111.375C54.9762 111.501 54.5418 111.778 54.154 112.206C53.7697 112.635 53.4544 113.214 53.2083 113.945C52.9621 114.675 52.8622 115.327 52.9086 115.901C52.9583 116.476 53.1363 116.96 53.4427 117.351C53.7491 117.743 54.1665 118.028 54.6948 118.206C55.2231 118.384 55.7278 118.41 56.2088 118.284C56.6899 118.157 57.1226 117.88 57.507 117.451C57.8947 117.023 58.2117 116.444 58.4578 115.714Z" fill="white"/>
<path d="M66.4171 122.472L66.0498 111.569L68.3549 111.491L68.6582 120.494L73.3324 120.336L73.3965 122.237L66.4171 122.472Z" fill="white"/>
<path d="M88.0323 112.045C88.4873 113.144 88.666 114.165 88.5685 115.109C88.4743 116.051 88.1537 116.873 87.6068 117.576C87.0619 118.275 86.3448 118.808 85.4557 119.176C84.5599 119.547 83.6718 119.676 82.7914 119.564C81.911 119.452 81.1045 119.096 80.3719 118.496C79.6392 117.896 79.0461 117.048 78.5925 115.952C78.1375 114.853 77.9571 113.832 78.0513 112.89C78.1455 111.948 78.4651 111.128 79.0101 110.429C79.5536 109.728 80.2733 109.192 81.1691 108.821C82.0582 108.453 82.943 108.325 83.8235 108.437C84.7058 108.544 85.5133 108.898 86.2459 109.498C86.9818 110.097 87.5772 110.945 88.0323 112.045ZM85.8716 112.939C85.5769 112.227 85.2217 111.671 84.8061 111.27C84.3937 110.868 83.9433 110.62 83.4548 110.527C82.9663 110.433 82.4645 110.493 81.9494 110.706C81.4342 110.919 81.037 111.231 80.7577 111.643C80.4784 112.055 80.3333 112.549 80.3224 113.126C80.3148 113.702 80.4583 114.346 80.7531 115.058C81.0478 115.77 81.4014 116.327 81.8137 116.729C82.2294 117.129 82.6815 117.377 83.1699 117.47C83.6584 117.564 84.1602 117.504 84.6753 117.291C85.1905 117.078 85.5877 116.765 85.867 116.354C86.1463 115.942 86.2898 115.449 86.2974 114.873C86.3083 114.296 86.1664 113.651 85.8716 112.939Z" fill="white"/>
<path d="M95.1806 98.7048L102.899 106.414L101.491 107.824L93.2792 106.329L93.2228 106.386L98.0808 111.238L96.4508 112.87L88.7323 105.161L90.1628 103.729L98.3446 105.245L98.4124 105.178L93.5581 100.329L95.1806 98.7048Z" fill="white"/>
</g>
<defs>
<filter id="filter0_d_4145_651" x="0" y="0" width="136" height="136" filterUnits="userSpaceOnUse" color-interpolation-filters="sRGB">
<feFlood flood-opacity="0" result="BackgroundImageFix"/>
<feColorMatrix in="SourceAlpha" type="matrix" values="0 0 0 0 0 0 0 0 0 0 0 0 0 0 0 0 0 0 127 0" result="hardAlpha"/>
<feOffset dy="4"/>
<feGaussianBlur stdDeviation="2"/>
<feComposite in2="hardAlpha" operator="out"/>
<feColorMatrix type="matrix" values="0 0 0 0 0 0 0 0 0 0 0 0 0 0 0 0 0 0 0.25 0"/>
<feBlend mode="normal" in2="BackgroundImageFix" result="effect1_dropShadow_4145_651"/>
<feBlend mode="normal" in="SourceGraphic" in2="effect1_dropShadow_4145_651" result="shape"/>
</filter>
</defs>
</svg>
