<svg width="136" height="136" viewBox="0 0 136 136" fill="none" xmlns="http://www.w3.org/2000/svg">
<g filter="url(#filter0_d_4143_130)">
<circle cx="68" cy="64" r="64" fill="#0F73A5"/>
<circle cx="68" cy="64" r="40" fill="#2FC1F4"/>
<path d="M65.2287 96.3636V32.7273H69.3054V96.3636H65.2287ZM76.0419 53.7322C75.843 51.727 74.9896 50.1693 73.4815 49.0589C71.9735 47.9486 69.9268 47.3935 67.3416 47.3935C65.585 47.3935 64.1018 47.642 62.892 48.1392C61.6823 48.6198 60.7543 49.291 60.108 50.1527C59.4782 51.0144 59.1634 51.9922 59.1634 53.0859C59.1302 53.9974 59.3208 54.7929 59.7351 55.4723C60.166 56.1518 60.7543 56.7401 61.5 57.2372C62.2457 57.7178 63.1075 58.1404 64.0852 58.505C65.063 58.853 66.107 59.1513 67.2173 59.3999L71.7912 60.4936C74.0118 60.9908 76.0502 61.6536 77.9062 62.4822C79.7623 63.3108 81.3698 64.33 82.7287 65.5398C84.0876 66.7495 85.1399 68.1747 85.8857 69.8153C86.648 71.456 87.0374 73.3369 87.054 75.4581C87.0374 78.5736 86.242 81.2749 84.6676 83.5618C83.1099 85.8321 80.8561 87.5971 77.9062 88.8565C74.973 90.0994 71.4349 90.7209 67.2919 90.7209C63.1821 90.7209 59.6025 90.0911 56.5533 88.8317C53.5206 87.5722 51.1508 85.7079 49.4439 83.2386C47.7536 80.7528 46.867 77.6787 46.7841 74.0163H57.1996C57.3156 75.7232 57.8045 77.1484 58.6662 78.2919C59.5445 79.4188 60.7128 80.2723 62.1712 80.8523C63.6461 81.4157 65.3116 81.6974 67.1676 81.6974C68.9905 81.6974 70.5732 81.4323 71.9155 80.902C73.2744 80.3717 74.3267 79.6342 75.0724 78.6896C75.8182 77.745 76.1911 76.6596 76.1911 75.4332C76.1911 74.2898 75.8513 73.3286 75.1719 72.5497C74.509 71.7708 73.5313 71.108 72.2386 70.5611C70.9626 70.0142 69.3965 69.517 67.5405 69.0696L61.9972 67.6776C57.705 66.6335 54.3161 65.0012 51.8303 62.7805C49.3445 60.5599 48.1098 57.5687 48.1264 53.8068C48.1098 50.7244 48.9302 48.0315 50.5874 45.728C52.2611 43.4245 54.5563 41.6264 57.473 40.3338C60.3897 39.0412 63.7041 38.3949 67.4162 38.3949C71.1946 38.3949 74.4924 39.0412 77.3097 40.3338C80.1435 41.6264 82.3475 43.4245 83.9219 45.728C85.4962 48.0315 86.3082 50.6996 86.358 53.7322H76.0419Z" fill="white"/>
<path d="M16.8378 43.9066L17.3889 41.6669L24.2682 43.3595C25.0406 43.5496 25.6711 43.9004 26.1596 44.4119C26.649 44.9199 26.9748 45.5431 27.1369 46.2815C27.2955 47.019 27.2671 47.8257 27.0516 48.7016C26.8352 49.5809 26.4857 50.3104 26.0029 50.8902C25.5167 51.469 24.939 51.87 24.2698 52.0929C23.6005 52.3159 22.8797 52.3324 22.1073 52.1424L15.2279 50.4497L15.779 48.2101L22.4669 49.8556C22.8704 49.9549 23.2507 49.9552 23.6077 49.8565C23.9656 49.7544 24.2741 49.5633 24.5332 49.2833C24.7923 49.0033 24.9748 48.6478 25.0809 48.2167C25.1878 47.7822 25.191 47.3826 25.0906 47.0178C24.991 46.6495 24.806 46.3389 24.5355 46.0858C24.2658 45.8293 23.9292 45.6514 23.5258 45.5521L16.8378 43.9066Z" fill="white"/>
<path d="M27.5619 29.0949C27.1818 28.8899 26.8028 28.8548 26.4248 28.9897C26.0469 29.1245 25.703 29.4215 25.3931 29.8807C25.1826 30.1928 25.049 30.486 24.9924 30.7605C24.9327 31.033 24.9407 31.2783 25.0164 31.4964C25.094 31.7115 25.2299 31.8846 25.4242 32.0157C25.5821 32.1308 25.7463 32.1923 25.9166 32.2002C26.089 32.2051 26.264 32.1711 26.4417 32.0982C26.6164 32.0233 26.7948 31.9209 26.9767 31.7909C27.1557 31.6589 27.3338 31.5092 27.511 31.3417L28.2535 30.6603C28.6079 30.3254 28.97 30.0428 29.3396 29.8124C29.7093 29.582 30.0829 29.4186 30.4607 29.3222C30.8385 29.2258 31.2177 29.2097 31.5986 29.2738C31.9814 29.335 32.3622 29.4913 32.7409 29.7425C33.2924 30.1189 33.6769 30.5839 33.8945 31.1376C34.1111 31.6865 34.1545 32.2983 34.0247 32.9733C33.8939 33.6433 33.5803 34.3463 33.0838 35.0822C32.5912 35.8123 32.0503 36.3727 31.4612 36.7634C30.874 37.1512 30.2588 37.3487 29.6156 37.356C28.9715 37.3583 28.3191 37.1474 27.6586 36.7232L28.9069 34.873C29.224 35.057 29.5357 35.1409 29.8421 35.1249C30.1476 35.1039 30.4392 34.9987 30.717 34.8091C30.9939 34.6147 31.2435 34.3526 31.466 34.0229C31.6844 33.699 31.827 33.3861 31.8937 33.0841C31.9623 32.7792 31.9575 32.5039 31.879 32.2582C31.8006 32.0125 31.6525 31.8162 31.4346 31.6692C31.2315 31.5322 31.0201 31.4773 30.8003 31.5047C30.5825 31.5291 30.3475 31.6233 30.0955 31.7874C29.8454 31.9485 29.5694 32.1671 29.2675 32.4432L28.3558 33.2611C27.656 33.8984 26.9599 34.3048 26.2675 34.4802C25.5751 34.6557 24.8958 34.5165 24.2295 34.0627C23.68 33.6962 23.2999 33.2278 23.0893 32.6573C22.8808 32.0839 22.8364 31.4607 22.9564 30.7877C23.0763 30.1147 23.3587 29.4484 23.8036 28.789C24.2564 28.1178 24.7665 27.6095 25.3337 27.264C25.903 26.9155 26.4865 26.7394 27.0844 26.7359C27.6823 26.7323 28.2535 26.9078 28.7982 27.2624L27.5619 29.0949Z" fill="white"/>
<path d="M50.2615 20.2039L46.7312 21.7824L42.2783 11.8235L45.8379 10.2319C46.8396 9.78405 47.7911 9.59786 48.6923 9.67338C49.5921 9.74565 50.4024 10.066 51.1234 10.6344C51.8476 11.2014 52.4409 12.002 52.9033 13.0362C53.3671 14.0736 53.5696 15.0528 53.5107 15.9738C53.455 16.8933 53.1517 17.7155 52.6005 18.4404C52.0526 19.1639 51.273 19.7517 50.2615 20.2039ZM48.0301 19.0369L49.3674 18.439C49.9898 18.1607 50.4641 17.8164 50.7902 17.406C51.1181 16.991 51.2847 16.5023 51.2899 15.9398C51.2969 15.3726 51.1345 14.7178 50.8025 13.9754C50.4735 13.2395 50.096 12.6867 49.6701 12.317C49.2474 11.9459 48.7744 11.745 48.2512 11.7144C47.7279 11.6839 47.1551 11.8077 46.5327 12.086L45.1905 12.6861L48.0301 19.0369Z" fill="white"/>
<path d="M71.0592 10.5833C71.1133 11.7717 70.934 12.793 70.5214 13.6471C70.1123 14.5011 69.5311 15.1656 68.7778 15.6407C68.0278 16.1121 67.1722 16.3696 66.2108 16.4133C65.2423 16.4574 64.3632 16.277 63.5734 15.8721C62.7836 15.4672 62.1462 14.8581 61.6613 14.0448C61.1764 13.2315 60.907 12.2324 60.8531 11.0475C60.7991 9.85914 60.9766 8.83795 61.3856 7.98396C61.7947 7.12998 62.3742 6.46731 63.1242 5.99595C63.874 5.52105 64.7331 5.26158 65.7015 5.21752C66.6629 5.1738 67.5385 5.35437 68.3283 5.75924C69.1215 6.1604 69.7605 6.76764 70.2454 7.58097C70.7339 8.39413 71.0051 9.39491 71.0592 10.5833ZM68.7232 10.6896C68.6882 9.91977 68.5434 9.27583 68.2887 8.75774C68.0376 8.2395 67.6984 7.85324 67.2709 7.59896C66.8434 7.34468 66.3512 7.23021 65.7942 7.25555C65.2373 7.28088 64.7575 7.43956 64.3549 7.7316C63.9522 8.02363 63.6477 8.43918 63.4411 8.97824C63.2381 9.51714 63.1541 10.1715 63.1891 10.9413C63.2242 11.7111 63.3672 12.3551 63.6183 12.8734C63.8729 13.3914 64.214 13.7776 64.6414 14.0319C65.0689 14.2862 65.5611 14.4006 66.1181 14.3753C66.675 14.35 67.1548 14.1913 67.5575 13.8993C67.9601 13.6072 68.2629 13.1918 68.4659 12.6529C68.6724 12.1138 68.7582 11.4594 68.7232 10.6896Z" fill="white"/>
<path d="M77.7553 17.1307L81.0502 6.7311L83.2489 7.42771L80.5284 16.0145L84.9869 17.4271L84.4125 19.2399L77.7553 17.1307Z" fill="white"/>
<path d="M90.3197 22.1889L96.7026 13.342L98.5731 14.6915L93.3028 21.9962L97.0956 24.7326L95.9829 26.2748L90.3197 22.1889Z" fill="white"/>
<path d="M101.815 32.3594L100.433 30.3105L111.583 27.3311L113.245 29.7951L106.305 39.0139L104.923 36.965L110.371 29.9927L110.323 29.922L101.815 32.3594ZM105.284 29.8332L108.549 34.6728L107.056 35.6797L103.791 30.8401L105.284 29.8332Z" fill="white"/>
<path d="M108.831 45.1616L119.453 42.6757L120.434 46.8665C120.622 47.6687 120.638 48.3869 120.484 49.0211C120.334 49.658 120.033 50.1862 119.58 50.6058C119.132 51.028 118.557 51.3212 117.855 51.4855C117.15 51.6505 116.507 51.6404 115.928 51.4551C115.352 51.2689 114.861 50.9187 114.456 50.4044C114.052 49.8935 113.755 49.2301 113.564 48.4141L112.907 45.6081L114.712 45.1857L115.284 47.6286C115.384 48.0574 115.526 48.3998 115.71 48.6558C115.894 48.9118 116.12 49.0814 116.387 49.1647C116.656 49.2515 116.964 49.254 117.314 49.1722C117.666 49.0897 117.947 48.9492 118.156 48.7508C118.366 48.5559 118.499 48.3003 118.556 47.9842C118.618 47.6707 118.598 47.2979 118.497 46.8657L118.143 45.3512L109.357 47.4074L108.831 45.1616ZM115.007 49.7667L110.791 53.5379L110.211 51.0587L114.44 47.3445L115.007 49.7667Z" fill="white"/>
<path d="M28.7274 90.1678L29.9338 92.1336L23.8957 95.8393C23.2178 96.2554 22.5252 96.4575 21.818 96.4457C21.1126 96.437 20.4403 96.2309 19.801 95.8274C19.1648 95.422 18.6107 94.835 18.1389 94.0662C17.6653 93.2945 17.3918 92.5332 17.3185 91.7823C17.2482 91.0296 17.3688 90.3369 17.6804 89.704C17.992 89.0711 18.4868 88.5466 19.1647 88.1305L25.2028 84.4249L26.4092 86.3906L20.5391 89.9932C20.185 90.2106 19.9176 90.4809 19.7369 90.8043C19.5581 91.1307 19.4773 91.4845 19.4945 91.8656C19.5117 92.2467 19.6364 92.6264 19.8686 93.0047C20.1027 93.386 20.3848 93.6692 20.7149 93.854C21.0469 94.042 21.3979 94.1286 21.7681 94.1139C22.1401 94.1022 22.5032 93.9878 22.8573 93.7704L28.7274 90.1678Z" fill="white"/>
<path d="M34.9719 101.849C35.2336 101.506 35.3273 101.137 35.253 100.743C35.1788 100.348 34.939 99.9622 34.5336 99.5846C34.2582 99.328 33.9893 99.1503 33.727 99.0516C33.4672 98.9502 33.2236 98.9199 32.9964 98.9606C32.7718 99.0037 32.5796 99.111 32.4199 99.2825C32.2815 99.4206 32.1952 99.5732 32.161 99.7402C32.1293 99.9097 32.1356 100.088 32.1799 100.275C32.2266 100.459 32.3 100.651 32.4 100.851C32.5025 101.048 32.6226 101.248 32.7604 101.449L33.3178 102.288C33.5934 102.691 33.8161 103.092 33.9861 103.493C34.1561 103.894 34.2593 104.289 34.2956 104.677C34.332 105.065 34.2888 105.443 34.1661 105.809C34.046 106.177 33.8323 106.529 33.5251 106.864C33.0674 107.35 32.5481 107.658 31.9672 107.786C31.3914 107.915 30.7802 107.862 30.1337 107.629C29.4923 107.395 28.8468 106.976 28.1972 106.371C27.5528 105.77 27.0836 105.149 26.7894 104.506C26.4979 103.865 26.3987 103.227 26.4917 102.591C26.5898 101.954 26.8998 101.342 27.4217 100.756L29.0548 102.277C28.8236 102.562 28.6921 102.857 28.6602 103.162C28.6333 103.467 28.6918 103.771 28.8358 104.075C28.9847 104.379 29.2047 104.667 29.4957 104.938C29.7815 105.204 30.0684 105.394 30.3563 105.506C30.6468 105.622 30.9196 105.66 31.1745 105.621C31.4294 105.582 31.6464 105.466 31.8255 105.274C31.9925 105.094 32.0796 104.894 32.0869 104.673C32.0967 104.454 32.0402 104.207 31.9174 103.932C31.7973 103.66 31.6243 103.353 31.3987 103.012L30.7329 101.984C30.2124 101.194 29.9195 100.443 29.8541 99.7314C29.7887 99.0202 30.032 98.3708 30.5841 97.7834C31.0317 97.2977 31.5537 96.9953 32.15 96.8762C32.7489 96.7595 33.3714 96.8129 34.0175 97.0362C34.6636 97.2596 35.2777 97.6424 35.8597 98.1846C36.4521 98.7365 36.8748 99.3195 37.1277 99.9337C37.3832 100.55 37.4661 101.154 37.3765 101.745C37.2869 102.336 37.0245 102.873 36.5893 103.356L34.9719 101.849Z" fill="white"/>
<path d="M49.0699 118.774L45.4023 117.548L48.8616 107.202L52.5595 108.438C53.6002 108.786 54.4268 109.293 55.0393 109.958C55.6529 110.62 56.0329 111.404 56.1792 112.311C56.3288 113.218 56.224 114.209 55.8648 115.284C55.5045 116.361 54.991 117.219 54.3245 117.858C53.6614 118.497 52.8817 118.897 51.9854 119.058C51.0925 119.22 50.1206 119.125 49.0699 118.774ZM48.2164 116.405L49.6056 116.87C50.2522 117.086 50.8344 117.153 51.3522 117.072C51.8745 116.988 52.3278 116.741 52.7122 116.33C53.1012 115.917 53.4246 115.325 53.6824 114.554C53.9381 113.789 54.0341 113.127 53.9706 112.566C53.9105 112.007 53.6981 111.539 53.3335 111.163C52.9689 110.786 52.4633 110.49 51.8166 110.274L50.4223 109.807L48.2164 116.405Z" fill="white"/>
<path d="M71.4558 116.709C71.4143 117.898 71.1536 118.901 70.6738 119.72C70.1975 120.538 69.5649 121.154 68.7758 121.567C67.9905 121.976 67.1169 122.165 66.1551 122.131C65.1863 122.097 64.3244 121.847 63.5697 121.38C62.8149 120.913 62.2285 120.255 61.8104 119.405C61.3924 118.555 61.204 117.538 61.2454 116.353C61.2869 115.164 61.5457 114.16 62.022 113.342C62.4983 112.523 63.1291 111.909 63.9145 111.499C64.7 111.086 65.5771 110.897 66.546 110.93C67.5078 110.964 68.3661 111.214 69.1208 111.681C69.8793 112.145 70.4675 112.801 70.8856 113.651C71.3072 114.501 71.4973 115.52 71.4558 116.709ZM69.1188 116.627C69.1457 115.857 69.053 115.204 68.8407 114.667C68.6321 114.13 68.3249 113.718 67.9192 113.43C67.5135 113.142 67.032 112.989 66.4749 112.969C65.9177 112.95 65.4267 113.07 65.0019 113.328C64.5772 113.587 64.2402 113.977 63.9911 114.498C63.7455 115.018 63.6092 115.664 63.5824 116.434C63.5555 117.204 63.6464 117.858 63.8551 118.394C64.0673 118.931 64.3763 119.344 64.782 119.631C65.1877 119.919 65.6691 120.073 66.2263 120.092C66.7835 120.112 67.2745 119.992 67.6992 119.733C68.124 119.474 68.4592 119.084 68.7048 118.564C68.9539 118.043 69.0919 117.397 69.1188 116.627Z" fill="white"/>
<path d="M78.5923 121.23L76.0473 110.622L78.2901 110.084L80.3915 118.843L84.9393 117.752L85.3829 119.601L78.5923 121.23Z" fill="white"/>
<path d="M92.2965 117.034L87.2623 107.356L89.3085 106.291L93.4651 114.282L97.6142 112.124L98.4918 113.811L92.2965 117.034Z" fill="white"/>
<path d="M106.058 108.426L104.25 110.11L99.5692 99.5611L101.744 97.5351L111.932 102.954L110.123 104.638L102.387 100.343L102.325 100.401L106.058 108.426ZM103.022 105.393L107.294 101.414L108.521 102.731L104.25 106.711L103.022 105.393Z" fill="white"/>
<path d="M116.578 97.0447L107.231 91.4198L109.451 87.732C109.875 87.0261 110.364 86.4997 110.917 86.1526C111.469 85.8007 112.053 85.6322 112.67 85.647C113.285 85.6569 113.902 85.8478 114.52 86.2195C115.141 86.593 115.594 87.0482 115.88 87.5851C116.163 88.1202 116.271 88.7132 116.202 89.3642C116.135 90.0121 115.886 90.6951 115.454 91.4131L113.968 93.8823L112.38 92.9265L113.673 90.7768C113.9 90.3995 114.037 90.055 114.084 89.7433C114.131 89.4315 114.087 89.1525 113.954 88.9063C113.822 88.657 113.602 88.4399 113.295 88.255C112.985 88.0682 112.685 87.9732 112.397 87.9697C112.111 87.9633 111.837 88.0534 111.576 88.24C111.313 88.4217 111.067 88.7028 110.838 89.0831L110.036 90.4158L117.768 95.0684L116.578 97.0447ZM115.362 89.4371L121.014 89.6738L119.701 91.8554L114.08 91.5685L115.362 89.4371Z" fill="white"/>
</g>
<defs>
<filter id="filter0_d_4143_130" x="0" y="0" width="136" height="136" filterUnits="userSpaceOnUse" color-interpolation-filters="sRGB">
<feFlood flood-opacity="0" result="BackgroundImageFix"/>
<feColorMatrix in="SourceAlpha" type="matrix" values="0 0 0 0 0 0 0 0 0 0 0 0 0 0 0 0 0 0 127 0" result="hardAlpha"/>
<feOffset dy="4"/>
<feGaussianBlur stdDeviation="2"/>
<feComposite in2="hardAlpha" operator="out"/>
<feColorMatrix type="matrix" values="0 0 0 0 0 0 0 0 0 0 0 0 0 0 0 0 0 0 0.25 0"/>
<feBlend mode="normal" in2="BackgroundImageFix" result="effect1_dropShadow_4143_130"/>
<feBlend mode="normal" in="SourceGraphic" in2="effect1_dropShadow_4143_130" result="shape"/>
</filter>
</defs>
</svg>
