<svg width="136" height="136" viewBox="0 0 136 136" fill="none" xmlns="http://www.w3.org/2000/svg">
<g filter="url(#filter0_d_4145_738)">
<circle cx="68" cy="64" r="64" fill="#0F73A5"/>
<circle cx="68" cy="64" r="40" fill="#2FC1F4"/>
<path d="M63.6399 69.8005H72.7876L77.3864 75.7167L81.9105 80.9866L90.4368 91.6755H80.3942L74.5277 84.4667L71.5199 80.1912L63.6399 69.8005ZM91.2074 62.0448C91.2074 67.5965 90.1551 72.3195 88.0504 76.2139C85.9624 80.1083 83.112 83.083 79.4993 85.1379C75.9032 87.1762 71.8596 88.1954 67.3686 88.1954C62.8445 88.1954 58.7843 87.168 55.1882 85.113C51.5921 83.0581 48.75 80.0834 46.6619 76.189C44.5739 72.2946 43.5298 67.5799 43.5298 62.0448C43.5298 56.4932 44.5739 51.7702 46.6619 47.8758C48.75 43.9814 51.5921 41.015 55.1882 38.9767C58.7843 36.9217 62.8445 35.8943 67.3686 35.8943C71.8596 35.8943 75.9032 36.9217 79.4993 38.9767C83.112 41.015 85.9624 43.9814 88.0504 47.8758C90.1551 51.7702 91.2074 56.4932 91.2074 62.0448ZM80.2947 62.0448C80.2947 58.4487 79.7562 55.4161 78.679 52.9468C77.6184 50.4776 76.1186 48.605 74.1797 47.3289C72.2408 46.0529 69.9704 45.4149 67.3686 45.4149C64.7668 45.4149 62.4964 46.0529 60.5575 47.3289C58.6186 48.605 57.1106 50.4776 56.0334 52.9468C54.9728 55.4161 54.4425 58.4487 54.4425 62.0448C54.4425 65.641 54.9728 68.6736 56.0334 71.1429C57.1106 73.6121 58.6186 75.4847 60.5575 76.7608C62.4964 78.0368 64.7668 78.6748 67.3686 78.6748C69.9704 78.6748 72.2408 78.0368 74.1797 76.7608C76.1186 75.4847 77.6184 73.6121 78.679 71.1429C79.7562 68.6736 80.2947 65.641 80.2947 62.0448Z" fill="#F7F6FB"/>
<path d="M14.9556 62.6436C14.6934 62.7066 14.4602 62.8011 14.2558 62.9271C14.0479 63.053 13.8707 63.2104 13.7241 63.3994C13.5741 63.5847 13.4566 63.7998 13.3717 64.0449C13.2868 64.2864 13.2381 64.5561 13.2255 64.8542C13.202 65.4112 13.3197 65.907 13.5786 66.3415C13.8377 66.7724 14.2266 67.1167 14.7453 67.3744C15.2605 67.6319 15.8977 67.7775 16.6568 67.8112C17.416 67.845 18.0666 67.7584 18.6084 67.5514C19.1503 67.3444 19.5703 67.0361 19.8684 66.6263C20.1629 66.2164 20.3223 65.7241 20.3465 65.1493C20.3686 64.6277 20.2951 64.1784 20.1262 63.8012C19.9539 63.4203 19.7016 63.1247 19.3692 62.9144C19.037 62.7006 18.6386 62.5834 18.1738 62.5627L18.2628 62.0974L18.1442 64.9074L16.4094 64.8304L16.6018 60.2694L17.9748 60.3304C18.9326 60.373 19.7472 60.6118 20.4183 61.0469C21.086 61.4818 21.5911 62.0623 21.9336 62.7884C22.2726 63.5144 22.4228 64.3351 22.3842 65.2505C22.3411 66.2723 22.078 67.1599 21.5948 67.9134C21.108 68.6667 20.4387 69.2412 19.5867 69.637C18.7314 70.0291 17.729 70.1996 16.5796 70.1485C15.6962 70.1093 14.914 69.9466 14.233 69.6604C13.5486 69.3705 12.975 68.9824 12.5121 68.4962C12.0492 68.0099 11.7049 67.4526 11.479 66.824C11.2532 66.1955 11.1555 65.5211 11.1859 64.8008C11.2119 64.1835 11.3266 63.6127 11.53 63.0886C11.7298 62.5643 12.0016 62.1036 12.3454 61.7065C12.6893 61.3059 13.092 60.9843 13.5537 60.7418C14.0117 60.4991 14.512 60.3525 15.0544 60.302L14.9556 62.6436Z" fill="white"/>
<path d="M16.2555 42.8848L17.1001 40.7386L23.6447 43.4515C24.3795 43.7561 24.9529 44.1994 25.3648 44.7814C25.7781 45.3601 26.0147 46.029 26.0747 46.7879C26.1314 47.5456 25.9946 48.344 25.6642 49.1833C25.3326 50.026 24.8901 50.6996 24.3366 51.2043C23.7798 51.7076 23.1569 52.0202 22.468 52.142C21.779 52.2638 21.0671 52.1725 20.3323 51.8679L13.7878 49.155L14.6324 47.0088L20.9949 49.6462C21.3787 49.8053 21.753 49.8624 22.1179 49.8176C22.484 49.7695 22.8135 49.6256 23.1064 49.3856C23.3992 49.1457 23.6269 48.8193 23.7894 48.4062C23.9533 47.9899 24.0104 47.5927 23.9608 47.2146C23.9124 46.8333 23.7722 46.4965 23.54 46.2042C23.3091 45.9087 23.0017 45.6813 22.6179 45.5222L16.2555 42.8848Z" fill="white"/>
<path d="M31.7677 37.4449L30.1536 39.3166L24.5376 29.13L26.4787 26.8791L37.01 31.3657L35.396 33.2374L27.3814 29.6484L27.3257 29.7129L31.7677 37.4449ZM28.4927 34.6789L32.3053 30.2576L33.638 31.4681L29.8254 35.8894L28.4927 34.6789Z" fill="white"/>
<path d="M37.6962 19.1413L36.7932 17.4677L44.5826 13.0408L45.4856 14.7143L42.582 16.3646L46.8593 24.2916L44.8773 25.4181L40.5999 17.491L37.6962 19.1413Z" fill="white"/>
<path d="M56.5101 20.0511L54.5449 9.32049L61.7627 7.92827L62.1053 9.79879L57.1522 10.7542L57.6204 13.3111L62.2022 12.4273L62.5447 14.2979L57.963 15.1816L58.4322 17.7438L63.4062 16.7843L63.7488 18.6549L56.5101 20.0511Z" fill="white"/>
<path d="M72.8161 7.31589L75.6198 7.79543L77.4063 15.5367L77.5323 15.5582L81.6684 8.82995L84.4721 9.30948L82.7235 20.0775L80.5183 19.7004L81.6565 12.6917L81.5672 12.6764L77.6549 19.1566L76.1532 18.8997L74.5043 11.4414L74.4151 11.4261L73.2727 18.4611L71.0675 18.0839L72.8161 7.31589Z" fill="white"/>
<path d="M90.6951 23.6796L88.5856 22.3916L97.2711 14.9162L99.8079 16.4652L97.5463 27.8628L95.4368 26.5748L97.3256 17.8696L97.2529 17.8252L90.6951 23.6796ZM92.7138 19.8893L97.6965 22.9317L96.7935 24.4893L91.8108 21.447L92.7138 19.8893Z" fill="white"/>
<path d="M102.579 32.589L110.73 25.3384L112.219 27.1005L105.488 33.0872L108.506 36.6602L107.085 37.9241L102.579 32.589Z" fill="white"/>
<path d="M111.492 45.4542L110.563 43.1636L122.011 42.3707L123.128 45.1254L114.507 52.8937L113.579 50.6031L120.293 44.7663L120.261 44.6873L111.492 45.4542ZM115.377 43.6275L117.57 49.0381L115.915 49.7449L113.722 44.3344L115.377 43.6275Z" fill="white"/>
<path d="M127.311 68.4216L116.413 68.9059L116.329 66.9155L122.988 61.8688L122.985 61.7889L116.126 62.0938L116.028 59.7894L126.927 59.3051L127.012 61.3274L120.357 66.3366L120.361 66.4324L127.215 66.1278L127.311 68.4216Z" fill="white"/>
<path d="M29.3123 98.293L30.386 99.933L29.8821 101.477L29.4835 102.929L28.5987 105.758L27.4199 103.958L28.003 102.029L28.4042 100.97L29.3123 98.293ZM33.9162 102.292C32.9369 102.967 31.9802 103.353 31.0461 103.449C30.114 103.549 29.2547 103.4 28.4682 103.002C27.6865 102.605 27.0321 102.004 26.5049 101.199C25.9739 100.388 25.6786 99.5352 25.619 98.6405C25.5594 97.7458 25.7506 96.8744 26.1925 96.0263C26.6344 95.1782 27.3436 94.4175 28.32 93.7442C29.2994 93.0688 30.2551 92.6815 31.1872 92.5821C32.1193 92.4827 32.9762 92.6314 33.7579 93.0281C34.5425 93.4228 35.2003 94.0257 35.7313 94.8368C36.2585 95.642 36.5518 96.4919 36.6114 97.3866C36.6759 98.2822 36.4871 99.1541 36.0452 100.002C35.6053 100.853 34.8956 101.616 33.9162 102.292ZM32.6353 100.335C33.2697 99.8979 33.7415 99.4324 34.0507 98.939C34.3618 98.4484 34.5161 97.9518 34.5136 97.4489C34.5111 96.9461 34.3572 96.4614 34.0518 95.995C33.7464 95.5285 33.3674 95.1991 32.9147 95.0067C32.462 94.8144 31.9546 94.7718 31.3926 94.8791C30.8325 94.9893 30.2353 95.2631 29.6009 95.7006C28.9665 96.1381 28.4938 96.602 28.1827 97.0926C27.8735 97.5861 27.7202 98.0842 27.7226 98.5871C27.7251 99.0899 27.8791 99.5745 28.1844 100.041C28.4898 100.507 28.8689 100.837 29.3216 101.029C29.7742 101.222 30.2806 101.263 30.8407 101.152C31.4027 101.045 32.001 100.773 32.6353 100.335Z" fill="white"/>
<path d="M46.5585 106.147L48.3976 107.539L44.2636 113.293C43.7994 113.939 43.2418 114.389 42.5907 114.644C41.9424 114.902 41.2504 114.961 40.5148 114.823C39.7812 114.682 39.0549 114.339 38.3356 113.795C37.6136 113.248 37.0785 112.636 36.7304 111.959C36.3843 111.278 36.2353 110.582 36.2833 109.871C36.3312 109.159 36.5873 108.48 37.0515 107.834L41.1855 102.081L43.0247 103.473L39.0056 109.066C38.7632 109.404 38.6199 109.758 38.5757 110.13C38.5344 110.504 38.5929 110.866 38.7513 111.218C38.9098 111.569 39.1659 111.879 39.5199 112.147C39.8767 112.417 40.2406 112.576 40.6117 112.626C40.9856 112.677 41.3391 112.626 41.6721 112.473C42.0079 112.322 42.297 112.078 42.5395 111.741L46.5585 106.147Z" fill="white"/>
<path d="M48.725 119.755L52.0009 109.349L58.9782 111.663L58.4071 113.477L53.6191 111.889L52.8385 114.368L57.2676 115.837L56.6966 117.651L52.2675 116.182L51.4853 118.667L56.2936 120.261L55.7226 122.075L48.725 119.755Z" fill="white"/>
<path d="M63.1226 114.483L63.1033 112.581L72.0623 112.486L72.0816 114.387L68.742 114.423L68.8334 123.43L66.5537 123.454L66.4623 114.447L63.1226 114.483Z" fill="white"/>
<path d="M79.8131 122.149L79.3622 120.856L81.9566 111.767L76.8366 113.648L76.2103 111.852L84.0503 108.972L84.5011 110.265L81.9018 119.356L87.0268 117.473L87.653 119.269L79.8131 122.149Z" fill="white"/>
<path d="M96.4077 114.203L94.5177 115.796L90.582 104.851L92.8549 102.936L102.546 109.03L100.656 110.623L93.3085 105.812L93.2433 105.867L96.4077 114.203ZM93.6106 110.955L98.0749 107.192L99.1997 108.598L94.7354 112.36L93.6106 110.955Z" fill="white"/>
<path d="M107.529 103.102L98.3574 97.1955L99.5606 95.2277L107.134 100.105L109.573 96.1144L111.172 97.144L107.529 103.102Z" fill="white"/>
</g>
<defs>
<filter id="filter0_d_4145_738" x="0" y="0" width="136" height="136" filterUnits="userSpaceOnUse" color-interpolation-filters="sRGB">
<feFlood flood-opacity="0" result="BackgroundImageFix"/>
<feColorMatrix in="SourceAlpha" type="matrix" values="0 0 0 0 0 0 0 0 0 0 0 0 0 0 0 0 0 0 127 0" result="hardAlpha"/>
<feOffset dy="4"/>
<feGaussianBlur stdDeviation="2"/>
<feComposite in2="hardAlpha" operator="out"/>
<feColorMatrix type="matrix" values="0 0 0 0 0 0 0 0 0 0 0 0 0 0 0 0 0 0 0.25 0"/>
<feBlend mode="normal" in2="BackgroundImageFix" result="effect1_dropShadow_4145_738"/>
<feBlend mode="normal" in="SourceGraphic" in2="effect1_dropShadow_4145_738" result="shape"/>
</filter>
</defs>
</svg>
