<svg width="136" height="136" viewBox="0 0 136 136" fill="none" xmlns="http://www.w3.org/2000/svg">
<g filter="url(#filter0_d_4143_260)">
<circle cx="68" cy="64" r="64" fill="#0F73A5"/>
<circle cx="68" cy="64" r="40" fill="#2FC1F4"/>
<path d="M39.1605 80V43.6364H53.5071C56.2533 43.6364 58.5971 44.1276 60.5384 45.1101C62.4915 46.0807 63.977 47.4598 64.995 49.2472C66.0249 51.0227 66.5398 53.112 66.5398 55.5149C66.5398 57.9297 66.0189 60.0071 64.9773 61.7472C63.9356 63.4754 62.4264 64.8011 60.4496 65.7244C58.4846 66.6477 56.1054 67.1094 53.3118 67.1094H43.706V60.9304H52.0689C53.5367 60.9304 54.7559 60.7292 55.7266 60.3267C56.6972 59.9242 57.4193 59.3205 57.8928 58.5156C58.3781 57.7107 58.6207 56.7105 58.6207 55.5149C58.6207 54.3075 58.3781 53.2895 57.8928 52.4609C57.4193 51.6323 56.6913 51.005 55.7088 50.5788C54.7382 50.1409 53.513 49.9219 52.0334 49.9219H46.8487V80H39.1605ZM58.7983 63.4517L67.8359 80H59.3487L50.5064 63.4517H58.7983ZM71.831 90.2273V52.7273H79.2884V57.3082H79.6257C79.9571 56.5743 80.4366 55.8286 81.0639 55.071C81.7031 54.3016 82.5317 53.6624 83.5497 53.1534C84.5795 52.6326 85.858 52.3722 87.3849 52.3722C89.3736 52.3722 91.2083 52.893 92.8892 53.9347C94.5701 54.9645 95.9136 56.5211 96.9197 58.6044C97.9259 60.6759 98.429 63.2741 98.429 66.3991C98.429 69.4413 97.9377 72.0099 96.9553 74.1051C95.9846 76.1884 94.6589 77.7687 92.978 78.8459C91.3089 79.9112 89.4387 80.4439 87.3672 80.4439C85.8994 80.4439 84.6506 80.2012 83.6207 79.7159C82.6027 79.2306 81.7682 78.621 81.1172 77.8871C80.4661 77.1413 79.969 76.3897 79.6257 75.6321H79.3949V90.2273H71.831ZM79.2351 66.3636C79.2351 67.9853 79.46 69.3999 79.9098 70.6072C80.3596 71.8146 81.0107 72.7557 81.8629 73.4304C82.7152 74.0933 83.7509 74.4247 84.9702 74.4247C86.2012 74.4247 87.2429 74.0874 88.0952 73.4126C88.9474 72.7261 89.5926 71.7791 90.0305 70.5717C90.4804 69.3525 90.7053 67.9498 90.7053 66.3636C90.7053 64.7893 90.4863 63.4044 90.0483 62.2088C89.6103 61.0133 88.9652 60.0781 88.1129 59.4034C87.2607 58.7287 86.2131 58.3913 84.9702 58.3913C83.7391 58.3913 82.6974 58.7169 81.8452 59.3679C81.0047 60.0189 80.3596 60.9422 79.9098 62.1378C79.46 63.3333 79.2351 64.742 79.2351 66.3636Z" fill="white"/>
<path d="M11.3608 58.6478L22.229 59.5912L22.0295 61.889L11.1613 60.9456L11.3608 58.6478Z" fill="white"/>
<path d="M16.4322 39.8759L26.5999 43.8289L25.878 45.6857L17.7587 47.6213L17.7298 47.6958L24.1292 50.1837L23.2935 52.3335L13.1258 48.3805L13.8593 46.4939L21.9601 44.5911L21.9948 44.5018L15.6003 42.0157L16.4322 39.8759Z" fill="white"/>
<path d="M32.9265 34.5112L30.3819 37.4233L22.1672 30.245L24.7329 27.3089C25.4549 26.4826 26.2409 25.915 27.0909 25.6061C27.9382 25.2949 28.8082 25.2464 29.701 25.4606C30.5961 25.6721 31.4701 26.1506 32.3232 26.896C33.1789 27.6437 33.7729 28.4481 34.1052 29.3091C34.4398 30.1674 34.5087 31.0411 34.3118 31.9301C34.1173 32.8165 33.6556 33.6769 32.9265 34.5112ZM30.4115 34.3861L31.3753 33.283C31.824 32.7696 32.1104 32.2583 32.2347 31.7491C32.3586 31.2349 32.3052 30.7213 32.0743 30.2084C31.8431 29.6904 31.4214 29.1639 30.809 28.6288C30.202 28.0983 29.6277 27.7545 29.0861 27.5972C28.5468 27.4372 28.0332 27.4529 27.5452 27.6443C27.0573 27.8357 26.589 28.1881 26.1404 28.7015L25.173 29.8086L30.4115 34.3861Z" fill="white"/>
<path d="M47.4882 16.8098C48.0641 17.8507 48.3566 18.8455 48.3659 19.794C48.3783 20.7409 48.1524 21.5943 47.6881 22.3543C47.2252 23.1095 46.5727 23.72 45.7306 24.1859C44.8823 24.6551 44.0144 24.8836 43.127 24.8713C42.2395 24.8589 41.398 24.596 40.6026 24.0823C39.8071 23.5686 39.1223 22.7929 38.5482 21.755C37.9724 20.714 37.6783 19.7201 37.6659 18.7733C37.6535 17.8265 37.8787 16.9754 38.3416 16.2202C38.8027 15.4619 39.4575 14.8481 40.3058 14.3789C41.1479 13.9131 42.0127 13.6863 42.9002 13.6986C43.789 13.7061 44.6311 13.9667 45.4266 14.4804C46.2252 14.9923 46.9124 15.7688 47.4882 16.8098ZM45.442 17.9416C45.069 17.2673 44.6534 16.7545 44.1954 16.4033C43.7404 16.0503 43.2649 15.8547 42.769 15.8165C42.2731 15.7784 41.7812 15.8942 41.2933 16.1641C40.8054 16.4339 40.4459 16.7891 40.2147 17.2295C39.9835 17.6698 39.8949 18.1774 39.9491 18.7521C40.0063 19.3251 40.2214 19.9488 40.5944 20.6231C40.9674 21.2974 41.3814 21.8111 41.8364 22.1641C42.2945 22.5153 42.7715 22.7101 43.2674 22.7482C43.7634 22.7864 44.2552 22.6705 44.7431 22.4007C45.231 22.1308 45.5905 21.7757 45.8217 21.3353C46.0529 20.8949 46.1399 20.3882 46.0827 19.8152C46.0286 19.2405 45.815 18.6159 45.442 17.9416Z" fill="white"/>
<path d="M63.7488 7.34045L65.3506 18.1313L63.38 18.4238L57.6772 12.329L57.5981 12.3407L58.6063 19.1324L56.3249 19.4711L54.723 8.68027L56.7252 8.38305L62.3904 14.4781L62.4853 14.464L61.4778 7.67755L63.7488 7.34045Z" fill="white"/>
<path d="M72.7944 18.2914L74.849 7.57757L82.0683 8.96205L81.7102 10.8296L76.7561 9.87958L76.2665 12.4325L80.8492 13.3113L80.491 15.1789L75.9083 14.3001L75.4177 16.8582L80.3928 17.8123L80.0346 19.6799L72.7944 18.2914Z" fill="white"/>
<path d="M95.7998 18.0926C95.9705 17.696 95.9721 17.3154 95.8045 16.9508C95.6368 16.5862 95.3107 16.2698 94.8259 16.0016C94.4965 15.8194 94.1926 15.7122 93.9142 15.68C93.6375 15.6446 93.3939 15.6742 93.1833 15.7687C92.9759 15.865 92.8154 16.0157 92.702 16.2208C92.6012 16.3882 92.5544 16.5572 92.5617 16.7275C92.572 16.8996 92.6213 17.071 92.7095 17.2415C92.7995 17.409 92.9173 17.5776 93.0628 17.7474C93.21 17.9141 93.3749 18.0783 93.5573 18.2401L94.3015 18.9196C94.6663 19.2431 94.9798 19.5788 95.2418 19.9267C95.5039 20.2746 95.6996 20.6325 95.829 21.0002C95.9583 21.368 96.0078 21.7444 95.9775 22.1294C95.9502 22.5161 95.8282 22.9092 95.6112 23.3087C95.285 23.8911 94.8557 24.3151 94.3232 24.5807C93.7957 24.8448 93.19 24.942 92.5062 24.8722C91.8273 24.801 91.0994 24.5505 90.3226 24.1208C89.5519 23.6945 88.946 23.2052 88.5049 22.6527C88.0669 22.102 87.8159 21.5066 87.752 20.8666C87.6928 20.2251 87.8454 19.5568 88.2098 18.8614L90.1628 19.9417C90.0075 20.2738 89.9513 20.5918 89.9943 20.8956C90.0421 21.198 90.1727 21.4792 90.386 21.7392C90.6041 21.9978 90.8872 22.2234 91.2352 22.4159C91.577 22.605 91.9013 22.7195 92.208 22.7592C92.5178 22.8008 92.7916 22.7716 93.0294 22.6719C93.2672 22.5721 93.4497 22.4072 93.5769 22.1773C93.6955 21.9629 93.7315 21.7474 93.6849 21.5309C93.6414 21.3161 93.5268 21.0904 93.3411 20.8537C93.1586 20.6188 92.9165 20.3632 92.6149 20.0868L91.7199 19.2508C91.0233 18.6098 90.5572 17.9522 90.3214 17.278C90.0856 16.6038 90.1644 15.9148 90.5577 15.2112C90.8743 14.6315 91.3074 14.2116 91.8571 13.9516C92.4098 13.6932 93.0267 13.5941 93.7077 13.6543C94.3887 13.7144 95.0772 13.937 95.7732 14.3221C96.4817 14.714 97.0331 15.1772 97.4273 15.7118C97.8246 16.2481 98.0513 16.8139 98.1076 17.4091C98.1639 18.0043 98.0394 18.5888 97.7342 19.1626L95.7998 18.0926Z" fill="white"/>
<path d="M108.255 23.864L100.673 31.7077L99.0147 30.1047L106.597 22.261L108.255 23.864Z" fill="white"/>
<path d="M106.569 38.7417L105.345 36.5945L116.687 34.463L118.159 37.0451L110.545 45.7153L109.32 43.5681L115.278 37.0258L115.236 36.9518L106.569 38.7417ZM110.217 36.4837L113.109 41.5554L111.545 42.4471L108.653 37.3754L110.217 36.4837Z" fill="white"/>
<path d="M125.02 59.2524L114.25 60.9933L113.932 59.0267L119.953 53.2457L119.94 53.1668L113.162 54.2625L112.794 51.9856L123.563 50.2447L123.886 52.2429L117.865 57.9862L117.88 58.0809L124.653 56.986L125.02 59.2524Z" fill="white"/>
<path d="M31.5471 104.468L39.4348 96.9323L42.408 100.044C42.9772 100.64 43.3563 101.25 43.5455 101.875C43.7398 102.5 43.7485 103.108 43.5718 103.699C43.4 104.29 43.0536 104.835 42.5324 105.333C42.0086 105.833 41.45 106.151 40.8567 106.286C40.2659 106.418 39.6656 106.365 39.0556 106.128C38.4481 105.893 37.8549 105.472 37.276 104.867L35.2852 102.783L36.6255 101.502L38.3587 103.316C38.6629 103.635 38.9592 103.858 39.2477 103.985C39.5361 104.112 39.8167 104.143 40.0894 104.079C40.3646 104.018 40.6319 103.863 40.8912 103.615C41.1531 103.365 41.3236 103.101 41.4028 102.824C41.4844 102.55 41.4696 102.262 41.3584 101.961C41.2523 101.659 41.0458 101.348 40.7392 101.027L39.6647 99.9026L33.1404 106.136L31.5471 104.468ZM39.2064 105.299L37.4899 110.688L35.731 108.847L37.488 103.5L39.2064 105.299Z" fill="white"/>
<path d="M54.0093 108.197L56.0614 109.25L52.8268 115.553C52.4636 116.261 51.9768 116.793 51.3663 117.151C50.759 117.51 50.0775 117.683 49.3216 117.67C48.5674 117.654 47.789 117.44 46.9866 117.028C46.1809 116.615 45.5518 116.107 45.0991 115.503C44.6481 114.896 44.3913 114.242 44.3288 113.539C44.2663 112.836 44.4166 112.131 44.7798 111.424L48.0144 105.121L50.0664 106.174L46.9218 112.301C46.7321 112.671 46.644 113.041 46.6576 113.411C46.6744 113.783 46.7891 114.127 47.0018 114.444C47.2144 114.761 47.5182 115.02 47.9132 115.223C48.3112 115.427 48.6993 115.523 49.0775 115.509C49.4588 115.497 49.8038 115.389 50.1124 115.184C50.4243 114.981 50.675 114.694 50.8647 114.325L54.0093 108.197Z" fill="white"/>
<path d="M58.2211 121.143L59.7443 110.341L64.0062 110.942C64.8255 111.058 65.5014 111.313 66.034 111.707C66.567 112.098 66.9458 112.59 67.1704 113.185C67.3989 113.777 67.4626 114.431 67.3615 115.149C67.2603 115.866 67.0164 116.477 66.6296 116.982C66.2428 117.487 65.7342 117.851 65.1038 118.074C64.477 118.298 63.7486 118.351 62.9188 118.234L60.2024 117.851L60.4605 116.021L62.8076 116.352C63.2472 116.414 63.62 116.389 63.9262 116.278C64.2363 116.164 64.4808 115.981 64.6597 115.731C64.8425 115.477 64.959 115.172 65.0091 114.817C65.0596 114.458 65.0317 114.135 64.9252 113.848C64.8227 113.557 64.6377 113.317 64.3702 113.129C64.1032 112.937 63.7481 112.81 63.3051 112.748L61.7649 112.53L60.505 121.465L58.2211 121.143Z" fill="white"/>
<path d="M74.4129 110.863L75.8196 121.681L73.5324 121.979L72.1257 111.16L74.4129 110.863Z" fill="white"/>
<path d="M85.5143 119.312L83.2578 120.32L82.2452 108.824L84.9588 107.611L92.8431 116.037L90.5866 117.045L84.658 110.476L84.5802 110.511L85.5143 119.312ZM83.6238 115.46L88.9538 113.078L89.6884 114.722L84.3583 117.104L83.6238 115.46Z" fill="white"/>
<path d="M99.1812 111.712L91.4578 104.007L93.0867 102.375L96.2733 105.553L99.58 102.238L96.3934 99.0596L98.0185 97.4305L105.742 105.135L104.117 106.764L100.926 103.581L97.6197 106.896L100.81 110.079L99.1812 111.712Z" fill="white"/>
</g>
<defs>
<filter id="filter0_d_4143_260" x="0" y="0" width="136" height="136" filterUnits="userSpaceOnUse" color-interpolation-filters="sRGB">
<feFlood flood-opacity="0" result="BackgroundImageFix"/>
<feColorMatrix in="SourceAlpha" type="matrix" values="0 0 0 0 0 0 0 0 0 0 0 0 0 0 0 0 0 0 127 0" result="hardAlpha"/>
<feOffset dy="4"/>
<feGaussianBlur stdDeviation="2"/>
<feComposite in2="hardAlpha" operator="out"/>
<feColorMatrix type="matrix" values="0 0 0 0 0 0 0 0 0 0 0 0 0 0 0 0 0 0 0.25 0"/>
<feBlend mode="normal" in2="BackgroundImageFix" result="effect1_dropShadow_4143_260"/>
<feBlend mode="normal" in="SourceGraphic" in2="effect1_dropShadow_4143_260" result="shape"/>
</filter>
</defs>
</svg>
