<svg width="136" height="135" viewBox="0 0 136 135" fill="none" xmlns="http://www.w3.org/2000/svg">
<g filter="url(#filter0_d_4145_818)">
<ellipse cx="68" cy="63.4172" rx="64" ry="63.4172" fill="#0F73A5"/>
<ellipse cx="68" cy="63.4173" rx="40" ry="39.6358" fill="#2FC1F4"/>
<path d="M34.5803 53.6142H39.321L44.3281 65.8301H44.5412L49.5483 53.6142H54.2891V71.796H50.5604V59.9619H50.4094L45.7042 71.7072H43.1651L38.4599 59.9175H38.3089V71.796H34.5803V53.6142ZM63.5997 72.0624C62.197 72.0624 60.9896 71.7783 59.9775 71.2101C58.9714 70.636 58.1961 69.8251 57.6515 68.7776C57.107 67.7241 56.8348 66.4782 56.8348 65.04C56.8348 63.6373 57.107 62.4062 57.6515 61.3468C58.1961 60.2874 58.9625 59.4617 59.9509 58.8699C60.9452 58.278 62.1112 57.9821 63.4488 57.9821C64.3484 57.9821 65.1859 58.1271 65.9612 58.4171C66.7425 58.7012 67.4231 59.1303 68.0031 59.7044C68.589 60.2785 69.0448 61.0006 69.3703 61.8706C69.6958 62.7347 69.8586 63.7468 69.8586 64.9068V65.9455H58.344V63.6018H66.2986C66.2986 63.0573 66.1802 62.5749 65.9434 62.1547C65.7067 61.7345 65.3782 61.406 64.958 61.1692C64.5437 60.9266 64.0613 60.8053 63.5109 60.8053C62.9368 60.8053 62.4278 60.9384 61.9839 61.2048C61.546 61.4652 61.2027 61.8173 60.9541 62.2612C60.7055 62.6992 60.5783 63.1875 60.5724 63.7261V65.9544C60.5724 66.6291 60.6966 67.2121 60.9452 67.7033C61.1997 68.1946 61.5578 68.5734 62.0194 68.8397C62.4811 69.106 63.0286 69.2392 63.6618 69.2392C64.0821 69.2392 64.4668 69.18 64.816 69.0616C65.1652 68.9433 65.464 68.7657 65.7126 68.529C65.9612 68.2922 66.1506 68.0022 66.2808 67.6589L69.7787 67.8898C69.6011 68.7302 69.2371 69.4641 68.6867 70.0915C68.1422 70.7129 67.4379 71.1982 66.5738 71.5474C65.7156 71.8907 64.7242 72.0624 63.5997 72.0624ZM75.243 58.1597L77.7465 62.9271L80.3122 58.1597H84.1919L80.2412 64.9778L84.2984 71.796H80.4365L77.7465 67.0819L75.1009 71.796H71.1947L75.243 64.9778L71.3367 58.1597H75.243ZM92.5104 74.0687V51.3415H93.9664V74.0687H92.5104ZM96.3722 58.8433C96.3012 58.1271 95.9964 57.5708 95.4578 57.1742C94.9192 56.7777 94.1883 56.5794 93.265 56.5794C92.6376 56.5794 92.1079 56.6682 91.6759 56.8457C91.2438 57.0174 90.9124 57.2571 90.6816 57.5648C90.4566 57.8726 90.3442 58.2218 90.3442 58.6124C90.3324 58.9379 90.4004 59.222 90.5484 59.4647C90.7023 59.7074 90.9124 59.9175 91.1787 60.095C91.445 60.2667 91.7528 60.4176 92.102 60.5478C92.4512 60.6721 92.8241 60.7786 93.2206 60.8674L94.8541 61.258C95.6472 61.4356 96.3752 61.6723 97.0381 61.9683C97.701 62.2642 98.2751 62.6282 98.7604 63.0602C99.2457 63.4923 99.6215 64.0013 99.8879 64.5872C100.16 65.1732 100.299 65.8449 100.305 66.6025C100.299 67.7152 100.015 68.6799 99.4529 69.4967C98.8965 70.3075 98.0916 70.9378 97.0381 71.3876C95.9905 71.8315 94.7269 72.0535 93.2472 72.0535C91.7794 72.0535 90.501 71.8286 89.412 71.3788C88.3289 70.929 87.4826 70.2631 86.873 69.3812C86.2693 68.4935 85.9526 67.3956 85.923 66.0876H89.6428C89.6843 66.6972 89.8589 67.2062 90.1666 67.6146C90.4803 68.017 90.8976 68.3218 91.4184 68.529C91.9452 68.7302 92.54 68.8308 93.2029 68.8308C93.8539 68.8308 94.4191 68.7361 94.8985 68.5467C95.3838 68.3573 95.7597 68.094 96.026 67.7566C96.2923 67.4192 96.4255 67.0316 96.4255 66.5936C96.4255 66.1852 96.3042 65.8419 96.0615 65.5638C95.8248 65.2856 95.4756 65.0489 95.0139 64.8535C94.5582 64.6582 93.9989 64.4807 93.336 64.3209L91.3563 63.8237C89.8234 63.4508 88.613 62.8679 87.7252 62.0748C86.8374 61.2817 86.3965 60.2134 86.4024 58.8699C86.3965 57.769 86.6895 56.8073 87.2813 55.9846C87.8791 55.1619 88.6988 54.5197 89.7405 54.0581C90.7822 53.5964 91.9659 53.3656 93.2916 53.3656C94.6411 53.3656 95.8189 53.5964 96.825 54.0581C97.8371 54.5197 98.6243 55.1619 99.1865 55.9846C99.7488 56.8073 100.039 57.7602 100.057 58.8433H96.3722Z" fill="#F7F6FB"/>
<path d="M17.739 37.5645L19.6104 35.4223L27.1503 37.9318L27.2344 37.8355L23.6475 30.801L25.5189 28.6588L33.7992 35.7613L32.3274 37.4461L26.9379 32.8233L26.8783 32.8915L30.37 39.6058L29.3677 40.7531L22.1411 38.2737L22.0815 38.3419L27.4912 42.9821L26.0194 44.6669L17.739 37.5645Z" fill="white"/>
<path d="M39.6044 28.9108L32.4987 20.6334L38.1192 15.8959L39.3579 17.3388L35.5009 20.5898L37.194 22.5622L40.7619 19.5549L42.0005 20.9978L38.4327 24.005L40.1293 25.9815L44.0026 22.7167L45.2413 24.1596L39.6044 28.9108Z" fill="white"/>
<path d="M49.8163 9.5252L53.1089 12.3383L53.1896 12.3111L54.0762 8.0882L56.5443 7.25563L55.162 13.4783L60.1595 17.549L57.646 18.3969L54.3163 15.5906L54.2356 15.6179L53.3255 19.8543L50.8221 20.6988L52.2851 14.4488L47.3381 10.3612L49.8163 9.5252Z" fill="white"/>
<path d="M68.53 6.08444L68.6637 16.9927L66.3575 17.0205L66.2237 6.11222L68.53 6.08444Z" fill="white"/>
<path d="M87.2814 13.6085L85.0618 12.8895C85.1159 12.5897 85.1171 12.3083 85.0655 12.0452C85.0151 11.7788 84.918 11.5346 84.7744 11.3126C84.6307 11.0906 84.4445 10.8959 84.2155 10.7284C83.99 10.562 83.7285 10.4307 83.4313 10.3344C82.8941 10.1604 82.3823 10.142 81.8957 10.2793C81.4103 10.4132 80.9743 10.6975 80.5879 11.1322C80.2025 11.5635 79.8913 12.1384 79.6543 12.8567C79.4107 13.5952 79.3157 14.2513 79.3695 14.8249C79.4267 15.3996 79.6123 15.8797 79.9264 16.2651C80.2405 16.6505 80.6594 16.9281 81.183 17.0977C81.4769 17.1929 81.7617 17.2422 82.0372 17.2457C82.3162 17.2502 82.5781 17.21 82.823 17.1251C83.069 17.0368 83.2918 16.9055 83.4914 16.7313C83.6944 16.5581 83.8668 16.3415 84.0087 16.0814L86.2249 16.8105C86.0106 17.2674 85.7157 17.6795 85.3402 18.0469C84.9693 18.412 84.5339 18.7058 84.0342 18.9284C83.5389 19.1487 82.9927 19.2741 82.3956 19.3047C81.8029 19.3329 81.1738 19.2392 80.5083 19.0236C79.5827 18.7238 78.824 18.2465 78.2322 17.592C77.6439 16.9385 77.2693 16.1471 77.1084 15.2178C76.951 14.2896 77.0581 13.2624 77.4297 12.136C77.8024 11.0063 78.3324 10.1141 79.0195 9.4595C79.7066 8.8049 80.4835 8.38839 81.3501 8.20998C82.2177 8.0282 83.1076 8.08506 84.0198 8.38054C84.6211 8.57534 85.1507 8.84023 85.6086 9.17519C86.0698 9.51125 86.4464 9.90572 86.7382 10.3586C87.0311 10.8081 87.2258 11.3061 87.3223 11.8524C87.4221 12.3999 87.4085 12.9852 87.2814 13.6085Z" fill="white"/>
<path d="M92.4653 24.8511L90.6147 23.2128L100.74 17.6069L102.965 19.5772L98.4757 30.172L96.6251 28.5337L100.215 20.4718L100.151 20.4153L92.4653 24.8511ZM95.221 21.564L99.5922 25.4338L98.3866 26.771L94.0154 22.9012L95.221 21.564Z" fill="white"/>
<path d="M117.294 36.9477L108.244 43.0388L107.117 41.3956L110.13 33.6472L110.085 33.5813L104.389 37.4149L103.085 35.5125L112.135 29.4214L113.28 31.091L110.25 38.8057L110.304 38.8848L115.996 35.0541L117.294 36.9477Z" fill="white"/>
<path d="M46.6459 113.208L53.1106 104.479L56.6657 106.937C57.3491 107.41 57.8377 107.939 58.1315 108.524C58.4273 109.107 58.5362 109.709 58.4581 110.329C58.385 110.949 58.1338 111.549 57.7045 112.128C57.2752 112.708 56.7673 113.13 56.1809 113.395C55.5945 113.66 54.9648 113.746 54.2919 113.655C53.6219 113.565 52.9408 113.281 52.2485 112.803L49.9826 111.236L51.0779 109.757L53.0359 111.111C53.4025 111.364 53.7499 111.512 54.078 111.554C54.4111 111.595 54.7173 111.547 54.9967 111.41C55.2811 111.271 55.5296 111.058 55.7421 110.771C55.9568 110.482 56.0839 110.187 56.1236 109.888C56.1683 109.588 56.1146 109.295 55.9625 109.01C55.8124 108.721 55.5526 108.449 55.183 108.194L53.8983 107.305L48.551 114.525L46.6459 113.208Z" fill="white"/>
<path d="M60.3533 120.798L62.1793 110.067L69.4522 111.235L69.1339 113.106L64.143 112.304L63.7079 114.861L68.3246 115.602L68.0063 117.473L63.3896 116.732L62.9536 119.294L67.9656 120.099L67.6473 121.969L60.3533 120.798Z" fill="white"/>
<path d="M79.4959 112.534C79.3261 112.135 79.0506 111.867 78.6694 111.73C78.2882 111.593 77.8321 111.601 77.3011 111.756C76.9402 111.861 76.6515 112 76.435 112.174C76.2174 112.345 76.0699 112.538 75.9925 112.753C75.9186 112.967 75.9167 113.186 75.9871 113.41C76.0389 113.599 76.1292 113.751 76.258 113.865C76.3902 113.978 76.5488 114.064 76.734 114.121C76.9181 114.175 77.1223 114.21 77.3466 114.226C77.5698 114.239 77.8034 114.238 78.0475 114.222L79.0574 114.173C79.5455 114.142 80.0069 114.156 80.4414 114.215C80.876 114.273 81.2717 114.386 81.6287 114.553C81.9856 114.719 82.2934 114.948 82.5521 115.24C82.8142 115.53 83.0151 115.892 83.1549 116.325C83.3518 116.964 83.3621 117.565 83.1857 118.128C83.0117 118.686 82.6622 119.182 82.1372 119.616C81.6146 120.046 80.9277 120.385 80.0767 120.632C79.2324 120.878 78.4566 120.963 77.7492 120.887C77.0453 120.81 76.4386 120.57 75.9292 120.166C75.4221 119.758 75.0423 119.182 74.7898 118.437L76.9294 117.814C77.063 118.157 77.2551 118.42 77.5056 118.602C77.7585 118.781 78.0534 118.885 78.3902 118.917C78.7294 118.944 79.0897 118.903 79.4709 118.792C79.8454 118.683 80.1535 118.534 80.3951 118.345C80.6402 118.155 80.8089 117.941 80.9014 117.703C80.9938 117.465 81.0006 117.221 80.9218 116.969C80.8483 116.735 80.7167 116.559 80.527 116.44C80.3408 116.32 80.0973 116.243 79.7966 116.208C79.4993 116.172 79.1457 116.164 78.7356 116.183L77.5074 116.229C76.5586 116.272 75.7574 116.14 75.104 115.834C74.4506 115.528 74.0047 114.989 73.7662 114.218C73.5646 113.587 73.56 112.987 73.7523 112.416C73.948 111.844 74.3039 111.339 74.8199 110.9C75.336 110.461 75.9753 110.13 76.7378 109.908C77.514 109.683 78.233 109.618 78.8948 109.714C79.56 109.81 80.1284 110.046 80.5999 110.424C81.0714 110.802 81.4098 111.299 81.615 111.918L79.4959 112.534Z" fill="white"/>
<path d="M93.9902 104.795C94.8462 105.628 95.4123 106.492 95.6884 107.388C95.9672 108.28 95.9866 109.148 95.7467 109.989C95.5068 110.826 95.0408 111.576 94.3487 112.239C93.6515 112.906 92.8673 113.351 91.9963 113.574C91.1252 113.796 90.2286 113.769 89.3063 113.492C88.384 113.216 87.4961 112.662 86.6426 111.831C85.7866 110.998 85.2193 110.135 84.9405 109.242C84.6618 108.349 84.6424 107.485 84.8823 106.648C85.1197 105.809 85.5869 105.055 86.2841 104.388C86.9762 103.725 87.7578 103.282 88.6289 103.06C89.4999 102.833 90.3966 102.857 91.3189 103.134C92.2437 103.408 93.1342 103.961 93.9902 104.795ZM92.3084 106.405C91.7539 105.866 91.2033 105.49 90.6566 105.278C90.1124 105.064 89.5925 105.004 89.0969 105.099C88.6014 105.193 88.1531 105.433 87.7522 105.817C87.3512 106.201 87.0997 106.632 86.9977 107.109C86.8956 107.587 86.952 108.091 87.1667 108.62C87.384 109.147 87.7699 109.681 88.3244 110.221C88.8789 110.761 89.4282 111.138 89.9724 111.352C90.5192 111.563 91.0403 111.622 91.5359 111.527C92.0314 111.433 92.4797 111.193 92.8807 110.809C93.2816 110.425 93.5331 109.995 93.6352 109.517C93.7372 109.039 93.6796 108.537 93.4623 108.01C93.2476 107.48 92.8629 106.945 92.3084 106.405Z" fill="white"/>
</g>
<defs>
<filter id="filter0_d_4145_818" x="0" y="0" width="136" height="134.834" filterUnits="userSpaceOnUse" color-interpolation-filters="sRGB">
<feFlood flood-opacity="0" result="BackgroundImageFix"/>
<feColorMatrix in="SourceAlpha" type="matrix" values="0 0 0 0 0 0 0 0 0 0 0 0 0 0 0 0 0 0 127 0" result="hardAlpha"/>
<feOffset dy="4"/>
<feGaussianBlur stdDeviation="2"/>
<feComposite in2="hardAlpha" operator="out"/>
<feColorMatrix type="matrix" values="0 0 0 0 0 0 0 0 0 0 0 0 0 0 0 0 0 0 0.25 0"/>
<feBlend mode="normal" in2="BackgroundImageFix" result="effect1_dropShadow_4145_818"/>
<feBlend mode="normal" in="SourceGraphic" in2="effect1_dropShadow_4145_818" result="shape"/>
</filter>
</defs>
</svg>
