<svg width="136" height="136" viewBox="0 0 136 136" fill="none" xmlns="http://www.w3.org/2000/svg">
<g filter="url(#filter0_d_4143_316)">
<circle cx="68" cy="64" r="64" fill="#0F73A5"/>
<circle cx="68" cy="64" r="40" fill="#2FC1F4"/>
<path d="M36.6548 79V48.4545H48.706C51.0128 48.4545 52.9815 48.8672 54.6122 49.6925C56.2528 50.5078 57.5007 51.6662 58.3558 53.1676C59.2209 54.6591 59.6534 56.4141 59.6534 58.4325C59.6534 60.4609 59.2159 62.206 58.3409 63.6676C57.4659 65.1193 56.1982 66.233 54.5376 67.0085C52.8871 67.7841 50.8885 68.1719 48.5419 68.1719H40.473V62.9815H47.4979C48.7308 62.9815 49.755 62.8125 50.5703 62.4744C51.3857 62.1364 51.9922 61.6293 52.3899 60.9531C52.7976 60.277 53.0014 59.4368 53.0014 58.4325C53.0014 57.4183 52.7976 56.5632 52.3899 55.8672C51.9922 55.1712 51.3807 54.6442 50.5554 54.2862C49.7401 53.9183 48.7109 53.7344 47.468 53.7344H43.1129V79H36.6548ZM53.1506 65.0994L60.7422 79H53.6129L46.1854 65.0994H53.1506ZM64.2173 48.4545H72.1818L80.5938 68.9773H80.9517L89.3636 48.4545H97.3281V79H91.0639V59.1186H90.8104L82.9055 78.8509H78.6399L70.7351 59.044H70.4815V79H64.2173V48.4545Z" fill="white"/>
<path d="M12.2323 54.6336L13.0076 51.8968L20.8785 51.0041L20.9133 50.8811L14.6802 45.9928L15.4555 43.2561L25.9515 46.2295L25.3417 48.382L18.5101 46.4467L18.4854 46.5338L24.4963 51.1709L24.0811 52.6366L16.5055 53.4248L16.4809 53.5119L23.3381 55.4545L22.7284 57.607L12.2323 54.6336Z" fill="white"/>
<path d="M30.2412 38.7823L28.7355 40.7423L22.3783 31.1103L24.1889 28.7532L35.1311 32.4162L33.6255 34.3763L25.2865 31.4165L25.2346 31.4841L30.2412 38.7823ZM26.7465 36.2927L30.3028 31.6628L31.7306 32.7596L28.1743 37.3894L26.7465 36.2927Z" fill="white"/>
<path d="M40.1519 28.0043L34.0873 18.9363L36.0045 17.6541L41.0119 25.1414L44.8995 22.5414L45.9566 24.1221L40.1519 28.0043Z" fill="white"/>
<path d="M53.6781 20.6616L51.2916 21.3046L52.0902 9.79141L54.9601 9.01822L61.4291 18.5735L59.0426 19.2164L54.2148 11.8008L54.1325 11.823L53.6781 20.6616ZM52.4135 16.5615L58.0506 15.0428L58.5189 16.7812L52.8819 18.2999L52.4135 16.5615Z" fill="white"/>
<path d="M68.3548 7.10594L70.9291 7.32324L73.0126 12.214L73.1188 12.2229L75.9927 7.75066L78.567 7.96796L74.0089 14.6608L73.6845 18.5037L71.4021 18.3111L71.7265 14.4682L68.3548 7.10594Z" fill="white"/>
<path d="M91.9432 15.6988C92.0757 15.2879 92.0412 14.9088 91.8398 14.5617C91.6385 14.2145 91.2838 13.9304 90.7759 13.7094C90.4308 13.5591 90.1181 13.4811 89.8379 13.4754C89.5591 13.4663 89.3193 13.5188 89.1186 13.6329C88.9212 13.7483 88.7757 13.9135 88.6822 14.1284C88.5977 14.3047 88.5672 14.4773 88.5905 14.6462C88.617 14.8165 88.6823 14.9824 88.7863 15.1439C88.8917 15.3021 89.0249 15.4588 89.1858 15.6141C89.3482 15.7661 89.5278 15.914 89.7247 16.0578L90.5298 16.6638C90.9236 16.9514 91.2674 17.256 91.5613 17.5775C91.8551 17.899 92.0838 18.2367 92.2473 18.5907C92.4108 18.9446 92.4957 19.3146 92.5019 19.7007C92.5114 20.0882 92.4271 20.4911 92.2489 20.9093C91.9792 21.52 91.5919 21.9828 91.087 22.2975C90.5868 22.6103 89.993 22.7643 89.3057 22.7595C88.6231 22.7529 87.8748 22.5724 87.0608 22.2181C86.2533 21.8666 85.6038 21.4368 85.1124 20.9286C84.6243 20.4217 84.3181 19.8528 84.1939 19.2216C84.0743 18.5887 84.163 17.9088 84.46 17.1822L86.5064 18.0729C86.3832 18.4182 86.3574 18.74 86.4289 19.0384C86.5051 19.3349 86.6617 19.6025 86.8986 19.8412C87.1402 20.078 87.4434 20.2758 87.808 20.4345C88.1662 20.5904 88.4998 20.6737 88.8089 20.6843C89.1213 20.6963 89.3911 20.6414 89.6184 20.5196C89.8457 20.3978 90.0118 20.2164 90.1167 19.9754C90.2145 19.7508 90.2299 19.5329 90.163 19.3217C90.0994 19.112 89.964 18.8981 89.7568 18.6801C89.5528 18.4636 89.2876 18.232 88.9612 17.9853L87.9911 17.2377C87.2371 16.6655 86.7108 16.055 86.4123 15.4061C86.1138 14.7572 86.127 14.0639 86.452 13.3262C86.7124 12.7191 87.1038 12.2602 87.6264 11.9493C88.1523 11.6398 88.757 11.4828 89.4406 11.4783C90.1243 11.4738 90.8307 11.6302 91.5601 11.9477C92.3025 12.2708 92.8952 12.6798 93.3382 13.1747C93.7844 13.671 94.0637 14.2128 94.176 14.8001C94.2884 15.3873 94.2197 15.981 93.9702 16.5811L91.9432 15.6988Z" fill="white"/>
<path d="M104.888 20.2662L98.0826 28.7919L96.28 27.353L103.086 18.8272L104.888 20.2662Z" fill="white"/>
<path d="M104.617 35.2367L103.195 33.215L114.285 30.0201L115.995 32.4514L109.235 41.8029L107.813 39.7812L113.125 32.7046L113.076 32.6349L104.617 35.2367ZM108.036 32.6437L111.394 37.4191L109.921 38.4548L106.563 33.6794L108.036 32.6437Z" fill="white"/>
<path d="M124.925 53.91L114.369 56.6619L113.867 54.7341L119.313 48.4095L119.293 48.3322L112.649 50.0642L112.067 47.8323L122.624 45.0805L123.134 47.0392L117.683 53.3264L117.707 53.4191L124.346 51.6885L124.925 53.91Z" fill="white"/>
<path d="M26.63 101.014L34.823 93.8109L37.6648 97.0433C38.2088 97.662 38.5624 98.2874 38.7256 98.9194C38.8937 99.5517 38.8773 100.16 38.6762 100.743C38.4802 101.327 38.1115 101.857 37.5701 102.333C37.026 102.811 36.4548 103.105 35.8564 103.215C35.2607 103.323 34.663 103.245 34.0634 102.983C33.4662 102.723 32.8909 102.278 32.3375 101.649L30.4348 99.4846L31.8269 98.2607L33.4835 100.145C33.7742 100.476 34.0611 100.71 34.344 100.849C34.627 100.988 34.906 101.032 35.1812 100.979C35.4586 100.929 35.7321 100.785 36.0014 100.548C36.2735 100.309 36.4548 100.053 36.5453 99.7794C36.6382 99.5086 36.6354 99.2203 36.5368 98.9146C36.4432 98.6091 36.2498 98.2897 35.9567 97.9563L34.9297 96.7882L28.1529 102.746L26.63 101.014ZM34.2484 102.161L32.3102 107.475L30.629 105.562L32.6059 100.292L34.2484 102.161Z" fill="white"/>
<path d="M45.7013 104.036L39.4924 113.005L37.596 111.693L43.8048 102.723L45.7013 104.036Z" fill="white"/>
<path d="M58.6724 109.971L55.0159 120.249L53.1389 119.581L50.9688 111.521L50.8935 111.495L48.5921 117.964L46.419 117.19L50.0756 106.912L51.9826 107.591L54.1194 115.633L54.2098 115.665L56.5094 109.201L58.6724 109.971Z" fill="white"/>
<path d="M70.5492 114.563C70.4771 114.303 70.3746 114.073 70.2416 113.873C70.1087 113.669 69.9452 113.497 69.7513 113.356C69.5609 113.212 69.3418 113.102 69.094 113.025C68.8497 112.948 68.5784 112.908 68.2801 112.905C67.7226 112.9 67.2312 113.033 66.8059 113.306C66.3842 113.579 66.0536 113.979 65.8141 114.506C65.5746 115.029 65.4511 115.671 65.4437 116.431C65.4363 117.19 65.5454 117.838 65.771 118.373C65.9966 118.908 66.3193 119.317 66.7391 119.602C67.159 119.883 67.6566 120.027 68.2318 120.032C68.7538 120.037 69.2003 119.949 69.5715 119.768C69.9461 119.584 70.2328 119.322 70.4314 118.983C70.6336 118.644 70.737 118.242 70.7415 117.777L71.2096 117.851L68.3972 117.823L68.4142 116.087L72.9789 116.131L72.9655 117.506C72.9562 118.464 72.7457 119.286 72.3342 119.971C71.9227 120.652 71.36 121.176 70.6462 121.542C69.9324 121.904 69.1174 122.081 68.2012 122.072C67.1786 122.062 66.2824 121.828 65.5127 121.369C64.743 120.907 64.1456 120.257 63.7205 119.418C63.2991 118.576 63.0939 117.58 63.1052 116.429C63.1138 115.545 63.2493 114.758 63.5118 114.068C63.7778 113.374 64.1457 112.788 64.6156 112.31C65.0855 111.832 65.6306 111.469 66.251 111.223C66.8713 110.977 67.5419 110.858 68.2627 110.865C68.8806 110.871 69.455 110.967 69.9859 111.153C70.5168 111.336 70.9866 111.593 71.3953 111.924C71.8076 112.254 72.1429 112.646 72.4013 113.1C72.6597 113.55 72.8235 114.045 72.8928 114.586L70.5492 114.563Z" fill="white"/>
<path d="M85.1997 111.525C85.0468 111.303 84.8749 111.118 84.6839 110.973C84.4918 110.823 84.2812 110.714 84.0521 110.644C83.8252 110.57 83.5821 110.537 83.3227 110.545C83.0666 110.552 82.7972 110.603 82.5142 110.697C81.9854 110.874 81.5644 111.161 81.2513 111.557C80.9416 111.953 80.7593 112.438 80.7046 113.015C80.6488 113.587 80.7412 114.234 80.9819 114.955C81.2226 115.676 81.5367 116.252 81.9244 116.684C82.312 117.116 82.7507 117.399 83.2404 117.531C83.7289 117.66 84.246 117.633 84.7917 117.451C85.2868 117.286 85.6803 117.057 85.9721 116.765C86.2662 116.468 86.4519 116.127 86.5292 115.742C86.6098 115.356 86.5765 114.942 86.4292 114.501L86.8957 114.418L84.228 115.309L83.678 113.661L88.008 112.216L88.4433 113.519C88.7469 114.429 88.8159 115.274 88.6501 116.056C88.4831 116.834 88.1219 117.513 87.5663 118.091C87.0096 118.667 86.2968 119.099 85.4277 119.389C84.4577 119.713 83.5341 119.784 82.6569 119.601C81.7787 119.415 81.0019 118.995 80.3267 118.341C79.6537 117.682 79.135 116.807 78.7706 115.716C78.4905 114.877 78.3621 114.089 78.3853 113.351C78.4107 112.609 78.5676 111.935 78.8559 111.329C79.1442 110.724 79.5415 110.204 80.0477 109.769C80.5539 109.334 81.1489 109.002 81.8327 108.774C82.4188 108.578 82.9931 108.482 83.5557 108.485C84.1172 108.485 84.6451 108.575 85.1393 108.754C85.6368 108.932 86.0817 109.194 86.4738 109.538C86.8647 109.879 87.1811 110.294 87.4227 110.783L85.1997 111.525Z" fill="white"/>
<path d="M92.492 103.646L98.5245 112.735L96.6028 114.011L90.5703 104.921L92.492 103.646Z" fill="white"/>
<path d="M97.9495 102.126L96.5336 100.857L102.515 94.1861L103.931 95.4556L101.701 97.9422L108.407 103.955L106.885 105.653L100.179 99.6396L97.9495 102.126Z" fill="white"/>
</g>
<defs>
<filter id="filter0_d_4143_316" x="0" y="0" width="136" height="136" filterUnits="userSpaceOnUse" color-interpolation-filters="sRGB">
<feFlood flood-opacity="0" result="BackgroundImageFix"/>
<feColorMatrix in="SourceAlpha" type="matrix" values="0 0 0 0 0 0 0 0 0 0 0 0 0 0 0 0 0 0 127 0" result="hardAlpha"/>
<feOffset dy="4"/>
<feGaussianBlur stdDeviation="2"/>
<feComposite in2="hardAlpha" operator="out"/>
<feColorMatrix type="matrix" values="0 0 0 0 0 0 0 0 0 0 0 0 0 0 0 0 0 0 0.25 0"/>
<feBlend mode="normal" in2="BackgroundImageFix" result="effect1_dropShadow_4143_316"/>
<feBlend mode="normal" in="SourceGraphic" in2="effect1_dropShadow_4143_316" result="shape"/>
</filter>
</defs>
</svg>
