<svg width="136" height="132" viewBox="0 0 136 132" fill="none" xmlns="http://www.w3.org/2000/svg">
<g filter="url(#filter0_d_4149_1148)">
<ellipse cx="68" cy="61.7821" rx="64" ry="61.7821" fill="#0F73A5"/>
<ellipse cx="68" cy="61.7821" rx="40" ry="38.6138" fill="#2FC1F4"/>
<path d="M50.935 50.0553H56.3168V66.5859C56.3168 68.4419 55.8735 70.066 54.9869 71.458C54.1085 72.8501 52.8781 73.9356 51.2955 74.7144C49.7128 75.485 47.8692 75.8703 45.7646 75.8703C43.6516 75.8703 41.8039 75.485 40.2212 74.7144C38.6386 73.9356 37.4081 72.8501 36.5298 71.458C35.6515 70.066 35.2124 68.4419 35.2124 66.5859V50.0553H40.5941V66.126C40.5941 67.0955 40.8054 67.9572 41.228 68.7112C41.6589 69.4653 42.2637 70.0577 43.0426 70.4886C43.8215 70.9195 44.7288 71.1349 45.7646 71.1349C46.8086 71.1349 47.7159 70.9195 48.4865 70.4886C49.2654 70.0577 49.8661 69.4653 50.2887 68.7112C50.7196 67.9572 50.935 67.0955 50.935 66.126V50.0553ZM74.5532 57.376C74.4537 56.3734 74.027 55.5945 73.273 55.0394C72.519 54.4842 71.4957 54.2066 70.203 54.2066C69.3247 54.2066 68.5831 54.3309 67.9782 54.5795C67.3734 54.8198 66.9094 55.1554 66.5862 55.5862C66.2713 56.0171 66.1139 56.506 66.1139 57.0529C66.0973 57.5086 66.1926 57.9063 66.3998 58.246C66.6152 58.5858 66.9094 58.8799 67.2822 59.1285C67.6551 59.3688 68.086 59.5801 68.5748 59.7624C69.0637 59.9364 69.5857 60.0855 70.1409 60.2098L72.4278 60.7567C73.5381 61.0053 74.5573 61.3367 75.4854 61.751C76.4134 62.1653 77.2171 62.6749 77.8966 63.2798C78.576 63.8847 79.1022 64.5972 79.4751 65.4176C79.8562 66.2379 80.0509 67.1783 80.0592 68.2389C80.0509 69.7967 79.6532 71.1473 78.866 72.2908C78.0872 73.426 76.9603 74.3084 75.4854 74.9382C74.0187 75.5596 72.2497 75.8703 70.1782 75.8703C68.1233 75.8703 66.3335 75.5555 64.8089 74.9257C63.2925 74.296 62.1076 73.3638 61.2542 72.1292C60.409 70.8863 59.9657 69.3493 59.9243 67.5181H65.132C65.19 68.3715 65.4345 69.0841 65.8653 69.6558C66.3045 70.2193 66.8886 70.646 67.6178 70.936C68.3553 71.2177 69.188 71.3586 70.116 71.3586C71.0275 71.3586 71.8188 71.226 72.49 70.9609C73.1694 70.6957 73.6956 70.327 74.0684 69.8547C74.4413 69.3824 74.6278 68.8397 74.6278 68.2265C74.6278 67.6548 74.4579 67.1742 74.1182 66.7847C73.7867 66.3953 73.2979 66.0639 72.6515 65.7904C72.0135 65.517 71.2305 65.2684 70.3025 65.0447L67.5308 64.3487C65.3847 63.8266 63.6903 63.0105 62.4474 61.9002C61.2045 60.7898 60.5872 59.2942 60.5954 57.4133C60.5872 55.8721 60.9973 54.5256 61.8259 53.3739C62.6628 52.2221 63.8104 51.3231 65.2687 50.6768C66.7271 50.0305 68.3843 49.7073 70.2403 49.7073C72.1295 49.7073 73.7784 50.0305 75.1871 50.6768C76.604 51.3231 77.706 52.2221 78.4932 53.3739C79.2803 54.5256 79.6863 55.8597 79.7112 57.376H74.5532ZM88.8745 64.473V75.5099H83.5797V50.0553H88.7253V59.7872H88.949C89.3799 58.6603 90.0759 57.7779 91.0371 57.1399C91.9983 56.4936 93.2039 56.1704 94.6539 56.1704C95.9797 56.1704 97.1356 56.4604 98.1216 57.0404C99.1159 57.6122 99.8865 58.4366 100.433 59.5138C100.989 60.5827 101.262 61.8629 101.254 63.3543V75.5099H95.959V64.299C95.9673 63.1223 95.669 62.2067 95.0641 61.5521C94.4675 60.8976 93.6306 60.5703 92.5534 60.5703C91.8326 60.5703 91.1945 60.7235 90.6394 61.0301C90.0925 61.3367 89.6616 61.7842 89.3468 62.3725C89.0402 62.9525 88.8828 63.6526 88.8745 64.473Z" fill="#F7F6FB"/>
<path d="M20.1703 35.7852L21.1766 33.7098L27.6326 36.627C28.3575 36.9545 28.9089 37.4121 29.2868 37.9997C29.6662 38.584 29.86 39.2501 29.8683 39.9978C29.8733 40.7441 29.6791 41.5231 29.2856 42.3347C28.8905 43.1495 28.3945 43.7941 27.7976 44.2684C27.1975 44.7412 26.5435 45.0242 25.8356 45.1172C25.1277 45.2103 24.4113 45.093 23.6864 44.7655L17.2304 41.8483L18.2367 39.7729L24.5131 42.609C24.8917 42.7801 25.2678 42.8507 25.6413 42.8208C26.0164 42.7877 26.3608 42.659 26.6748 42.4346C26.9887 42.2103 27.2425 41.8984 27.4361 41.499C27.6313 41.0964 27.7169 40.7085 27.6927 40.3353C27.67 39.9589 27.551 39.6227 27.3355 39.3267C27.1216 39.0274 26.8253 38.7923 26.4467 38.6212L20.1703 35.7852Z" fill="white"/>
<path d="M34.9397 23.2763C34.7025 23.1427 34.4644 23.051 34.2253 23.0012C33.9837 22.9489 33.7424 22.9397 33.5014 22.9737C33.2605 23.0029 33.0225 23.0752 32.7873 23.1908C32.5548 23.3039 32.3289 23.4617 32.1097 23.664C31.6999 24.042 31.4372 24.4728 31.3215 24.9562C31.2084 25.4372 31.2519 25.9451 31.452 26.48C31.6495 27.0125 32.0156 27.5487 32.5503 28.0887C33.085 28.6287 33.6246 29.0097 34.169 29.2317C34.7134 29.4537 35.2396 29.521 35.7476 29.4338C36.253 29.3441 36.7172 29.1042 37.14 28.714C37.5236 28.36 37.7862 27.9922 37.9277 27.6105C38.0693 27.2239 38.0919 26.8433 37.9956 26.4686C37.9019 26.0915 37.6914 25.7377 37.3641 25.4071L37.7573 25.1384L35.6903 27.0457L34.4685 25.8117L37.8235 22.716L38.7904 23.6926C39.465 24.3739 39.8959 25.0966 40.0831 25.8607C40.2678 26.6223 40.2304 27.3763 39.9708 28.1229C39.7086 28.867 39.2409 29.5497 38.5676 30.171C37.8159 30.8645 36.997 31.3135 36.1107 31.518C35.2219 31.72 34.3248 31.6714 33.4192 31.3722C32.5137 31.068 31.6562 30.5072 30.8467 29.6896C30.2246 29.0612 29.7638 28.4144 29.4645 27.7489C29.1653 27.0785 29.0168 26.414 29.0189 25.7553C29.0209 25.0967 29.1603 24.4683 29.4371 23.8701C29.7138 23.2719 30.117 22.7284 30.6468 22.2395C31.101 21.8205 31.5875 21.4947 32.1064 21.2622C32.6228 21.0272 33.1473 20.886 33.6799 20.8388C34.2151 20.7892 34.738 20.8356 35.2484 20.9779C35.7564 21.1176 36.2276 21.354 36.6622 21.687L34.9397 23.2763Z" fill="white"/>
<path d="M49.2703 22.8562L46.9655 23.7485L46.2921 12.3145L49.0639 11.2414L56.7562 19.958L54.4514 20.8503L48.6742 14.0647L48.5947 14.0955L49.2703 22.8562ZM47.4812 18.9521L52.9255 16.8443L53.6162 18.5069L48.1719 20.6147L47.4812 18.9521Z" fill="white"/>
<path d="M72.1841 7.91763V18.8267L70.1919 18.8267L65.4458 11.9606H65.3659V18.8267H63.0595L63.0595 7.91763L65.0836 7.91763L69.7924 14.7784H69.8883V7.91763L72.1841 7.91763Z" fill="white"/>
<path d="M82.9555 21.3235L79.3341 19.9668L83.4032 9.84501L87.0545 11.2129C88.0821 11.5979 88.8852 12.1319 89.4638 12.815C90.0438 13.4948 90.3816 14.2867 90.4774 15.1907C90.5764 16.096 90.4147 17.0741 89.9921 18.1252C89.5683 19.1795 89.0028 20.0103 88.2958 20.6173C87.5921 21.2256 86.7846 21.5923 85.8735 21.7172C84.9657 21.8434 83.993 21.7122 82.9555 21.3235ZM82.2311 18.9424L83.6028 19.4563C84.2413 19.6955 84.8234 19.7846 85.3491 19.7238C85.8794 19.6609 86.3497 19.4333 86.7599 19.0411C87.1748 18.6468 87.5339 18.0724 87.8372 17.3179C88.1379 16.57 88.2722 15.917 88.2402 15.3591C88.2114 14.8024 88.0243 14.3305 87.6787 13.9432C87.3332 13.5559 86.8411 13.2427 86.2027 13.0035L84.8259 12.4878L82.2311 18.9424Z" fill="white"/>
<path d="M94.7451 27.4062L92.8916 25.7712L103.215 20.34L105.444 22.3062L100.765 32.7165L98.9115 31.0815L102.648 23.1617L102.584 23.1053L94.7451 27.4062ZM97.5771 24.19L101.955 28.052L100.717 29.3595L96.3394 25.4975L97.5771 24.19Z" fill="white"/>
<path d="M118.707 41.1589L108.816 45.7597L107.926 43.9772L112.032 36.8349L111.997 36.7634L105.771 39.6592L104.741 37.5955L114.633 32.9947L115.537 34.8058L111.419 41.9124L111.461 41.9982L117.682 39.1047L118.707 41.1589Z" fill="white"/>
<path d="M36.8152 97.0749C37.1515 96.808 37.3274 96.4771 37.343 96.082C37.3587 95.687 37.2088 95.2608 36.8934 94.8035C36.6791 94.4927 36.4535 94.2591 36.2165 94.1026C35.9826 93.9441 35.7487 93.8575 35.5149 93.8427C35.2832 93.8309 35.069 93.8882 34.8723 94.0146C34.7044 94.114 34.5846 94.2397 34.513 94.3914C34.4434 94.5462 34.4094 94.7182 34.411 94.9076C34.4156 95.095 34.4448 95.2963 34.4985 95.5114C34.5552 95.7245 34.6289 95.9437 34.7197 96.1688L35.0811 97.1042C35.2626 97.5545 35.3921 97.9916 35.4695 98.4157C35.547 98.8398 35.5599 99.2419 35.5081 99.622C35.4564 100.002 35.3286 100.353 35.1246 100.674C34.9226 100.999 34.632 101.285 34.2526 101.533C33.6905 101.89 33.1078 102.062 32.5046 102.047C31.9064 102.034 31.3141 101.839 30.7278 101.463C30.1465 101.088 29.6032 100.534 29.0978 99.801C28.5964 99.074 28.2729 98.3681 28.1274 97.6832C27.9838 97.0012 28.0299 96.3666 28.2656 95.7793C28.5063 95.1931 28.9508 94.6811 29.5991 94.2433L30.8698 96.0856C30.5771 96.3034 30.3805 96.5545 30.28 96.8391C30.1846 97.1247 30.1737 97.43 30.2473 97.7549C30.3259 98.0809 30.4784 98.4081 30.7049 98.7364C30.9273 99.0589 31.168 99.3082 31.4271 99.4843C31.6882 99.6634 31.9492 99.7644 32.21 99.7871C32.4708 99.8099 32.7114 99.7504 32.9319 99.6088C33.1375 99.4766 33.2688 99.3055 33.326 99.0953C33.3851 98.888 33.385 98.6385 33.3257 98.3466C33.2683 98.0577 33.1666 97.7233 33.0207 97.3433L32.5947 96.2019C32.2588 95.322 32.1388 94.5339 32.2348 93.8376C32.3308 93.1413 32.7179 92.5773 33.3963 92.1456C33.9484 91.7865 34.5326 91.6204 35.1489 91.6474C35.7673 91.6773 36.3705 91.8755 36.9587 92.2421C37.547 92.6087 38.0675 93.1203 38.5204 93.7769C38.9813 94.4453 39.2674 95.1033 39.3787 95.751C39.492 96.4016 39.4376 96.9993 39.2156 97.5439C38.9935 98.0886 38.6129 98.5405 38.0737 98.8997L36.8152 97.0749Z" fill="white"/>
<path d="M36.3502 108.345L42.9527 99.7056L44.8375 101.048L42.1133 104.613L45.9394 107.337L48.6636 103.773L50.544 105.112L43.9416 113.751L42.0611 112.412L44.7885 108.843L40.9624 106.119L38.235 109.688L36.3502 108.345Z" fill="white"/>
<path d="M57.163 107.716L53.397 117.925L51.2105 117.173L54.9765 106.964L57.163 107.716Z" fill="white"/>
<path d="M61.28 119.991L62.1958 109.133L64.4976 109.314L63.7414 118.279L68.4089 118.646L68.2493 120.538L61.28 119.991Z" fill="white"/>
<path d="M75.8376 120.04L73.3395 109.412L75.5908 108.919L77.6534 117.695L82.2182 116.695L82.6537 118.548L75.8376 120.04Z" fill="white"/>
<path d="M86.4104 105.112L91.6398 114.715L89.5876 115.757L84.3582 106.153L86.4104 105.112Z" fill="white"/>
<path d="M97.3504 96.4956L105.164 104.159L103.724 105.527L95.3765 103.962L95.3187 104.017L100.236 108.84L98.5695 110.424L90.7563 102.761L92.2191 101.371L100.536 102.957L100.605 102.891L95.6913 98.0719L97.3504 96.4956Z" fill="white"/>
<path d="M106.221 87.9942C105.951 87.9578 105.696 87.9607 105.456 88.003C105.213 88.0439 104.987 88.1248 104.777 88.2458C104.565 88.3622 104.373 88.5177 104.199 88.7124C104.027 88.9039 103.878 89.1344 103.753 89.4039C103.517 89.9075 103.438 90.4057 103.514 90.8983C103.592 91.3878 103.824 91.8443 104.212 92.2678C104.596 92.69 105.137 93.0532 105.836 93.3574C106.535 93.6617 107.178 93.8162 107.765 93.8209C108.352 93.8256 108.864 93.6933 109.3 93.4239C109.733 93.153 110.071 92.7577 110.314 92.238C110.534 91.7664 110.637 91.3268 110.624 90.9193C110.608 90.5071 110.485 90.1445 110.254 89.8316C110.024 89.5155 109.696 89.2643 109.268 89.078L109.53 88.6823L108.342 91.2231L106.746 90.5278L108.673 86.4039L109.936 86.9541C110.818 87.338 111.49 87.8507 111.952 88.4922C112.411 89.1323 112.663 89.8478 112.705 90.6387C112.745 91.4282 112.572 92.2367 112.185 93.0644C111.753 93.9883 111.167 94.7097 110.425 95.2285C109.68 95.7458 108.833 96.0332 107.883 96.0904C106.931 96.1431 105.926 95.9391 104.868 95.4785C104.056 95.1244 103.385 94.6933 102.856 94.1851C102.326 93.6723 101.937 93.109 101.689 92.4954C101.441 91.8818 101.332 91.2455 101.361 90.5863C101.39 89.9272 101.557 89.272 101.861 88.6208C102.122 88.0626 102.448 87.5791 102.84 87.1704C103.228 86.7603 103.659 86.4346 104.133 86.1932C104.609 85.9487 105.109 85.798 105.635 85.7412C106.157 85.6829 106.682 85.7281 107.21 85.8769L106.221 87.9942Z" fill="white"/>
</g>
<defs>
<filter id="filter0_d_4149_1148" x="0" y="0" width="136" height="131.564" filterUnits="userSpaceOnUse" color-interpolation-filters="sRGB">
<feFlood flood-opacity="0" result="BackgroundImageFix"/>
<feColorMatrix in="SourceAlpha" type="matrix" values="0 0 0 0 0 0 0 0 0 0 0 0 0 0 0 0 0 0 127 0" result="hardAlpha"/>
<feOffset dy="4"/>
<feGaussianBlur stdDeviation="2"/>
<feComposite in2="hardAlpha" operator="out"/>
<feColorMatrix type="matrix" values="0 0 0 0 0 0 0 0 0 0 0 0 0 0 0 0 0 0 0.25 0"/>
<feBlend mode="normal" in2="BackgroundImageFix" result="effect1_dropShadow_4149_1148"/>
<feBlend mode="normal" in="SourceGraphic" in2="effect1_dropShadow_4149_1148" result="shape"/>
</filter>
</defs>
</svg>
