<svg width="136" height="136" viewBox="0 0 136 136" fill="none" xmlns="http://www.w3.org/2000/svg">
<g filter="url(#filter0_d_4149_982)">
<circle cx="68" cy="64" r="64" fill="#0F73A5"/>
<ellipse cx="68" cy="64" rx="40" ry="40" fill="#2FC1F4"/>
<path d="M54.1605 82.3795V46.0158H68.5071C71.2533 46.0158 73.5971 46.5071 75.5384 47.4895C77.4915 48.4602 78.977 49.8392 79.995 51.6266C81.0249 53.4022 81.5398 55.4914 81.5398 57.8944C81.5398 60.3091 81.0189 62.3866 79.9773 64.1266C78.9356 65.8548 77.4264 67.1806 75.4496 68.1039C73.4846 69.0272 71.1054 69.4888 68.3118 69.4888H58.706V63.3099H67.0689C68.5367 63.3099 69.7559 63.1086 70.7266 62.7062C71.6972 62.3037 72.4193 61.7 72.8928 60.8951C73.3781 60.0902 73.6207 59.0899 73.6207 57.8944C73.6207 56.687 73.3781 55.669 72.8928 54.8404C72.4193 54.0118 71.6913 53.3844 70.7088 52.9583C69.7382 52.5203 68.513 52.3013 67.0334 52.3013H61.8487V82.3795H54.1605ZM73.7983 65.8312L82.8359 82.3795H74.3487L65.5064 65.8312H73.7983Z" fill="#F7F6FB"/>
<path d="M12.791 77.6495C12.3852 77.7979 12.1066 78.0585 11.955 78.4312C11.8035 78.8039 11.7953 79.2589 11.9304 79.7961C12.0223 80.1612 12.1514 80.4561 12.3178 80.6809C12.4808 80.9067 12.6686 81.0637 12.8812 81.1519C13.093 81.2368 13.3124 81.25 13.5393 81.1915C13.7302 81.1497 13.8853 81.0676 14.0047 80.9452C14.1231 80.8194 14.2145 80.6657 14.2786 80.4842C14.3394 80.3036 14.382 80.1019 14.4066 79.8792C14.4276 79.6575 14.435 79.4246 14.4285 79.1806L14.4163 78.1716C14.4034 77.6836 14.4344 77.2246 14.5093 76.7946C14.5842 76.3647 14.7116 75.9762 14.8916 75.6292C15.0716 75.2821 15.3124 74.9873 15.6138 74.7447C15.9145 74.4987 16.2844 74.3173 16.7237 74.2005C17.3712 74.0375 17.9733 74.0585 18.5302 74.2635C19.0828 74.4659 19.5669 74.84 19.9825 75.3857C20.3938 75.9289 20.7077 76.6309 20.9243 77.4919C21.1392 78.346 21.1957 79.1235 21.0938 79.8244C20.991 80.5219 20.728 81.114 20.3048 81.6006C19.8773 82.0846 19.2858 82.4331 18.5301 82.646L17.9855 80.4815C18.3336 80.3662 18.6038 80.1885 18.7961 79.9484C18.984 79.7056 19.1 79.4173 19.1441 79.0832C19.184 78.7466 19.1553 78.3855 19.0583 77.9998C18.963 77.6209 18.8252 77.3062 18.645 77.0556C18.4639 76.8015 18.2558 76.6222 18.0208 76.5177C17.7858 76.4132 17.541 76.3937 17.2866 76.4592C17.0493 76.5203 16.8676 76.6423 16.7415 76.8251C16.6145 77.0044 16.528 77.243 16.4821 77.5409C16.4354 77.8352 16.4141 78.1872 16.4183 78.5968L16.4192 79.8232C16.427 80.7709 16.2654 81.5623 15.9346 82.1975C15.6037 82.8327 15.0475 83.2491 14.266 83.4466C13.6272 83.6147 13.0255 83.5881 12.4608 83.3668C11.8953 83.142 11.4021 82.7611 10.9814 82.224C10.5606 81.687 10.2532 81.0327 10.0591 80.2613C9.86159 79.4761 9.82328 78.7563 9.94423 78.1018C10.0643 77.4438 10.3222 76.8898 10.7179 76.4396C11.1136 75.9893 11.6248 75.6781 12.2516 75.5057L12.791 77.6495Z" fill="white"/>
<path d="M14.291 56.5828C15.4776 56.6679 16.4713 56.9653 17.2721 57.4749C18.0732 57.9809 18.6663 58.6358 19.0513 59.4396C19.4331 60.2395 19.5904 61.1195 19.523 62.0795C19.4552 63.0466 19.1748 63.8988 18.6817 64.636C18.1886 65.3732 17.5102 65.9351 16.6465 66.3217C15.7829 66.7084 14.7595 66.8593 13.5765 66.7744C12.3899 66.6893 11.396 66.3937 10.595 65.8876C9.79387 65.3816 9.20244 64.7286 8.82066 63.9286C8.43534 63.1284 8.27658 62.2448 8.34438 61.2777C8.41169 60.3177 8.69189 59.4691 9.185 58.7319C9.67481 57.9909 10.3516 57.427 11.2152 57.0404C12.0791 56.6502 13.1044 56.4977 14.291 56.5828ZM14.1274 58.9155C13.3588 58.8604 12.7025 58.929 12.1586 59.1214C11.615 59.3103 11.1923 59.6021 10.8905 59.997C10.5887 60.3919 10.4183 60.8675 10.3793 61.4236C10.3403 61.9798 10.4426 62.4749 10.6863 62.9089C10.93 63.343 11.3076 63.694 11.8193 63.9621C12.3311 64.2267 12.9714 64.3866 13.74 64.4417C14.5086 64.4968 15.1648 64.43 15.7084 64.2411C16.2523 64.0487 16.6752 63.7551 16.977 63.3602C17.2788 62.9653 17.4492 62.4897 17.4881 61.9336C17.5271 61.3774 17.4248 60.8823 17.1811 60.4483C16.9374 60.0142 16.5597 59.6649 16.0478 59.4004C15.5362 59.1323 14.8961 58.9706 14.1274 58.9155Z" fill="white"/>
<path d="M13.8936 39.889L14.7848 37.7616L21.2964 40.5525C22.0275 40.8659 22.5939 41.3153 22.9954 41.9008C23.3983 42.483 23.6221 43.1527 23.6669 43.9098C23.7084 44.6655 23.5548 45.4593 23.2063 46.2912C22.8564 47.1264 22.3987 47.7918 21.8331 48.2873C21.2642 48.7814 20.6329 49.0845 19.9391 49.1966C19.2453 49.3088 18.5328 49.2082 17.8017 48.8948L11.2901 46.1039L12.1812 43.9766L18.5117 46.6899C18.8936 46.8535 19.268 46.9155 19.635 46.8758C20.0034 46.8328 20.3369 46.6937 20.6357 46.4585C20.9344 46.2234 21.1695 45.9011 21.341 45.4917C21.5139 45.079 21.5792 44.684 21.5371 44.3066C21.4964 43.926 21.3625 43.5885 21.1354 43.2942C20.9098 42.9965 20.606 42.7659 20.2241 42.6022L13.8936 39.889Z" fill="white"/>
<path d="M21.2888 30.6464L19.8673 29.3833L25.7422 22.6188L27.1638 23.8819L24.9738 26.4035L31.7071 32.3866L30.2121 34.1079L23.4788 28.1248L21.2888 30.6464Z" fill="white"/>
<path d="M39.2732 25.1165L33.8992 15.6229L35.8951 14.467L38.1124 18.384L42.1641 16.0375L39.9469 12.1204L41.9382 10.9672L47.3121 20.4608L45.3208 21.6141L43.1009 17.6924L39.0492 20.0389L41.2691 23.9606L39.2732 25.1165Z" fill="white"/>
<path d="M64.6962 16.023H62.2246L65.9905 5.11392L68.9628 5.11392L72.7235 16.023L70.2519 16.023L67.5193 7.60682H67.4341L64.6962 16.023ZM64.5417 11.735L70.3798 11.735V13.5354L64.5417 13.5354V11.735Z" fill="white"/>
<path d="M79.3542 17.2916L82.6478 6.89158L89.5191 9.11796L88.945 10.9309L84.2678 9.41541L83.483 11.8935L87.7041 13.2612L87.13 15.0741L82.9089 13.7064L81.5484 18.0026L79.3542 17.2916Z" fill="white"/>
<path d="M92.0239 22.3632L98.1357 13.3269L101.675 15.776C102.352 16.2448 102.848 16.767 103.162 17.3425C103.48 17.9172 103.615 18.5135 103.566 19.1314C103.521 19.7484 103.297 20.3555 102.893 20.9526C102.488 21.5527 102.01 21.98 101.461 22.2346C100.913 22.4862 100.318 22.558 99.6751 22.45C99.0352 22.344 98.3706 22.0526 97.6815 21.5757L95.3118 19.9358L96.3503 18.4004L98.4134 19.828C98.7755 20.0786 99.1101 20.2367 99.4172 20.3024C99.7243 20.3681 100.004 20.3414 100.256 20.2222C100.511 20.105 100.739 19.8979 100.94 19.6008C101.143 19.3007 101.254 19.0063 101.274 18.7176C101.296 18.4308 101.222 18.1507 101.051 17.8771C100.885 17.6025 100.62 17.339 100.255 17.0864L98.9758 16.2013L93.9205 23.6756L92.0239 22.3632ZM99.6497 21.6034L99.0979 27.2584L97.0042 25.8095L97.6042 20.1878L99.6497 21.6034Z" fill="white"/>
<path d="M113.071 26.1634L104.917 33.4096L103.404 31.6682L111.559 24.422L113.071 26.1634Z" fill="white"/>
<path d="M119.958 44.8691L118.951 42.7645C119.203 42.5934 119.407 42.397 119.56 42.1754C119.717 41.9523 119.826 41.7111 119.887 41.4519C119.948 41.1927 119.96 40.9219 119.924 40.6394C119.888 40.3601 119.803 40.0796 119.668 39.7977C119.425 39.2884 119.086 38.9064 118.654 38.6518C118.224 38.3956 117.72 38.2805 117.142 38.3065C116.567 38.331 115.94 38.5095 115.261 38.8421C114.562 39.1841 114.025 39.5755 113.65 40.0164C113.276 40.4605 113.058 40.9308 112.996 41.4275C112.935 41.9242 113.023 42.4207 113.261 42.9173C113.394 43.1959 113.554 43.4358 113.741 43.637C113.929 43.8413 114.138 44.002 114.367 44.1191C114.599 44.2346 114.847 44.3033 115.109 44.325C115.373 44.35 115.647 44.3225 115.932 44.2425L116.929 46.3518C116.454 46.5175 115.955 46.5937 115.433 46.5804C114.915 46.5688 114.405 46.4609 113.902 46.2565C113.403 46.0538 112.938 45.7479 112.506 45.3387C112.079 44.9311 111.714 44.4118 111.412 43.7807C110.992 42.903 110.814 42.0214 110.879 41.1359C110.945 40.2535 111.256 39.4287 111.814 38.6613C112.374 37.8972 113.186 37.2543 114.251 36.7328C115.32 36.2096 116.325 35.9664 117.268 36.0031C118.211 36.0397 119.044 36.308 119.767 36.8078C120.494 37.3061 121.064 37.9876 121.478 38.8525C121.751 39.4227 121.924 39.9903 121.997 40.5552C122.072 41.1234 122.047 41.6715 121.922 42.1993C121.8 42.7257 121.575 43.2151 121.249 43.6676C120.924 44.1234 120.493 44.5239 119.958 44.8691Z" fill="white"/>
<path d="M115.817 56.6868L115.547 54.2301L126.8 56.7536L127.125 59.708L116.695 64.6661L116.425 62.2093L124.49 58.5519L124.48 58.4672L115.817 56.6868ZM120.062 56.0538L120.7 61.8569L118.911 62.0582L118.273 56.2551L120.062 56.0538Z" fill="white"/>
<path d="M124.922 82.9241L114.304 80.4185L114.752 78.4773L122.501 75.4296L122.519 75.3518L115.837 73.7748L116.355 71.5273L126.972 74.0329L126.518 76.0053L118.782 79.0178L118.76 79.1113L125.438 80.687L124.922 82.9241Z" fill="white"/>
<path d="M49.9482 120.207V109.298H54.2521C55.076 109.298 55.7791 109.446 56.3615 109.74C56.9474 110.032 57.3931 110.445 57.6985 110.982C58.0075 111.514 58.1619 112.141 58.1619 112.862C58.1619 113.586 58.0057 114.21 57.6932 114.732C57.3807 115.25 56.9279 115.648 56.3349 115.925C55.7454 116.202 55.0316 116.34 54.1935 116.34H51.3118V114.487H53.8207C54.261 114.487 54.6268 114.426 54.918 114.305C55.2092 114.185 55.4258 114.004 55.5678 113.762C55.7134 113.521 55.7862 113.221 55.7862 112.862C55.7862 112.5 55.7134 112.194 55.5678 111.946C55.4258 111.697 55.2074 111.509 54.9126 111.381C54.6214 111.25 54.2539 111.184 53.81 111.184H52.2546V120.207H49.9482ZM55.8395 115.243L58.5508 120.207H56.0046L53.3519 115.243H55.8395ZM61.6722 120.207H59.2006L62.9666 109.298H65.9389L69.6996 120.207H67.228L64.4954 111.791H64.4102L61.6722 120.207ZM61.5178 115.919H67.3558V117.72H61.5178V115.919ZM80.1373 109.298V120.207H78.1451L73.399 113.341H73.3191V120.207H71.0126V109.298H73.0368L77.7456 116.159H77.8414V109.298H80.1373ZM85.9101 120.207H82.0429V109.298H85.942C87.0393 109.298 87.9839 109.517 88.7758 109.953C89.5677 110.387 90.1768 111.01 90.6029 111.823C91.0326 112.636 91.2474 113.609 91.2474 114.742C91.2474 115.879 91.0326 116.855 90.6029 117.672C90.1768 118.489 89.5642 119.115 88.7652 119.552C87.9697 119.989 87.018 120.207 85.9101 120.207ZM84.3493 118.231H85.8142C86.496 118.231 87.0695 118.11 87.5347 117.869C88.0035 117.624 88.355 117.246 88.5894 116.734C88.8273 116.219 88.9463 115.555 88.9463 114.742C88.9463 113.936 88.8273 113.277 88.5894 112.766C88.355 112.255 88.0052 111.878 87.54 111.637C87.0748 111.395 86.5013 111.275 85.8195 111.275H84.3493V118.231Z" fill="white"/>
</g>
<defs>
<filter id="filter0_d_4149_982" x="0" y="0" width="136" height="136" filterUnits="userSpaceOnUse" color-interpolation-filters="sRGB">
<feFlood flood-opacity="0" result="BackgroundImageFix"/>
<feColorMatrix in="SourceAlpha" type="matrix" values="0 0 0 0 0 0 0 0 0 0 0 0 0 0 0 0 0 0 127 0" result="hardAlpha"/>
<feOffset dy="4"/>
<feGaussianBlur stdDeviation="2"/>
<feComposite in2="hardAlpha" operator="out"/>
<feColorMatrix type="matrix" values="0 0 0 0 0 0 0 0 0 0 0 0 0 0 0 0 0 0 0.25 0"/>
<feBlend mode="normal" in2="BackgroundImageFix" result="effect1_dropShadow_4149_982"/>
<feBlend mode="normal" in="SourceGraphic" in2="effect1_dropShadow_4149_982" result="shape"/>
</filter>
</defs>
</svg>
