<svg width="648" height="102" viewBox="0 0 648 102" fill="none" xmlns="http://www.w3.org/2000/svg">
<g filter="url(#filter0_d_4322_2)">
<path d="M92 66H558V66C558 82.5685 544.569 96 528 96H122C105.431 96 92 82.5685 92 66V66Z" fill="#FEFEFE"/>
</g>
<g filter="url(#filter1_d_4322_2)">
<path d="M63 44H589V44C589 60.5685 575.569 74 559 74H93C76.4314 74 63 60.5685 63 44V44Z" fill="#FEFEFE"/>
</g>
<g filter="url(#filter2_d_4322_2)">
<path d="M38 24H614V24C614 40.5685 600.569 54 584 54H68C51.4314 54 38 40.5685 38 24V24Z" fill="#FEFEFE"/>
</g>
<g filter="url(#filter3_d_4322_2)">
<path d="M5 4H643V4C643 20.5685 629.569 34 613 34H35C18.4314 34 5 20.5685 5 4V4Z" fill="#FEFEFE"/>
</g>
<defs>
<filter id="filter0_d_4322_2" x="87" y="62" width="476" height="40" filterUnits="userSpaceOnUse" color-interpolation-filters="sRGB">
<feFlood flood-opacity="0" result="BackgroundImageFix"/>
<feColorMatrix in="SourceAlpha" type="matrix" values="0 0 0 0 0 0 0 0 0 0 0 0 0 0 0 0 0 0 127 0" result="hardAlpha"/>
<feOffset dy="1"/>
<feGaussianBlur stdDeviation="2.5"/>
<feComposite in2="hardAlpha" operator="out"/>
<feColorMatrix type="matrix" values="0 0 0 0 0 0 0 0 0 0 0 0 0 0 0 0 0 0 0.25 0"/>
<feBlend mode="normal" in2="BackgroundImageFix" result="effect1_dropShadow_4322_2"/>
<feBlend mode="normal" in="SourceGraphic" in2="effect1_dropShadow_4322_2" result="shape"/>
</filter>
<filter id="filter1_d_4322_2" x="58" y="40" width="536" height="40" filterUnits="userSpaceOnUse" color-interpolation-filters="sRGB">
<feFlood flood-opacity="0" result="BackgroundImageFix"/>
<feColorMatrix in="SourceAlpha" type="matrix" values="0 0 0 0 0 0 0 0 0 0 0 0 0 0 0 0 0 0 127 0" result="hardAlpha"/>
<feOffset dy="1"/>
<feGaussianBlur stdDeviation="2.5"/>
<feComposite in2="hardAlpha" operator="out"/>
<feColorMatrix type="matrix" values="0 0 0 0 0 0 0 0 0 0 0 0 0 0 0 0 0 0 0.25 0"/>
<feBlend mode="normal" in2="BackgroundImageFix" result="effect1_dropShadow_4322_2"/>
<feBlend mode="normal" in="SourceGraphic" in2="effect1_dropShadow_4322_2" result="shape"/>
</filter>
<filter id="filter2_d_4322_2" x="33" y="20" width="586" height="40" filterUnits="userSpaceOnUse" color-interpolation-filters="sRGB">
<feFlood flood-opacity="0" result="BackgroundImageFix"/>
<feColorMatrix in="SourceAlpha" type="matrix" values="0 0 0 0 0 0 0 0 0 0 0 0 0 0 0 0 0 0 127 0" result="hardAlpha"/>
<feOffset dy="1"/>
<feGaussianBlur stdDeviation="2.5"/>
<feComposite in2="hardAlpha" operator="out"/>
<feColorMatrix type="matrix" values="0 0 0 0 0 0 0 0 0 0 0 0 0 0 0 0 0 0 0.25 0"/>
<feBlend mode="normal" in2="BackgroundImageFix" result="effect1_dropShadow_4322_2"/>
<feBlend mode="normal" in="SourceGraphic" in2="effect1_dropShadow_4322_2" result="shape"/>
</filter>
<filter id="filter3_d_4322_2" x="0" y="0" width="648" height="40" filterUnits="userSpaceOnUse" color-interpolation-filters="sRGB">
<feFlood flood-opacity="0" result="BackgroundImageFix"/>
<feColorMatrix in="SourceAlpha" type="matrix" values="0 0 0 0 0 0 0 0 0 0 0 0 0 0 0 0 0 0 127 0" result="hardAlpha"/>
<feOffset dy="1"/>
<feGaussianBlur stdDeviation="2.5"/>
<feComposite in2="hardAlpha" operator="out"/>
<feColorMatrix type="matrix" values="0 0 0 0 0 0 0 0 0 0 0 0 0 0 0 0 0 0 0.25 0"/>
<feBlend mode="normal" in2="BackgroundImageFix" result="effect1_dropShadow_4322_2"/>
<feBlend mode="normal" in="SourceGraphic" in2="effect1_dropShadow_4322_2" result="shape"/>
</filter>
</defs>
</svg>
