<svg width="28" height="28" viewBox="0 0 28 28" fill="none" xmlns="http://www.w3.org/2000/svg">
<path d="M12.64 0.396988L2.026 7.02699H1C0.45 7.02699 0 7.47699 0 8.02699C0 8.57699 0.45 9.02699 0.999 9.02699V11.027C0.449 11.028 0 11.477 0 12.027C0 12.577 0.45 13.027 1 13.027H2V23.028C1.72329 23.0386 1.46144 23.156 1.2694 23.3555C1.07736 23.555 0.970056 23.8211 0.97 24.098V25.028H1.07C0.48 25.028 0 25.508 0 26.098V27.028H27.99V26.098C27.99 25.508 27.51 25.028 26.92 25.028H27V24.098C27.0001 23.8263 26.8968 23.5647 26.7111 23.3664C26.5253 23.168 26.2711 23.0478 26 23.03V13.027H27C27.55 13.027 28 12.577 28 12.027C28 11.477 27.55 11.027 27 11.027H26.999V9.02699H27C27.55 9.02699 28 8.57699 28 8.02699C28 7.47699 27.55 7.02699 27 7.02699H26.014L15.4 0.397988C14.56 -0.132012 13.48 -0.132012 12.64 0.397988V0.396988ZM13.5 8.58699V8.04699C13.3518 8.02702 13.2071 7.98664 13.07 7.92699C12.79 7.82699 12.56 7.64699 12.38 7.40699C12.3223 7.32544 12.2941 7.2267 12.3 7.12699C12.3 7.09299 12.303 7.05999 12.31 7.02699C12.3391 6.90382 12.4142 6.79647 12.52 6.72699C12.73 6.59699 12.96 6.62699 13.15 6.81699C13.2502 6.92653 13.3686 7.01788 13.5 7.08699C13.505 7.09299 13.512 7.09499 13.52 7.09699L13.524 7.09899C13.6865 7.17097 13.8623 7.2081 14.04 7.20799C14.314 7.19499 14.413 7.10799 14.45 7.02799C14.47 6.98099 14.47 6.93699 14.47 6.90799C14.47 6.81799 14.43 6.74799 14.34 6.69799C14.23 6.63799 14.04 6.56799 13.8 6.50799C13.6992 6.48075 13.5992 6.45074 13.5 6.41799C13.466 6.40499 13.432 6.39399 13.4 6.38299C13.3079 6.3536 13.2177 6.31853 13.13 6.27799C12.94 6.19799 12.78 6.07799 12.65 5.90799C12.51 5.73799 12.44 5.51799 12.44 5.23799C12.44 4.98799 12.51 4.77799 12.66 4.58799C12.79 4.40799 12.97 4.27799 13.2 4.17799C13.3 4.13799 13.4 4.09799 13.5 4.07799V3.47799C13.5 3.23799 13.7 3.02799 13.95 3.02799H14.02C14.27 3.02799 14.47 3.23799 14.47 3.47799V4.11799C14.518 4.12499 14.56 4.13999 14.604 4.15499L14.64 4.16799C14.89 4.26799 15.1 4.40799 15.24 4.59799C15.32 4.68799 15.35 4.79799 15.35 4.90799C15.35 5.04799 15.3 5.16799 15.18 5.25799C15 5.40799 14.72 5.38799 14.56 5.22799C14.5326 5.19858 14.5024 5.1718 14.47 5.14799C14.414 5.0901 14.3456 5.04566 14.27 5.01799C14.1452 4.95894 14.0079 4.93147 13.87 4.93799C13.65 4.93799 13.55 4.98799 13.5 5.04799C13.46 5.09799 13.46 5.15799 13.46 5.19799C13.46 5.24799 13.47 5.29799 13.5 5.33799C13.5 5.34799 13.51 5.35799 13.52 5.36799C13.58 5.41799 13.64 5.45799 13.73 5.48799C13.82 5.51799 13.96 5.55799 14.14 5.60799C14.225 5.63599 14.305 5.65899 14.38 5.68099L14.47 5.70799C14.59 5.74799 14.69 5.78799 14.78 5.82799C14.96 5.91799 15.12 6.03799 15.24 6.20799C15.37 6.37799 15.44 6.59799 15.44 6.87799C15.4418 7.11793 15.3605 7.35111 15.21 7.53799C15.0639 7.72288 14.8704 7.8646 14.65 7.94799C14.59 7.97799 14.53 7.99799 14.47 8.00799V8.58799C14.47 8.80299 14.31 8.98499 14.096 9.02099H13.874C13.7704 9.00446 13.6761 8.95182 13.6076 8.87238C13.5392 8.79295 13.5011 8.69185 13.5 8.58699V8.58699ZM18.888 7.02699C19.0678 6.14831 19.0095 5.23754 18.719 4.38899L22.969 7.02799H18.889L18.888 7.02699ZM9.217 4.45999C8.94588 5.28876 8.89589 6.17397 9.072 7.02799H5.082L9.217 4.45999V4.45999ZM6 23.028H5V13.028H6V23.028ZM11 23.028H9V13.028H19V23.028H17V16.668C17 16.318 16.71 16.028 16.36 16.028H11.63C11.28 16.028 11 16.308 11 16.658V23.028V23.028ZM22 13.028H23V23.028H22V13.028Z" fill="#BFBFBF"/>
</svg>
