<svg width="31" height="30" viewBox="0 0 31 30" fill="none" xmlns="http://www.w3.org/2000/svg">
<path d="M13.9358 9.24902H22.8418C23.2355 9.24902 23.6131 9.09313 23.8914 8.81565C24.1698 8.53818 24.3262 8.16183 24.3262 7.76942C24.3262 7.37701 24.1698 7.00067 23.8914 6.72319C23.6131 6.44571 23.2355 6.28983 22.8418 6.28983H13.9358C13.5421 6.28983 13.1646 6.44571 12.8862 6.72319C12.6079 7.00067 12.4515 7.37701 12.4515 7.76942C12.4515 8.16183 12.6079 8.53818 12.8862 8.81565C13.1646 9.09313 13.5421 9.24902 13.9358 9.24902ZM19.8732 18.1266H16.9045C16.5108 18.1266 16.1333 18.2825 15.8549 18.56C15.5765 18.8374 15.4202 19.2138 15.4202 19.6062C15.4202 19.9986 15.5765 20.3749 15.8549 20.6524C16.1333 20.9299 16.5108 21.0858 16.9045 21.0858H19.8732C20.2668 21.0858 20.6444 20.9299 20.9228 20.6524C21.2011 20.3749 21.3575 19.9986 21.3575 19.6062C21.3575 19.2138 21.2011 18.8374 20.9228 18.56C20.6444 18.2825 20.2668 18.1266 19.8732 18.1266ZM2.06112 15.1674H6.51413V28.4838C6.51309 28.7445 6.58118 29.0008 6.71152 29.2269C6.84184 29.4529 7.02978 29.6407 7.2563 29.771C7.48195 29.9009 7.73791 29.9692 7.99847 29.9692C8.25902 29.9692 8.51499 29.9009 8.74064 29.771L13.1937 27.2261L17.6467 29.771C17.8723 29.9009 18.1283 29.9692 18.3888 29.9692C18.6494 29.9692 18.9054 29.9009 19.131 29.771L23.584 27.2261L28.037 29.771C28.2627 29.9009 28.5186 29.9692 28.7792 29.9692C29.0398 29.9692 29.2957 29.9009 29.5214 29.771C29.7479 29.6407 29.9358 29.4529 30.0662 29.2269C30.1965 29.0008 30.2646 28.7445 30.2635 28.4838V4.81023C30.2635 3.63299 29.7944 2.50397 28.9593 1.67153C28.1242 0.8391 26.9915 0.371445 25.8105 0.371445H5.02979C3.84878 0.371445 2.71614 0.8391 1.88103 1.67153C1.04593 2.50397 0.576778 3.63299 0.576778 4.81023V13.6878C0.576778 14.0802 0.733162 14.4566 1.01153 14.734C1.2899 15.0115 1.66744 15.1674 2.06112 15.1674ZM25.8105 3.33064C26.2042 3.33064 26.5817 3.48652 26.8601 3.764C27.1385 4.04148 27.2949 4.41782 27.2949 4.81023V25.9241L24.3262 24.2373C24.0971 24.118 23.8425 24.0558 23.584 24.0558C23.3256 24.0558 23.0709 24.118 22.8418 24.2373L18.3888 26.7822L13.9358 24.2373C13.7067 24.118 13.4521 24.0558 13.1937 24.0558C12.9352 24.0558 12.6806 24.118 12.4515 24.2373L9.48281 25.9241V4.81023C9.47879 4.30548 9.38844 3.8051 9.21562 3.33064H25.8105ZM3.54545 4.81023C3.54545 4.41782 3.70184 4.04148 3.98021 3.764C4.25857 3.48652 4.63612 3.33064 5.02979 3.33064C5.42346 3.33064 5.80101 3.48652 6.07938 3.764C6.35775 4.04148 6.51413 4.41782 6.51413 4.81023V12.2082H3.54545V4.81023ZM13.9358 15.1674H22.8418C23.2355 15.1674 23.6131 15.0115 23.8914 14.734C24.1698 14.4566 24.3262 14.0802 24.3262 13.6878C24.3262 13.2954 24.1698 12.9191 23.8914 12.6416C23.6131 12.3641 23.2355 12.2082 22.8418 12.2082H13.9358C13.5421 12.2082 13.1646 12.3641 12.8862 12.6416C12.6079 12.9191 12.4515 13.2954 12.4515 13.6878C12.4515 14.0802 12.6079 14.4566 12.8862 14.734C13.1646 15.0115 13.5421 15.1674 13.9358 15.1674Z" fill="#BFBFBF"/>
</svg>
