<svg width="13" height="14" viewBox="0 0 13 14" fill="none" xmlns="http://www.w3.org/2000/svg">
<path d="M7.626 4.0699C6.34242 4.2758 5.17346 4.93026 4.327 5.9169C3.79313 5.78217 3.31197 5.49033 2.94577 5.07915C2.57958 4.66796 2.3452 4.15635 2.27295 3.61049C2.2007 3.06464 2.29392 2.50967 2.54054 2.01738C2.78715 1.52508 3.17582 1.11812 3.65626 0.849137C4.1367 0.580154 4.6868 0.461531 5.2354 0.508613C5.78399 0.555694 6.30584 0.766314 6.73342 1.11322C7.161 1.46014 7.47465 1.92737 7.63378 2.45449C7.79291 2.9816 7.7902 3.54434 7.626 4.0699ZM3.6 6.9999C3.216 7.7499 3 8.5999 3 9.4999C3 10.8099 3.458 12.0119 4.222 12.9569C1.555 12.6529 0 10.8029 0 8.9999V8.4999C0 8.10208 0.158035 7.72055 0.43934 7.43924C0.720644 7.15794 1.10218 6.9999 1.5 6.9999H3.6ZM7.875 7.4999C7.875 7.33414 7.94085 7.17517 8.05806 7.05796C8.17527 6.94075 8.33424 6.8749 8.5 6.8749C8.66576 6.8749 8.82473 6.94075 8.94194 7.05796C9.05915 7.17517 9.125 7.33414 9.125 7.4999C9.125 7.66566 9.05915 7.82464 8.94194 7.94185C8.82473 8.05906 8.66576 8.1249 8.5 8.1249C8.33424 8.1249 8.17527 8.05906 8.05806 7.94185C7.94085 7.82464 7.875 7.66566 7.875 7.4999ZM9 11.4999C9 11.6325 8.94732 11.7597 8.85355 11.8535C8.75979 11.9472 8.63261 11.9999 8.5 11.9999C8.36739 11.9999 8.24021 11.9472 8.14645 11.8535C8.05268 11.7597 8 11.6325 8 11.4999V9.4999C8 9.3673 8.05268 9.24012 8.14645 9.14635C8.24021 9.05258 8.36739 8.9999 8.5 8.9999C8.63261 8.9999 8.75979 9.05258 8.85355 9.14635C8.94732 9.24012 9 9.3673 9 9.4999V11.4999ZM4 9.4999C4 8.90896 4.1164 8.32379 4.34254 7.77783C4.56869 7.23186 4.90016 6.73579 5.31802 6.31792C5.73588 5.90006 6.23196 5.56859 6.77792 5.34245C7.32389 5.1163 7.90905 4.9999 8.5 4.9999C9.09095 4.9999 9.67611 5.1163 10.2221 5.34245C10.768 5.56859 11.2641 5.90006 11.682 6.31792C12.0998 6.73579 12.4313 7.23186 12.6575 7.77783C12.8836 8.32379 13 8.90896 13 9.4999C13 10.6934 12.5259 11.838 11.682 12.6819C10.8381 13.5258 9.69347 13.9999 8.5 13.9999C7.30653 13.9999 6.16193 13.5258 5.31802 12.6819C4.47411 11.838 4 10.6934 4 9.4999V9.4999ZM5 9.4999C5 10.4282 5.36875 11.3184 6.02513 11.9748C6.6815 12.6312 7.57174 12.9999 8.5 12.9999C9.42826 12.9999 10.3185 12.6312 10.9749 11.9748C11.6313 11.3184 12 10.4282 12 9.4999C12 8.57165 11.6313 7.68141 10.9749 7.02503C10.3185 6.36865 9.42826 5.9999 8.5 5.9999C7.57174 5.9999 6.6815 6.36865 6.02513 7.02503C5.36875 7.68141 5 8.57165 5 9.4999V9.4999Z" fill="#BFBFBF"/>
</svg>
