<svg width="20" height="21" viewBox="0 0 20 21" fill="none" xmlns="http://www.w3.org/2000/svg">
<path d="M11.91 1.91L9.83 4H12C14.1217 4 16.1566 4.84285 17.6569 6.34315C19.1571 7.84344 20 9.87827 20 12H18C18 10.4087 17.3679 8.88258 16.2426 7.75736C15.1174 6.63214 13.5913 6 12 6H9.83L11.92 8.09L10.5 9.5L6 5L7.41 3.59L10.5 0.5L11.91 1.91ZM0 11V21H16V11H0ZM2 17.56V14.45C2.60112 14.1009 3.10087 13.6011 3.45 13H12.55C12.8991 13.6011 13.3989 14.1009 14 14.45V17.56C13.4074 17.9089 12.9148 18.4049 12.57 19H3.45C3.09965 18.4024 2.59997 17.9062 2 17.56V17.56ZM8 18C8.828 18 9.5 17.105 9.5 16C9.5 14.895 8.828 14 8 14C7.172 14 6.5 14.895 6.5 16C6.5 17.105 7.172 18 8 18Z" fill="#BFBFBF"/>
</svg>
