<svg width="849" height="895" viewBox="0 0 849 895" fill="none" xmlns="http://www.w3.org/2000/svg">
<path d="M424.5 325.6C394.6 325.6 366.6 337.2 345.4 358.4C324.3 379.6 312.6 407.6 312.6 437.5C312.6 467.4 324.3 495.4 345.4 516.6C366.6 537.7 394.6 549.4 424.5 549.4C454.4 549.4 482.4 537.7 503.6 516.6C524.7 495.4 536.401 467.4 536.401 437.5C536.401 407.6 524.7 379.6 503.6 358.4C493.246 347.966 480.921 339.693 467.342 334.062C453.763 328.431 439.201 325.555 424.5 325.6V325.6ZM836.8 561.1L771.401 505.2C774.501 486.2 776.1 466.8 776.1 447.5C776.1 428.2 774.501 408.7 771.401 389.8L836.8 333.9C841.741 329.67 845.277 324.037 846.938 317.75C848.599 311.462 848.307 304.817 846.1 298.7L845.201 296.1C827.202 245.769 800.233 199.115 765.6 158.4L763.8 156.3C759.595 151.355 753.99 147.8 747.724 146.105C741.458 144.409 734.826 144.651 728.701 146.8L647.5 175.7C617.5 151.1 584.101 131.7 547.901 118.2L532.201 33.2998C531.016 26.904 527.913 21.02 523.305 16.4296C518.697 11.8391 512.801 8.75948 506.401 7.5998L503.701 7.0998C451.701 -2.3002 396.9 -2.3002 344.9 7.0998L342.201 7.5998C335.8 8.75948 329.904 11.8391 325.296 16.4296C320.688 21.02 317.585 26.904 316.4 33.2998L300.6 118.6C264.743 132.207 231.34 151.56 201.701 175.9L119.9 146.8C113.777 144.634 107.14 144.383 100.87 146.08C94.6004 147.777 88.9957 151.341 84.8005 156.3L83.0005 158.4C48.4297 199.159 21.4676 245.801 3.40048 296.1L2.50048 298.7C-1.99952 311.2 1.70049 325.2 11.8005 333.9L78.0005 390.4C74.9005 409.2 73.4005 428.4 73.4005 447.4C73.4005 466.6 74.9005 485.8 78.0005 504.4L12.0005 560.9C7.06005 565.129 3.52413 570.762 1.86288 577.05C0.201633 583.338 0.493779 589.982 2.70048 596.1L3.60048 598.7C21.7005 649 48.4005 695.5 83.2005 736.4L85.0005 738.5C89.2059 743.445 94.8109 746.999 101.077 748.695C107.343 750.391 113.975 750.149 120.1 748L201.9 718.9C231.7 743.4 264.9 762.8 300.8 776.2L316.6 861.5C317.785 867.896 320.888 873.78 325.496 878.37C330.104 882.961 336 886.04 342.4 887.2L345.1 887.7C397.612 897.15 451.389 897.15 503.901 887.7L506.6 887.2C513.001 886.04 518.897 882.961 523.505 878.37C528.113 873.78 531.216 867.896 532.401 861.5L548.1 776.6C584.3 763 617.701 743.7 647.701 719.1L728.901 748C735.024 750.166 741.661 750.417 747.931 748.72C754.201 747.023 759.805 743.458 764 738.5L765.8 736.4C800.6 695.3 827.301 649 845.401 598.7L846.3 596.1C850.6 583.7 846.9 569.8 836.8 561.1ZM424.5 613.3C327.4 613.3 248.701 534.6 248.701 437.5C248.701 340.4 327.4 261.7 424.5 261.7C521.6 261.7 600.3 340.4 600.3 437.5C600.3 534.6 521.6 613.3 424.5 613.3Z" fill="#BFBFBF"/>
</svg>
