<svg width="58" height="58" viewBox="0 0 58 58" fill="none" xmlns="http://www.w3.org/2000/svg">
<ellipse cx="29.1818" cy="29.2041" rx="28.5603" ry="28.56" fill="#1B4E63"/>
<path d="M29.2547 24.1143C26.4189 24.1143 24.1648 26.3684 24.1648 29.2042C24.1648 32.04 26.4189 34.2941 29.2547 34.2941C32.0905 34.2941 34.3446 32.04 34.3446 29.2042C34.3446 26.3684 32.0905 24.1143 29.2547 24.1143ZM29.2547 32.8398C27.2187 32.8398 25.6191 31.2401 25.6191 29.2042C25.6191 27.1682 27.2187 25.5685 29.2547 25.5685C31.2907 25.5685 32.8903 27.1682 32.8903 29.2042C32.8903 31.2401 31.2907 32.8398 29.2547 32.8398Z" fill="white"/>
<path d="M39.9124 26.8116L37.8823 26.1591L37.4473 25.0715L38.4624 23.1865C38.6799 22.7515 38.6074 22.1714 38.2448 21.8089L36.5048 20.0689C36.1423 19.7063 35.5622 19.6338 35.1272 19.8513L33.2421 20.8664L32.1546 20.4314L31.5021 18.4013C31.3571 17.9663 30.9221 17.6038 30.4145 17.6038H27.9494C27.4419 17.6038 27.0069 17.9663 26.9344 18.4738L26.2819 20.5039C25.8469 20.5764 25.4843 20.7214 25.1218 20.9389L23.2368 19.9238C22.8017 19.7063 22.2217 19.7788 21.8592 20.1414L20.1191 21.8814C19.7566 22.2439 19.6841 22.824 19.9016 23.259L20.8442 25.0715C20.6992 25.4341 20.5542 25.8691 20.4092 26.2316L18.3791 26.8841C17.9441 27.0291 17.5815 27.4641 17.5815 27.9717V30.4368C17.5815 30.9443 17.9441 31.3793 18.4516 31.5243L20.4817 32.1768L20.9167 33.2644L19.9016 35.1494C19.6841 35.5845 19.7566 36.1645 20.1191 36.527L21.8592 38.2671C22.2217 38.6296 22.8017 38.7021 23.2368 38.4846L25.1218 37.4695L26.2094 37.9045L26.8619 40.0071C27.0069 40.4421 27.4419 40.8047 27.9494 40.8047H30.4145C30.9221 40.8047 31.3571 40.4421 31.5021 40.0071L32.1546 37.9045L33.2421 37.4695L35.1272 38.4846C35.5622 38.7021 36.1423 38.6296 36.5048 38.2671L38.2448 36.527C38.6074 36.1645 38.6799 35.5845 38.4624 35.1494L37.4473 33.2644L37.8823 32.1768L39.9849 31.5243C40.4199 31.3793 40.7824 30.9443 40.7824 30.4368V27.9717C40.7824 27.4641 40.4199 26.9566 39.9124 26.8116ZM39.3324 30.2192L36.7223 31.0168L36.6498 31.3793L35.9973 32.9019L35.7797 33.2644L37.0848 35.657L35.6347 37.107L33.2421 35.802L32.8796 36.0195C32.3721 36.3095 31.8646 36.527 31.3571 36.672L30.9946 36.7445L30.197 39.3546H28.167L27.3694 36.7445L27.0069 36.672L25.4843 36.0195L25.1218 35.802L22.7292 37.107L21.2792 35.657L22.5842 33.2644L22.3667 32.9019C22.0767 32.3943 21.8592 31.8868 21.7142 31.3793L21.6417 31.0168L19.0316 30.2192V28.1892L21.4967 27.4641L21.6417 27.1016C21.7867 26.5216 22.0042 26.0141 22.2942 25.5066L22.5117 25.1441L21.2792 22.7515L22.7292 21.3014L25.0493 22.6065L25.4118 22.3889C25.9194 22.0989 26.4269 21.8814 27.0069 21.7364L27.3694 21.5914L28.167 19.0538H30.197L30.9946 21.5914L31.3571 21.7364C31.8646 21.8814 32.3721 22.0989 32.8796 22.3889L33.2421 22.6065L35.6347 21.3014L37.0848 22.7515L35.7797 25.1441L35.9973 25.5066C36.2873 26.0141 36.5048 26.5216 36.6498 27.0291L36.7223 27.3916L39.3324 28.1892V30.2192Z" fill="white"/>
</svg>
