<svg width="22" height="20" viewBox="0 0 22 20" fill="none" xmlns="http://www.w3.org/2000/svg">
<path d="M19 0H9C8.20435 0 7.44129 0.316071 6.87868 0.87868C6.31607 1.44129 6 2.20435 6 3V10C6 10.7956 6.31607 11.5587 6.87868 12.1213C7.44129 12.6839 8.20435 13 9 13H19C19.7956 13 20.5587 12.6839 21.1213 12.1213C21.6839 11.5587 22 10.7956 22 10V3C22 2.20435 21.6839 1.44129 21.1213 0.87868C20.5587 0.316071 19.7956 0 19 0ZM20 10C20 10.2652 19.8946 10.5196 19.7071 10.7071C19.5196 10.8946 19.2652 11 19 11H9C8.73478 11 8.48043 10.8946 8.29289 10.7071C8.10536 10.5196 8 10.2652 8 10V3C8 2.73478 8.10536 2.48043 8.29289 2.29289C8.48043 2.10536 8.73478 2 9 2H19C19.2652 2 19.5196 2.10536 19.7071 2.29289C19.8946 2.48043 20 2.73478 20 3V10ZM16.5 6C16.1298 6.00125 15.7733 6.14028 15.5 6.39C15.285 6.19455 15.0178 6.06577 14.7309 6.0193C14.4441 5.97284 14.1499 6.01069 13.8842 6.12826C13.6185 6.24582 13.3926 6.43805 13.234 6.68157C13.0755 6.92509 12.9911 7.20942 12.9911 7.5C12.9911 7.79058 13.0755 8.07491 13.234 8.31843C13.3926 8.56195 13.6185 8.75418 13.8842 8.87174C14.1499 8.98931 14.4441 9.02716 14.7309 8.9807C15.0178 8.93423 15.285 8.80545 15.5 8.61C15.6806 8.77413 15.8985 8.89172 16.1348 8.95258C16.3711 9.01344 16.6187 9.01572 16.8561 8.95923C17.0935 8.90274 17.3135 8.78919 17.4971 8.62842C17.6807 8.46765 17.8223 8.26452 17.9096 8.03664C17.9969 7.80877 18.0273 7.56304 17.9981 7.32076C17.969 7.07848 17.8812 6.84697 17.7423 6.64632C17.6034 6.44567 17.4177 6.28192 17.2012 6.1693C16.9847 6.05667 16.744 5.99856 16.5 6V6ZM15 15C14.7348 15 14.4804 15.1054 14.2929 15.2929C14.1054 15.4804 14 15.7348 14 16V17C14 17.2652 13.8946 17.5196 13.7071 17.7071C13.5196 17.8946 13.2652 18 13 18H3C2.73478 18 2.48043 17.8946 2.29289 17.7071C2.10536 17.5196 2 17.2652 2 17V13H3C3.26522 13 3.51957 12.8946 3.70711 12.7071C3.89464 12.5196 4 12.2652 4 12C4 11.7348 3.89464 11.4804 3.70711 11.2929C3.51957 11.1054 3.26522 11 3 11H2V10C2 9.73478 2.10536 9.48043 2.29289 9.29289C2.48043 9.10536 2.73478 9 3 9C3.26522 9 3.51957 8.89464 3.70711 8.70711C3.89464 8.51957 4 8.26522 4 8C4 7.73478 3.89464 7.48043 3.70711 7.29289C3.51957 7.10536 3.26522 7 3 7C2.20435 7 1.44129 7.31607 0.87868 7.87868C0.31607 8.44129 0 9.20435 0 10V17C0 17.7956 0.31607 18.5587 0.87868 19.1213C1.44129 19.6839 2.20435 20 3 20H13C13.7956 20 14.5587 19.6839 15.1213 19.1213C15.6839 18.5587 16 17.7956 16 17V16C16 15.7348 15.8946 15.4804 15.7071 15.2929C15.5196 15.1054 15.2652 15 15 15ZM5 16H6C6.26522 16 6.51957 15.8946 6.70711 15.7071C6.89464 15.5196 7 15.2652 7 15C7 14.7348 6.89464 14.4804 6.70711 14.2929C6.51957 14.1054 6.26522 14 6 14H5C4.73478 14 4.48043 14.1054 4.29289 14.2929C4.10536 14.4804 4 14.7348 4 15C4 15.2652 4.10536 15.5196 4.29289 15.7071C4.48043 15.8946 4.73478 16 5 16Z" fill="#BFBFBF"/>
</svg>
