<svg width="22" height="20" viewBox="0 0 22 20" fill="none" xmlns="http://www.w3.org/2000/svg">
<path d="M18 20C16.9 20 15.9583 19.6083 15.175 18.825C14.3917 18.0417 14 17.1 14 16V11.5C14 10.8 14.2417 10.2083 14.725 9.725C15.2083 9.24167 15.8 9 16.5 9C17.2 9 17.7917 9.24167 18.275 9.725C18.7583 10.2083 19 10.8 19 11.5V16H17V11.5C17 11.3667 16.95 11.25 16.85 11.15C16.75 11.05 16.6333 11 16.5 11C16.3667 11 16.25 11.05 16.15 11.15C16.05 11.25 16 11.3667 16 11.5V16C16 16.55 16.1957 17.021 16.587 17.413C16.979 17.8043 17.45 18 18 18C18.55 18 19.021 17.8043 19.413 17.413C19.8043 17.021 20 16.55 20 16V12H22V16C22 17.1 21.6083 18.0417 20.825 18.825C20.0417 19.6083 19.1 20 18 20ZM2 16C1.45 16 0.979333 15.8043 0.588 15.413C0.196 15.021 0 14.55 0 14V2C0 1.45 0.196 0.979 0.588 0.587C0.979333 0.195667 1.45 0 2 0H18C18.55 0 19.021 0.195667 19.413 0.587C19.8043 0.979 20 1.45 20 2V8H16.5C15.5333 8 14.7083 8.34167 14.025 9.025C13.3417 9.70833 13 10.5333 13 11.5V16H2ZM10 9L18 4V2L10 7L2 2V4L10 9Z" fill="#BFBFBF"/>
</svg>
