<svg width="29" height="26" viewBox="0 0 29 26" fill="none" xmlns="http://www.w3.org/2000/svg">
<path d="M27.9204 5.35296L22.9541 0.884332C22.306 0.336511 21.4566 0.0221793 20.5676 0.00112981C19.6787 -0.0199197 18.8121 0.253782 18.1328 0.770171L1.82014 15.4481C1.23427 15.9798 0.869479 16.6765 0.787001 17.4215L0.00761793 24.2223C-0.0167986 24.4612 0.017649 24.702 0.108505 24.9275C0.199361 25.153 0.344388 25.3577 0.533249 25.527C0.702611 25.6782 0.903467 25.7978 1.1243 25.8789C1.34513 25.9601 1.5816 26.0012 1.82014 26H1.98327L9.54147 25.3802C10.3694 25.306 11.1438 24.9778 11.7346 24.4506L28.0473 9.77266C28.6804 9.17081 29.0226 8.36766 28.9988 7.53922C28.9751 6.71077 28.5873 5.9246 27.9204 5.35296ZM9.21522 22.1185L3.77766 22.5751L4.26704 17.6825L14.5078 8.58211L19.4016 12.9855L9.21522 22.1185ZM21.7579 10.8001L16.9003 6.42934L20.4347 3.16757L25.3829 7.61989L21.7579 10.8001Z" fill="#FFA500"/>
</svg>
