<svg width="58" height="58" viewBox="0 0 58 58" fill="none" xmlns="http://www.w3.org/2000/svg">
<path d="M28.8151 57.6302C44.7292 57.6302 57.6302 44.7293 57.6302 28.8151C57.6302 12.901 44.7292 0 28.8151 0C12.901 0 0 12.901 0 28.8151C0 44.7293 12.901 57.6302 28.8151 57.6302Z" fill="white"/>
<mask id="mask0_4423_11" style="mask-type:alpha" maskUnits="userSpaceOnUse" x="18" y="10" width="21" height="38">
<path d="M27.4371 38.6028V30.0788C24.7789 29.3193 22.8259 28.1733 21.5781 26.6407C20.3439 25.0946 19.7268 23.223 19.7268 21.0258C19.7268 18.8016 20.4253 16.9367 21.8222 15.4313C23.2327 13.9123 25.1044 13.0375 27.4371 12.807V10.793H30.3869V12.807C32.5434 13.0647 34.259 13.8038 35.5339 15.0244C36.8088 16.2315 37.6225 17.8522 37.9751 19.8866L32.8282 20.5579C32.5162 18.9576 31.7025 17.8726 30.3869 17.3029V25.2573C33.6419 26.1389 35.8594 27.2849 37.0393 28.6954C38.2193 30.0923 38.8092 31.8894 38.8092 34.0865C38.8092 36.5413 38.0633 38.6096 36.5714 40.2913C35.0931 41.9731 33.0316 43.0038 30.3869 43.3836V47.1878H27.4371V43.4853C25.0908 43.2005 23.1853 42.3257 21.7205 40.8609C20.2558 39.3962 19.32 37.3279 18.9131 34.6561L24.2228 34.0865C24.4398 35.1715 24.8467 36.1073 25.4434 36.8939C26.0402 37.6805 26.7047 38.2502 27.4371 38.6028ZM27.4371 17.2419C26.6369 17.5132 25.9995 17.9743 25.5248 18.6253C25.0501 19.2763 24.8128 19.9951 24.8128 20.7817C24.8128 21.5005 25.0298 22.1719 25.4638 22.7957C25.8978 23.406 26.5555 23.9011 27.4371 24.2808V17.2419ZM30.3869 38.8876C31.4041 38.6977 32.2314 38.2298 32.8689 37.4839C33.5063 36.7244 33.825 35.836 33.825 34.8189C33.825 33.9102 33.5538 33.1303 33.0113 32.4793C32.4823 31.8148 31.6076 31.3062 30.3869 30.9536V38.8876Z" fill="#FF6600"/>
</mask>
<g mask="url(#mask0_4423_11)">
<rect x="15.9131" y="7.79297" width="27" height="40" fill="#008000"/>
</g>
</svg>
