<svg width="66" height="65" viewBox="0 0 66 65" fill="none" xmlns="http://www.w3.org/2000/svg">
<path d="M39.3459 20.3568C38.05 19.5296 36.6025 18.923 35.0446 18.5646C34.8433 18.5208 34.6347 18.5228 34.4342 18.5705C34.2337 18.6181 34.0465 18.7102 33.8864 18.8399C33.7263 18.9696 33.5974 19.1336 33.5091 19.3198C33.4208 19.5059 33.3755 19.7096 33.3765 19.9156C33.3765 20.536 33.7901 21.115 34.3967 21.2529C35.6512 21.5286 36.8368 22.0249 37.8846 22.7004C38.4222 23.0451 39.1115 22.9348 39.5664 22.4798C40.1868 21.8595 40.0903 20.8255 39.3459 20.3568V20.3568ZM44.0883 30.6274C44.9706 30.6274 45.6461 29.814 45.4393 28.9593C45.0809 27.4152 44.4743 25.9677 43.6471 24.658C43.1784 23.9136 42.1306 23.8171 41.5103 24.4374C41.0691 24.8786 40.9588 25.5817 41.2897 26.1193C41.9652 27.1809 42.4615 28.3527 42.7372 29.6072C42.8169 29.9033 42.993 30.1643 43.2377 30.3491C43.4824 30.5339 43.7817 30.6318 44.0883 30.6274ZM41.5103 39.5745C42.1306 40.1949 43.1784 40.0984 43.6471 39.3677C44.4743 38.0718 45.0809 36.6243 45.4393 35.0803C45.6323 34.2255 44.9568 33.4121 44.0883 33.4121C43.4679 33.4121 42.8889 33.8257 42.751 34.4323C42.4753 35.6868 41.9652 36.8586 41.3035 37.9202C40.9588 38.4303 41.0691 39.1333 41.5103 39.5745ZM33.3765 44.0963C33.3765 44.9786 34.1899 45.6541 35.0446 45.4473C36.5887 45.0889 38.0362 44.4823 39.3321 43.6552C40.0765 43.1864 40.173 42.1387 39.5527 41.5183C39.1115 41.0772 38.4084 40.9669 37.8846 41.3115C36.8368 41.987 35.665 42.4833 34.3967 42.7591C33.7901 42.8969 33.3765 43.4621 33.3765 44.0963ZM33.3765 32.006V26.4916C33.3765 25.7333 32.7562 25.113 31.9979 25.113C31.2397 25.113 30.6193 25.7333 30.6193 26.4916V32.006H28.4273C27.2004 32.006 26.58 33.4949 27.4485 34.3634L31.0191 37.934C31.5568 38.4716 32.4253 38.4716 32.9629 37.934L36.5335 34.3634C37.402 33.4949 36.7817 32.006 35.5547 32.006H33.3765ZM30.6193 44.0963C30.6193 44.9786 29.806 45.6541 28.9512 45.4611C22.8027 44.0687 18.2119 38.5819 18.2119 32.006C18.2119 25.43 22.8027 19.9432 28.9512 18.5646C29.1526 18.5208 29.3612 18.5228 29.5616 18.5705C29.7621 18.6181 29.9493 18.7102 30.1094 18.8399C30.2695 18.9696 30.3985 19.1336 30.4868 19.3198C30.575 19.5059 30.6203 19.7096 30.6193 19.9156C30.6193 20.5498 30.192 21.115 29.5716 21.2529C24.65 22.3558 20.9691 26.7535 20.9691 32.006C20.9691 37.2584 24.65 41.6562 29.5716 42.7591C30.192 42.8969 30.6193 43.4621 30.6193 44.0963Z" fill="#FF6600"/>
<circle cx="32.9746" cy="32.5363" r="31.0886" stroke="#FF6600" stroke-width="2"/>
</svg>
