<svg width="5" height="22" viewBox="0 0 5 22" fill="none" xmlns="http://www.w3.org/2000/svg">
<path d="M2.5 5C3.88071 5 5 3.88071 5 2.5C5 1.11929 3.88071 0 2.5 0C1.11929 0 0 1.11929 0 2.5C0 3.88071 1.11929 5 2.5 5Z" fill="white"/>
<path d="M2.5 13.5C3.88071 13.5 5 12.3807 5 11C5 9.61929 3.88071 8.5 2.5 8.5C1.11929 8.5 0 9.61929 0 11C0 12.3807 1.11929 13.5 2.5 13.5Z" fill="white"/>
<path d="M2.5 22C3.88071 22 5 20.8807 5 19.5C5 18.1193 3.88071 17 2.5 17C1.11929 17 0 18.1193 0 19.5C0 20.8807 1.11929 22 2.5 22Z" fill="white"/>
</svg>
