<svg width="38" height="32" viewBox="0 0 38 32" fill="none" xmlns="http://www.w3.org/2000/svg">
<path d="M16.5451 9.67086V3.44995H0.992798V31.444H32.0973V9.67086H16.5451ZM7.21371 28.3336H4.10325V25.2231H7.21371V28.3336ZM7.21371 22.1127H4.10325V19.0022H7.21371V22.1127ZM7.21371 15.8918H4.10325V12.7813H7.21371V15.8918ZM7.21371 9.67086H4.10325V6.56041H7.21371V9.67086ZM13.4346 28.3336H10.3242V25.2231H13.4346V28.3336ZM13.4346 22.1127H10.3242V19.0022H13.4346V22.1127ZM13.4346 15.8918H10.3242V12.7813H13.4346V15.8918ZM13.4346 9.67086H10.3242V6.56041H13.4346V9.67086ZM28.9869 28.3336H16.5451V25.2231H19.6555V22.1127H16.5451V19.0022H19.6555V15.8918H16.5451V12.7813H28.9869V28.3336ZM25.8764 15.8918H22.766V19.0022H25.8764V15.8918ZM25.8764 22.1127H22.766V25.2231H25.8764V22.1127Z" fill="#BFBFBF"/>
<path d="M37.8476 9.15086C37.8476 13.9771 33.9351 17.8896 29.1088 17.8896C24.2825 17.8896 20.3701 13.9771 20.3701 9.15086C20.3701 4.32458 24.2825 0.412109 29.1088 0.412109C33.9351 0.412109 37.8476 4.32458 37.8476 9.15086Z" fill="#C4C4C4"/>
<path d="M29.1481 6.40632C27.619 6.40632 26.4036 7.62177 26.4036 9.15088C26.4036 10.68 27.619 11.8954 29.1481 11.8954C30.6772 11.8954 31.8927 10.68 31.8927 9.15088C31.8927 7.62177 30.6772 6.40632 29.1481 6.40632ZM29.1481 11.1113C28.0503 11.1113 27.1877 10.2487 27.1877 9.15088C27.1877 8.05306 28.0503 7.19048 29.1481 7.19048C30.246 7.19048 31.1085 8.05306 31.1085 9.15088C31.1085 10.2487 30.246 11.1113 29.1481 11.1113Z" fill="white"/>
<path d="M34.8948 7.86077L33.8002 7.50892L33.5656 6.9225L34.113 5.90604C34.2302 5.67147 34.1911 5.35871 33.9957 5.16324L33.0574 4.22497C32.8619 4.0295 32.5492 3.9904 32.3146 4.10769L31.2981 4.65501L30.7117 4.42044L30.3599 3.32579C30.2817 3.09122 30.0471 2.89575 29.7734 2.89575H28.4442C28.1706 2.89575 27.936 3.09123 27.8969 3.36489L27.5451 4.45954C27.3105 4.49863 27.115 4.57682 26.9195 4.6941L25.9031 4.14678C25.6685 4.0295 25.3558 4.06859 25.1603 4.26406L24.222 5.20234C24.0265 5.39781 23.9874 5.71057 24.1047 5.94513L24.613 6.9225C24.5348 7.11797 24.4566 7.35254 24.3784 7.54801L23.2837 7.89986C23.0492 7.97805 22.8537 8.21262 22.8537 8.48628V9.8155C22.8537 10.0892 23.0492 10.3237 23.3228 10.4019L24.4175 10.7538L24.6521 11.3402L24.1047 12.3567C23.9874 12.5912 24.0265 12.904 24.222 13.0995L25.1603 14.0377C25.3558 14.2332 25.6685 14.2723 25.9031 14.155L26.9195 13.6077L27.506 13.8422L27.8578 14.976C27.936 15.2106 28.1706 15.406 28.4442 15.406H29.7734C30.0471 15.406 30.2817 15.2106 30.3599 14.976L30.7117 13.8422L31.2981 13.6077L32.3146 14.155C32.5492 14.2723 32.8619 14.2332 33.0574 14.0377L33.9957 13.0995C34.1911 12.904 34.2302 12.5912 34.113 12.3567L33.5656 11.3402L33.8002 10.7538L34.9339 10.4019C35.1685 10.3237 35.364 10.0892 35.364 9.8155V8.48628C35.364 8.21262 35.1685 7.93896 34.8948 7.86077ZM34.5821 9.69822L33.1747 10.1283L33.1356 10.3237L32.7837 11.1447L32.6665 11.3402L33.3702 12.6303L32.5883 13.4122L31.2981 12.7085L31.1027 12.8258C30.829 12.9822 30.5553 13.0995 30.2817 13.1776L30.0862 13.2167L29.6562 14.6241H28.5615L28.1315 13.2167L27.936 13.1776L27.115 12.8258L26.9195 12.7085L25.6294 13.4122L24.8475 12.6303L25.5512 11.3402L25.4339 11.1447C25.2776 10.8711 25.1603 10.5974 25.0821 10.3237L25.043 10.1283L23.6356 9.69822V8.60357L24.9648 8.21262L25.043 8.01715C25.1212 7.70439 25.2385 7.43073 25.3948 7.15707L25.5121 6.96159L24.8475 5.67147L25.6294 4.88958L26.8804 5.59328L27.0759 5.476C27.3496 5.31962 27.6232 5.20234 27.936 5.12415L28.1315 5.04596L28.5615 3.67764H29.6562L30.0862 5.04596L30.2817 5.12415C30.5553 5.20234 30.829 5.31962 31.1027 5.476L31.2981 5.59328L32.5883 4.88958L33.3702 5.67147L32.6665 6.96159L32.7837 7.15707C32.9401 7.43073 33.0574 7.70439 33.1356 7.97805L33.1747 8.17353L34.5821 8.60357V9.69822Z" fill="white"/>
</svg>
