<svg width="23" height="26" viewBox="0 0 23 26" fill="none" xmlns="http://www.w3.org/2000/svg">
<path d="M6.41286 19.0786V15.3231H15.1756V10.3158H6.41286V6.56037L0.153763 12.8195L6.41286 19.0786ZM8.9165 0.30127C8.2525 0.30127 7.61569 0.565045 7.14616 1.03457C6.67664 1.50409 6.41286 2.1409 6.41286 2.80491V5.30855H8.9165V2.80491H20.1829V22.834H8.9165V20.3304H6.41286V22.834C6.41286 23.498 6.67664 24.1348 7.14616 24.6044C7.61569 25.0739 8.2525 25.3377 8.9165 25.3377H20.1829C20.8469 25.3377 21.4837 25.0739 21.9532 24.6044C22.4227 24.1348 22.6865 23.498 22.6865 22.834V2.80491C22.6865 2.1409 22.4227 1.50409 21.9532 1.03457C21.4837 0.565045 20.8469 0.30127 20.1829 0.30127H8.9165Z" fill="#BFBFBF"/>
</svg>
