<svg width="58" height="58" viewBox="0 0 58 58" fill="none" xmlns="http://www.w3.org/2000/svg">
<path d="M28.9025 57.8375C44.8166 57.8375 57.7176 44.9365 57.7176 29.0224C57.7176 13.1082 44.8166 0.207275 28.9025 0.207275C12.9884 0.207275 0.0874023 13.1082 0.0874023 29.0224C0.0874023 44.9365 12.9884 57.8375 28.9025 57.8375Z" fill="#1EAAE7"/>
<path d="M38.5114 21.7841L37.5455 25.0795H19.1364L20.1023 21.7841H38.5114ZM29.875 44L19.4773 31.2727L19.4205 28.8864H24.5909C25.9356 28.8864 27.0814 28.697 28.0284 28.3182C28.9754 27.9299 29.6998 27.3523 30.2017 26.5852C30.7036 25.8087 30.9545 24.8333 30.9545 23.6591C30.9545 21.9261 30.4337 20.5672 29.392 19.5824C28.3504 18.5881 26.75 18.0909 24.5909 18.0909H19.1364L20.1023 14.9091H24.5909C26.9015 14.9091 28.7955 15.2926 30.2727 16.0597C31.7595 16.8172 32.858 17.8589 33.5682 19.1847C34.2879 20.5009 34.6477 21.9924 34.6477 23.6591C34.6477 25.1648 34.3163 26.5521 33.6534 27.821C33 29.0805 31.9489 30.0937 30.5 30.8608C29.0606 31.6278 27.1572 32.0114 24.7898 32.0114H24.7045L34.3068 43.7727V44H29.875ZM38.5114 14.9091L37.5455 18.2045L23.0568 18.0909L24.0227 14.9091H38.5114Z" fill="white"/>
</svg>
