<svg width="65" height="65" viewBox="0 0 65 65" fill="none" xmlns="http://www.w3.org/2000/svg">
<path d="M38.4599 19.909C37.164 19.0819 35.7165 18.4753 34.1586 18.1169C33.9573 18.0731 33.7487 18.0751 33.5482 18.1227C33.3478 18.1704 33.1606 18.2624 33.0004 18.3921C32.8403 18.5218 32.7114 18.6858 32.6231 18.872C32.5349 19.0582 32.4896 19.2618 32.4905 19.4679C32.4905 20.0883 32.9041 20.6673 33.5107 20.8051C34.7652 21.0808 35.9508 21.5771 36.9986 22.2527C37.5362 22.5973 38.2255 22.487 38.6805 22.0321C39.3008 21.4117 39.2043 20.3778 38.4599 19.909V19.909ZM43.2023 30.1796C44.0846 30.1796 44.7601 29.3662 44.5533 28.5115C44.1949 26.9675 43.5883 25.5199 42.7611 24.2103C42.2924 23.4658 41.2447 23.3693 40.6243 23.9897C40.1831 24.4308 40.0728 25.1339 40.4037 25.6716C41.0792 26.7331 41.5755 27.9049 41.8512 29.1594C41.9309 29.4555 42.107 29.7166 42.3517 29.9013C42.5964 30.0861 42.8957 30.184 43.2023 30.1796ZM40.6243 39.1267C41.2447 39.7471 42.2924 39.6506 42.7611 38.9199C43.5883 37.6241 44.1949 36.1765 44.5533 34.6325C44.7463 33.7778 44.0708 32.9644 43.2023 32.9644C42.5819 32.9644 42.0029 33.378 41.865 33.9846C41.5893 35.2391 41.0792 36.4109 40.4175 37.4724C40.0728 37.9825 40.1831 38.6856 40.6243 39.1267ZM32.4905 43.6485C32.4905 44.5309 33.3039 45.2064 34.1586 44.9996C35.7027 44.6411 37.1502 44.0346 38.4461 43.2074C39.1905 42.7387 39.287 41.6909 38.6667 41.0706C38.2255 40.6294 37.5224 40.5191 36.9986 40.8638C35.9508 41.5393 34.779 42.0356 33.5107 42.3113C32.9041 42.4492 32.4905 43.0144 32.4905 43.6485ZM32.4905 31.5582V26.0438C32.4905 25.2856 31.8702 24.6652 31.1119 24.6652C30.3537 24.6652 29.7333 25.2856 29.7333 26.0438V31.5582H27.5414C26.3144 31.5582 25.694 33.0471 26.5626 33.9156L30.1331 37.4862C30.6708 38.0239 31.5393 38.0239 32.077 37.4862L35.6475 33.9156C36.5161 33.0471 35.8957 31.5582 34.6687 31.5582H32.4905ZM29.7333 43.6485C29.7333 44.5309 28.92 45.2064 28.0652 45.0134C21.9167 43.621 17.3259 38.1341 17.3259 31.5582C17.3259 24.9823 21.9167 19.4955 28.0652 18.1169C28.2666 18.0731 28.4752 18.0751 28.6757 18.1227C28.8761 18.1704 29.0633 18.2624 29.2234 18.3921C29.3836 18.5218 29.5125 18.6858 29.6008 18.872C29.689 19.0582 29.7343 19.2618 29.7333 19.4679C29.7333 20.102 29.306 20.6673 28.6856 20.8051C23.764 21.908 20.0831 26.3057 20.0831 31.5582C20.0831 36.8107 23.764 41.2084 28.6856 42.3113C29.306 42.4492 29.7333 43.0144 29.7333 43.6485Z" fill="#1CAAE8"/>
<circle cx="32.0886" cy="32.0886" r="31.0886" stroke="#1CAAE8" stroke-width="2"/>
</svg>
