<svg width="66" height="65" viewBox="0 0 66 65" fill="none" xmlns="http://www.w3.org/2000/svg">
<path d="M24.3429 43.6706C25.6387 44.4977 27.0863 45.1043 28.6441 45.4627C28.8454 45.5065 29.054 45.5045 29.2545 45.4569C29.455 45.4092 29.6422 45.3171 29.8023 45.1875C29.9624 45.0578 30.0914 44.8938 30.1796 44.7076C30.2679 44.5214 30.3132 44.3178 30.3122 44.1117C30.3122 43.4913 29.8986 42.9123 29.292 42.7745C28.0375 42.4987 26.8519 42.0024 25.8042 41.3269C25.2665 40.9823 24.5772 41.0926 24.1223 41.5475C23.5019 42.1679 23.5984 43.2018 24.3429 43.6706V43.6706ZM19.6005 33.4C18.7182 33.4 18.0426 34.2134 18.2494 35.0681C18.6079 36.6121 19.2145 38.0596 20.0416 39.3693C20.5103 40.1138 21.5581 40.2103 22.1784 39.5899C22.6196 39.1487 22.7299 38.4457 22.399 37.908C21.7235 36.8465 21.2272 35.6747 20.9515 34.4201C20.8718 34.1241 20.6957 33.863 20.451 33.6783C20.2063 33.4935 19.907 33.3956 19.6005 33.4ZM22.1784 24.4529C21.5581 23.8325 20.5103 23.929 20.0416 24.6596C19.2145 25.9555 18.6079 27.4031 18.2494 28.9471C18.0564 29.8018 18.7319 30.6152 19.6005 30.6152C20.2208 30.6152 20.7998 30.2016 20.9377 29.595C21.2134 28.3405 21.7235 27.1687 22.3852 26.1072C22.7299 25.5971 22.6196 24.894 22.1784 24.4529ZM30.3122 19.931C30.3122 19.0487 29.4988 18.3732 28.6441 18.58C27.1001 18.9384 25.6525 19.545 24.3566 20.3722C23.6122 20.8409 23.5157 21.8887 24.1361 22.509C24.5772 22.9502 25.2803 23.0605 25.8042 22.7158C26.8519 22.0403 28.0237 21.544 29.292 21.2683C29.8986 21.1304 30.3122 20.5652 30.3122 19.931ZM30.3122 32.0214V37.5358C30.3122 38.294 30.9326 38.9144 31.6908 38.9144C32.449 38.9144 33.0694 38.294 33.0694 37.5358V32.0214H35.2614C36.4883 32.0214 37.1087 30.5325 36.2402 29.664L32.6696 26.0934C32.1319 25.5557 31.2634 25.5557 30.7258 26.0934L27.1552 29.664C26.2867 30.5325 26.907 32.0214 28.134 32.0214H30.3122ZM33.0694 19.931C33.0694 19.0487 33.8828 18.3732 34.7375 18.5662C40.8861 19.9586 45.4768 25.4454 45.4768 32.0214C45.4768 38.5973 40.8861 44.0841 34.7375 45.4627C34.5362 45.5065 34.3275 45.5045 34.1271 45.4569C33.9266 45.4092 33.7394 45.3171 33.5793 45.1875C33.4192 45.0578 33.2902 44.8938 33.202 44.7076C33.1137 44.5214 33.0684 44.3178 33.0694 44.1117C33.0694 43.4776 33.4968 42.9123 34.1171 42.7745C39.0387 41.6716 42.7196 37.2738 42.7196 32.0214C42.7196 26.7689 39.0387 22.3712 34.1171 21.2683C33.4968 21.1304 33.0694 20.5652 33.0694 19.931Z" fill="#2BC155"/>
<circle cx="32.9746" cy="32.5363" r="31.0886" stroke="#2BC155" stroke-width="2"/>
</svg>
