<svg width="20" height="20" viewBox="0 0 20 20" fill="none" xmlns="http://www.w3.org/2000/svg">
<path d="M9.11 2.049C9.37362 2.01983 9.61486 1.88713 9.78065 1.68009C9.94643 1.47305 10.0232 1.20863 9.994 0.945003C9.96483 0.681378 9.83212 0.440139 9.62508 0.274357C9.41804 0.108575 9.15363 0.0318293 8.89 0.0610031C3.888 0.614003 0 4.852 0 10C0 15.523 4.477 20 10 20C15.146 20 19.383 16.113 19.939 11.114C19.9682 10.8504 19.8914 10.586 19.7256 10.3789C19.5599 10.1719 19.3186 10.0392 19.055 10.01C18.7914 9.98083 18.527 10.0576 18.3199 10.2234C18.1129 10.3891 17.9802 10.6304 17.951 10.894C17.7207 12.9241 16.7225 14.7892 15.161 16.1068C13.5996 17.4245 11.5932 18.0949 9.55327 17.9806C7.51335 17.8662 5.59445 16.9758 4.19001 15.492C2.78558 14.0081 2.00202 12.0431 2 10C2.00006 8.03232 2.72519 6.13367 4.03681 4.6669C5.34844 3.20013 7.15456 2.26813 9.11 2.049V2.049ZM12.767 0.391003C12.5143 0.327236 12.2466 0.364671 12.0211 0.495333C11.7955 0.625994 11.6299 0.839555 11.5595 1.09052C11.4891 1.34149 11.5195 1.61003 11.6442 1.83893C11.7688 2.06784 11.978 2.23902 12.227 2.316C12.514 2.397 12.796 2.494 13.069 2.606C13.3146 2.70639 13.59 2.7051 13.8346 2.60242C14.0793 2.49975 14.2731 2.30409 14.3735 2.0585C14.4739 1.81291 14.4726 1.5375 14.3699 1.29286C14.2672 1.04822 14.0716 0.854387 13.826 0.754003C13.4802 0.61296 13.1266 0.491763 12.767 0.391003V0.391003ZM15.349 2.691C15.4378 2.59428 15.5449 2.516 15.6639 2.46064C15.783 2.40528 15.9119 2.37391 16.0431 2.36834C16.1743 2.36277 16.3053 2.3831 16.4287 2.42817C16.552 2.47323 16.6653 2.54216 16.762 2.631C16.974 2.825 17.177 3.028 17.371 3.239C17.5503 3.43447 17.6446 3.69315 17.6331 3.95814C17.6217 4.22313 17.5055 4.47272 17.31 4.652C17.1145 4.83129 16.8559 4.92558 16.5909 4.91414C16.3259 4.9027 16.0763 4.78647 15.897 4.591C15.7421 4.42206 15.5799 4.25991 15.411 4.105C15.3141 4.0163 15.2357 3.90939 15.1802 3.79037C15.1246 3.67135 15.0931 3.54256 15.0873 3.41135C15.0816 3.28013 15.1017 3.14907 15.1466 3.02564C15.1915 2.90222 15.2603 2.78885 15.349 2.692V2.691ZM9 4C9.26522 4 9.51957 4.10536 9.70711 4.2929C9.89464 4.48043 10 4.73479 10 5V10H13C13.2652 10 13.5196 10.1054 13.7071 10.2929C13.8946 10.4804 14 10.7348 14 11C14 11.2652 13.8946 11.5196 13.7071 11.7071C13.5196 11.8946 13.2652 12 13 12H9C8.73478 12 8.48043 11.8946 8.29289 11.7071C8.10536 11.5196 8 11.2652 8 11V5C8 4.73479 8.10536 4.48043 8.29289 4.2929C8.48043 4.10536 8.73478 4 9 4V4ZM17.94 5.623C18.1855 5.52264 18.4607 5.52389 18.7053 5.62647C18.9498 5.72905 19.1436 5.92456 19.244 6.17C19.3858 6.51711 19.5077 6.87202 19.609 7.233C19.6484 7.36058 19.6619 7.49477 19.6487 7.62765C19.6354 7.76053 19.5957 7.88941 19.5318 8.00668C19.4679 8.12395 19.3812 8.22724 19.2768 8.31046C19.1723 8.39367 19.0523 8.45513 18.9237 8.4912C18.7951 8.52727 18.6606 8.53722 18.5282 8.52046C18.3957 8.50371 18.2679 8.46059 18.1523 8.39365C18.0368 8.32671 17.9358 8.2373 17.8554 8.13071C17.7749 8.02411 17.7167 7.90248 17.684 7.773C17.6031 7.48573 17.5059 7.20328 17.393 6.927C17.2926 6.68167 17.2937 6.4065 17.3961 6.16198C17.4985 5.91746 17.6937 5.7236 17.939 5.623H17.94Z" fill="black" fill-opacity="0.6"/>
</svg>
