<svg width="26" height="24" viewBox="0 0 26 24" fill="none" xmlns="http://www.w3.org/2000/svg">
<path d="M11.8756 2.39948C12.2193 2.36437 12.5337 2.20469 12.7499 1.95556C12.966 1.70642 13.066 1.38825 13.028 1.07103C12.99 0.753806 12.817 0.463522 12.5471 0.264036C12.2772 0.0645493 11.9325 -0.0277992 11.5888 0.00730578C5.06832 0.672733 0 5.77234 0 11.967C0 18.6128 5.83613 24 13.0358 24C19.744 24 25.2673 19.3228 25.9921 13.3074C26.0301 12.9902 25.9301 12.672 25.714 12.4229C25.4979 12.1738 25.1834 12.0141 24.8397 11.979C24.4961 11.9439 24.1514 12.0362 23.8815 12.2357C23.6116 12.4352 23.4386 12.7255 23.4006 13.0427C23.1003 15.4855 21.7991 17.7298 19.7636 19.3153C17.7281 20.9009 15.1127 21.7076 12.4535 21.57C9.79425 21.4324 7.29281 20.361 5.46202 18.5754C3.63122 16.7899 2.60979 14.4255 2.60716 11.967C2.60724 9.59923 3.55251 7.31457 5.26231 5.5496C6.97212 3.78464 9.32654 2.66315 11.8756 2.39948ZM16.6428 0.404396C16.3133 0.327666 15.9645 0.372711 15.6704 0.529937C15.3764 0.687162 15.1605 0.944142 15.0688 1.24613C14.977 1.54812 15.0166 1.87126 15.1791 2.1467C15.3416 2.42214 15.6143 2.62812 15.9389 2.72076C16.313 2.81823 16.6806 2.93495 17.0365 3.06972C17.3566 3.19051 17.7157 3.18896 18.0346 3.06541C18.3535 2.94186 18.6062 2.70643 18.737 2.41091C18.8679 2.11539 18.8662 1.78399 18.7323 1.48961C18.5985 1.19523 18.3434 0.961989 18.0233 0.841196C17.5725 0.671478 17.1116 0.525641 16.6428 0.404396ZM20.0087 3.172C20.1245 3.05561 20.264 2.96142 20.4192 2.8948C20.5745 2.82818 20.7424 2.79044 20.9134 2.78374C21.0845 2.77703 21.2553 2.8015 21.4161 2.85573C21.5769 2.90996 21.7245 2.99289 21.8506 3.0998C22.127 3.33324 22.3916 3.57751 22.6445 3.83141C22.8782 4.06661 23.0011 4.37788 22.9862 4.69674C22.9713 5.01561 22.8198 5.31594 22.565 5.53168C22.3102 5.74741 21.973 5.86088 21.6275 5.84711C21.2821 5.83335 20.9567 5.69348 20.723 5.45828C20.5211 5.25499 20.3097 5.05987 20.0895 4.87347C19.9632 4.76674 19.861 4.63809 19.7886 4.49487C19.7162 4.35166 19.675 4.19668 19.6675 4.03879C19.66 3.8809 19.6863 3.72319 19.7448 3.57467C19.8033 3.42615 19.893 3.28973 20.0087 3.1732V3.172ZM11.7322 4.74712C12.078 4.74712 12.4095 4.8739 12.654 5.09956C12.8985 5.32523 13.0358 5.63129 13.0358 5.95043V11.967H16.9465C17.2923 11.967 17.6238 12.0937 17.8683 12.3194C18.1128 12.5451 18.2501 12.8511 18.2501 13.1703C18.2501 13.4894 18.1128 13.7955 17.8683 14.0211C17.6238 14.2468 17.2923 14.3736 16.9465 14.3736H11.7322C11.3865 14.3736 11.0549 14.2468 10.8105 14.0211C10.566 13.7955 10.4286 13.4894 10.4286 13.1703V5.95043C10.4286 5.63129 10.566 5.32523 10.8105 5.09956C11.0549 4.8739 11.3865 4.74712 11.7322 4.74712ZM23.3862 6.70009C23.7062 6.57932 24.065 6.58083 24.3838 6.70426C24.7026 6.82769 24.9552 7.06295 25.0861 7.35829C25.2709 7.77596 25.4298 8.20303 25.5619 8.63741C25.6133 8.79093 25.6309 8.9524 25.6136 9.11229C25.5963 9.27218 25.5445 9.42726 25.4613 9.56838C25.378 9.70949 25.265 9.83378 25.1288 9.93391C24.9927 10.034 24.8362 10.108 24.6686 10.1514C24.501 10.1948 24.3256 10.2068 24.1529 10.1866C23.9802 10.1665 23.8137 10.1146 23.663 10.034C23.5124 9.95347 23.3808 9.84588 23.2759 9.71762C23.1711 9.58935 23.0951 9.443 23.0525 9.28719C22.947 8.94151 22.8204 8.60164 22.6732 8.2692C22.5423 7.97398 22.5437 7.64287 22.6772 7.34864C22.8106 7.05441 23.0652 6.82113 23.3849 6.70009H23.3862Z" fill="#BFBFBF"/>
</svg>
