<svg width="497" height="332" viewBox="0 0 497 332" fill="none" xmlns="http://www.w3.org/2000/svg">
<mask id="mask0_2316_2" style="mask-type:alpha" maskUnits="userSpaceOnUse" x="0" y="0" width="497" height="332">
<rect x="0.182739" width="496.395" height="331.004" rx="30" fill="#1EAAE7"/>
</mask>
<g mask="url(#mask0_2316_2)">
<rect x="6.18274" width="496.395" height="331.004" fill="#0E55A8"/>
<g filter="url(#filter0_d_2316_2)">
<ellipse cx="477.38" cy="15.5766" rx="157.851" ry="135.474" fill="#438EE6"/>
</g>
<path d="M51.2882 5.20049C51.2882 19.8117 38.2879 31.7329 22.1523 31.7329C6.01678 31.7329 -6.98352 19.8117 -6.98352 5.20049C-6.98352 -9.41068 6.01678 -21.3319 22.1523 -21.3319C38.2879 -21.3319 51.2882 -9.41068 51.2882 5.20049Z" stroke="white" stroke-opacity="0.5"/>
<path d="M44.3761 5.20049C44.3761 16.3295 34.4705 25.428 22.1524 25.428C9.83434 25.428 -0.0712891 16.3295 -0.0712891 5.20049C-0.0712891 -5.92855 9.83434 -15.027 22.1524 -15.027C34.4705 -15.027 44.3761 -5.92855 44.3761 5.20049Z" stroke="white" stroke-opacity="0.5"/>
<path d="M37.6368 5.20052C37.6368 12.9345 30.7485 19.2807 22.1524 19.2807C13.5564 19.2807 6.66809 12.9345 6.66809 5.20052C6.66809 -2.53346 13.5564 -8.87964 22.1524 -8.87964C30.7485 -8.87964 37.6368 -2.53346 37.6368 5.20052Z" stroke="white" stroke-opacity="0.5"/>
<circle cx="177.716" cy="363.922" r="130.951" fill="#80B7F8"/>
<circle cx="532.022" cy="316.485" r="135.056" stroke="white" stroke-opacity="0.5"/>
<circle cx="532.022" cy="316.485" r="98.429" stroke="white" stroke-opacity="0.5"/>
<circle cx="532.022" cy="316.485" r="64.3428" stroke="white" stroke-opacity="0.5"/>
<ellipse opacity="0.6" cx="65.7272" cy="183.631" rx="24.5369" ry="24.555" fill="white"/>
<ellipse opacity="0.6" cx="95.0973" cy="183.631" rx="24.5369" ry="24.555" fill="white"/>
</g>
<defs>
<filter id="filter0_d_2316_2" x="288.53" y="-148.898" width="377.701" height="332.948" filterUnits="userSpaceOnUse" color-interpolation-filters="sRGB">
<feFlood flood-opacity="0" result="BackgroundImageFix"/>
<feColorMatrix in="SourceAlpha" type="matrix" values="0 0 0 0 0 0 0 0 0 0 0 0 0 0 0 0 0 0 127 0" result="hardAlpha"/>
<feOffset dy="2"/>
<feGaussianBlur stdDeviation="15.5"/>
<feComposite in2="hardAlpha" operator="out"/>
<feColorMatrix type="matrix" values="0 0 0 0 0 0 0 0 0 0 0 0 0 0 0 0 0 0 0.25 0"/>
<feBlend mode="normal" in2="BackgroundImageFix" result="effect1_dropShadow_2316_2"/>
<feBlend mode="normal" in="SourceGraphic" in2="effect1_dropShadow_2316_2" result="shape"/>
</filter>
</defs>
</svg>
