<svg width="48" height="48" viewBox="0 0 48 48" fill="none" xmlns="http://www.w3.org/2000/svg">
<mask id="mask0_2772_35" style="mask-type:alpha" maskUnits="userSpaceOnUse" x="2" y="2" width="44" height="44">
<path fill-rule="evenodd" clip-rule="evenodd" d="M8 12C9.06087 12 10.0783 11.5786 10.8284 10.8284C11.5786 10.0783 12 9.06087 12 8C12 6.93913 11.5786 5.92172 10.8284 5.17157C10.0783 4.42143 9.06087 4 8 4C6.93913 4 5.92172 4.42143 5.17157 5.17157C4.42143 5.92172 4 6.93913 4 8C4 9.06087 4.42143 10.0783 5.17157 10.8284C5.92172 11.5786 6.93913 12 8 12V12ZM10 42C11.5913 42 13.1174 41.3679 14.2426 40.2426C15.3679 39.1174 16 37.5913 16 36C16 34.4087 15.3679 32.8826 14.2426 31.7574C13.1174 30.6321 11.5913 30 10 30C8.4087 30 6.88258 30.6321 5.75736 31.7574C4.63214 32.8826 4 34.4087 4 36C4 37.5913 4.63214 39.1174 5.75736 40.2426C6.88258 41.3679 8.4087 42 10 42V42ZM38 44C39.5913 44 41.1174 43.3679 42.2426 42.2426C43.3679 41.1174 44 39.5913 44 38C44 36.4087 43.3679 34.8826 42.2426 33.7574C41.1174 32.6321 39.5913 32 38 32C36.4087 32 34.8826 32.6321 33.7574 33.7574C32.6321 34.8826 32 36.4087 32 38C32 39.5913 32.6321 41.1174 33.7574 42.2426C34.8826 43.3679 36.4087 44 38 44ZM22 28C24.1217 28 26.1566 27.1571 27.6569 25.6569C29.1571 24.1566 30 22.1217 30 20C30 17.8783 29.1571 15.8434 27.6569 14.3431C26.1566 12.8429 24.1217 12 22 12C19.8783 12 17.8434 12.8429 16.3431 14.3431C14.8429 15.8434 14 17.8783 14 20C14 22.1217 14.8429 24.1566 16.3431 25.6569C17.8434 27.1571 19.8783 28 22 28V28ZM34 12C35.0609 12 36.0783 11.5786 36.8284 10.8284C37.5786 10.0783 38 9.06087 38 8C38 6.93913 37.5786 5.92172 36.8284 5.17157C36.0783 4.42143 35.0609 4 34 4C32.9391 4 31.9217 4.42143 31.1716 5.17157C30.4214 5.92172 30 6.93913 30 8C30 9.06087 30.4214 10.0783 31.1716 10.8284C31.9217 11.5786 32.9391 12 34 12V12Z" fill="white" stroke="white" stroke-width="4" stroke-linecap="round" stroke-linejoin="round"/>
<path d="M11 11L15 15M30 12L28 14M34 33.5L28 26M14 31L18 27" stroke="white" stroke-width="4" stroke-linecap="round" stroke-linejoin="round"/>
</mask>
<g mask="url(#mask0_2772_35)">
<path d="M0 0H48V48H0V0Z" fill="black" fill-opacity="0.6"/>
</g>
</svg>
