<svg width="26" height="24" viewBox="0 0 26 24" fill="none" xmlns="http://www.w3.org/2000/svg">
<path d="M20.4218 9L25.671 2.43751C25.8478 2.21663 25.9585 1.95024 25.9904 1.6691C26.0223 1.38796 25.9741 1.10353 25.8512 0.848652C25.7284 0.593774 25.536 0.378844 25.2962 0.228679C25.0564 0.078514 24.7791 -0.000761699 24.4962 5.51635e-06H1.49977C1.102 5.51635e-06 0.720532 0.158041 0.439271 0.439345C0.158011 0.72065 0 1.10218 0 1.50001V22.5C0 22.8978 0.158011 23.2794 0.439271 23.5607C0.720532 23.842 1.102 24 1.49977 24C1.89753 24 2.279 23.842 2.56026 23.5607C2.84152 23.2794 2.99953 22.8978 2.99953 22.5V18H24.4962C24.7791 18.0008 25.0564 17.9215 25.2962 17.7713C25.536 17.6212 25.7284 17.4062 25.8512 17.1514C25.9741 16.8965 26.0223 16.612 25.9904 16.3309C25.9585 16.0498 25.8478 15.7834 25.671 15.5625L20.4218 9ZM2.99953 15V3H21.3717L17.3223 8.0625C17.1093 8.32855 16.9933 8.6592 16.9933 9C16.9933 9.34081 17.1093 9.67146 17.3223 9.9375L21.3717 15H2.99953Z" fill="#BFBFBF"/>
</svg>
