<svg width="128" height="128" viewBox="0 0 128 128" fill="none" xmlns="http://www.w3.org/2000/svg">
<circle cx="64" cy="64" r="64" fill="white"/>
<path d="M24.4247 91V40.0909H44.5099C48.3546 40.0909 51.6359 40.7786 54.3537 42.1541C57.0881 43.513 59.1679 45.4437 60.593 47.946C62.0348 50.4318 62.7557 53.3568 62.7557 56.7209C62.7557 60.1016 62.0265 63.0099 60.5682 65.446C59.1099 67.8655 56.9969 69.7216 54.2294 71.0142C51.4785 72.3068 48.1475 72.9531 44.2365 72.9531H30.7884V64.3026H42.4964C44.5514 64.3026 46.2583 64.0208 47.6172 63.4574C48.9761 62.8939 49.987 62.0488 50.6499 60.9219C51.3293 59.795 51.669 58.3946 51.669 56.7209C51.669 55.0305 51.3293 53.6053 50.6499 52.4453C49.987 51.2853 48.9678 50.407 47.5923 49.8104C46.2334 49.1972 44.5182 48.8906 42.4467 48.8906H35.1882V91H24.4247ZM51.9176 67.8324L64.5703 91H52.6882L40.3089 67.8324H51.9176ZM87.1662 97.3636V33.7273H91.2429V97.3636H87.1662ZM97.9794 54.7322C97.7805 52.727 96.9271 51.1693 95.419 50.0589C93.911 48.9486 91.8643 48.3935 89.2791 48.3935C87.5225 48.3935 86.0393 48.642 84.8295 49.1392C83.6198 49.6198 82.6918 50.291 82.0455 51.1527C81.4157 52.0144 81.1009 52.9922 81.1009 54.0859C81.0677 54.9974 81.2583 55.7929 81.6726 56.4723C82.1035 57.1518 82.6918 57.7401 83.4375 58.2372C84.1832 58.7178 85.045 59.1404 86.0227 59.505C87.0005 59.853 88.0445 60.1513 89.1548 60.3999L93.7287 61.4936C95.9493 61.9908 97.9877 62.6536 99.8438 63.4822C101.7 64.3108 103.307 65.33 104.666 66.5398C106.025 67.7495 107.077 69.1747 107.823 70.8153C108.585 72.456 108.975 74.3369 108.991 76.4581C108.975 79.5736 108.179 82.2749 106.605 84.5618C105.047 86.8321 102.794 88.5971 99.8438 89.8565C96.9105 91.0994 93.3724 91.7209 89.2294 91.7209C85.1196 91.7209 81.54 91.0911 78.4908 89.8317C75.4581 88.5722 73.0883 86.7079 71.3814 84.2386C69.6911 81.7528 68.8045 78.6787 68.7216 75.0163H79.1371C79.2531 76.7232 79.742 78.1484 80.6037 79.2919C81.482 80.4188 82.6503 81.2723 84.1087 81.8523C85.5836 82.4157 87.2491 82.6974 89.1051 82.6974C90.928 82.6974 92.5107 82.4323 93.853 81.902C95.2119 81.3717 96.2642 80.6342 97.0099 79.6896C97.7557 78.745 98.1286 77.6596 98.1286 76.4332C98.1286 75.2898 97.7888 74.3286 97.1094 73.5497C96.4465 72.7708 95.4688 72.108 94.1761 71.5611C92.9001 71.0142 91.334 70.517 89.478 70.0696L83.9347 68.6776C79.6425 67.6335 76.2536 66.0012 73.7678 63.7805C71.282 61.5599 70.0473 58.5687 70.0639 54.8068C70.0473 51.7244 70.8677 49.0315 72.5249 46.728C74.1986 44.4245 76.4938 42.6264 79.4105 41.3338C82.3272 40.0412 85.6416 39.3949 89.3537 39.3949C93.1321 39.3949 96.4299 40.0412 99.2472 41.3338C102.081 42.6264 104.285 44.4245 105.859 46.728C107.434 49.0315 108.246 51.6996 108.295 54.7322H97.9794Z" fill="#66B366"/>
</svg>
