<svg width="128" height="128" viewBox="0 0 128 128" fill="none" xmlns="http://www.w3.org/2000/svg">
<circle cx="64" cy="64" r="64" fill="white"/>
<path d="M46.1136 57.75H36.1591C35.9773 56.4621 35.6061 55.3182 35.0455 54.3182C34.4849 53.303 33.7652 52.4394 32.8864 51.7273C32.0076 51.0151 30.9924 50.4697 29.8409 50.0909C28.7045 49.7121 27.4697 49.5227 26.1364 49.5227C23.7273 49.5227 21.6288 50.1212 19.8409 51.3182C18.053 52.5 16.6667 54.2273 15.6818 56.5C14.697 58.7576 14.2045 61.5 14.2045 64.7273C14.2045 68.0455 14.697 70.8333 15.6818 73.0909C16.6818 75.3485 18.0758 77.053 19.8636 78.2045C21.6515 79.3561 23.7197 79.9318 26.0682 79.9318C27.3864 79.9318 28.6061 79.7576 29.7273 79.4091C30.8636 79.0606 31.8712 78.553 32.75 77.8864C33.6288 77.2045 34.3561 76.3788 34.9318 75.4091C35.5227 74.4394 35.9318 73.3333 36.1591 72.0909L46.1136 72.1364C45.8561 74.2727 45.2121 76.3333 44.1818 78.3182C43.1667 80.2879 41.7955 82.053 40.0682 83.6136C38.3561 85.1591 36.3106 86.3864 33.9318 87.2955C31.5682 88.1894 28.8939 88.6364 25.9091 88.6364C21.7576 88.6364 18.0455 87.697 14.7727 85.8182C11.5152 83.9394 8.93939 81.2197 7.04545 77.6591C5.16667 74.0985 4.22727 69.7879 4.22727 64.7273C4.22727 59.6515 5.18182 55.3333 7.09091 51.7727C9 48.2121 11.5909 45.5 14.8636 43.6364C18.1364 41.7576 21.8182 40.8182 25.9091 40.8182C28.6061 40.8182 31.1061 41.197 33.4091 41.9545C35.7273 42.7121 37.7803 43.8182 39.5682 45.2727C41.3561 46.7121 42.8106 48.4773 43.9318 50.5682C45.0682 52.6591 45.7955 55.053 46.1136 57.75ZM53.1705 88V41.4545H63.0114V79.8864H82.9659V88H53.1705ZM89.483 88V41.4545H107.847C111.377 41.4545 114.384 42.1288 116.869 43.4773C119.354 44.8106 121.248 46.6667 122.551 49.0455C123.869 51.4091 124.528 54.1364 124.528 57.2273C124.528 60.3182 123.862 63.0455 122.528 65.4091C121.195 67.7727 119.263 69.6136 116.733 70.9318C114.218 72.25 111.172 72.9091 107.597 72.9091H95.892V65.0227H106.006C107.9 65.0227 109.46 64.697 110.688 64.0455C111.93 63.3788 112.854 62.4621 113.46 61.2955C114.081 60.1136 114.392 58.7576 114.392 57.2273C114.392 55.6818 114.081 54.3333 113.46 53.1818C112.854 52.0151 111.93 51.1136 110.688 50.4773C109.445 49.8258 107.869 49.5 105.96 49.5H99.3239V88H89.483Z" fill="#66B366"/>
</svg>
