<svg width="26" height="24" viewBox="0 0 26 24" fill="none" xmlns="http://www.w3.org/2000/svg">
<path d="M23.8333 0H2.16667C0.975 0 0 1.2 0 2.66667V21.3333C0 22.8 0.975 24 2.16667 24H23.8333C25.025 24 25.9892 22.8 25.9892 21.3333L26 2.66667C26 1.2 25.025 0 23.8333 0ZM8.66667 4C10.465 4 11.9167 5.78667 11.9167 8C11.9167 10.2133 10.465 12 8.66667 12C6.86833 12 5.41667 10.2133 5.41667 8C5.41667 5.78667 6.86833 4 8.66667 4ZM15.1667 20H2.16667V18.6667C2.16667 16 6.5 14.5333 8.66667 14.5333C10.8333 14.5333 15.1667 16 15.1667 18.6667V20ZM19.3375 14.6667H21.1142L22.75 17.3333L20.5942 19.9867C19.159 18.6629 18.1193 16.7927 17.6367 14.6667C17.4417 13.8133 17.3333 12.92 17.3333 12C17.3333 11.08 17.4417 10.1867 17.6367 9.33333C18.1164 7.20571 19.1567 5.33444 20.5942 4.01333L22.75 6.66667L21.1142 9.33333H19.3375C19.0992 10.1733 18.9583 11.0667 18.9583 12C18.9583 12.9333 19.0992 13.8267 19.3375 14.6667Z" fill="#BFBFBF"/>
</svg>
