<svg width="128" height="128" viewBox="0 0 128 128" fill="none" xmlns="http://www.w3.org/2000/svg">
<circle cx="64" cy="64" r="64" fill="white"/>
<path d="M85.7727 19.4545L58.7727 106.727H54.2727L81.1364 19.4545H85.7727ZM73.5 19.4545L46.5 106.727L42 106.864L68.8636 19.5909L73.5 19.4545ZM94.6705 52.625H79.7386C79.4659 50.6932 78.9091 48.9773 78.0682 47.4773C77.2273 45.9545 76.1477 44.6591 74.8295 43.5909C73.5114 42.5227 71.9886 41.7045 70.2614 41.1364C68.5568 40.5682 66.7045 40.2841 64.7045 40.2841C61.0909 40.2841 57.9432 41.1818 55.2614 42.9773C52.5795 44.75 50.5 47.3409 49.0227 50.75C47.5455 54.1364 46.8068 58.25 46.8068 63.0909C46.8068 68.0682 47.5455 72.25 49.0227 75.6364C50.5227 79.0227 52.6136 81.5795 55.2955 83.3068C57.9773 85.0341 61.0795 85.8977 64.6023 85.8977C66.5795 85.8977 68.4091 85.6364 70.0909 85.1136C71.7955 84.5909 73.3068 83.8295 74.625 82.8295C75.9432 81.8068 77.0341 80.5682 77.8977 79.1136C78.7841 77.6591 79.3977 76 79.7386 74.1364L94.6705 74.2045C94.2841 77.4091 93.3182 80.5 91.7727 83.4773C90.25 86.4318 88.1932 89.0795 85.6023 91.4205C83.0341 93.7386 79.9659 95.5795 76.3977 96.9432C72.8523 98.2841 68.8409 98.9545 64.3636 98.9545C58.1364 98.9545 52.5682 97.5455 47.6591 94.7273C42.7727 91.9091 38.9091 87.8295 36.0682 82.4886C33.25 77.1477 31.8409 70.6818 31.8409 63.0909C31.8409 55.4773 33.2727 49 36.1364 43.6591C39 38.3182 42.8864 34.25 47.7955 31.4545C52.7045 28.6364 58.2273 27.2273 64.3636 27.2273C68.4091 27.2273 72.1591 27.7955 75.6136 28.9318C79.0909 30.0682 82.1705 31.7273 84.8523 33.9091C87.5341 36.0682 89.7159 38.7159 91.3977 41.8523C93.1023 44.9886 94.1932 48.5795 94.6705 52.625Z" fill="#66B366"/>
</svg>
