<svg width="42" height="44" viewBox="0 0 42 44" fill="none" xmlns="http://www.w3.org/2000/svg">
<path d="M2 22H40" stroke="black" stroke-opacity="0.6" stroke-width="4" stroke-linecap="round" stroke-linejoin="round"/>
<path d="M25 2H17C16.4696 2 15.9609 2.21071 15.5858 2.58579C15.2107 2.96086 15 3.46957 15 4V12C15 12.5304 15.2107 13.0391 15.5858 13.4142C15.9609 13.7893 16.4696 14 17 14H25C25.5304 14 26.0391 13.7893 26.4142 13.4142C26.7893 13.0391 27 12.5304 27 12V4C27 3.46957 26.7893 2.96086 26.4142 2.58579C26.0391 2.21071 25.5304 2 25 2V2ZM13 30H5C4.46957 30 3.96086 30.2107 3.58579 30.5858C3.21071 30.9609 3 31.4696 3 32V40C3 40.5304 3.21071 41.0391 3.58579 41.4142C3.96086 41.7893 4.46957 42 5 42H13C13.5304 42 14.0391 41.7893 14.4142 41.4142C14.7893 41.0391 15 40.5304 15 40V32C15 31.4696 14.7893 30.9609 14.4142 30.5858C14.0391 30.2107 13.5304 30 13 30V30ZM37 30H29C28.4696 30 27.9609 30.2107 27.5858 30.5858C27.2107 30.9609 27 31.4696 27 32V40C27 40.5304 27.2107 41.0391 27.5858 41.4142C27.9609 41.7893 28.4696 42 29 42H37C37.5304 42 38.0391 41.7893 38.4142 41.4142C38.7893 41.0391 39 40.5304 39 40V32C39 31.4696 38.7893 30.9609 38.4142 30.5858C38.0391 30.2107 37.5304 30 37 30Z" stroke="black" stroke-opacity="0.6" stroke-width="4" stroke-linejoin="round"/>
<path d="M21 22V14M33 30V22M9 30V22" stroke="black" stroke-opacity="0.6" stroke-width="4" stroke-linecap="round" stroke-linejoin="round"/>
</svg>
