<svg width="58" height="58" viewBox="0 0 58 58" fill="none" xmlns="http://www.w3.org/2000/svg">
<circle cx="28.9025" cy="29.0221" r="28.8151" fill="#FF6600"/>
<path d="M27.4786 38.635V30.111C24.8204 29.3515 22.8674 28.2055 21.6196 26.6729C20.3854 25.1268 19.7683 23.2552 19.7683 21.0581C19.7683 18.8338 20.4668 16.969 21.8637 15.4636C23.2742 13.9446 25.1459 13.0698 27.4786 12.8392V10.8252H30.4284V12.8392C32.5849 13.0969 34.3005 13.8361 35.5754 15.0567C36.8503 16.2637 37.664 17.8845 38.0166 19.9188L32.8697 20.5902C32.5577 18.9898 31.744 17.9048 30.4284 17.3352V25.2896C33.6834 26.1711 35.9009 27.3172 37.0808 28.7277C38.2608 30.1246 38.8507 31.9216 38.8507 34.1187C38.8507 36.5735 38.1048 38.6418 36.6129 40.3236C35.1346 42.0053 33.0731 43.0361 30.4284 43.4158V47.2201H27.4786V43.5175C25.1323 43.2327 23.2268 42.3579 21.762 40.8932C20.2973 39.4284 19.3615 37.3602 18.9546 34.6884L24.2643 34.1187C24.4813 35.2037 24.8882 36.1395 25.4849 36.9262C26.0817 37.7128 26.7462 38.2824 27.4786 38.635ZM27.4786 17.2741C26.6784 17.5454 26.041 18.0065 25.5663 18.6575C25.0916 19.3085 24.8543 20.0273 24.8543 20.814C24.8543 21.5328 25.0713 22.2041 25.5053 22.828C25.9393 23.4383 26.597 23.9333 27.4786 24.3131V17.2741ZM30.4284 38.9198C31.4456 38.73 32.2729 38.2621 32.9104 37.5161C33.5478 36.7566 33.8665 35.8683 33.8665 34.8511C33.8665 33.9424 33.5953 33.1626 33.0528 32.5116C32.5238 31.847 31.6491 31.3384 30.4284 30.9858V38.9198Z" fill="white"/>
</svg>
