<svg width="128" height="128" viewBox="0 0 128 128" fill="none" xmlns="http://www.w3.org/2000/svg">
<circle cx="64" cy="64" r="64" fill="white"/>
<path d="M56.4205 75.7273H68.9659L75.2727 83.8409L81.4773 91.0682L93.1705 105.727H79.3977L71.3523 95.8409L67.2273 89.9773L56.4205 75.7273ZM94.2273 65.0909C94.2273 72.7045 92.7841 79.1818 89.8977 84.5227C87.0341 89.8636 83.125 93.9432 78.1705 96.7614C73.2386 99.5568 67.6932 100.955 61.5341 100.955C55.3295 100.955 49.7614 99.5455 44.8295 96.7273C39.8977 93.9091 36 89.8295 33.1364 84.4886C30.2727 79.1477 28.8409 72.6818 28.8409 65.0909C28.8409 57.4773 30.2727 51 33.1364 45.6591C36 40.3182 39.8977 36.25 44.8295 33.4545C49.7614 30.6364 55.3295 29.2273 61.5341 29.2273C67.6932 29.2273 73.2386 30.6364 78.1705 33.4545C83.125 36.25 87.0341 40.3182 89.8977 45.6591C92.7841 51 94.2273 57.4773 94.2273 65.0909ZM79.2614 65.0909C79.2614 60.1591 78.5227 56 77.0455 52.6136C75.5909 49.2273 73.5341 46.6591 70.875 44.9091C68.2159 43.1591 65.1023 42.2841 61.5341 42.2841C57.9659 42.2841 54.8523 43.1591 52.1932 44.9091C49.5341 46.6591 47.4659 49.2273 45.9886 52.6136C44.5341 56 43.8068 60.1591 43.8068 65.0909C43.8068 70.0227 44.5341 74.1818 45.9886 77.5682C47.4659 80.9545 49.5341 83.5227 52.1932 85.2727C54.8523 87.0227 57.9659 87.8977 61.5341 87.8977C65.1023 87.8977 68.2159 87.0227 70.875 85.2727C73.5341 83.5227 75.5909 80.9545 77.0455 77.5682C78.5227 74.1818 79.2614 70.0227 79.2614 65.0909Z" fill="#66B366"/>
</svg>
