<svg width="23" height="26" viewBox="0 0 23 26" fill="none" xmlns="http://www.w3.org/2000/svg">
<path d="M6.72633 18.7773V15.0218H15.4891V10.0146H6.72633V6.2591L0.467224 12.5182L6.72633 18.7773ZM9.22997 0C8.56596 0 7.92915 0.263775 7.45963 0.733299C6.9901 1.20282 6.72633 1.83963 6.72633 2.50364V5.00728H9.22997V2.50364H20.4964V22.5328H9.22997V20.0291H6.72633V22.5328C6.72633 23.1968 6.9901 23.8336 7.45963 24.3031C7.92915 24.7726 8.56596 25.0364 9.22997 25.0364H20.4964C21.1604 25.0364 21.7972 24.7726 22.2667 24.3031C22.7362 23.8336 23 23.1968 23 22.5328V2.50364C23 1.83963 22.7362 1.20282 22.2667 0.733299C21.7972 0.263775 21.1604 0 20.4964 0H9.22997Z" fill="black" fill-opacity="0.6"/>
</svg>
