<svg width="23" height="26" viewBox="0 0 23 26" fill="none" xmlns="http://www.w3.org/2000/svg">
<path d="M6.72634 18.7773V15.0218H15.4891V10.0146H6.72634V6.2591L0.467239 12.5182L6.72634 18.7773ZM9.22998 0C8.56597 0 7.92916 0.263775 7.45964 0.733299C6.99011 1.20282 6.72634 1.83963 6.72634 2.50364V5.00728H9.22998V2.50364H20.4964V22.5328H9.22998V20.0291H6.72634V22.5328C6.72634 23.1968 6.99011 23.8336 7.45964 24.3031C7.92916 24.7726 8.56597 25.0364 9.22998 25.0364H20.4964C21.1604 25.0364 21.7972 24.7726 22.2667 24.3031C22.7362 23.8336 23 23.1968 23 22.5328V2.50364C23 1.83963 22.7362 1.20282 22.2667 0.733299C21.7972 0.263775 21.1604 0 20.4964 0H9.22998Z" fill="#BFBFBF"/>
</svg>
