<svg width="58" height="58" viewBox="0 0 58 58" fill="none" xmlns="http://www.w3.org/2000/svg">
<ellipse cx="29.2136" cy="28.6199" rx="28.5603" ry="28.56" fill="#1B4E63"/>
<path d="M29.2862 23.53C26.4504 23.53 24.1963 25.7841 24.1963 28.6199C24.1963 31.4557 26.4504 33.7098 29.2862 33.7098C32.122 33.7098 34.3761 31.4557 34.3761 28.6199C34.3761 25.7841 32.122 23.53 29.2862 23.53ZM29.2862 32.2556C27.2502 32.2556 25.6505 30.6559 25.6505 28.6199C25.6505 26.584 27.2502 24.9843 29.2862 24.9843C31.3222 24.9843 32.9218 26.584 32.9218 28.6199C32.9218 30.6559 31.3222 32.2556 29.2862 32.2556Z" fill="white"/>
<path d="M39.9441 26.2274L37.9141 25.5749L37.479 24.4873L38.4941 22.6022C38.7116 22.1672 38.6391 21.5872 38.2766 21.2247L36.5365 19.4846C36.174 19.1221 35.594 19.0496 35.159 19.2671L33.2739 20.2822L32.1863 19.8471L31.5338 17.8171C31.3888 17.382 30.9538 17.0195 30.4463 17.0195H27.9812C27.4737 17.0195 27.0386 17.382 26.9661 17.8896L26.3136 19.9196C25.8786 19.9921 25.5161 20.1372 25.1536 20.3547L23.2685 19.3396C22.8335 19.1221 22.2535 19.1946 21.8909 19.5571L20.1509 21.2972C19.7884 21.6597 19.7159 22.2397 19.9334 22.6748L20.8759 24.4873C20.7309 24.8498 20.5859 25.2849 20.4409 25.6474L18.4108 26.2999C17.9758 26.4449 17.6133 26.8799 17.6133 27.3874V29.8525C17.6133 30.36 17.9758 30.7951 18.4833 30.9401L20.5134 31.5926L20.9484 32.6801L19.9334 34.5652C19.7159 35.0002 19.7884 35.5802 20.1509 35.9428L21.8909 37.6828C22.2535 38.0453 22.8335 38.1178 23.2685 37.9003L25.1536 36.8853L26.2411 37.3203L26.8936 39.4229C27.0386 39.8579 27.4737 40.2204 27.9812 40.2204H30.4463C30.9538 40.2204 31.3888 39.8579 31.5338 39.4229L32.1863 37.3203L33.2739 36.8853L35.159 37.9003C35.594 38.1178 36.174 38.0453 36.5365 37.6828L38.2766 35.9428C38.6391 35.5802 38.7116 35.0002 38.4941 34.5652L37.479 32.6801L37.9141 31.5926L40.0166 30.9401C40.4517 30.7951 40.8142 30.36 40.8142 29.8525V27.3874C40.8142 26.8799 40.4517 26.3724 39.9441 26.2274V26.2274ZM39.3641 29.635L36.754 30.4325L36.6815 30.7951L36.029 32.3176L35.8115 32.6801L37.1165 35.0727L35.6665 36.5228L33.2739 35.2177L32.9114 35.4352C32.4039 35.7253 31.8963 35.9428 31.3888 36.0878L31.0263 36.1603L30.2288 38.7704H28.1987L27.4012 36.1603L27.0386 36.0878L25.5161 35.4352L25.1536 35.2177L22.761 36.5228L21.3109 35.0727L22.616 32.6801L22.3985 32.3176C22.1085 31.8101 21.8909 31.3026 21.7459 30.7951L21.6734 30.4325L19.0633 29.635V27.6049L21.5284 26.8799L21.6734 26.5174C21.8184 25.9374 22.036 25.4299 22.326 24.9223L22.5435 24.5598L21.3109 22.1672L22.761 20.7172L25.0811 22.0222L25.4436 21.8047C25.9511 21.5147 26.4586 21.2972 27.0386 21.1522L27.4012 21.0072L28.1987 18.4696H30.2288L31.0263 21.0072L31.3888 21.1522C31.8963 21.2972 32.4039 21.5147 32.9114 21.8047L33.2739 22.0222L35.6665 20.7172L37.1165 22.1672L35.8115 24.5598L36.029 24.9223C36.319 25.4299 36.5365 25.9374 36.6815 26.4449L36.754 26.8074L39.3641 27.6049V29.635V29.635Z" fill="white"/>
</svg>
