<svg width="20" height="19" viewBox="0 0 20 19" fill="none" xmlns="http://www.w3.org/2000/svg">
<path d="M12.754 7C13.72 7 14.504 7.784 14.504 8.75V12H14.5V12.25C14.5 12.4489 14.421 12.6397 14.2803 12.7803C14.1397 12.921 13.9489 13 13.75 13C13.5511 13 13.3603 12.921 13.2197 12.7803C13.079 12.6397 13 12.4489 13 12.25V10H13.004V8.75C13.004 8.6837 12.9777 8.62011 12.9308 8.57322C12.8839 8.52634 12.8203 8.5 12.754 8.5H7.252C7.1857 8.5 7.12211 8.52634 7.07522 8.57322C7.02834 8.62011 7.002 8.6837 7.002 8.75V12H7V12.25C7 12.4489 6.92098 12.6397 6.78033 12.7803C6.63968 12.921 6.44891 13 6.25 13C6.05109 13 5.86032 12.921 5.71967 12.7803C5.57902 12.6397 5.5 12.4489 5.5 12.25V10H5.502V8.75C5.502 7.784 6.285 7 7.252 7H12.754V7ZM18.5 8.75V12.25C18.5 12.4489 18.579 12.6397 18.7197 12.7803C18.8603 12.921 19.0511 13 19.25 13C19.4489 13 19.6397 12.921 19.7803 12.7803C19.921 12.6397 20 12.4489 20 12.25V8.75C20 8.28587 19.8156 7.84075 19.4874 7.51256C19.1592 7.18437 18.7141 7 18.25 7H14.875C15.218 7.415 15.442 7.932 15.493 8.5H18.25C18.3163 8.5 18.3799 8.52634 18.4268 8.57322C18.4737 8.62011 18.5 8.6837 18.5 8.75ZM0 12.25C4.19176e-09 12.4489 0.0790175 12.6397 0.21967 12.7803C0.360322 12.921 0.551088 13 0.75 13C0.948912 13 1.13968 12.921 1.28033 12.7803C1.42098 12.6397 1.5 12.4489 1.5 12.25V8.75C1.5 8.6837 1.52634 8.62011 1.57322 8.57322C1.62011 8.52634 1.6837 8.5 1.75 8.5H4.513C4.56274 7.94905 4.7782 7.42609 5.131 7H1.75C1.28587 7 0.840752 7.18437 0.512563 7.51256C0.184375 7.84075 0 8.28587 0 8.75V12.25ZM10 0C10.7956 0 11.5587 0.316071 12.1213 0.87868C12.6839 1.44129 13 2.20435 13 3C13 3.79565 12.6839 4.55871 12.1213 5.12132C11.5587 5.68393 10.7956 6 10 6C9.20435 6 8.44129 5.68393 7.87868 5.12132C7.31607 4.55871 7 3.79565 7 3C7 2.20435 7.31607 1.44129 7.87868 0.87868C8.44129 0.316071 9.20435 0 10 0V0ZM10 1.5C9.60218 1.5 9.22064 1.65804 8.93934 1.93934C8.65804 2.22064 8.5 2.60218 8.5 3C8.5 3.39782 8.65804 3.77936 8.93934 4.06066C9.22064 4.34196 9.60218 4.5 10 4.5C10.3978 4.5 10.7794 4.34196 11.0607 4.06066C11.342 3.77936 11.5 3.39782 11.5 3C11.5 2.60218 11.342 2.22064 11.0607 1.93934C10.7794 1.65804 10.3978 1.5 10 1.5ZM16.5 1C17.163 1 17.7989 1.26339 18.2678 1.73223C18.7366 2.20107 19 2.83696 19 3.5C19 4.16304 18.7366 4.79893 18.2678 5.26777C17.7989 5.73661 17.163 6 16.5 6C15.837 6 15.2011 5.73661 14.7322 5.26777C14.2634 4.79893 14 4.16304 14 3.5C14 2.83696 14.2634 2.20107 14.7322 1.73223C15.2011 1.26339 15.837 1 16.5 1ZM16.5 2.5C16.2348 2.5 15.9804 2.60536 15.7929 2.79289C15.6054 2.98043 15.5 3.23478 15.5 3.5C15.5 3.76522 15.6054 4.01957 15.7929 4.20711C15.9804 4.39464 16.2348 4.5 16.5 4.5C16.7652 4.5 17.0196 4.39464 17.2071 4.20711C17.3946 4.01957 17.5 3.76522 17.5 3.5C17.5 3.23478 17.3946 2.98043 17.2071 2.79289C17.0196 2.60536 16.7652 2.5 16.5 2.5ZM3.5 1C4.16304 1 4.79893 1.26339 5.26777 1.73223C5.73661 2.20107 6 2.83696 6 3.5C6 4.16304 5.73661 4.79893 5.26777 5.26777C4.79893 5.73661 4.16304 6 3.5 6C2.83696 6 2.20107 5.73661 1.73223 5.26777C1.26339 4.79893 1 4.16304 1 3.5C1 2.83696 1.26339 2.20107 1.73223 1.73223C2.20107 1.26339 2.83696 1 3.5 1V1ZM3.5 2.5C3.23478 2.5 2.98043 2.60536 2.79289 2.79289C2.60536 2.98043 2.5 3.23478 2.5 3.5C2.5 3.76522 2.60536 4.01957 2.79289 4.20711C2.98043 4.39464 3.23478 4.5 3.5 4.5C3.76522 4.5 4.01957 4.39464 4.20711 4.20711C4.39464 4.01957 4.5 3.76522 4.5 3.5C4.5 3.23478 4.39464 2.98043 4.20711 2.79289C4.01957 2.60536 3.76522 2.5 3.5 2.5ZM0.75 14C0.551088 14 0.360322 14.079 0.21967 14.2197C0.0790175 14.3603 0 14.5511 0 14.75V15.25C0 16.2446 0.395088 17.1984 1.09835 17.9017C1.80161 18.6049 2.75544 19 3.75 19H16.25C17.2446 19 18.1984 18.6049 18.9017 17.9017C19.6049 17.1984 20 16.2446 20 15.25V14.75C20 14.5511 19.921 14.3603 19.7803 14.2197C19.6397 14.079 19.4489 14 19.25 14H0.75ZM3.75 17.5C3.19656 17.5 2.66254 17.296 2.25004 16.927C1.83754 16.5581 1.57549 16.05 1.514 15.5H18.486C18.4245 16.05 18.1625 16.5581 17.75 16.927C17.3375 17.296 16.8034 17.5 16.25 17.5H3.75Z" fill="black" fill-opacity="0.6"/>
</svg>
