<svg width="26" height="24" viewBox="0 0 26 24" fill="none" xmlns="http://www.w3.org/2000/svg">
<path d="M12.9789 0.00171282C13.9387 0.00171282 14.8591 0.403619 15.5378 1.11902C16.2165 1.83442 16.5977 2.8047 16.5977 3.81643C16.5977 4.82816 16.2165 5.79844 15.5378 6.51384C14.8591 7.22924 13.9387 7.63115 12.9789 7.63115C12.0189 7.63115 11.0982 7.22915 10.4194 6.51359C9.74055 5.79803 9.35919 4.82753 9.35919 3.81557C9.35919 2.80362 9.74055 1.83311 10.4194 1.11756C11.0982 0.401997 12.0189 0 12.9789 0V0.00171282ZM12.9789 1.71465C12.4501 1.71465 11.9429 1.93609 11.569 2.33025C11.1951 2.72441 10.985 3.259 10.985 3.81643C10.985 4.37386 11.1951 4.90845 11.569 5.30261C11.9429 5.69677 12.4501 5.91821 12.9789 5.91821C13.5079 5.91821 14.0153 5.69668 14.3893 5.30236C14.7634 4.90804 14.9736 4.37323 14.9736 3.81557C14.9736 3.25792 14.7634 2.72311 14.3893 2.32879C14.0153 1.93447 13.5079 1.71294 12.9789 1.71294V1.71465ZM1.651 14.5788C1.651 14.806 1.5654 15.0238 1.41302 15.1844C1.26065 15.3451 1.05399 15.4353 0.8385 15.4353C0.623012 15.4353 0.416349 15.3451 0.263976 15.1844C0.111602 15.0238 0.0260001 14.806 0.0260001 14.5788V10.3205C0.0260526 9.90091 0.172178 9.49596 0.436662 9.18243C0.701146 8.8689 1.06559 8.6686 1.46087 8.61951L1.651 8.60752H6.13112C5.89468 9.03759 5.75047 9.51702 5.70862 10.0121L5.69563 10.3205H1.64938V14.5788H1.651ZM25.1712 15.4353C25.3867 15.4353 25.5934 15.3451 25.7458 15.1844C25.8981 15.0238 25.9837 14.806 25.9837 14.5788V10.3205L25.9724 10.1218C25.9262 9.70478 25.7363 9.3202 25.4388 9.04105C25.1414 8.7619 24.757 8.60763 24.3587 8.60752H19.8348C20.072 9.0409 20.2248 9.53765 20.2605 10.0652L20.2686 10.3222H24.3587V14.5788C24.3587 14.806 24.4444 15.0238 24.5967 15.1844C24.7491 15.3451 24.9558 15.4353 25.1712 15.4353ZM17.0203 8.60752C17.4185 8.60763 17.8029 8.7619 18.1003 9.04105C18.3978 9.3202 18.5877 9.70478 18.6339 10.1218L18.6436 10.3205V14.5788C18.6436 14.806 18.558 15.0238 18.4056 15.1844C18.2533 15.3451 18.0466 15.4353 17.8311 15.4353C17.6156 15.4353 17.409 15.3451 17.2566 15.1844C17.1042 15.0238 17.0186 14.806 17.0186 14.5788V10.3205H8.94563V14.5788C8.94563 14.806 8.86002 15.0238 8.70765 15.1844C8.55528 15.3451 8.34861 15.4353 8.13313 15.4353C7.91764 15.4353 7.71097 15.3451 7.5586 15.1844C7.40623 15.0238 7.32063 14.806 7.32063 14.5788V10.3205C7.32068 9.90091 7.4668 9.49596 7.73129 9.18243C7.99577 8.8689 8.36022 8.6686 8.7555 8.61951L8.94563 8.60752H17.0186H17.0203ZM24.193 4.35429C24.193 3.48499 23.8654 2.65129 23.2823 2.0366C22.6991 1.42191 21.9082 1.07658 21.0836 1.07658C20.2589 1.07658 19.468 1.42191 18.8849 2.0366C18.3017 2.65129 17.9741 3.48499 17.9741 4.35429C17.9741 5.2236 18.3017 6.05729 18.8849 6.67198C19.468 7.28667 20.2589 7.632 21.0836 7.632C21.9082 7.632 22.6991 7.28667 23.2823 6.67198C23.8654 6.05729 24.193 5.2236 24.193 4.35429ZM19.5991 4.35429C19.5991 3.93929 19.7555 3.54128 20.0339 3.24783C20.3123 2.95438 20.6899 2.78952 21.0836 2.78952C21.4773 2.78952 21.8548 2.95438 22.1332 3.24783C22.4116 3.54128 22.568 3.93929 22.568 4.35429C22.568 4.7693 22.4116 5.1673 22.1332 5.46075C21.8548 5.7542 21.4773 5.91906 21.0836 5.91906C20.6899 5.91906 20.3123 5.7542 20.0339 5.46075C19.7555 5.1673 19.5991 4.7693 19.5991 4.35429ZM4.901 1.07573C5.72567 1.07573 6.51657 1.42106 7.0997 2.03575C7.68284 2.65044 8.01044 3.48413 8.01044 4.35344C8.01044 5.22274 7.68284 6.05644 7.0997 6.67113C6.51657 7.28582 5.72567 7.63115 4.901 7.63115C4.07633 7.63115 3.28543 7.28582 2.7023 6.67113C2.11916 6.05644 1.79156 5.22274 1.79156 4.35344C1.79156 3.48413 2.11916 2.65044 2.7023 2.03575C3.28543 1.42106 4.07633 1.07573 4.901 1.07573ZM4.901 2.78867C4.5073 2.78867 4.12973 2.95352 3.85134 3.24698C3.57296 3.54043 3.41656 3.93843 3.41656 4.35344C3.41656 4.76844 3.57296 5.16645 3.85134 5.4599C4.12973 5.75335 4.5073 5.91821 4.901 5.91821C5.2947 5.91821 5.67227 5.75335 5.95066 5.4599C6.22904 5.16645 6.38544 4.76844 6.38544 4.35344C6.38544 3.93843 6.22904 3.54043 5.95066 3.24698C5.67227 2.95352 5.2947 2.78867 4.901 2.78867ZM0.8125 17.1482C0.597012 17.1482 0.390349 17.2385 0.237976 17.3991C0.0856026 17.5597 0 17.7776 0 18.0047V19.7176C0 20.8534 0.428012 21.9426 1.18988 22.7457C1.95175 23.5488 2.98506 24 4.0625 24H21.9375C23.0149 24 24.0483 23.5488 24.8101 22.7457C25.572 21.9426 26 20.8534 26 19.7176V18.0047C26 17.7776 25.9144 17.5597 25.762 17.3991C25.6097 17.2385 25.403 17.1482 25.1875 17.1482H0.8125ZM1.625 19.7176V18.8612H24.375V19.7176C24.375 20.3991 24.1182 21.0526 23.6611 21.5345C23.204 22.0164 22.584 22.2871 21.9375 22.2871H4.0625C3.41603 22.2871 2.79605 22.0164 2.33893 21.5345C1.88181 21.0526 1.625 20.3991 1.625 19.7176Z" fill="#BFBFBF"/>
</svg>
