<svg width="34" height="24" viewBox="0 0 34 24" fill="none" xmlns="http://www.w3.org/2000/svg">
<path fill-rule="evenodd" clip-rule="evenodd" d="M17.46 5.06321C19.4319 2.23025 21.612 0 24.3998 0C29.6631 0 33.9979 7.11738 34 15.5914C34 20.7607 31.9049 24 28.1417 24C24.8631 24 23.0527 22.0451 19.8038 16.2709L18.3865 13.7359L18.1357 13.2912C17.7661 12.6276 17.3907 11.9677 17.0096 11.3115L14.5065 16.0068C10.9516 22.6095 8.94994 24 6.17061 24C2.30761 24 0 20.8059 0 15.7404C0 7.64785 4.23911 0 9.77014 0C10.448 0 11.0982 0.0880361 11.7335 0.275395C12.3922 0.469526 13.0318 0.772009 13.6735 1.19413C14.8996 2.00451 16.1256 3.25959 17.46 5.06321ZM20.6813 10.0835C20.1459 9.15801 19.6316 8.307 19.1366 7.52596L19.1238 7.5079C20.9193 4.56208 22.4025 3.09707 24.164 3.09707C27.8251 3.09707 30.7553 8.82393 30.7553 15.8578C30.7553 18.5395 29.9266 20.0948 28.2161 20.0948C26.5736 20.0948 25.7895 18.9436 22.6702 13.6163L20.6792 10.0835H20.6813ZM10.2971 3.96388C11.8376 4.18962 13.24 5.39503 15.2693 8.48081C14.0984 10.3855 12.9403 12.299 11.7951 14.2212C8.91169 19.0203 7.91513 20.0971 6.31086 20.0971C4.65983 20.0971 3.67602 18.5576 3.67602 15.8081C3.67602 9.93454 6.4341 3.92551 9.72339 3.92551C9.91676 3.92551 10.108 3.93905 10.2971 3.96614V3.96388Z" fill="#BFBFBF"/>
</svg>
