<svg width="16" height="11" viewBox="0 0 16 11" fill="none" xmlns="http://www.w3.org/2000/svg">
<path fill-rule="evenodd" clip-rule="evenodd" d="M8.217 2.243C9.145 0.988 10.171 0 11.483 0C13.96 0 16 3.153 16.001 6.907C16.001 9.197 15.015 10.632 13.244 10.632C11.701 10.632 10.849 9.766 9.32 7.208L8.653 6.085L8.535 5.888C8.36106 5.59403 8.18439 5.30168 8.005 5.011L6.827 7.091C5.154 10.016 4.212 10.632 2.904 10.632C1.086 10.632 0 9.217 0 6.973C0 3.388 1.995 0 4.598 0C4.917 0 5.223 0.039 5.522 0.122C5.832 0.208 6.133 0.342 6.435 0.529C7.012 0.888 7.589 1.444 8.217 2.243ZM9.733 4.467C9.481 4.057 9.239 3.68 9.006 3.334L9 3.326C9.845 2.021 10.543 1.372 11.372 1.372C13.095 1.372 14.474 3.909 14.474 7.025C14.474 8.213 14.084 8.902 13.279 8.902C12.506 8.902 12.137 8.392 10.669 6.032L9.732 4.467H9.733ZM4.846 1.756C5.571 1.856 6.231 2.39 7.186 3.757C6.63497 4.60077 6.08995 5.44846 5.551 6.3C4.194 8.426 3.725 8.903 2.97 8.903C2.193 8.903 1.73 8.221 1.73 7.003C1.73 4.401 3.028 1.739 4.576 1.739C4.667 1.739 4.757 1.745 4.846 1.757V1.756Z" fill="black" fill-opacity="0.6"/>
</svg>
