<svg width="128" height="128" viewBox="0 0 128 128" fill="none" xmlns="http://www.w3.org/2000/svg">
<circle cx="64" cy="64" r="64" fill="white"/>
<path d="M3.77699 77V51.9091H10.4091V56.3359H10.7031C11.2259 54.8658 12.0971 53.706 13.3168 52.8565C14.5365 52.0071 15.9957 51.5824 17.6946 51.5824C19.4152 51.5824 20.88 52.0125 22.0888 52.8729C23.2976 53.7223 24.1035 54.8767 24.5064 56.3359H24.7678C25.2796 54.8984 26.2053 53.7495 27.5447 52.8892C28.8951 52.018 30.4905 51.5824 32.331 51.5824C34.6724 51.5824 36.5727 52.3284 38.032 53.8203C39.5021 55.3014 40.2372 57.4032 40.2372 60.1257V77H33.2947V61.4979C33.2947 60.1039 32.9245 59.0585 32.1839 58.3615C31.4434 57.6645 30.5178 57.3161 29.407 57.3161C28.1437 57.3161 27.1581 57.719 26.4503 58.5249C25.7424 59.3198 25.3885 60.3707 25.3885 61.6776V77H18.642V61.3509C18.642 60.1203 18.2881 59.1402 17.5803 58.4105C16.8833 57.6809 15.9631 57.3161 14.8196 57.3161C14.0464 57.3161 13.3494 57.5121 12.7287 57.9041C12.1188 58.2853 11.6342 58.8243 11.2749 59.5213C10.9155 60.2074 10.7358 61.0133 10.7358 61.9389V77H3.77699ZM57.1687 77.4901C54.5877 77.4901 52.3661 76.9673 50.5039 75.9219C48.6526 74.8655 47.226 73.3736 46.2241 71.446C45.2222 69.5076 44.7212 67.2152 44.7212 64.5689C44.7212 61.9879 45.2222 59.7228 46.2241 57.7734C47.226 55.8241 48.6362 54.3049 50.4549 53.2159C52.2844 52.1269 54.4298 51.5824 56.891 51.5824C58.5463 51.5824 60.0872 51.8492 61.5138 52.3828C62.9513 52.9055 64.2037 53.6951 65.271 54.7514C66.3491 55.8078 67.1876 57.1364 67.7866 58.7372C68.3855 60.3272 68.685 62.1894 68.685 64.3239V66.2351H47.4982V61.9226H62.1346C62.1346 60.9207 61.9168 60.0331 61.4812 59.2599C61.0456 58.4867 60.4412 57.8823 59.668 57.4467C58.9057 57.0002 58.0181 56.777 57.0053 56.777C55.949 56.777 55.0124 57.022 54.1957 57.5121C53.3898 57.9912 52.7582 58.6392 52.3008 59.456C51.8434 60.2618 51.6093 61.1603 51.5984 62.1513V66.2514C51.5984 67.4929 51.8271 68.5656 52.2844 69.4695C52.7527 70.3733 53.4116 71.0703 54.261 71.5604C55.1104 72.0504 56.1178 72.2955 57.283 72.2955C58.0562 72.2955 58.7641 72.1866 59.4066 71.9688C60.0491 71.7509 60.5991 71.4242 61.0565 70.9886C61.5138 70.553 61.8623 70.0194 62.1019 69.3878L68.538 69.8125C68.2113 71.3589 67.5415 72.7093 66.5288 73.8636C65.5269 75.0071 64.2309 75.9001 62.641 76.5426C61.0619 77.1742 59.2378 77.4901 57.1687 77.4901ZM78.5923 51.9091L83.1989 60.6811L87.9197 51.9091H95.0582L87.7891 64.4545L95.2543 77H88.1484L83.1989 68.326L78.331 77H71.1435L78.5923 64.4545L71.4048 51.9091H78.5923ZM110.364 81.1818V39.3636H113.043V81.1818H110.364ZM117.47 53.1669C117.339 51.8492 116.779 50.8255 115.788 50.0959C114.797 49.3662 113.452 49.0014 111.753 49.0014C110.598 49.0014 109.624 49.1648 108.829 49.4915C108.034 49.8073 107.424 50.2483 106.999 50.8146C106.585 51.3809 106.379 52.0234 106.379 52.7422C106.357 53.3411 106.482 53.8639 106.754 54.3104C107.037 54.7569 107.424 55.1435 107.914 55.4702C108.404 55.786 108.97 56.0637 109.613 56.3033C110.255 56.532 110.942 56.728 111.671 56.8913L114.677 57.6101C116.136 57.9368 117.476 58.3724 118.695 58.9169C119.915 59.4614 120.971 60.1312 121.864 60.9261C122.757 61.7211 123.449 62.6577 123.939 63.7358C124.44 64.8139 124.696 66.05 124.707 67.4439C124.696 69.4912 124.173 71.2663 123.138 72.7692C122.115 74.2611 120.634 75.4209 118.695 76.2486C116.768 77.0653 114.443 77.4737 111.72 77.4737C109.019 77.4737 106.667 77.0599 104.663 76.2322C102.67 75.4046 101.113 74.1795 99.9915 72.5568C98.8807 70.9233 98.2981 68.9032 98.2436 66.4964H105.088C105.164 67.6181 105.486 68.5547 106.052 69.3061C106.629 70.0466 107.397 70.6075 108.355 70.9886C109.324 71.3589 110.419 71.544 111.638 71.544C112.836 71.544 113.876 71.3698 114.759 71.0213C115.652 70.6728 116.343 70.1882 116.833 69.5675C117.323 68.9467 117.568 68.2334 117.568 67.4276C117.568 66.6761 117.345 66.0445 116.898 65.5327C116.463 65.0208 115.82 64.5852 114.971 64.2259C114.132 63.8665 113.103 63.5398 111.884 63.2457L108.241 62.331C105.42 61.6449 103.193 60.5722 101.56 59.1129C99.9261 57.6536 99.1148 55.688 99.1257 53.2159C99.1148 51.1903 99.6539 49.4207 100.743 47.907C101.843 46.3932 103.351 45.2116 105.268 44.3622C107.184 43.5128 109.362 43.0881 111.802 43.0881C114.285 43.0881 116.452 43.5128 118.303 44.3622C120.165 45.2116 121.614 46.3932 122.648 47.907C123.683 49.4207 124.217 51.174 124.249 53.1669H117.47Z" fill="#66B366"/>
</svg>
