<svg width="136" height="128" viewBox="0 0 136 128" fill="none" xmlns="http://www.w3.org/2000/svg">
<circle cx="64" cy="64" r="64" fill="white"/>
<path d="M45.9432 47.2614C45.6705 44.5114 44.5 42.375 42.4318 40.8523C40.3636 39.3295 37.5568 38.5682 34.0114 38.5682C31.6023 38.5682 29.5682 38.9091 27.9091 39.5909C26.25 40.25 24.9773 41.1705 24.0909 42.3523C23.2273 43.5341 22.7955 44.875 22.7955 46.375C22.75 47.625 23.0114 48.7159 23.5795 49.6477C24.1705 50.5795 24.9773 51.3864 26 52.0682C27.0227 52.7273 28.2045 53.3068 29.5455 53.8068C30.8864 54.2841 32.3182 54.6932 33.8409 55.0341L40.1136 56.5341C43.1591 57.2159 45.9545 58.125 48.5 59.2614C51.0455 60.3977 53.25 61.7955 55.1136 63.4545C56.9773 65.1136 58.4205 67.0682 59.4432 69.3182C60.4886 71.5682 61.0227 74.1477 61.0455 77.0568C61.0227 81.3295 59.9318 85.0341 57.7727 88.1705C55.6364 91.2841 52.5455 93.7045 48.5 95.4318C44.4773 97.1364 39.625 97.9886 33.9432 97.9886C28.3068 97.9886 23.3977 97.125 19.2159 95.3977C15.0568 93.6705 11.8068 91.1136 9.46591 87.7273C7.14773 84.3182 5.93182 80.1023 5.81818 75.0795H20.1023C20.2614 77.4205 20.9318 79.375 22.1136 80.9432C23.3182 82.4886 24.9205 83.6591 26.9205 84.4545C28.9432 85.2273 31.2273 85.6136 33.7727 85.6136C36.2727 85.6136 38.4432 85.25 40.2841 84.5227C42.1477 83.7955 43.5909 82.7841 44.6136 81.4886C45.6364 80.1932 46.1477 78.7045 46.1477 77.0227C46.1477 75.4545 45.6818 74.1364 44.75 73.0682C43.8409 72 42.5 71.0909 40.7273 70.3409C38.9773 69.5909 36.8295 68.9091 34.2841 68.2955L26.6818 66.3864C20.7955 64.9545 16.1477 62.7159 12.7386 59.6705C9.32955 56.625 7.63636 52.5227 7.65909 47.3636C7.63636 43.1364 8.76136 39.4432 11.0341 36.2841C13.3295 33.125 16.4773 30.6591 20.4773 28.8864C24.4773 27.1136 29.0227 26.2273 34.1136 26.2273C39.2955 26.2273 43.8182 27.1136 47.6818 28.8864C51.5682 30.6591 54.5909 33.125 56.75 36.2841C58.9091 39.4432 60.0227 43.1023 60.0909 47.2614H45.9432ZM101.111 23.9091L78.6108 107.5H66.0994L88.5994 23.9091H101.111ZM112.753 97.8864C110.503 97.8864 108.571 97.0909 106.957 95.5C105.366 93.8864 104.571 91.9545 104.571 89.7045C104.571 87.4773 105.366 85.5682 106.957 83.9773C108.571 82.3864 110.503 81.5909 112.753 81.5909C114.935 81.5909 116.844 82.3864 118.48 83.9773C120.116 85.5682 120.935 87.4773 120.935 89.7045C120.935 91.2045 120.548 92.5795 119.776 93.8295C119.026 95.0568 118.037 96.0455 116.81 96.7955C115.582 97.5227 114.23 97.8864 112.753 97.8864Z" fill="#66B366"/>
</svg>
