<svg width="128" height="128" viewBox="0 0 128 128" fill="none" xmlns="http://www.w3.org/2000/svg">
<circle cx="64" cy="64" r="64" fill="white"/>
<path d="M26.7408 91V36.4545H48.2607C52.38 36.4545 55.8956 37.1914 58.8075 38.6651C61.7372 40.1211 63.9656 42.1896 65.4925 44.8707C67.0373 47.5341 67.8097 50.668 67.8097 54.2724C67.8097 57.8945 67.0284 61.0107 65.4659 63.6207C63.9034 66.2131 61.6396 68.2017 58.6744 69.5866C55.7269 70.9716 52.158 71.6641 47.9677 71.6641H33.5589V62.3956H46.1033C48.305 62.3956 50.1339 62.0937 51.5898 61.4901C53.0458 60.8864 54.1289 59.9808 54.8391 58.7734C55.5671 57.5661 55.9311 56.0657 55.9311 54.2724C55.9311 52.4613 55.5671 50.9343 54.8391 49.6914C54.1289 48.4485 53.0369 47.5075 51.5632 46.8683C50.1072 46.2113 48.2695 45.8828 46.0501 45.8828H38.2731V91H26.7408ZM56.1974 66.1776L69.7539 91H57.0231L43.7596 66.1776H56.1974ZM109.784 61.7564L99.397 62.3956C99.2195 61.5078 98.8377 60.7088 98.2518 59.9986C97.6658 59.2706 96.8935 58.6935 95.9347 58.2674C94.9936 57.8235 93.8661 57.6016 92.5522 57.6016C90.7944 57.6016 89.3118 57.9744 88.1044 58.7202C86.897 59.4482 86.2933 60.4247 86.2933 61.6499C86.2933 62.6264 86.6839 63.4521 87.4652 64.1268C88.2464 64.8015 89.587 65.343 91.4869 65.7514L98.891 67.2429C102.868 68.0597 105.833 69.3736 107.787 71.1847C109.74 72.9957 110.716 75.375 110.716 78.3224C110.716 81.0036 109.926 83.3562 108.346 85.3803C106.783 87.4045 104.635 88.9847 101.901 90.1211C99.1839 91.2397 96.0501 91.799 92.4989 91.799C87.0835 91.799 82.7688 90.6715 79.555 88.4165C76.359 86.1438 74.4858 83.0543 73.9354 79.1481L85.0948 78.5621C85.4322 80.2134 86.2489 81.4741 87.5451 82.3441C88.8413 83.1964 90.5014 83.6225 92.5256 83.6225C94.5142 83.6225 96.1122 83.2408 97.3196 82.4773C98.5447 81.696 99.1662 80.6928 99.184 79.4677C99.1662 78.4379 98.7312 77.5945 97.8789 76.9375C97.0266 76.2628 95.7127 75.7479 93.9371 75.3928L86.8526 73.9812C82.8576 73.1822 79.8835 71.7972 77.9304 69.8263C75.995 67.8555 75.0273 65.343 75.0273 62.2891C75.0273 59.6612 75.7376 57.3974 77.158 55.4975C78.5962 53.5977 80.6115 52.1328 83.2038 51.103C85.8139 50.0732 88.8679 49.5582 92.3658 49.5582C97.5327 49.5582 101.599 50.6502 104.564 52.8342C107.547 55.0181 109.287 57.9922 109.784 61.7564Z" fill="#66B366"/>
<line x1="19" y1="51" x2="75" y2="51" stroke="#66B366" stroke-width="4"/>
</svg>
