<svg width="25" height="29" viewBox="0 0 25 29" fill="none" xmlns="http://www.w3.org/2000/svg">
<path d="M23.6375 27.4703C23.7635 26.5352 23.1084 25.6749 22.1723 25.5488L18.2516 25.0206C21.4767 23.3054 23.7647 20.1277 24.2737 16.3494C24.9474 11.3486 22.3454 6.53108 17.797 4.35532C16.9462 3.94772 15.9242 4.30759 15.5185 5.1588C15.1071 6.01337 15.4716 7.03175 16.3208 7.43817C19.5298 8.97013 21.3617 12.3688 20.8869 15.8931C20.5269 18.5655 18.9016 20.8119 16.6134 22.0198L16.9299 19.6703C17.0558 18.7352 16.4008 17.8749 15.4646 17.7488C14.5285 17.6227 13.6691 18.279 13.5431 19.214L12.6306 25.9875C12.5047 26.9225 13.1598 27.7829 14.0959 27.909L21.716 28.9355C22.6521 29.0617 23.5113 28.4069 23.6375 27.4703ZM9.3175 24.345C9.72589 23.4884 9.36444 22.4721 8.51523 22.0657C5.31044 20.5348 3.47848 17.1362 3.95327 13.6118C4.31329 10.9395 5.93857 8.69353 8.22685 7.48513L7.91032 9.83468C7.78435 10.7697 8.43945 11.6301 9.37556 11.7562C10.3117 11.8823 11.1711 11.226 11.2971 10.2909L12.2096 3.51747C12.3355 2.58241 11.6804 1.72209 10.7443 1.59598L3.12418 0.569403C2.18806 0.443291 1.32865 1.09959 1.20268 2.03464C1.07672 2.9697 1.73181 3.83002 2.66792 3.95613L6.58859 4.48432C3.36245 6.19944 1.07555 9.37726 0.572957 13.108C-0.100375 18.106 2.50133 22.9257 7.04977 25.1009C7.89316 25.5594 8.95961 25.202 9.3175 24.345Z" fill="black" fill-opacity="0.6"/>
</svg>
