<svg width="28" height="25" viewBox="0 0 28 25" fill="none" xmlns="http://www.w3.org/2000/svg">
<path d="M0 7.89432V13.1585H1.4V21.0515H0V24.9987H22.4L26.6 25V24.9987H28V21.0515H26.6V13.1585H28V7.89432L14 0L0 7.89432ZM5.6 21.0515V13.1585H8.4V21.0515H5.6ZM12.6 21.0515V13.1585H15.4V21.0515H12.6ZM22.4 21.0515H19.6V13.1585H22.4V21.0515ZM16.8 7.89432C16.7999 8.23997 16.7274 8.58222 16.5865 8.90153C16.4457 9.22084 16.2393 9.51095 15.9792 9.7553C15.7191 9.99966 15.4103 10.1935 15.0704 10.3257C14.7306 10.4579 14.3664 10.5258 13.9986 10.5258C13.6308 10.5257 13.2666 10.4575 12.9269 10.3252C12.5871 10.1928 12.2784 9.99885 12.0184 9.75437C11.7584 9.5099 11.5522 9.21969 11.4115 8.90032C11.2709 8.58094 11.1985 8.23866 11.1986 7.89301C11.1988 7.19493 11.494 6.52552 12.0194 6.03202C12.5448 5.53853 13.2572 5.26139 14 5.26157C14.7428 5.26174 15.4551 5.53922 15.9802 6.03295C16.5053 6.52669 16.8002 7.19625 16.8 7.89432Z" fill="#BFBFBF"/>
</svg>
