<svg width="896" height="896" viewBox="0 0 896 896" fill="none" xmlns="http://www.w3.org/2000/svg">
<path d="M448 0C200.6 0 0 200.6 0 448C0 695.4 200.6 896 448 896C695.4 896 896 695.4 896 448C896 200.6 695.4 0 448 0ZM691.7 589.2L448 730L204.3 589.2V307.8L314.3 244.2L313.9 244H314.1L448 167L582 244H581.8L581.5 244.2L691.6 307.8V589.2H691.7ZM243.9 472.7L331.5 522.6V617L428.2 672.9V460.8L243.9 354.4V472.7ZM447.8 320.9L354 267L262.9 319.6L448.1 426.6L633.3 319.7L541.9 266.9L447.8 320.9ZM467.8 672.9L565.1 616.7V522.6L652.1 473.1V354.5L467.8 461V672.9Z" fill="black" fill-opacity="0.6"/>
</svg>
