<svg width="508" height="69" viewBox="0 0 508 69" fill="none" xmlns="http://www.w3.org/2000/svg">
<rect x="0.708984" y="0.464844" width="507.055" height="68.0272" rx="34.0136" fill="#EFEFEF"/>
<path d="M60.7646 45.4252L55.5954 40.2468L60.7646 45.4252ZM58.46 33.3262C58.46 35.9239 57.4281 38.4151 55.5913 40.2519C53.7545 42.0887 51.2632 43.1207 48.6656 43.1207C46.0679 43.1207 43.5766 42.0887 41.7398 40.2519C39.903 38.4151 38.8711 35.9239 38.8711 33.3262C38.8711 30.7285 39.903 28.2373 41.7398 26.4005C43.5766 24.5637 46.0679 23.5317 48.6656 23.5317C51.2632 23.5317 53.7545 24.5637 55.5913 26.4005C57.4281 28.2373 58.46 30.7285 58.46 33.3262V33.3262Z" stroke="#353750" stroke-width="2" stroke-linecap="round"/>
</svg>
