<svg width="26" height="28" viewBox="0 0 26 28" fill="none" xmlns="http://www.w3.org/2000/svg">
<path d="M26 21V19H23.91C23.7601 18.1097 23.41 17.2652 22.886 16.53L24.364 15.05L22.95 13.636L21.471 15.115C20.7357 14.5904 19.8907 14.2399 19 14.09V12H17V14.09C16.1097 14.2398 15.2651 14.5899 14.53 15.114L13.05 13.636L11.636 15.05L13.115 16.529C12.5906 17.2644 12.2401 18.1093 12.09 19H10V21H12.09C12.2399 21.8902 12.5901 22.7348 13.114 23.47L11.636 24.95L13.05 26.364L14.529 24.885C15.2643 25.4096 16.1093 25.7601 17 25.91V28H19V25.91C19.8903 25.7602 20.7349 25.4101 21.47 24.886L22.95 26.364L24.364 24.95L22.885 23.471C23.4095 22.7356 23.76 21.8907 23.91 21H26ZM18 24C17.2089 24 16.4355 23.7654 15.7777 23.3259C15.1199 22.8864 14.6072 22.2616 14.3045 21.5307C14.0017 20.7998 13.9225 19.9956 14.0769 19.2196C14.2312 18.4437 14.6122 17.731 15.1716 17.1716C15.731 16.6122 16.4437 16.2312 17.2196 16.0769C17.9956 15.9225 18.7998 16.0017 19.5307 16.3045C20.2616 16.6072 20.8864 17.1199 21.3259 17.7777C21.7654 18.4355 22 19.2089 22 20C21.9987 21.0605 21.5768 22.0771 20.827 22.827C20.0771 23.5768 19.0605 23.9987 18 24Z" fill="#BFBFBF"/>
<path d="M24 4C24 3.46957 23.7893 2.96086 23.4142 2.58579C23.0391 2.21071 22.5304 2 22 2H18V0H16V2H8V0H6V2H2C1.46957 2 0.960859 2.21071 0.585786 2.58579C0.210714 2.96086 0 3.46957 0 4V24C0 24.5304 0.210714 25.0391 0.585786 25.4142C0.960859 25.7893 1.46957 26 2 26H6V24H2V4H6V6H8V4H16V6H18V4H22V10H24V4Z" fill="#BFBFBF"/>
</svg>
