<svg width="1200" height="1200" viewBox="0 0 1200 1200" fill="none" xmlns="http://www.w3.org/2000/svg">
<path d="M600 0C268.629 0 0 268.629 0 600C0 931.371 268.629 1200 600 1200C931.371 1200 1200 931.371 1200 600C1200 268.629 931.371 0 600 0ZM581.177 205.884C608.671 205.885 631.058 213.299 648.34 228.223C665.621 243.149 674.268 262.832 674.268 287.183C674.268 311.536 665.622 331.145 648.34 346.07C631.058 360.996 608.671 368.483 581.177 368.482C553.683 368.483 531.295 360.996 514.014 346.07C497.518 331.145 489.258 311.536 489.258 287.183C489.258 262.832 497.518 243.149 514.014 228.223C531.295 213.298 553.683 205.885 581.177 205.884ZM667.163 468.604L690.747 495.704C678.178 528.697 671.851 565.213 671.851 605.274V893.995C671.851 904.207 672.697 911.234 674.268 915.162C676.624 919.09 681.72 923.026 689.576 926.954C703.716 935.595 724.484 943.854 751.978 951.71L743.775 994.117C676.218 987.047 628.666 983.57 601.172 983.57C573.678 983.57 526.585 987.047 459.815 994.117L450.367 951.71C478.646 945.426 499.488 937.553 512.843 928.126C524.626 921.057 530.494 909.706 530.494 893.995V599.415C530.494 571.922 519.844 558.18 498.634 558.18L457.399 566.383L448.024 519.288C476.303 507.506 513.591 496.082 559.938 485.084C606.283 474.086 642.025 468.604 667.163 468.604V468.604Z" fill="#FFAA0F"/>
</svg>
