<svg width="26" height="24" viewBox="0 0 26 24" fill="none" xmlns="http://www.w3.org/2000/svg">
<path d="M22.4545 0H10.6364C9.69605 0 8.79425 0.379285 8.12935 1.05442C7.46445 1.72955 7.09091 2.64522 7.09091 3.6V12C7.09091 12.9548 7.46445 13.8705 8.12935 14.5456C8.79425 15.2207 9.69605 15.6 10.6364 15.6H22.4545C23.3949 15.6 24.2967 15.2207 24.9616 14.5456C25.6265 13.8705 26 12.9548 26 12V3.6C26 2.64522 25.6265 1.72955 24.9616 1.05442C24.2967 0.379285 23.3949 0 22.4545 0ZM23.6364 12C23.6364 12.3183 23.5119 12.6235 23.2902 12.8485C23.0686 13.0736 22.768 13.2 22.4545 13.2H10.6364C10.3229 13.2 10.0223 13.0736 9.80069 12.8485C9.57906 12.6235 9.45455 12.3183 9.45455 12V3.6C9.45455 3.28174 9.57906 2.97652 9.80069 2.75147C10.0223 2.52643 10.3229 2.4 10.6364 2.4H22.4545C22.768 2.4 23.0686 2.52643 23.2902 2.75147C23.5119 2.97652 23.6364 3.28174 23.6364 3.6V12ZM19.5 7.2C19.0625 7.2015 18.6412 7.36834 18.3182 7.668C18.0641 7.43346 17.7483 7.27892 17.4093 7.22316C17.0703 7.1674 16.7227 7.21282 16.4086 7.35391C16.0945 7.49499 15.8276 7.72566 15.6402 8.01788C15.4529 8.3101 15.3531 8.6513 15.3531 9C15.3531 9.3487 15.4529 9.6899 15.6402 9.98212C15.8276 10.2743 16.0945 10.505 16.4086 10.6461C16.7227 10.7872 17.0703 10.8326 17.4093 10.7768C17.7483 10.7211 18.0641 10.5665 18.3182 10.332C18.5316 10.529 18.7891 10.6701 19.0684 10.7431C19.3477 10.8161 19.6403 10.8189 19.9209 10.7511C20.2014 10.6833 20.4615 10.547 20.6784 10.3541C20.8954 10.1612 21.0627 9.91742 21.1659 9.64397C21.2691 9.37053 21.305 9.07565 21.2705 8.78491C21.2361 8.49418 21.1323 8.21637 20.9681 7.97558C20.804 7.7348 20.5845 7.53831 20.3287 7.40315C20.0728 7.268 19.7884 7.19827 19.5 7.2V7.2ZM17.7273 18C17.4138 18 17.1132 18.1264 16.8916 18.3515C16.67 18.5765 16.5455 18.8817 16.5455 19.2V20.4C16.5455 20.7183 16.4209 21.0235 16.1993 21.2485C15.9777 21.4736 15.6771 21.6 15.3636 21.6H3.54545C3.23202 21.6 2.93142 21.4736 2.70978 21.2485C2.48815 21.0235 2.36364 20.7183 2.36364 20.4V15.6H3.54545C3.85889 15.6 4.15949 15.4736 4.38113 15.2485C4.60276 15.0235 4.72727 14.7183 4.72727 14.4C4.72727 14.0817 4.60276 13.7765 4.38113 13.5515C4.15949 13.3264 3.85889 13.2 3.54545 13.2H2.36364V12C2.36364 11.6817 2.48815 11.3765 2.70978 11.1515C2.93142 10.9264 3.23202 10.8 3.54545 10.8C3.85889 10.8 4.15949 10.6736 4.38113 10.4485C4.60276 10.2235 4.72727 9.91826 4.72727 9.6C4.72727 9.28174 4.60276 8.97652 4.38113 8.75147C4.15949 8.52643 3.85889 8.4 3.54545 8.4C2.60514 8.4 1.70334 8.77928 1.03844 9.45442C0.373538 10.1295 0 11.0452 0 12V20.4C0 21.3548 0.373538 22.2705 1.03844 22.9456C1.70334 23.6207 2.60514 24 3.54545 24H15.3636C16.3039 24 17.2057 23.6207 17.8707 22.9456C18.5356 22.2705 18.9091 21.3548 18.9091 20.4V19.2C18.9091 18.8817 18.7846 18.5765 18.5629 18.3515C18.3413 18.1264 18.0407 18 17.7273 18ZM5.90909 19.2H7.09091C7.40435 19.2 7.70495 19.0736 7.92658 18.8485C8.14821 18.6235 8.27273 18.3183 8.27273 18C8.27273 17.6817 8.14821 17.3765 7.92658 17.1515C7.70495 16.9264 7.40435 16.8 7.09091 16.8H5.90909C5.59565 16.8 5.29505 16.9264 5.07342 17.1515C4.85179 17.3765 4.72727 17.6817 4.72727 18C4.72727 18.3183 4.85179 18.6235 5.07342 18.8485C5.29505 19.0736 5.59565 19.2 5.90909 19.2Z" fill="#BFBFBF"/>
</svg>
