<svg width="1280" height="1536" viewBox="0 0 1280 1536" fill="none" xmlns="http://www.w3.org/2000/svg">
<path d="M1280 1271C1280 1343.67 1259.17 1406 1217.5 1458C1175.83 1510 1125.67 1536 1067 1536H213C154.333 1536 104.167 1510 62.5 1458C20.8333 1406 0 1343.67 0 1271C0 1214.33 2.83333 1160.83 8.5 1110.5C14.1667 1060.17 24.6667 1009.5 40 958.5C55.3333 907.5 74.8333 863.833 98.5 827.5C122.167 791.167 153.5 761.5 192.5 738.5C231.5 715.5 276.333 704 327 704C414.333 789.333 518.667 832 640 832C761.333 832 865.667 789.333 953 704C1003.67 704 1048.5 715.5 1087.5 738.5C1126.5 761.5 1157.83 791.167 1181.5 827.5C1205.17 863.833 1224.67 907.5 1240 958.5C1255.33 1009.5 1265.83 1060.17 1271.5 1110.5C1277.17 1160.83 1280 1214.33 1280 1271ZM1024 384C1024 490 986.5 580.5 911.5 655.5C836.5 730.5 746 768 640 768C534 768 443.5 730.5 368.5 655.5C293.5 580.5 256 490 256 384C256 278 293.5 187.5 368.5 112.5C443.5 37.5 534 0 640 0C746 0 836.5 37.5 911.5 112.5C986.5 187.5 1024 278 1024 384Z" fill="#FFFF00"/>
</svg>
