<svg width="31" height="28" viewBox="0 0 31 28" fill="none" xmlns="http://www.w3.org/2000/svg">
<path d="M20.1004 15.8881C20.1004 15.4252 20.2376 14.9728 20.4947 14.588C20.7519 14.2031 21.1174 13.9032 21.545 13.7261C21.9726 13.549 22.4431 13.5026 22.897 13.5929C23.3509 13.6832 23.7679 13.9061 24.0952 14.2334C24.4225 14.5606 24.6453 14.9776 24.7356 15.4315C24.8259 15.8855 24.7796 16.356 24.6025 16.7836C24.4253 17.2112 24.1254 17.5767 23.7406 17.8338C23.3557 18.0909 22.9033 18.2282 22.4405 18.2282C21.8198 18.2282 21.2246 17.9816 20.7858 17.5428C20.3469 17.1039 20.1004 16.5087 20.1004 15.8881ZM30.6309 8.86772V24.0785C30.627 24.8531 30.3176 25.5949 29.7699 26.1426C29.2221 26.6904 28.4804 26.9998 27.7057 27.0036H4.30458C3.21965 26.9998 2.18025 26.5671 1.41309 25.7999C0.645923 25.0327 0.213228 23.9933 0.209373 22.9084V4.80177C0.20745 4.18523 0.326982 3.57435 0.561145 3.00401C0.795308 2.43367 1.13952 1.91503 1.57412 1.47771C2.00872 1.0404 2.5252 0.692963 3.09407 0.455251C3.66294 0.217539 4.27307 0.0942028 4.88961 0.0922852H24.1956C24.661 0.0922852 25.1075 0.277195 25.4366 0.606338C25.7657 0.935481 25.9507 1.38189 25.9507 1.84737C25.9507 2.31285 25.7657 2.75926 25.4366 3.08841C25.1075 3.41755 24.661 3.60246 24.1956 3.60246H4.88961C4.57211 3.60545 4.2681 3.73125 4.04131 3.95348C3.83415 4.17586 3.71915 4.4686 3.71955 4.77252V4.80177C3.74192 5.1147 3.88317 5.40722 4.11433 5.61934C4.34549 5.83146 4.64903 5.94711 4.96273 5.94258H27.7057C28.4804 5.94642 29.2221 6.25584 29.7699 6.80358C30.3176 7.35132 30.627 8.09311 30.6309 8.86772V8.86772ZM27.1207 9.45275H4.96273C4.54316 9.45257 4.12535 9.3985 3.71955 9.29187V22.9084C3.71955 23.0636 3.78118 23.2124 3.8909 23.3221C4.00061 23.4318 4.14942 23.4934 4.30458 23.4934H27.1207V9.45275Z" fill="black" fill-opacity="0.6"/>
</svg>
