<svg width="136" height="132" viewBox="0 0 136 132" fill="none" xmlns="http://www.w3.org/2000/svg">
<g filter="url(#filter0_d_4241_537)">
<ellipse cx="68" cy="61.7821" rx="64" ry="61.7821" fill="#0F73A5"/>
<ellipse cx="68" cy="61.7821" rx="40" ry="38.6138" fill="#2FC1F4"/>
<path d="M51.2 71L50.36 41.72H55.96L56.8 71H51.2ZM50.96 83.36L50.28 80.56C51.2133 80.4 51.9067 80.2667 52.36 80.16C52.84 80.0533 53.3467 79.9333 53.88 79.8L53.48 80.8C52.7867 80.56 52.12 80.08 51.48 79.36C50.8667 78.6667 50.56 77.8667 50.56 76.96C50.56 76 50.7733 75.2267 51.2 74.64C51.6267 74.0533 52.1733 73.6267 52.84 73.36C53.5067 73.0933 54.2 72.96 54.92 72.96C55.32 72.96 55.6933 72.9867 56.04 73.04C56.4133 73.0933 56.7467 73.1733 57.04 73.28L56.72 76.16C56.4533 76.1067 56.1867 76.0533 55.92 76C55.6533 75.9467 55.36 75.92 55.04 75.92C54.6933 75.92 54.3733 76.0267 54.08 76.24C53.8133 76.48 53.68 76.76 53.68 77.08C53.68 77.5333 53.84 77.9333 54.16 78.28C54.48 78.6267 54.8533 78.8933 55.28 79.08C55.7333 79.2933 56.1067 79.4133 56.4 79.44L54.2 79.68C54.92 79.4933 55.6 79.2933 56.24 79.08C56.88 78.8933 57.48 78.6933 58.04 78.48L58.84 81.16C58.1733 81.4 57.3867 81.6533 56.48 81.92C55.6 82.2133 54.68 82.48 53.72 82.72C52.7867 82.96 51.8667 83.1733 50.96 83.36ZM64.8892 71.3693C63.9517 71.3693 63.1468 71.0379 62.4744 70.375C61.8116 69.7027 61.4801 68.8977 61.4801 67.9602C61.4801 67.0322 61.8116 66.2367 62.4744 65.5739C63.1468 64.911 63.9517 64.5795 64.8892 64.5795C65.7983 64.5795 66.5938 64.911 67.2756 65.5739C67.9574 66.2367 68.2983 67.0322 68.2983 67.9602C68.2983 68.5852 68.1373 69.1581 67.8153 69.679C67.5028 70.1903 67.0909 70.6023 66.5795 70.9148C66.0682 71.2178 65.5047 71.3693 64.8892 71.3693ZM72.2516 69.4L74.2116 64.32C75.1982 64.7467 76.1449 65.0667 77.0516 65.28C77.9582 65.4933 78.8649 65.6 79.7716 65.6C80.7049 65.6 81.4782 65.52 82.0916 65.36C82.7316 65.1733 83.2116 64.9067 83.5316 64.56C83.8516 64.2133 84.0116 63.8 84.0116 63.32C84.0116 62.8667 83.8649 62.24 83.5716 61.44C83.3049 60.64 82.8116 59.6 82.0916 58.32C81.3716 57.0133 80.3182 55.4 78.9316 53.48L83.6916 50.32C84.9716 52.1333 86.0782 53.9067 87.0116 55.64C87.9449 57.3467 88.6649 58.9467 89.1716 60.44C89.7049 61.9067 89.9716 63.2 89.9716 64.32C89.9716 65.7067 89.5982 66.92 88.8516 67.96C88.1316 68.9733 87.0516 69.7733 85.6116 70.36C84.1982 70.9467 82.4516 71.24 80.3716 71.24C79.5982 71.24 78.7316 71.1733 77.7716 71.04C76.8116 70.9067 75.8382 70.7067 74.8516 70.44C73.8916 70.1733 73.0249 69.8267 72.2516 69.4Z" fill="#F7F6FB"/>
</g>
<path d="M25.8157 95.9146L24.8228 94.7405L28.4293 91.6908C28.8343 91.3484 29.2704 91.1455 29.7376 91.0822C30.2034 91.017 30.6672 91.0852 31.1291 91.2868C31.5892 91.4899 32.0133 91.821 32.4016 92.2802C32.7914 92.7412 33.0482 93.2154 33.1721 93.7028C33.2941 94.1918 33.2843 94.6605 33.1426 95.1089C33.001 95.5574 32.7277 95.9528 32.3227 96.2952L28.7163 99.3448L27.7234 98.1707L31.2296 95.2059C31.4411 95.0271 31.5901 94.822 31.6766 94.5907C31.7617 94.3576 31.7793 94.1163 31.7296 93.8669C31.6799 93.6175 31.5596 93.3798 31.3685 93.1538C31.1759 92.926 30.9615 92.7678 30.7253 92.6792C30.4876 92.5887 30.2476 92.567 30.0051 92.6139C29.7611 92.659 29.5333 92.771 29.3218 92.9498L25.8157 95.9146Z" fill="white"/>
<path d="M17.6165 82.0996L24.217 79.0458L24.7747 80.2512L21.949 85.0449L21.9714 85.0932L26.1257 83.1711L26.7713 84.5667L20.1708 87.6205L19.6042 86.3958L22.4372 81.6262L22.4103 81.5681L18.2592 83.4887L17.6165 82.0996Z" fill="white"/>
<path d="M14.8759 72.8145L21.979 71.2529L22.3092 72.7547L15.2061 74.3163L14.8759 72.8145Z" fill="white"/>
<path d="M15.0598 65.52L13.7921 65.5324L13.7337 59.5597L15.0014 59.5473L15.0232 61.7737L21.0279 61.715L21.0427 63.2348L15.0381 63.2935L15.0598 65.52Z" fill="white"/>
<path d="M21.6758 53.6052L14.6084 51.8895L15.7645 47.1273L16.9964 47.4264L16.2031 50.6944L17.8871 51.1032L18.621 48.0802L19.853 48.3793L19.1191 51.4023L20.8066 51.8119L21.6033 48.5301L22.8353 48.8292L21.6758 53.6052Z" fill="white"/>
<path d="M26.3042 40.2634L25.0763 42.5303L18.6814 39.0665L19.9195 36.7808C20.2679 36.1376 20.6958 35.6532 21.2033 35.3277C21.7087 35.001 22.2675 34.8419 22.8795 34.8503C23.4926 34.8566 24.1312 35.0396 24.7952 35.3993C25.4614 35.7601 25.9656 36.1962 26.308 36.7074C26.6514 37.2165 26.8243 37.7746 26.8267 38.3817C26.8302 38.9867 26.656 39.6139 26.3042 40.2634ZM24.6502 40.5508L25.1153 39.6921C25.3318 39.2924 25.4431 38.9179 25.4493 38.5685C25.4545 38.2159 25.3444 37.8898 25.1191 37.59C24.8928 37.287 24.5413 37.0065 24.0646 36.7482C23.592 36.4923 23.1681 36.3529 22.7928 36.33C22.4186 36.305 22.0869 36.3905 21.7977 36.5865C21.5084 36.7826 21.2555 37.0804 21.039 37.4801L20.5722 38.3419L24.6502 40.5508Z" fill="white"/>
<path d="M38.1689 25.598L36.8477 26.5827L34.5146 19.2511L36.1034 18.0669L42.4598 22.3999L41.1386 23.3846L36.325 19.9745L36.2794 20.0085L38.1689 25.598ZM36.378 23.3675L39.4986 21.0416L40.2159 22.004L37.0953 24.3299L36.378 23.3675Z" fill="white"/>
<path d="M47.7145 19.5057L45.0018 12.7579L47.6641 11.6876C48.1737 11.4828 48.6452 11.3991 49.0788 11.4366C49.5136 11.471 49.8922 11.6161 50.2144 11.8718C50.538 12.1245 50.7894 12.4738 50.9686 12.9197C51.1488 13.3678 51.2071 13.7921 51.1436 14.1927C51.0792 14.5911 50.898 14.9497 50.6001 15.2685C50.3043 15.5865 49.8973 15.8496 49.3789 16.058L47.5963 16.7746L47.1354 15.628L48.6873 15.0041C48.9597 14.8946 49.1709 14.7663 49.321 14.6192C49.4711 14.4721 49.56 14.3062 49.5879 14.1216C49.6179 13.936 49.5883 13.7323 49.4991 13.5104C49.409 13.2864 49.2881 13.1156 49.1362 12.998C48.9865 12.8796 48.8046 12.8175 48.5905 12.8117C48.3777 12.8028 48.134 12.8536 47.8595 12.9639L46.8974 13.3507L49.1412 18.9322L47.7145 19.5057ZM50.1241 14.97L53.0357 17.3666L51.4607 17.9997L48.5854 15.5885L50.1241 14.97Z" fill="white"/>
<path d="M59.9464 15.6793L58.3113 15.883L59.9035 8.35568L61.8698 8.11066L65.2569 15.0176L63.6218 15.2213L61.1203 9.87884L61.0639 9.88586L59.9464 15.6793ZM59.4908 12.8553L63.3529 12.3741L63.5014 13.5651L59.6392 14.0464L59.4908 12.8553Z" fill="white"/>
<path d="M71.2556 15.0961L72.2294 7.88887L75.1151 8.27876C75.6453 8.3504 76.0769 8.48874 76.41 8.6938C76.743 8.89885 76.9798 9.15302 77.1204 9.45629C77.2613 9.75722 77.3073 10.0883 77.2585 10.4496C77.2205 10.7312 77.1307 10.9711 76.9893 11.1694C76.8481 11.3653 76.6698 11.518 76.4544 11.6274C76.2416 11.7349 76.0058 11.7998 75.7472 11.8221L75.7377 11.8925C76.0106 11.9413 76.257 12.0535 76.477 12.2289C76.6993 12.4047 76.8681 12.6317 76.9834 12.9101C77.099 13.1861 77.1329 13.5013 77.085 13.8555C77.0333 14.2379 76.8922 14.5665 76.6616 14.8411C76.4336 15.1137 76.1238 15.3119 75.732 15.4357C75.3402 15.5596 74.8745 15.5851 74.3349 15.5121L71.2556 15.0961ZM72.9477 14.0562L74.19 14.224C74.6146 14.2814 74.9353 14.2423 75.1519 14.1068C75.3688 13.9688 75.4956 13.7638 75.5324 13.4917C75.5593 13.2922 75.535 13.1098 75.4594 12.9443C75.3838 12.7788 75.2628 12.6406 75.0962 12.5297C74.9319 12.4191 74.7278 12.3473 74.4838 12.3144L73.2064 12.1418L72.9477 14.0562ZM73.3457 11.1107L74.4753 11.2633C74.6842 11.2915 74.8744 11.2802 75.0461 11.2293C75.2205 11.1764 75.3638 11.0883 75.476 10.9649C75.5906 10.8418 75.6607 10.6853 75.6864 10.4952C75.7216 10.2348 75.6573 10.0123 75.4935 9.82774C75.332 9.64348 75.0824 9.52853 74.7446 9.48289L73.5868 9.32645L73.3457 11.1107Z" fill="white"/>
<path d="M89.7455 20.4071L93.5315 14.1975L97.7157 16.7486L97.0557 17.831L94.1844 16.0804L93.2822 17.56L95.9383 19.1794L95.2783 20.2618L92.6223 18.6425L91.7183 20.1251L94.6018 21.8831L93.9418 22.9656L89.7455 20.4071Z" fill="white"/>
<path d="M104.644 22.0121L105.929 23.4068L103.692 28.1905L103.75 28.2532L108.701 26.4158L109.985 27.8106L104.636 32.7378L103.626 31.6408L107.107 28.4338L107.066 28.3894L102.336 30.188L101.648 29.441L103.841 24.8617L103.8 24.8173L100.305 28.0363L99.295 26.9393L104.644 22.0121Z" fill="white"/>
<path d="M115.434 36.2009L109.075 39.7306L108.329 38.3862L114.688 34.8565L115.434 36.2009Z" fill="white"/>
<path d="M111.691 45.2826L118.639 43.1325L119.487 45.8735C119.65 46.3982 119.694 46.875 119.622 47.304C119.552 47.7346 119.376 48.1 119.095 48.4001C118.816 48.7019 118.448 48.9238 117.988 49.0659C117.527 49.2087 117.099 49.232 116.705 49.1359C116.314 49.039 115.971 48.8291 115.678 48.506C115.385 48.1852 115.156 47.7579 114.991 47.2241L114.423 45.3889L115.604 45.0235L116.098 46.6213C116.185 46.9017 116.295 47.1228 116.43 47.2844C116.564 47.4461 116.722 47.5484 116.904 47.5912C117.086 47.6364 117.292 47.6236 117.52 47.5529C117.751 47.4815 117.931 47.3749 118.061 47.2332C118.191 47.0938 118.268 46.9176 118.291 46.7047C118.317 46.4933 118.287 46.2463 118.199 45.9636L117.893 44.973L112.146 46.7515L111.691 45.2826ZM116.014 48.0561L113.387 50.7613L112.885 49.1398L115.524 46.4719L116.014 48.0561Z" fill="white"/>
<path d="M114.502 57.7872L114.433 56.141L121.804 58.345L121.887 60.3248L114.726 63.1341L114.657 61.4878L120.187 59.4328L120.184 59.3761L114.502 57.7872ZM117.354 57.5647L117.517 61.4533L116.317 61.5036L116.154 57.6149L117.354 57.5647Z" fill="white"/>
<path d="M120.08 70.1249L121.318 70.3971L120.036 76.2308L118.798 75.9586L119.276 73.7839L113.411 72.4946L113.737 71.0102L119.602 72.2995L120.08 70.1249Z" fill="white"/>
<path d="M110.961 80.2525L117.463 83.5094L115.269 87.8911L114.135 87.3234L115.641 84.3165L114.092 83.5404L112.699 86.3219L111.565 85.7542L112.958 82.9727L111.406 82.1951L109.893 85.2146L108.76 84.6469L110.961 80.2525Z" fill="white"/>
<path d="M106.471 96.6463C106.706 96.812 106.955 96.8652 107.215 96.8058C107.476 96.7464 107.727 96.5769 107.969 96.2974C108.133 96.1074 108.244 95.9239 108.304 95.7466C108.365 95.571 108.379 95.4079 108.346 95.2576C108.311 95.1091 108.235 94.9837 108.117 94.8816C108.021 94.7929 107.918 94.7393 107.805 94.7206C107.692 94.7038 107.573 94.7125 107.45 94.7467C107.328 94.7825 107.202 94.8362 107.071 94.9079C106.942 94.9811 106.813 95.0661 106.682 95.163L106.137 95.5554C105.876 95.7491 105.614 95.9076 105.351 96.0309C105.088 96.1543 104.828 96.2329 104.57 96.2669C104.312 96.3009 104.06 96.2816 103.813 96.2091C103.564 96.1383 103.325 96.0048 103.094 95.8086C102.758 95.5159 102.541 95.1777 102.44 94.794C102.34 94.4136 102.36 94.0051 102.499 93.5685C102.639 93.1353 102.902 92.6948 103.289 92.2468C103.672 91.8024 104.075 91.4741 104.495 91.262C104.915 91.0517 105.338 90.9695 105.764 91.0155C106.191 91.0648 106.606 91.256 107.009 91.5889L106.037 92.7151C105.842 92.5683 105.642 92.4881 105.438 92.4745C105.234 92.4643 105.033 92.5109 104.834 92.6145C104.635 92.7213 104.449 92.8751 104.276 93.0758C104.106 93.2729 103.987 93.4688 103.919 93.6634C103.849 93.8599 103.831 94.0425 103.863 94.2113C103.896 94.3802 103.978 94.5218 104.111 94.6363C104.234 94.7431 104.37 94.7961 104.518 94.7953C104.664 94.7964 104.827 94.7526 105.007 94.6639C105.185 94.5769 105.385 94.454 105.606 94.2951L106.274 93.8257C106.788 93.4591 107.281 93.245 107.753 93.1836C108.225 93.1221 108.664 93.2679 109.069 93.6209C109.404 93.9069 109.619 94.247 109.713 94.6413C109.806 95.0373 109.786 95.4534 109.653 95.8894C109.521 96.3255 109.281 96.7442 108.935 97.1456C108.582 97.5541 108.204 97.8504 107.801 98.0343C107.397 98.22 106.997 98.2905 106.601 98.2456C106.205 98.2008 105.84 98.0395 105.508 97.7617L106.471 96.6463Z" fill="white"/>
<path d="M52.2102 115H49.6321V107.727H52.2315C52.9631 107.727 53.5928 107.873 54.1207 108.164C54.6487 108.453 55.0547 108.868 55.3388 109.411C55.6252 109.953 55.7685 110.601 55.7685 111.357C55.7685 112.114 55.6252 112.765 55.3388 113.31C55.0547 113.854 54.6463 114.272 54.1136 114.563C53.5833 114.854 52.9489 115 52.2102 115ZM51.1697 113.683H52.1463C52.6009 113.683 52.9832 113.602 53.2933 113.441C53.6058 113.278 53.8402 113.026 53.9964 112.685C54.1551 112.341 54.2344 111.899 54.2344 111.357C54.2344 110.819 54.1551 110.38 53.9964 110.039C53.8402 109.698 53.607 109.447 53.2969 109.286C52.9867 109.125 52.6044 109.045 52.1499 109.045H51.1697V113.683ZM58.4451 107.727V115H56.9075V107.727H58.4451ZM59.7102 115V107.727H62.5795C63.1288 107.727 63.5975 107.826 63.9858 108.022C64.3764 108.216 64.6735 108.492 64.8771 108.849C65.0831 109.205 65.1861 109.622 65.1861 110.103C65.1861 110.586 65.0819 111.001 64.8736 111.349C64.6652 111.695 64.3634 111.96 63.968 112.145C63.575 112.33 63.0992 112.422 62.5405 112.422H60.6193V111.186H62.2919C62.5855 111.186 62.8293 111.146 63.0234 111.065C63.2176 110.985 63.362 110.864 63.4567 110.703C63.5537 110.542 63.6023 110.342 63.6023 110.103C63.6023 109.862 63.5537 109.658 63.4567 109.492C63.362 109.326 63.2164 109.201 63.0199 109.116C62.8258 109.028 62.5807 108.984 62.2848 108.984H61.2479V115H59.7102ZM63.6378 111.69L65.4453 115H63.7479L61.9794 111.69H63.6378ZM66.2727 115V107.727H67.8104V110.728H70.9318V107.727H72.4659V115H70.9318V111.996H67.8104V115H66.2727ZM74.9872 115H73.3395L75.8501 107.727H77.8317L80.3388 115H78.6911L76.8693 109.389H76.8125L74.9872 115ZM74.8842 112.141H78.7763V113.342H74.8842V112.141ZM81.2141 107.727H83.1104L85.1133 112.614H85.1985L87.2013 107.727H89.0977V115H87.6062V110.266H87.5458L85.6637 114.964H84.6481L82.766 110.249H82.7056V115H81.2141V107.727Z" fill="white"/>
<defs>
<filter id="filter0_d_4241_537" x="0" y="0" width="136" height="131.564" filterUnits="userSpaceOnUse" color-interpolation-filters="sRGB">
<feFlood flood-opacity="0" result="BackgroundImageFix"/>
<feColorMatrix in="SourceAlpha" type="matrix" values="0 0 0 0 0 0 0 0 0 0 0 0 0 0 0 0 0 0 127 0" result="hardAlpha"/>
<feOffset dy="4"/>
<feGaussianBlur stdDeviation="2"/>
<feComposite in2="hardAlpha" operator="out"/>
<feColorMatrix type="matrix" values="0 0 0 0 0 0 0 0 0 0 0 0 0 0 0 0 0 0 0.25 0"/>
<feBlend mode="normal" in2="BackgroundImageFix" result="effect1_dropShadow_4241_537"/>
<feBlend mode="normal" in="SourceGraphic" in2="effect1_dropShadow_4241_537" result="shape"/>
</filter>
</defs>
</svg>
