<svg width="136" height="133" viewBox="0 0 136 133" fill="none" xmlns="http://www.w3.org/2000/svg">
<g filter="url(#filter0_d_4239_90)">
<ellipse cx="68" cy="62.7821" rx="64" ry="61.7821" fill="#0F73A5"/>
<ellipse cx="68" cy="62.7821" rx="40" ry="38.6138" fill="#2FC1F4"/>
<path d="M86.1449 79H77.3026V74.0355C77.3026 71.1094 76.8622 68.6307 75.9815 66.5994C75.1009 64.5682 73.8793 63.027 72.3168 61.9759C70.7543 60.9105 68.9574 60.3778 66.9261 60.3778C64.8807 60.3778 63.0767 60.9105 61.5142 61.9759C59.9659 63.027 58.7585 64.5682 57.892 66.5994C57.0256 68.6307 56.5923 71.1094 56.5923 74.0355V79H47.8139V74.142C47.8139 69.8381 48.6378 66.1236 50.2855 62.9986C51.9474 59.8736 54.2202 57.4659 57.1037 55.7756C59.9872 54.071 63.2614 53.2188 66.9261 53.2188C70.6051 53.2188 73.8864 54.071 76.7699 55.7756C79.6676 57.4659 81.9474 59.8736 83.6094 62.9986C85.2855 66.1236 86.1307 69.8381 86.1449 74.142V79ZM71.4006 46.2727V79H62.5369V46.2727H71.4006Z" fill="#F7F6FB"/>
</g>
<path d="M21.1135 61.2024L20.7883 63.6525L10.4695 58.4841L10.8605 55.5377L22.1695 53.2448L21.8443 55.6949L13.1418 57.2966L13.1306 57.3811L21.1135 61.2024ZM16.8424 60.7914L17.6104 55.0041L19.3952 55.2409L18.6272 61.0283L16.8424 60.7914Z" fill="white"/>
<path d="M24.1507 46.992L22.9315 46.3694L18.6045 38.0471L16.1239 42.9049L14.4303 42.0401L18.2288 34.6016L19.448 35.2242L23.7726 43.5512L26.2557 38.6886L27.9493 39.5535L24.1507 46.992Z" fill="white"/>
<path d="M32.245 33.5865L24.58 25.824L29.8107 20.6591L31.1468 22.0123L27.5574 25.5566L29.3838 27.4062L32.7041 24.1277L34.0402 25.4808L30.7199 28.7594L32.55 30.6128L36.1546 27.0536L37.4908 28.4067L32.245 33.5865Z" fill="white"/>
<path d="M43.2863 24.0914L38.3477 14.3642L42.1854 12.4158C42.92 12.0428 43.6137 11.8559 44.2664 11.8551C44.9207 11.8495 45.5054 12.0166 46.0204 12.3565C46.537 12.6916 46.9585 13.1805 47.2849 13.8233C47.6128 14.4693 47.7556 15.0957 47.7133 15.7026C47.6694 16.3064 47.4457 16.866 47.0423 17.3814C46.6421 17.8953 46.0683 18.3419 45.321 18.7213L42.7515 20.0259L41.9123 18.373L44.1494 17.2372C44.542 17.0379 44.8408 16.8185 45.0458 16.579C45.2508 16.3395 45.362 16.08 45.3793 15.8003C45.3998 15.5191 45.3289 15.2186 45.1665 14.8988C45.0026 14.5758 44.7994 14.3365 44.557 14.1807C44.3178 14.0234 44.0379 13.9544 43.7172 13.9739C43.3981 13.9885 43.0406 14.0963 42.6448 14.2973L41.2579 15.0014L45.3428 23.0473L43.2863 24.0914ZM46.2919 16.9978L50.9569 20.197L48.6866 21.3497L44.0738 18.1239L46.2919 16.9978Z" fill="white"/>
<path d="M56.694 18.4075L54.9505 7.63865L59.2622 6.94056C60.0545 6.81229 60.7343 6.82274 61.3016 6.97191C61.869 7.12107 62.3196 7.38267 62.6536 7.75669C62.987 8.1272 63.1974 8.58238 63.2848 9.12222C63.3529 9.54288 63.3286 9.92633 63.212 10.2726C63.0948 10.6153 62.9055 10.9122 62.6439 11.1632C62.3853 11.4101 62.0753 11.606 61.7138 11.7508L61.7308 11.856C62.1438 11.8071 62.5464 11.8607 62.9386 12.0166C63.3343 12.172 63.6755 12.4243 63.9623 12.7736C64.2485 13.1194 64.4345 13.5569 64.5202 14.0862C64.6127 14.6576 64.5533 15.1907 64.342 15.6854C64.1336 16.176 63.7753 16.5955 63.2669 16.944C62.7585 17.2925 62.1012 17.5321 61.295 17.6626L56.694 18.4075ZM58.6694 16.1775L60.5256 15.877C61.1601 15.7742 61.6032 15.5784 61.855 15.2894C62.1063 14.9969 62.199 14.6473 62.1331 14.2407C62.0849 13.9427 61.9705 13.6914 61.7898 13.4869C61.6092 13.2823 61.3752 13.1367 61.0878 13.0501C60.8039 12.963 60.4796 12.9489 60.1151 13.008L58.2063 13.317L58.6694 16.1775ZM57.9569 11.7763L59.6448 11.5031C59.9568 11.4525 60.2249 11.3534 60.4492 11.2055C60.6764 11.0536 60.8437 10.8647 60.951 10.6386C61.0618 10.4121 61.0942 10.1568 61.0482 9.87285C60.9852 9.48374 60.796 9.19242 60.4804 8.99888C60.1684 8.80478 59.76 8.74859 59.2552 8.83032L57.5253 9.11041L57.9569 11.7763Z" fill="white"/>
<path d="M73.0351 17.2939L70.5989 16.8773L76.15 6.75915L79.0798 7.2602L80.9476 18.6471L78.5114 18.2305L77.2366 9.47408L77.1526 9.45971L73.0351 17.2939ZM73.6057 13.0412L79.3602 14.0254L79.0567 15.8001L73.3022 14.8159L73.6057 13.0412Z" fill="white"/>
<path d="M94.0151 12.2901L89.2923 22.1238L87.2132 21.1253L91.936 11.2915L94.0151 12.2901Z" fill="white"/>
<path d="M106.003 20.229L107.754 21.6892L102.882 27.5307C102.432 28.0706 101.919 28.4385 101.344 28.6342C100.772 28.8322 100.182 28.8604 99.5745 28.7187C98.9667 28.577 98.3792 28.2697 97.8119 27.7966C97.3074 27.3758 96.9232 26.905 96.6592 26.3843C96.4003 25.8631 96.3032 25.3198 96.368 24.7542C96.4351 24.1859 96.702 23.6247 97.1687 23.0706L98.9318 24.5411C98.753 24.7665 98.6399 24.9936 98.5925 25.2223C98.5502 25.4505 98.5687 25.6694 98.6482 25.8791C98.7327 26.0883 98.8785 26.2793 99.0858 26.4522C99.304 26.6341 99.5267 26.7413 99.754 26.7737C99.9864 26.8056 100.218 26.7632 100.45 26.6464C100.681 26.5297 100.908 26.3377 101.131 26.0704L106.003 20.229Z" fill="white"/>
<path d="M106.552 36.6997L105.247 34.6005L116.5 32.0409L118.069 34.5654L110.789 43.5177L109.484 41.4184L115.19 34.6552L115.145 34.5828L106.552 36.6997ZM110.112 34.3051L113.194 39.2637L111.664 40.214L108.583 35.2555L110.112 34.3051Z" fill="white"/>
<path d="M125.841 56.4024L115.161 58.6289L114.755 56.6786L120.508 50.6311L120.491 50.5529L113.77 51.9542L113.299 49.6963L123.978 47.4698L124.392 49.4514L118.636 55.4613L118.656 55.5552L125.372 54.1549L125.841 56.4024Z" fill="white"/>
<path d="M127.427 65.6556L116.767 67.9745L116.277 65.7208L126.937 63.4018L127.427 65.6556Z" fill="white"/>
<path d="M41.5397 96.694L43.8365 98.372L41.9386 106.063L42.0418 106.138L48.7914 101.992L51.0882 103.67L44.6529 112.479L42.8464 111.159L47.035 105.425L46.9619 105.372L40.5251 109.397L39.2949 108.498L41.1883 101.121L41.1151 101.068L36.9108 106.823L35.1043 105.503L41.5397 96.694Z" fill="white"/>
<path d="M53.5373 116.198L51.1497 115.559L57.606 105.993L60.4774 106.761L61.2922 118.272L58.9045 117.633L58.4389 108.797L58.3566 108.775L53.5373 116.198ZM54.4959 112.016L60.1358 113.524L59.6706 115.263L54.0308 113.755L54.4959 112.016Z" fill="white"/>
<path d="M77.0362 107.301L77.9929 118.168L76.0084 118.342L70.6785 111.919L70.5989 111.926L71.201 118.765L68.9034 118.968L67.9467 108.101L69.9631 107.923L75.2554 114.345L75.3509 114.336L74.7493 107.502L77.0362 107.301Z" fill="white"/>
<path d="M87.8669 115.354L85.6275 116.4L84.4236 104.922L87.1167 103.664L95.1402 111.957L92.9008 113.003L86.8636 106.534L86.7864 106.57L87.8669 115.354ZM85.9125 111.534L91.2022 109.064L91.964 110.695L86.6744 113.165L85.9125 111.534Z" fill="white"/>
<path d="M94.7686 101.433L93.437 100.076L99.8332 93.8016L101.165 95.1592L98.7805 97.4979L105.088 103.928L103.46 105.525L97.1529 99.0944L94.7686 101.433Z" fill="white"/>
<defs>
<filter id="filter0_d_4239_90" x="0" y="1" width="136" height="131.564" filterUnits="userSpaceOnUse" color-interpolation-filters="sRGB">
<feFlood flood-opacity="0" result="BackgroundImageFix"/>
<feColorMatrix in="SourceAlpha" type="matrix" values="0 0 0 0 0 0 0 0 0 0 0 0 0 0 0 0 0 0 127 0" result="hardAlpha"/>
<feOffset dy="4"/>
<feGaussianBlur stdDeviation="2"/>
<feComposite in2="hardAlpha" operator="out"/>
<feColorMatrix type="matrix" values="0 0 0 0 0 0 0 0 0 0 0 0 0 0 0 0 0 0 0.25 0"/>
<feBlend mode="normal" in2="BackgroundImageFix" result="effect1_dropShadow_4239_90"/>
<feBlend mode="normal" in="SourceGraphic" in2="effect1_dropShadow_4239_90" result="shape"/>
</filter>
</defs>
</svg>
