<svg width="136" height="135" viewBox="0 0 136 135" fill="none" xmlns="http://www.w3.org/2000/svg">
<g filter="url(#filter0_d_4143_84)">
<ellipse cx="68" cy="63.3077" rx="64" ry="63.3077" fill="#0F73A5"/>
<ellipse cx="68" cy="63.3077" rx="40" ry="39.5673" fill="#2FC1F4"/>
<path d="M64.7315 96.1256V32.4892H68.8082V96.1256H64.7315ZM48.4247 89.762V38.8529H68.8082C72.5535 38.8529 75.6773 39.408 78.1797 40.5184C80.6821 41.6287 82.563 43.1699 83.8224 45.1419C85.0819 47.0974 85.7116 49.3512 85.7116 51.9033C85.7116 53.8919 85.3139 55.6403 84.5185 57.1483C83.723 58.6398 82.6293 59.8661 81.2372 60.8273C79.8617 61.7719 78.2874 62.4431 76.5142 62.8408V63.338C78.4531 63.4208 80.2678 63.9677 81.9581 64.9786C83.665 65.9895 85.0488 67.4064 86.1094 69.2293C87.17 71.0356 87.7003 73.19 87.7003 75.6924C87.7003 78.3936 87.0291 80.8048 85.6868 82.926C84.361 85.0307 82.3973 86.6961 79.7955 87.9225C77.1937 89.1488 73.987 89.762 70.1754 89.762H48.4247ZM59.1882 80.9622H67.9631C70.9626 80.9622 73.1501 80.3905 74.5256 79.247C75.901 78.087 76.5888 76.5458 76.5888 74.6235C76.5888 73.2149 76.2491 71.972 75.5696 70.8948C74.8902 69.8176 73.9207 68.9724 72.6612 68.3593C71.4183 67.7461 69.9351 67.4395 68.2116 67.4395H59.1882V80.9622ZM59.1882 60.1561H67.1676C68.6425 60.1561 69.9517 59.8993 71.0952 59.3855C72.2552 58.8552 73.1667 58.1095 73.8295 57.1483C74.509 56.1872 74.8487 55.0354 74.8487 53.6931C74.8487 51.8536 74.1941 50.3704 72.8849 49.2435C71.5923 48.1166 69.7528 47.5532 67.3665 47.5532H59.1882V60.1561Z" fill="white"/>
<path d="M16.0889 47.9536L14.3737 47.1323L18.312 39.0848L20.0271 39.9061L18.5591 42.906L26.6832 46.7961L25.681 48.8439L17.5569 44.9537L16.0889 47.9536Z" fill="white"/>
<path d="M30.9102 38.7607L21.7015 32.9118L22.9573 30.9772L26.7568 33.3904L29.3061 29.4631L25.5066 27.0499L26.7595 25.1197L35.9681 30.9685L34.7153 32.8987L30.9113 30.4826L28.362 34.41L32.166 36.826L30.9102 38.7607Z" fill="white"/>
<path d="M42.4255 25.7899L40.3785 27.1751L37.2921 16.0922L39.7537 14.4263L49.0735 21.2909L47.0266 22.6761L39.9762 17.2856L39.9056 17.3334L42.4255 25.7899ZM39.8584 22.3498L44.6934 19.0777L45.7175 20.5585L40.8825 23.8305L39.8584 22.3498Z" fill="white"/>
<path d="M54.4286 7.90505L57.4987 18.3732L55.2817 19.0094L52.2116 8.54125L54.4286 7.90505Z" fill="white"/>
<path d="M73.3111 17.1015L75.7545 6.46955L80.016 7.42782C80.799 7.6039 81.4254 7.86669 81.8953 8.21622C82.3652 8.56574 82.6844 8.97603 82.8531 9.44709C83.0225 9.91469 83.046 10.415 82.9235 10.948C82.8281 11.3633 82.661 11.7097 82.4224 11.9873C82.1845 12.2613 81.8969 12.466 81.5598 12.6013C81.2269 12.7339 80.8655 12.8001 80.4757 12.7998L80.4519 12.9036C80.8533 13.0121 81.2064 13.2116 81.5113 13.5022C81.8196 13.7935 82.0409 14.1545 82.1751 14.5851C82.3102 15.0122 82.3176 15.487 82.1975 16.0096C82.0679 16.5737 81.8119 17.0457 81.4294 17.4256C81.0512 17.8028 80.5607 18.0583 79.9579 18.1921C79.3551 18.3259 78.6553 18.3032 77.8584 18.124L73.3111 17.1015ZM75.9837 15.7698L77.8183 16.1823C78.4453 16.3233 78.9301 16.3067 79.2726 16.1326C79.6158 15.955 79.8336 15.6655 79.9258 15.264C79.9934 14.9698 79.982 14.6943 79.8917 14.4374C79.8013 14.1805 79.6392 13.9584 79.4053 13.7711C79.1749 13.5846 78.8796 13.4509 78.5192 13.3699L76.6328 12.9456L75.9837 15.7698ZM76.9823 11.4246L78.6505 11.7997C78.9589 11.869 79.2449 11.8769 79.5086 11.8234C79.7766 11.7672 80.003 11.6543 80.1877 11.4847C80.3759 11.3159 80.5022 11.0914 80.5666 10.8111C80.6549 10.4269 80.5892 10.0864 80.3696 9.78947C80.1534 9.49336 79.7959 9.28921 79.297 9.17702L77.5872 8.79254L76.9823 11.4246Z" fill="white"/>
<path d="M88.7217 22.2581L86.6748 20.8729L95.9991 14.0113L98.4607 15.6772L95.3698 26.7571L93.3229 25.3719L95.8471 16.9184L95.7765 16.8706L88.7217 22.2581ZM91.0329 18.6448L95.8679 21.9168L94.8437 23.3976L90.0088 20.1256L91.0329 18.6448Z" fill="white"/>
<path d="M100.005 30.3628L109.214 24.514L110.469 26.4486L106.67 28.8618L109.219 32.7892L113.019 30.3759L114.271 32.3061L105.063 38.1549L103.81 36.2248L107.614 33.8087L105.065 29.8814L101.261 32.2975L100.005 30.3628Z" fill="white"/>
<path d="M115.832 40.0802L117.531 39.2263L121.624 47.1962L119.925 48.0501L118.399 45.0791L110.351 49.1236L109.31 47.0956L117.358 43.0511L115.832 40.0802Z" fill="white"/>
<path d="M23.855 87.0781L25.1795 85.7161L31.6764 91.8977L30.3519 93.2598L27.93 90.9555L21.6564 97.4072L20.0032 95.8342L26.2769 89.3825L23.855 87.0781Z" fill="white"/>
<path d="M29.1034 104.158L35.8596 95.6062L37.6861 97.0181L34.8985 100.547L38.6064 103.413L41.394 99.8843L43.2163 101.293L36.4601 109.845L34.6378 108.436L37.4287 104.904L33.7208 102.037L30.9299 105.57L29.1034 104.158Z" fill="white"/>
<path d="M45.2457 114.6L42.9306 113.73L50.3691 104.881L53.1532 105.928L52.7647 117.428L50.4496 116.558L50.9074 107.745L50.8275 107.715L45.2457 114.6ZM46.6383 110.546L52.1067 112.603L51.4612 114.282L45.9928 112.226L46.6383 110.546Z" fill="white"/>
<path d="M63.7473 108.318L62.3721 119.136L60.0824 118.851L61.4576 108.034L63.7473 108.318Z" fill="white"/>
<path d="M79.6092 118.651L76.8357 108.097L81.0647 107.01C81.8417 106.81 82.52 106.758 83.0997 106.855C83.6794 106.952 84.1536 107.171 84.5223 107.513C84.8901 107.851 85.1436 108.284 85.2826 108.814C85.391 109.226 85.4037 109.609 85.3208 109.965C85.237 110.316 85.0769 110.629 84.8405 110.902C84.6066 111.172 84.3165 111.395 83.9703 111.572L83.9974 111.675C84.4042 111.589 84.8104 111.605 85.2162 111.724C85.6254 111.843 85.9897 112.063 86.309 112.384C86.6275 112.702 86.8549 113.12 86.9912 113.639C87.1384 114.199 87.1305 114.735 86.9676 115.246C86.8072 115.753 86.4905 116.203 86.0175 116.596C85.5445 116.989 84.9126 117.288 84.1218 117.491L79.6092 118.651ZM81.3629 116.253L83.1834 115.785C83.8057 115.625 84.2284 115.389 84.4515 115.079C84.6737 114.765 84.7324 114.409 84.6277 114.01C84.5509 113.718 84.4127 113.479 84.2131 113.292C84.0134 113.105 83.7663 112.981 83.4715 112.921C83.1803 112.86 82.8559 112.876 82.4983 112.968L80.6262 113.449L81.3629 116.253ZM80.2294 111.939L81.8849 111.514C82.1909 111.435 82.4485 111.312 82.6577 111.144C82.8695 110.973 83.018 110.769 83.1032 110.535C83.1918 110.299 83.1995 110.042 83.1264 109.764C83.0262 109.383 82.8096 109.11 82.4765 108.946C82.147 108.782 81.7346 108.763 81.2395 108.89L79.5428 109.327L80.2294 111.939Z" fill="white"/>
<path d="M95.9153 112.98L93.7867 114.232L91.4034 102.968L93.9632 101.462L102.829 108.911L100.7 110.164L94.0058 104.331L93.9324 104.375L95.9153 112.98ZM93.5706 109.381L98.5984 106.422L99.527 107.966L94.4992 110.925L93.5706 109.381Z" fill="white"/>
<path d="M108.673 104.151L100.527 96.8799L102.08 95.1775L105.441 98.1777L108.594 94.7218L105.233 91.7217L106.782 90.0232L114.928 97.2946L113.379 98.993L110.014 95.9893L106.861 99.4452L110.226 102.449L108.673 104.151Z" fill="white"/>
<path d="M110.798 87.7795L109.301 86.6045L114.901 79.6213L116.398 80.7962L114.311 83.3994L121.404 88.9648L119.979 90.7418L112.886 85.1763L110.798 87.7795Z" fill="white"/>
</g>
<defs>
<filter id="filter0_d_4143_84" x="0" y="0" width="136" height="134.615" filterUnits="userSpaceOnUse" color-interpolation-filters="sRGB">
<feFlood flood-opacity="0" result="BackgroundImageFix"/>
<feColorMatrix in="SourceAlpha" type="matrix" values="0 0 0 0 0 0 0 0 0 0 0 0 0 0 0 0 0 0 127 0" result="hardAlpha"/>
<feOffset dy="4"/>
<feGaussianBlur stdDeviation="2"/>
<feComposite in2="hardAlpha" operator="out"/>
<feColorMatrix type="matrix" values="0 0 0 0 0 0 0 0 0 0 0 0 0 0 0 0 0 0 0.25 0"/>
<feBlend mode="normal" in2="BackgroundImageFix" result="effect1_dropShadow_4143_84"/>
<feBlend mode="normal" in="SourceGraphic" in2="effect1_dropShadow_4143_84" result="shape"/>
</filter>
</defs>
</svg>
