<svg width="136" height="132" viewBox="0 0 136 132" fill="none" xmlns="http://www.w3.org/2000/svg">
<g filter="url(#filter0_d_4235_269)">
<ellipse cx="68" cy="61.7821" rx="64" ry="61.7821" fill="#0F73A5"/>
<ellipse cx="68" cy="61.7821" rx="40" ry="38.6138" fill="#2FC1F4"/>
<path d="M36.2124 74V48.5455H53.0661V52.9826H41.5941V59.0479H51.9474V63.4851H41.5941V74H36.2124ZM56.686 74V48.5455H66.8778C68.7504 48.5455 70.3123 48.823 71.5635 49.3782C72.8147 49.9334 73.7551 50.704 74.3849 51.69C75.0146 52.6677 75.3295 53.7946 75.3295 55.0707C75.3295 56.065 75.1306 56.9392 74.7329 57.6932C74.3351 58.4389 73.7883 59.0521 73.0922 59.5327C72.4045 60.005 71.6173 60.3406 70.7307 60.5394V60.788C71.7002 60.8294 72.6075 61.1029 73.4527 61.6083C74.3061 62.1138 74.998 62.8222 75.5283 63.7337C76.0586 64.6368 76.3238 65.714 76.3238 66.9652C76.3238 68.3158 75.9882 69.5214 75.317 70.582C74.6541 71.6344 73.6723 72.4671 72.3714 73.0803C71.0705 73.6934 69.4671 74 67.5613 74H56.686ZM62.0677 69.6001H66.4552C67.9549 69.6001 69.0487 69.3143 69.7364 68.7425C70.4242 68.1625 70.768 67.3919 70.768 66.4308C70.768 65.7264 70.5982 65.105 70.2584 64.5664C69.9187 64.0278 69.434 63.6052 68.8042 63.2987C68.1828 62.9921 67.4412 62.8388 66.5795 62.8388H62.0677V69.6001ZM62.0677 59.1971H66.0574C66.7949 59.1971 67.4495 59.0687 68.0212 58.8118C68.6012 58.5466 69.057 58.1738 69.3884 57.6932C69.7281 57.2126 69.898 56.6367 69.898 55.9656C69.898 55.0458 69.5707 54.3042 68.9161 53.7408C68.2698 53.1773 67.3501 52.8956 66.1569 52.8956H62.0677V59.1971ZM91.9688 65.8714V54.9091H97.2635V74H92.18V70.5323H91.9812C91.5503 71.6509 90.8336 72.55 89.831 73.2294C88.8366 73.9089 87.6228 74.2486 86.1893 74.2486C84.9132 74.2486 83.7905 73.9586 82.821 73.3786C81.8516 72.7985 81.0934 71.9741 80.5465 70.9052C80.0079 69.8363 79.7345 68.5561 79.7262 67.0646V54.9091H85.021V66.12C85.0292 67.2469 85.3317 68.1377 85.9283 68.7923C86.5249 69.4469 87.3245 69.7741 88.3271 69.7741C88.9651 69.7741 89.5617 69.6291 90.1168 69.3391C90.672 69.0408 91.1194 68.6017 91.4592 68.0217C91.8072 67.4416 91.977 66.7249 91.9688 65.8714Z" fill="#F7F6FB"/>
</g>
<path d="M20.5732 53.8898L10.2319 50.4162L11.6227 46.2756C11.8783 45.5149 12.2042 44.9182 12.6005 44.4856C12.9968 44.0531 13.4382 43.7762 13.9247 43.6549C14.4079 43.5325 14.9086 43.5583 15.4271 43.7325C15.831 43.8682 16.159 44.0682 16.4111 44.3327C16.6598 44.5961 16.8343 44.9019 16.9345 45.2503C17.0325 45.5941 17.0615 45.9597 17.0213 46.3471L17.1223 46.381C17.2714 45.9928 17.5063 45.6615 17.827 45.3871C18.1488 45.1093 18.531 44.9249 18.9737 44.8339C19.413 44.7417 19.8868 44.7809 20.3951 44.9517C20.9438 45.136 21.3878 45.4369 21.7271 45.8543C22.0641 46.2672 22.2685 46.7797 22.34 47.3919C22.4116 48.0041 22.3174 48.6973 22.0573 49.4715L20.5732 53.8898ZM19.5201 51.103L20.1189 49.3205C20.3235 48.7112 20.3566 48.2279 20.2182 47.8704C20.0764 47.5119 19.8103 47.267 19.4198 47.1359C19.1337 47.0397 18.858 47.0239 18.5928 47.0885C18.3277 47.153 18.0898 47.2923 17.8793 47.5063C17.67 47.7169 17.5065 47.9973 17.3889 48.3474L16.7732 50.1803L19.5201 51.103ZM15.2937 49.6833L15.8382 48.0625C15.9388 47.7629 15.976 47.4794 15.9496 47.2121C15.9211 46.9403 15.8318 46.7042 15.6818 46.504C15.5329 46.3004 15.3221 46.1528 15.0494 46.0612C14.6758 45.9357 14.3298 45.9675 14.0116 46.1565C13.6945 46.3422 13.4545 46.6774 13.2917 47.1621L12.7337 48.8234L15.2937 49.6833Z" fill="white"/>
<path d="M21.3103 28.504L22.6798 26.6481L28.3803 30.8547C29.0203 31.3271 29.4676 31.8932 29.722 32.5532C29.9785 33.2103 30.0397 33.9108 29.9055 34.6548C29.7685 35.3967 29.4322 36.1305 28.8967 36.8562C28.359 37.5849 27.7559 38.124 27.0874 38.4737C26.4161 38.8212 25.7287 38.9693 25.0251 38.9179C24.3216 38.8666 23.6498 38.6047 23.0097 38.1324L17.3093 33.9258L18.6788 32.07L24.2207 36.1595C24.555 36.4062 24.9059 36.5527 25.2735 36.5988C25.6431 36.6421 26.0014 36.5843 26.3482 36.4254C26.6949 36.2664 27.0001 36.0084 27.2637 35.6512C27.5294 35.2912 27.686 34.9235 27.7335 34.5481C27.7831 34.1698 27.7317 33.8119 27.5792 33.4743C27.4288 33.1338 27.1865 32.8403 26.8522 32.5936L21.3103 28.504Z" fill="white"/>
<path d="M36.1741 28.5635L29.8057 19.7062L33.3001 17.1937C33.969 16.7127 34.6259 16.4219 35.2709 16.3212C35.9166 16.2156 36.5199 16.2913 37.0809 16.5484C37.6427 16.8005 38.134 17.2192 38.5549 17.8045C38.9778 18.3927 39.2147 18.9899 39.2658 19.5962C39.3147 20.1996 39.1793 20.7868 38.8595 21.3579C38.5426 21.9269 38.0439 22.456 37.3634 22.9453L35.0237 24.6276L33.9416 23.1225L35.9786 21.6579C36.3361 21.4009 36.5978 21.1383 36.7637 20.8703C36.9297 20.6023 36.9998 20.3288 36.9742 20.0498C36.9514 19.7687 36.8354 19.4826 36.626 19.1914C36.4145 18.8973 36.1772 18.6919 35.9138 18.575C35.6534 18.4561 35.3662 18.4308 35.0523 18.4991C34.7391 18.5624 34.4024 18.7236 34.042 18.9827L32.7791 19.8907L38.0468 27.217L36.1741 28.5635ZM38.0592 21.0935L43.1587 23.5415L41.0914 25.0279L36.0395 22.5457L38.0592 21.0935Z" fill="white"/>
<path d="M51.5923 8.38269L53.7877 7.67539L55.9602 14.4186C56.2042 15.1757 56.2368 15.8964 56.0581 16.5808C55.8827 17.2641 55.5234 17.8686 54.9802 18.3943C54.4359 18.9167 53.7345 19.3161 52.876 19.5927C52.0141 19.8704 51.2097 19.9561 50.4628 19.8498C49.7149 19.74 49.0703 19.459 48.529 19.0066C47.9878 18.5541 47.5952 17.9494 47.3513 17.1922L45.1787 10.4491L47.374 9.74177L49.4862 16.2973C49.6136 16.6928 49.813 17.0166 50.0845 17.2686C50.3594 17.5196 50.684 17.6817 51.0583 17.7551C51.4327 17.8285 51.8311 17.7972 52.2536 17.661C52.6795 17.5238 53.0213 17.3167 53.279 17.0397C53.5401 16.7615 53.7073 16.4409 53.7806 16.0778C53.8572 15.7136 53.8319 15.3337 53.7044 14.9383L51.5923 8.38269Z" fill="white"/>
<path d="M72.9407 6.29282L72.7214 17.1997L70.7296 17.1596L66.1225 10.1995L66.0426 10.1979L65.9046 17.0626L63.5986 17.0162L63.8179 6.10935L65.8417 6.15005L70.4116 13.1041L70.5074 13.1061L70.6454 6.24666L72.9407 6.29282Z" fill="white"/>
<path d="M83.6935 19.8338L80.0633 18.5008L83.8234 8.26023L87.4836 9.6042C88.5137 9.98243 89.3251 10.513 89.918 11.196C90.512 11.8757 90.8689 12.6706 90.9886 13.5809C91.1117 14.4923 90.978 15.4798 90.5875 16.5432C90.1958 17.6099 89.6575 18.4526 88.9726 19.0712C88.2911 19.691 87.5 20.0682 86.5994 20.2028C85.7022 20.3387 84.7335 20.2157 83.6935 19.8338ZM82.9095 17.4407L84.2846 17.9456C84.9247 18.1806 85.5046 18.265 86.0246 18.1986C86.549 18.1302 87.0094 17.8963 87.4057 17.4971C87.8065 17.0957 88.1471 16.5134 88.4274 15.75C88.7052 14.9933 88.8206 14.3339 88.7735 13.7719C88.7298 13.2111 88.5312 12.7372 88.1777 12.3501C87.8243 11.9631 87.3275 11.6521 86.6875 11.4171L85.3074 10.9103L82.9095 17.4407Z" fill="white"/>
<path d="M102.392 17.4299L96.1125 26.3508L94.2264 25.0232L100.505 16.1024L102.392 17.4299Z" fill="white"/>
<path d="M103.065 32.3689L101.499 30.4564L112.326 26.46L114.209 28.7599L108.15 38.5803L106.584 36.6678L111.366 29.2221L111.312 29.1561L103.065 32.3689ZM106.285 29.5331L109.983 34.0505L108.59 35.1909L104.892 30.6736L106.285 29.5331Z" fill="white"/>
<path d="M124.817 49.2839L114.547 52.9647L113.875 51.0894L118.737 44.3049L118.71 44.2297L112.247 46.5464L111.469 44.3752L121.738 40.6943L122.421 42.5998L117.551 49.3473L117.584 49.4376L124.042 47.1227L124.817 49.2839Z" fill="white"/>
<path d="M34.0591 106.837L40.2069 97.8254L46.1737 101.896L45.1021 103.467L41.0406 100.696L39.5757 102.843L43.2411 105.344L42.1695 106.915L38.504 104.414L35.9645 108.137L34.0591 106.837Z" fill="white"/>
<path d="M46.4355 114.156L49.9198 103.819L53.9984 105.193C54.7791 105.457 55.3983 105.821 55.856 106.286C56.3183 106.749 56.6085 107.284 56.7266 107.889C56.8493 108.493 56.7954 109.136 56.5652 109.819C56.3338 110.506 55.9867 111.046 55.5238 111.441C55.0621 111.833 54.506 112.065 53.8556 112.138C53.2085 112.212 52.4879 112.115 51.6937 111.848L48.9629 110.927L49.555 109.171L51.9324 109.972C52.3497 110.113 52.7156 110.172 53.0301 110.151C53.3446 110.129 53.6077 110.027 53.8195 109.844C54.0345 109.661 54.1994 109.4 54.3139 109.06C54.4296 108.717 54.4582 108.404 54.3996 108.122C54.3444 107.841 54.1975 107.593 53.9591 107.378C53.7251 107.16 53.3978 106.981 52.9771 106.839L51.5032 106.342L48.6212 114.893L46.4355 114.156ZM53.6039 111.334L54.5876 116.904L52.1748 116.091L51.2466 110.539L53.6039 111.334Z" fill="white"/>
<path d="M63.2175 118.212L60.7466 118.154L64.7647 107.336L67.7362 107.404L71.2427 118.398L68.7718 118.341L66.2352 109.863L66.15 109.861L63.2175 118.212ZM63.1626 113.921L68.9991 114.057L68.9573 115.857L63.1208 115.721L63.1626 113.921Z" fill="white"/>
<path d="M84.2949 104.286L87.4933 114.715L85.5886 115.299L79.0381 110.126L78.9617 110.15L80.9747 116.714L78.7696 117.39L75.5712 106.961L77.5064 106.367L84.0198 111.546L84.1114 111.518L82.1 104.959L84.2949 104.286Z" fill="white"/>
<path d="M98.8007 99.8L96.8995 101.152C96.6898 100.931 96.4635 100.763 96.2206 100.648C95.9756 100.531 95.7208 100.463 95.4562 100.447C95.1917 100.43 94.9237 100.464 94.6523 100.548C94.3838 100.63 94.1222 100.762 93.8676 100.943C93.4075 101.27 93.088 101.669 92.9092 102.141C92.7283 102.61 92.6982 103.128 92.8189 103.696C92.9375 104.261 93.216 104.851 93.6545 105.468C94.1053 106.101 94.5781 106.567 95.0729 106.864C95.5706 107.16 96.0684 107.296 96.5662 107.273C97.0641 107.25 97.5374 107.079 97.9859 106.76C98.2376 106.581 98.4469 106.382 98.6137 106.163C98.7834 105.942 98.9068 105.708 98.9841 105.461C99.0593 105.212 99.086 104.955 99.0642 104.692C99.0453 104.426 98.9732 104.159 98.8478 103.891L100.755 102.548C100.996 102.991 101.153 103.472 101.226 103.991C101.3 104.505 101.278 105.028 101.16 105.561C101.043 106.089 100.819 106.601 100.488 107.098C100.158 107.59 99.7081 108.038 99.1381 108.444C98.3452 109.008 97.5086 109.333 96.6283 109.418C95.7509 109.502 94.8895 109.333 94.0441 108.91C93.2015 108.485 92.4365 107.79 91.749 106.823C91.0594 105.854 90.6551 104.899 90.5359 103.96C90.4168 103.021 90.5432 102.151 90.915 101.35C91.2848 100.547 91.8603 99.867 92.6416 99.3112C93.1567 98.9448 93.6856 98.6775 94.2284 98.5093C94.774 98.3391 95.3164 98.2714 95.8555 98.3063C96.3925 98.3383 96.9101 98.4778 97.4083 98.7248C97.9094 98.9698 98.3735 99.3281 98.8007 99.8Z" fill="white"/>
<defs>
<filter id="filter0_d_4235_269" x="0" y="0" width="136" height="131.564" filterUnits="userSpaceOnUse" color-interpolation-filters="sRGB">
<feFlood flood-opacity="0" result="BackgroundImageFix"/>
<feColorMatrix in="SourceAlpha" type="matrix" values="0 0 0 0 0 0 0 0 0 0 0 0 0 0 0 0 0 0 127 0" result="hardAlpha"/>
<feOffset dy="4"/>
<feGaussianBlur stdDeviation="2"/>
<feComposite in2="hardAlpha" operator="out"/>
<feColorMatrix type="matrix" values="0 0 0 0 0 0 0 0 0 0 0 0 0 0 0 0 0 0 0.25 0"/>
<feBlend mode="normal" in2="BackgroundImageFix" result="effect1_dropShadow_4235_269"/>
<feBlend mode="normal" in="SourceGraphic" in2="effect1_dropShadow_4235_269" result="shape"/>
</filter>
</defs>
</svg>
