<svg width="136" height="134" viewBox="0 0 136 134" fill="none" xmlns="http://www.w3.org/2000/svg">
<g filter="url(#filter0_d_4144_548)">
<ellipse cx="68" cy="62.765" rx="64" ry="62.765" fill="#0F73A5"/>
<ellipse cx="68" cy="62.765" rx="40" ry="39.2281" fill="#2FC1F4"/>
<path d="M41.1605 80.3826V44.0189H55.5071C58.2533 44.0189 60.5971 44.5102 62.5384 45.4927C64.4915 46.4633 65.977 47.8423 66.995 49.6297C68.0249 51.4053 68.5398 53.4945 68.5398 55.8975C68.5398 58.3123 68.0189 60.3897 66.9773 62.1297C65.9356 63.8579 64.4264 65.1837 62.4496 66.107C60.4846 67.0303 58.1054 67.4919 55.3118 67.4919H45.706V61.313H54.0689C55.5367 61.313 56.7559 61.1117 57.7266 60.7093C58.6972 60.3068 59.4193 59.7031 59.8928 58.8982C60.3781 58.0933 60.6207 57.093 60.6207 55.8975C60.6207 54.6901 60.3781 53.6721 59.8928 52.8435C59.4193 52.0149 58.6913 51.3875 57.7088 50.9614C56.7382 50.5234 55.513 50.3044 54.0334 50.3044H48.8487V80.3826H41.1605ZM60.7983 63.8343L69.8359 80.3826H61.3487L52.5064 63.8343H60.7983ZM85.9759 84.928V39.4735H88.8878V84.928H85.9759ZM93.6996 54.477C93.5575 53.0447 92.9479 51.932 91.8707 51.139C90.7936 50.3459 89.3317 49.9493 87.4851 49.9493C86.2304 49.9493 85.1709 50.1269 84.3068 50.482C83.4427 50.8253 82.7798 51.3047 82.3182 51.9202C81.8684 52.5357 81.6435 53.2341 81.6435 54.0154C81.6198 54.6664 81.7559 55.2346 82.0518 55.7199C82.3596 56.2052 82.7798 56.6255 83.3125 56.9806C83.8452 57.3239 84.4607 57.6257 85.1591 57.8861C85.8575 58.1347 86.6032 58.3478 87.3963 58.5253L90.6634 59.3066C92.2495 59.6617 93.7055 60.1352 95.0312 60.727C96.357 61.3189 97.5052 62.0469 98.4759 62.911C99.4465 63.7751 100.198 64.7931 100.731 65.965C101.275 67.1368 101.554 68.4803 101.565 69.9955C101.554 72.2209 100.985 74.1503 99.8608 75.7838C98.7481 77.4055 97.1383 78.6662 95.0312 79.5658C92.9361 80.4536 90.4089 80.8975 87.4496 80.8975C84.514 80.8975 81.9571 80.4477 79.7791 79.5481C77.6129 78.6484 75.9202 77.3168 74.701 75.553C73.4936 73.7775 72.8603 71.5817 72.8011 68.9657H80.2408C80.3236 70.1849 80.6728 71.2029 81.2884 72.0196C81.9157 72.8246 82.7502 73.4342 83.7919 73.8485C84.8454 74.2509 86.035 74.4522 87.3608 74.4522C88.6629 74.4522 89.7933 74.2628 90.7521 73.884C91.7228 73.5052 92.4744 72.9784 93.0071 72.3037C93.5398 71.629 93.8061 70.8537 93.8061 69.9777C93.8061 69.161 93.5634 68.4744 93.0781 67.9181C92.6046 67.3617 91.9063 66.8882 90.983 66.4976C90.0715 66.107 88.9529 65.7519 87.6271 65.4323L83.6676 64.438C80.6018 63.6922 78.1811 62.5263 76.4055 60.9401C74.63 59.3539 73.7481 57.2173 73.7599 54.5303C73.7481 52.3286 74.334 50.4051 75.5178 48.7597C76.7133 47.1143 78.3527 45.83 80.4361 44.9067C82.5194 43.9834 84.8868 43.5218 87.5384 43.5218C90.2372 43.5218 92.5928 43.9834 94.6051 44.9067C96.6293 45.83 98.2036 47.1143 99.3281 48.7597C100.453 50.4051 101.033 52.3108 101.068 54.477H93.6996Z" fill="white"/>
<path d="M23.6257 51.7363L13.2431 48.3879L14.6318 44.2466C14.887 43.4857 15.213 42.8875 15.6099 42.4522C16.0068 42.0168 16.4493 41.736 16.9373 41.6099C17.4219 41.4826 17.9244 41.5029 18.4449 41.6707C18.8505 41.8015 19.1799 41.9973 19.4333 42.2581C19.6833 42.5178 19.8589 42.8207 19.9601 43.1667C20.059 43.5083 20.0886 43.8723 20.0489 44.2587L20.1503 44.2914C20.2993 43.903 20.5345 43.5703 20.8558 43.2933C21.1782 43.013 21.5615 42.8251 22.0055 42.7295C22.4461 42.6328 22.9216 42.6668 23.432 42.8314C23.9829 43.009 24.4289 43.304 24.77 43.7162C25.109 44.124 25.3148 44.6325 25.3877 45.2418C25.4605 45.851 25.3671 46.5429 25.1075 47.3172L23.6257 51.7363ZM22.5643 48.9707L23.1621 47.1879C23.3664 46.5785 23.3989 46.0965 23.2594 45.7418C23.1165 45.3861 22.849 45.145 22.457 45.0186C22.1697 44.9259 21.8931 44.9132 21.6271 44.9804C21.3612 45.0476 21.1227 45.189 20.9119 45.4045C20.7022 45.6167 20.5386 45.8979 20.4212 46.248L19.8064 48.0813L22.5643 48.9707ZM18.3211 47.6023L18.8647 45.9811C18.9651 45.6814 19.002 45.3986 18.9751 45.1325C18.946 44.8619 18.856 44.6277 18.7051 44.4298C18.5554 44.2285 18.3436 44.0837 18.0699 43.9955C17.6947 43.8745 17.3476 43.9099 17.0286 44.1018C16.7107 44.2903 16.4705 44.6269 16.3079 45.1118L15.7508 46.7733L18.3211 47.6023Z" fill="white"/>
<path d="M29.2051 38.5998L20.4061 32.151L23.0148 28.7277C23.5141 28.0724 24.0591 27.6003 24.6499 27.3113C25.2399 27.0174 25.8437 26.9074 26.4613 26.9815C27.0782 27.0507 27.6773 27.2983 28.2588 27.7244C28.8431 28.1527 29.251 28.6454 29.4827 29.2025C29.7115 29.7575 29.7578 30.3528 29.6218 30.9882C29.4879 31.6208 29.167 32.2704 28.659 32.937L26.9124 35.2291L25.4173 34.1333L26.9379 32.1378C27.2048 31.7876 27.3778 31.4609 27.4569 31.158C27.536 30.855 27.5212 30.5756 27.4126 30.3199C27.306 30.0613 27.1081 29.8261 26.8188 29.614C26.5267 29.3999 26.2362 29.2773 25.9475 29.2462C25.6609 29.2122 25.3767 29.2746 25.095 29.4335C24.8125 29.5874 24.5367 29.8409 24.2677 30.194L23.325 31.4312L30.603 36.7652L29.2051 38.5998ZM28.7716 30.9792L34.4191 31.7574L32.8759 33.7825L27.2639 32.9578L28.7716 30.9792Z" fill="white"/>
<path d="M40.2487 26.8402L38.1738 28.1831L35.2449 17.0862L37.7402 15.4712L46.9878 22.4786L44.9129 23.8215L37.9201 18.3238L37.8486 18.3701L40.2487 26.8402ZM37.7251 23.3666L42.6262 20.1945L43.6314 21.6882L38.7303 24.8603L37.7251 23.3666Z" fill="white"/>
<path d="M52.9157 20.1079L52.602 18.7753L56.1615 10.1381L50.8416 11.3423L50.4059 9.49128L58.5521 7.64722L58.8657 8.97978L55.301 17.6182L60.6261 16.4127L61.0618 18.2638L52.9157 20.1079Z" fill="white"/>
<path d="M71.2633 7.1814L70.6628 18.0739L68.3595 17.9518L68.96 7.05928L71.2633 7.1814Z" fill="white"/>
<path d="M77.8793 19.0023L81.3009 8.64365L83.4991 9.34199L80.674 17.8949L85.1313 19.311L84.5348 21.1167L77.8793 19.0023Z" fill="white"/>
<path d="M98.3547 16.1739L92.3632 25.2903L90.4136 24.058L96.4051 14.9415L98.3547 16.1739Z" fill="white"/>
<path d="M99.5143 30.8714L97.8915 29.0071L108.729 24.845L110.68 27.087L104.785 36.9263L103.162 35.062L107.821 27.5984L107.765 27.5341L99.5143 30.8714ZM102.701 28.0023L106.534 32.4059L105.153 33.5616L101.32 29.158L102.701 28.0023Z" fill="white"/>
<path d="M121.522 47.439L111.213 51.0075L110.539 49.133L115.42 42.4214L115.393 42.3462L108.904 44.5922L108.123 42.422L118.432 38.8535L119.118 40.7581L114.229 47.4329L114.261 47.5231L120.745 45.2789L121.522 47.439Z" fill="white"/>
<path d="M47.0944 114.793L52.081 105.118L55.9456 107.033C56.6853 107.4 57.2493 107.843 57.6375 108.364C58.0305 108.883 58.2416 109.448 58.2707 110.06C58.3046 110.67 58.1568 111.295 57.8273 111.934C57.4961 112.576 57.071 113.06 56.5518 113.384C56.0342 113.704 55.4458 113.856 54.7867 113.837C54.1308 113.821 53.4266 113.626 52.6741 113.253L50.0866 111.97L50.9339 110.326L53.1866 111.443C53.582 111.639 53.938 111.748 54.2547 111.771C54.5713 111.793 54.8486 111.729 55.0865 111.578C55.3277 111.428 55.5302 111.195 55.6941 110.877C55.8597 110.555 55.9339 110.252 55.9168 109.967C55.9029 109.683 55.7929 109.419 55.5866 109.174C55.3852 108.928 55.0852 108.706 54.6867 108.509L53.2901 107.817L49.1654 115.82L47.0944 114.793ZM54.6536 113.012L54.8187 118.622L52.5325 117.489L52.42 111.905L54.6536 113.012Z" fill="white"/>
<path d="M61.591 120.465L62.5162 109.606L69.8493 110.207L69.688 112.1L64.6558 111.687L64.4354 114.275L69.0902 114.656L68.929 116.549L64.2741 116.168L64.0532 118.761L69.1066 119.175L68.9453 121.068L61.591 120.465Z" fill="white"/>
<path d="M79.0687 119.821L76.7256 120.6L76.7279 109.092L79.5458 108.156L86.679 117.29L84.3358 118.069L78.9926 110.969L78.9118 110.996L79.0687 119.821ZM77.5199 115.813L83.0546 113.972L83.6434 115.676L78.1087 117.516L77.5199 115.813Z" fill="white"/>
<path d="M93.2499 113.172L85.9263 105.054L87.6646 103.546L93.7116 110.248L97.2364 107.19L98.513 108.605L93.2499 113.172Z" fill="white"/>
</g>
<defs>
<filter id="filter0_d_4144_548" x="0" y="0" width="136" height="133.53" filterUnits="userSpaceOnUse" color-interpolation-filters="sRGB">
<feFlood flood-opacity="0" result="BackgroundImageFix"/>
<feColorMatrix in="SourceAlpha" type="matrix" values="0 0 0 0 0 0 0 0 0 0 0 0 0 0 0 0 0 0 127 0" result="hardAlpha"/>
<feOffset dy="4"/>
<feGaussianBlur stdDeviation="2"/>
<feComposite in2="hardAlpha" operator="out"/>
<feColorMatrix type="matrix" values="0 0 0 0 0 0 0 0 0 0 0 0 0 0 0 0 0 0 0.25 0"/>
<feBlend mode="normal" in2="BackgroundImageFix" result="effect1_dropShadow_4144_548"/>
<feBlend mode="normal" in="SourceGraphic" in2="effect1_dropShadow_4144_548" result="shape"/>
</filter>
</defs>
</svg>
