<svg width="136" height="133" viewBox="0 0 136 133" fill="none" xmlns="http://www.w3.org/2000/svg">
<g filter="url(#filter0_d_4145_619)">
<ellipse cx="68" cy="62.3611" rx="64" ry="62.3611" fill="#0F73A5"/>
<ellipse cx="68" cy="62.361" rx="40" ry="38.9757" fill="#2FC1F4"/>
<path d="M57.6715 60.1611H52.2276C52.1282 59.4568 51.9252 58.8312 51.6186 58.2844C51.312 57.7292 50.9184 57.2569 50.4379 56.8675C49.9573 56.478 49.4021 56.1797 48.7724 55.9726C48.1509 55.7654 47.4756 55.6618 46.7464 55.6618C45.429 55.6618 44.2814 55.9891 43.3036 56.6437C42.3259 57.29 41.5677 58.2346 41.0291 59.4775C40.4905 60.7122 40.2212 62.2119 40.2212 63.9768C40.2212 65.7915 40.4905 67.3161 41.0291 68.5507C41.576 69.7853 42.3383 70.7175 43.3161 71.3472C44.2938 71.9769 45.4248 72.2918 46.7092 72.2918C47.43 72.2918 48.0971 72.1965 48.7102 72.0059C49.3317 71.8154 49.8827 71.5378 50.3633 71.1732C50.8439 70.8003 51.2416 70.3488 51.5565 69.8184C51.8796 69.2881 52.1033 68.6833 52.2276 68.0038L57.6715 68.0287C57.5307 69.197 57.1785 70.3239 56.6151 71.4094C56.0599 72.4865 55.31 73.4519 54.3654 74.3053C53.4291 75.1505 52.3105 75.8216 51.0096 76.3188C49.717 76.8077 48.2545 77.0521 46.6222 77.0521C44.3518 77.0521 42.3217 76.5384 40.532 75.5109C38.7505 74.4835 37.3419 72.9961 36.3061 71.0489C35.2786 69.1017 34.7649 66.7443 34.7649 63.9768C34.7649 61.201 35.2869 58.8395 36.331 56.8923C37.375 54.9451 38.7919 53.4619 40.5817 52.4427C42.3714 51.4153 44.3849 50.9015 46.6222 50.9015C48.0971 50.9015 49.4643 51.1087 50.7237 51.523C51.9915 51.9373 53.1142 52.5422 54.092 53.3376C55.0697 54.1248 55.8652 55.0901 56.4783 56.2336C57.0998 57.377 57.4975 58.6862 57.6715 60.1611ZM61.5307 76.7041V51.2496H66.9125V72.267H77.8251V76.7041H61.5307ZM81.3891 76.7041V51.2496H91.4317C93.3624 51.2496 95.0071 51.6183 96.366 52.3557C97.7249 53.0849 98.7607 54.0999 99.4733 55.4008C100.194 56.6934 100.555 58.1849 100.555 59.8753C100.555 61.5656 100.19 63.0571 99.4609 64.3497C98.7317 65.6423 97.6752 66.6491 96.2915 67.3699C94.916 68.0908 93.2505 68.4513 91.295 68.4513H84.8941V64.1384H90.425C91.4607 64.1384 92.3142 63.9603 92.9854 63.604C93.6648 63.2394 94.1702 62.7381 94.5017 62.1001C94.8414 61.4537 95.0113 60.7122 95.0113 59.8753C95.0113 59.0301 94.8414 58.2926 94.5017 57.6629C94.1702 57.0249 93.6648 56.5319 92.9854 56.1839C92.3059 55.8276 91.4442 55.6494 90.4001 55.6494H86.7709V76.7041H81.3891Z" fill="white"/>
<path d="M27.3645 27.5561L25.7842 29.2724C25.5281 29.1051 25.2673 28.9927 25.0018 28.9351C24.7337 28.8752 24.467 28.866 24.2019 28.9077C23.9367 28.9494 23.6793 29.0403 23.4296 29.1804C23.1824 29.3179 22.9529 29.5016 22.7413 29.7315C22.3588 30.1468 22.1313 30.601 22.0587 31.0939C21.9834 31.5845 22.0681 32.0899 22.3128 32.6103C22.5548 33.1284 22.9605 33.6363 23.53 34.1341C24.1155 34.646 24.6856 34.9911 25.2403 35.1696C25.7974 35.3454 26.3195 35.368 26.8065 35.2373C27.2936 35.1067 27.7235 34.8389 28.0963 34.434C28.3056 34.2067 28.4685 33.9695 28.585 33.7225C28.7039 33.4728 28.7743 33.2208 28.7962 32.9664C28.8154 32.7097 28.7851 32.4569 28.7054 32.2081C28.6281 31.9566 28.4979 31.7155 28.3147 31.4846L29.9031 29.7753C30.2391 30.1492 30.5005 30.5781 30.6872 31.0619C30.8736 31.5408 30.9674 32.0495 30.9686 32.5881C30.9695 33.1217 30.8613 33.6636 30.6441 34.214C30.4266 34.7595 30.0809 35.2895 29.607 35.8042C28.948 36.52 28.1929 37.0151 27.3418 37.2896C26.4931 37.5614 25.6043 37.586 24.6753 37.3633C23.7488 37.138 22.839 36.6351 21.946 35.8544C21.0504 35.0715 20.44 34.2408 20.1148 33.3624C19.7895 32.484 19.7223 31.6189 19.913 30.7671C20.101 29.913 20.5198 29.1333 21.1692 28.4279C21.5974 27.9629 22.0611 27.5903 22.5604 27.3101C23.0621 27.0272 23.5832 26.8439 24.1237 26.76C24.6615 26.6737 25.2039 26.6952 25.7508 26.8244C26.3002 26.951 26.8381 27.1949 27.3645 27.5561Z" fill="white"/>
<path d="M38.001 28.1157L32.4515 18.7236L34.4631 17.5951L36.7528 21.4703L40.8363 19.1794L38.5466 15.3043L40.5535 14.1784L46.103 23.5705L44.0961 24.6964L41.8036 20.8166L37.7201 23.1074L40.0126 26.9872L38.001 28.1157Z" fill="white"/>
<path d="M52.1704 10.1271L55.1566 20.6195L52.93 21.2212L49.9438 10.7288L52.1704 10.1271Z" fill="white"/>
<path d="M62.3177 19.2218L61.7958 8.32517L64.0998 8.22038L64.5308 17.2175L69.2028 17.005L69.2938 18.9045L62.3177 19.2218Z" fill="white"/>
<path d="M75.8447 19.3725L78.327 8.74962L85.5034 10.3418L85.0707 12.1936L80.146 11.1009L79.5545 13.6322L84.1099 14.6429L83.6772 16.4946L79.1218 15.4839L78.5291 18.0204L83.4745 19.1176L83.0418 20.9693L75.8447 19.3725Z" fill="white"/>
<path d="M91.4583 24.1293L89.3027 22.9201L98.1366 15.3705L100.729 16.8248L98.4592 28.0568L96.3036 26.8475L98.2018 18.2647L98.1274 18.223L91.4583 24.1293ZM93.5049 20.362L98.5964 23.2184L97.6806 24.7684L92.589 21.9121L93.5049 20.362Z" fill="white"/>
<path d="M118.047 31.5278L109.834 38.7077L108.484 37.2422L110.439 29.2317L110.385 29.1729L105.215 33.6919L103.653 31.9951L111.866 24.8152L113.237 26.3043L111.262 34.2838L111.327 34.3544L116.492 29.8389L118.047 31.5278Z" fill="white"/>
<path d="M48.2004 112.956L54.2813 103.944L57.9177 106.273C58.6168 106.721 59.1242 107.233 59.4401 107.81C59.758 108.383 59.8905 108.983 59.8378 109.609C59.79 110.233 59.5642 110.845 59.1604 111.443C58.7566 112.042 58.2683 112.485 57.6955 112.774C57.1227 113.062 56.4996 113.174 55.8263 113.108C55.1561 113.044 54.4669 112.785 53.7588 112.332L51.4411 110.847L52.4714 109.32L54.4741 110.603C54.8491 110.843 55.2007 110.978 55.5289 111.008C55.862 111.036 56.1648 110.976 56.4372 110.827C56.7146 110.677 56.9533 110.454 57.1532 110.158C57.3551 109.858 57.4698 109.558 57.4972 109.256C57.5296 108.953 57.4644 108.662 57.3015 108.381C57.1406 108.097 56.8711 107.834 56.4931 107.592L55.1789 106.75L50.1491 114.204L48.2004 112.956Z" fill="white"/>
<path d="M62.1777 120.011L63.5628 109.209L70.872 110.099L70.6305 111.982L65.6147 111.372L65.2847 113.945L69.9244 114.51L69.683 116.393L65.0433 115.828L64.7125 118.407L69.7495 119.021L69.5081 120.903L62.1777 120.011Z" fill="white"/>
<path d="M80.9407 110.989C80.7564 110.597 80.4715 110.34 80.086 110.219C79.7004 110.097 79.2455 110.125 78.7212 110.302C78.365 110.422 78.0821 110.573 77.8724 110.757C77.6616 110.936 77.5215 111.136 77.4523 111.354C77.3865 111.571 77.3928 111.791 77.4713 112.012C77.53 112.198 77.6258 112.346 77.7586 112.455C77.8947 112.563 78.0563 112.642 78.2432 112.692C78.4289 112.738 78.634 112.764 78.8585 112.771C79.0817 112.775 79.3149 112.764 79.5579 112.738L80.564 112.647C81.05 112.595 81.511 112.59 81.9468 112.631C82.3827 112.671 82.7819 112.768 83.1443 112.919C83.5067 113.071 83.8224 113.287 84.0915 113.568C84.3638 113.848 84.5778 114.202 84.7334 114.629C84.9537 115.261 84.9863 115.861 84.8312 116.431C84.6783 116.997 84.3479 117.508 83.8401 117.964C83.3345 118.416 82.6616 118.783 81.8214 119.067C80.9879 119.347 80.2168 119.465 79.508 119.418C78.8026 119.371 78.1881 119.156 77.6647 118.773C77.1435 118.386 76.743 117.825 76.4633 117.09L78.5755 116.378C78.7216 116.716 78.9231 116.97 79.1799 117.143C79.4389 117.311 79.7371 117.403 80.0745 117.421C80.414 117.434 80.772 117.377 81.1484 117.25C81.5181 117.126 81.82 116.964 82.0542 116.765C82.2917 116.565 82.4522 116.344 82.5356 116.102C82.619 115.86 82.6167 115.615 82.5287 115.367C82.4466 115.136 82.3087 114.964 82.115 114.853C81.9247 114.741 81.6788 114.674 81.3774 114.652C81.0794 114.628 80.7261 114.635 80.3176 114.671L79.0935 114.769C78.1481 114.851 77.3436 114.753 76.6801 114.473C76.0166 114.194 75.5515 113.674 75.2848 112.912C75.0602 112.29 75.0332 111.689 75.204 111.11C75.378 110.53 75.7144 110.009 76.2131 109.549C76.7118 109.088 77.3376 108.731 78.0904 108.477C78.8567 108.219 79.5718 108.124 80.236 108.193C80.9034 108.26 81.4795 108.473 81.9641 108.832C82.4487 109.19 82.8049 109.674 83.0327 110.284L80.9407 110.989Z" fill="white"/>
<path d="M95.0751 102.66C95.959 103.462 96.5556 104.307 96.8651 105.195C97.1769 106.08 97.2299 106.95 97.0239 107.804C96.8177 108.654 96.3832 109.425 95.7204 110.119C95.0527 110.817 94.2899 111.295 93.4321 111.553C92.5742 111.812 91.6812 111.82 90.753 111.58C89.8248 111.34 88.9201 110.819 88.0389 110.019C87.155 109.217 86.5572 108.374 86.2453 107.488C85.9334 106.603 85.8806 105.736 86.0868 104.886C86.2904 104.034 86.726 103.259 87.3936 102.56C88.0564 101.867 88.8167 101.392 89.6746 101.133C90.5323 100.87 91.4252 100.859 92.3534 101.099C93.284 101.337 94.1913 101.857 95.0751 102.66ZM93.4647 104.344C92.8921 103.825 92.3298 103.469 91.7777 103.279C91.2281 103.086 90.7086 103.047 90.2193 103.162C89.73 103.276 89.2934 103.535 88.9094 103.936C88.5254 104.338 88.2919 104.781 88.2089 105.264C88.126 105.748 88.2015 106.251 88.4357 106.775C88.6723 107.295 89.0768 107.815 89.6494 108.335C90.2219 108.855 90.783 109.211 91.3326 109.404C91.8847 109.595 92.4054 109.633 92.8947 109.518C93.384 109.403 93.8207 109.144 94.2046 108.743C94.5886 108.341 94.8221 107.899 94.9051 107.415C94.9881 106.931 94.9113 106.429 94.6747 105.908C94.4405 105.385 94.0372 104.864 93.4647 104.344Z" fill="white"/>
</g>
<defs>
<filter id="filter0_d_4145_619" x="0" y="0" width="136" height="132.722" filterUnits="userSpaceOnUse" color-interpolation-filters="sRGB">
<feFlood flood-opacity="0" result="BackgroundImageFix"/>
<feColorMatrix in="SourceAlpha" type="matrix" values="0 0 0 0 0 0 0 0 0 0 0 0 0 0 0 0 0 0 127 0" result="hardAlpha"/>
<feOffset dy="4"/>
<feGaussianBlur stdDeviation="2"/>
<feComposite in2="hardAlpha" operator="out"/>
<feColorMatrix type="matrix" values="0 0 0 0 0 0 0 0 0 0 0 0 0 0 0 0 0 0 0.25 0"/>
<feBlend mode="normal" in2="BackgroundImageFix" result="effect1_dropShadow_4145_619"/>
<feBlend mode="normal" in="SourceGraphic" in2="effect1_dropShadow_4145_619" result="shape"/>
</filter>
</defs>
</svg>
