<svg width="136" height="136" viewBox="0 0 136 136" fill="none" xmlns="http://www.w3.org/2000/svg">
<g filter="url(#filter0_d_4143_110)">
<circle cx="68" cy="64" r="64" fill="#0F73A5"/>
<circle cx="68" cy="64" r="40" fill="#2FC1F4"/>
<path d="M71.6 58.2H79.04V78.96C79.04 81.3 79.4 81.6 81.32 81.6C82.16 81.6 85.7 81.6 86.78 81.6C88.82 81.6 89.18 80.1 89.42 71.4C90.98 72.66 94.16 73.92 96.08 74.4C95.36 85.26 93.56 88.38 87.44 88.38C86.06 88.38 81.5 88.38 80.18 88.38C73.34 88.38 71.6 86.04 71.6 79.02V58.2ZM41.12 53.58H94.94V60.6H41.12V53.58ZM46.58 37.26H89.42V44.22H46.58V37.26ZM54.86 59.1H62.6C61.64 72.3 59.36 83.16 44.24 89.22C43.46 87.42 41.42 84.78 39.8 83.4C53 78.48 54.14 69.66 54.86 59.1Z" fill="white"/>
<path d="M27.6206 28.841L26.3241 30.7808C26.0495 30.6485 25.7782 30.5718 25.5103 30.5508C25.2395 30.5278 24.9775 30.5556 24.7243 30.6341C24.4711 30.7126 24.2326 30.8394 24.0088 31.0144C23.787 31.1865 23.5893 31.4025 23.4156 31.6623C23.1019 32.1317 22.9452 32.6186 22.9456 33.1228C22.943 33.6251 23.099 34.1202 23.4136 34.6081C23.7253 35.0941 24.1955 35.5472 24.8244 35.9675C25.471 36.3996 26.0783 36.6668 26.6465 36.7689C27.2167 36.8681 27.7303 36.8184 28.1876 36.62C28.6448 36.4216 29.0264 36.0936 29.3322 35.636C29.5039 35.3791 29.6288 35.1187 29.7069 34.8549C29.787 34.5881 29.8193 34.3256 29.8039 34.0676C29.7855 33.8075 29.7193 33.5583 29.6053 33.3198C29.4933 33.0783 29.3311 32.8546 29.1186 32.6485L30.4239 30.7147C30.8066 31.0431 31.1243 31.4369 31.3769 31.8962C31.6285 32.3505 31.7938 32.8476 31.873 33.3874C31.9511 33.9223 31.9239 34.4808 31.7912 35.0627C31.6576 35.6397 31.3964 36.219 31.0077 36.8006C30.467 37.6096 29.8005 38.2106 29.0081 38.6036C28.2178 38.9937 27.3524 39.1414 26.4119 39.0467C25.4734 38.9491 24.5111 38.5707 23.525 37.9117C22.5359 37.2506 21.8188 36.5022 21.3736 35.6665C20.9284 34.8308 20.7374 33.9727 20.8005 33.0922C20.8606 32.2098 21.1571 31.3701 21.6899 30.5729C22.0411 30.0474 22.4405 29.6096 22.8881 29.2595C23.3376 28.9064 23.8205 28.6504 24.3368 28.4915C24.8501 28.3305 25.3835 28.277 25.937 28.3308C26.4924 28.3817 27.0536 28.5518 27.6206 28.841Z" fill="white"/>
<path d="M38.3032 27.7812L32.0841 18.8185L33.979 17.5036L36.545 21.2016L40.3918 18.5323L37.8258 14.8343L39.7164 13.5225L45.9355 22.4852L44.045 23.797L41.4759 20.0946L37.6291 22.7639L40.1982 26.4663L38.3032 27.7812Z" fill="white"/>
<path d="M51.5499 8.51847L54.8655 18.9115L52.6682 19.6125L49.3525 9.21949L51.5499 8.51847Z" fill="white"/>
<path d="M70.9674 6.11195L71.0877 17.0204L69.0956 17.0424L64.2741 10.229L64.1942 10.2299L64.2699 17.0956L61.9636 17.121L61.8433 6.21259L63.8673 6.19026L68.6515 12.9987L68.7474 12.9976L68.6717 6.13727L70.9674 6.11195Z" fill="white"/>
<path d="M78.4128 18.247L82.0705 7.9694L88.9959 10.4341L88.3583 12.2256L83.6059 10.5343L82.7343 12.9833L87.1304 14.5478L86.4928 16.3393L82.0967 14.7748L81.2234 17.2288L85.9959 18.9273L85.3583 20.7188L78.4128 18.247Z" fill="white"/>
<path d="M101.18 21.7212C101.415 21.3585 101.48 20.9835 101.375 20.5961C101.271 20.2086 101.002 19.8423 100.569 19.497C100.274 19.2625 99.9927 19.1061 99.7235 19.0278C99.4566 18.9468 99.2115 18.9354 98.9881 18.9935C98.7675 19.0538 98.5841 19.1756 98.4381 19.3589C98.3108 19.5073 98.2365 19.666 98.2152 19.8352C98.1967 20.0066 98.2167 20.1838 98.2753 20.3667C98.3361 20.5468 98.4241 20.7327 98.5393 20.9244C98.6567 21.1132 98.7918 21.3026 98.9447 21.4926L99.5652 22.2867C99.8709 22.6665 100.124 23.0498 100.324 23.4365C100.525 23.8232 100.658 24.2087 100.724 24.5929C100.791 24.9771 100.777 25.3565 100.682 25.731C100.591 26.1078 100.405 26.475 100.125 26.8327C99.7059 27.3526 99.2119 27.6991 98.6427 27.8721C98.0784 28.0446 97.465 28.0394 96.8025 27.8566C96.1449 27.6732 95.469 27.3048 94.7747 26.7516C94.0859 26.2028 93.5701 25.6192 93.2273 25.001C92.8872 24.3849 92.739 23.756 92.7827 23.1143C92.8314 22.472 93.0933 21.8384 93.5685 21.2135L95.314 22.6044C95.1055 22.906 94.9971 23.2101 94.9888 23.5168C94.9855 23.8229 95.0674 24.122 95.2343 24.4139C95.4063 24.7053 95.6478 24.9749 95.9588 25.2228C96.2643 25.4662 96.5649 25.6331 96.8607 25.7235C97.1593 25.8161 97.4341 25.833 97.6852 25.7743C97.9363 25.7156 98.1438 25.5834 98.3075 25.3779C98.4602 25.1863 98.5317 24.9798 98.5218 24.7586C98.5147 24.5395 98.4394 24.2979 98.2958 24.0336C98.155 23.7716 97.9589 23.4791 97.7076 23.1563L96.9645 22.1827C96.3846 21.4346 96.0346 20.7085 95.9145 20.0044C95.7945 19.3003 95.987 18.6341 96.4921 18.0059C96.901 17.4871 97.3981 17.1453 97.9834 16.9806C98.5715 16.8181 99.1963 16.8232 99.8577 16.9961C100.519 17.1689 101.161 17.5032 101.783 17.9989C102.416 18.5035 102.883 19.0522 103.182 19.645C103.484 20.2401 103.614 20.8357 103.57 21.432C103.526 22.0283 103.306 22.5839 102.909 23.0987L101.18 21.7212Z" fill="white"/>
<path d="M102.379 33.9771L111.58 28.1167L115.529 34.3168L113.925 35.3383L111.215 31.0836L109.023 32.4801L111.529 36.4158L109.925 37.4373L107.419 33.5016L105.222 34.9009L107.943 39.1736L106.339 40.1951L102.379 33.9771Z" fill="white"/>
<path d="M48.5043 102.518L50.3753 104.3L48.9373 109.418L49.0144 109.491L54.0556 107.804L55.9267 109.585L48.1818 111.949L45.5225 114.742L43.8637 113.163L46.5229 110.37L48.5043 102.518Z" fill="white"/>
<path d="M64.1529 112.258L66.3734 112.881L64.457 119.702C64.2418 120.468 63.8707 121.086 63.3435 121.558C62.8197 122.03 62.1862 122.336 61.4429 122.473C60.7006 122.608 59.8953 122.553 59.0269 122.309C58.1551 122.064 57.4374 121.691 56.8738 121.19C56.3111 120.685 55.9292 120.094 55.7282 119.418C55.5272 118.742 55.5343 118.021 55.7495 117.255L57.6658 110.435L59.8863 111.059L58.0232 117.689C57.9109 118.089 57.8981 118.469 57.9851 118.829C58.0754 119.191 58.2563 119.505 58.5277 119.773C58.7992 120.041 59.1485 120.235 59.5759 120.355C60.0066 120.476 60.406 120.493 60.7739 120.404C61.1452 120.317 61.4617 120.142 61.7235 119.88C61.9887 119.619 62.1775 119.288 62.2898 118.888L64.1529 112.258Z" fill="white"/>
<path d="M73.0261 123.275L70.6186 123.834L71.8184 112.356L74.7136 111.683L80.8452 121.458L78.4378 122.017L73.8716 114.438L73.7886 114.457L73.0261 123.275ZM71.9053 119.133L77.592 117.812L77.9994 119.565L72.3127 120.887L71.9053 119.133Z" fill="white"/>
<path d="M89.3762 104.507L95.3616 113.628L93.696 114.721L85.9609 111.585L85.8941 111.628L89.6612 117.369L87.7329 118.634L81.7476 109.514L83.4399 108.403L91.1409 111.556L91.221 111.503L87.4568 105.767L89.3762 104.507Z" fill="white"/>
</g>
<defs>
<filter id="filter0_d_4143_110" x="0" y="0" width="136" height="136" filterUnits="userSpaceOnUse" color-interpolation-filters="sRGB">
<feFlood flood-opacity="0" result="BackgroundImageFix"/>
<feColorMatrix in="SourceAlpha" type="matrix" values="0 0 0 0 0 0 0 0 0 0 0 0 0 0 0 0 0 0 127 0" result="hardAlpha"/>
<feOffset dy="4"/>
<feGaussianBlur stdDeviation="2"/>
<feComposite in2="hardAlpha" operator="out"/>
<feColorMatrix type="matrix" values="0 0 0 0 0 0 0 0 0 0 0 0 0 0 0 0 0 0 0.25 0"/>
<feBlend mode="normal" in2="BackgroundImageFix" result="effect1_dropShadow_4143_110"/>
<feBlend mode="normal" in="SourceGraphic" in2="effect1_dropShadow_4143_110" result="shape"/>
</filter>
</defs>
</svg>
