<svg width="136" height="132" viewBox="0 0 136 132" fill="none" xmlns="http://www.w3.org/2000/svg">
<g filter="url(#filter0_d_4302_4)">
<ellipse cx="68" cy="61.7821" rx="64" ry="61.7821" fill="#0F73A5"/>
<ellipse cx="68" cy="61.7821" rx="40" ry="38.6138" fill="#2FC1F4"/>
<path d="M48.3274 59.7109H44.2834C44.2095 59.1877 44.0587 58.723 43.831 58.3168C43.6032 57.9044 43.3108 57.5535 42.9538 57.2642C42.5968 56.9749 42.1844 56.7533 41.7166 56.5994C41.255 56.4455 40.7533 56.3686 40.2116 56.3686C39.233 56.3686 38.3804 56.6117 37.6541 57.098C36.9278 57.5781 36.3646 58.2798 35.9645 59.2031C35.5644 60.1203 35.3643 61.2344 35.3643 62.5455C35.3643 63.8935 35.5644 65.026 35.9645 65.9432C36.3707 66.8603 36.937 67.5528 37.6634 68.0206C38.3897 68.4884 39.2299 68.7223 40.1839 68.7223C40.7195 68.7223 41.215 68.6515 41.6705 68.5099C42.1321 68.3684 42.5414 68.1622 42.8984 67.8913C43.2554 67.6143 43.5509 67.2789 43.7848 66.8849C44.0249 66.491 44.1911 66.0417 44.2834 65.5369L48.3274 65.5554C48.2228 66.4233 47.9612 67.2604 47.5426 68.0668C47.1302 68.867 46.5732 69.584 45.8714 70.218C45.1759 70.8459 44.3449 71.3445 43.3786 71.7138C42.4183 72.0769 41.3319 72.2585 40.1193 72.2585C38.4328 72.2585 36.9247 71.8769 35.5952 71.1136C34.2718 70.3504 33.2254 69.2455 32.456 67.799C31.6927 66.3525 31.3111 64.6013 31.3111 62.5455C31.3111 60.4834 31.6989 58.7292 32.4744 57.2827C33.25 55.8362 34.3026 54.7344 35.6321 53.9773C36.9616 53.214 38.4574 52.8324 40.1193 52.8324C41.215 52.8324 42.2306 52.9863 43.1662 53.294C44.108 53.6018 44.942 54.0511 45.6683 54.642C46.3946 55.2268 46.9856 55.9439 47.4411 56.7933C47.9027 57.6428 48.1982 58.6153 48.3274 59.7109ZM68.5707 62.5455C68.5707 64.6075 68.1798 66.3617 67.3981 67.8082C66.6225 69.2547 65.5638 70.3596 64.2219 71.1229C62.8862 71.88 61.3844 72.2585 59.7163 72.2585C58.0359 72.2585 56.5278 71.8769 55.1921 71.1136C53.8564 70.3504 52.8008 69.2455 52.0252 67.799C51.2496 66.3525 50.8619 64.6013 50.8619 62.5455C50.8619 60.4834 51.2496 58.7292 52.0252 57.2827C52.8008 55.8362 53.8564 54.7344 55.1921 53.9773C56.5278 53.214 58.0359 52.8324 59.7163 52.8324C61.3844 52.8324 62.8862 53.214 64.2219 53.9773C65.5638 54.7344 66.6225 55.8362 67.3981 57.2827C68.1798 58.7292 68.5707 60.4834 68.5707 62.5455ZM64.5174 62.5455C64.5174 61.2098 64.3174 60.0833 63.9173 59.1662C63.5233 58.2491 62.9663 57.5535 62.2461 57.0795C61.5259 56.6056 60.6826 56.3686 59.7163 56.3686C58.7499 56.3686 57.9066 56.6056 57.1864 57.0795C56.4663 57.5535 55.9061 58.2491 55.506 59.1662C55.1121 60.0833 54.9151 61.2098 54.9151 62.5455C54.9151 63.8812 55.1121 65.0076 55.506 65.9247C55.9061 66.8419 56.4663 67.5374 57.1864 68.0114C57.9066 68.4853 58.7499 68.7223 59.7163 68.7223C60.6826 68.7223 61.5259 68.4853 62.2461 68.0114C62.9663 67.5374 63.5233 66.8419 63.9173 65.9247C64.3174 65.0076 64.5174 63.8812 64.5174 62.5455ZM71.5321 72V53.0909H78.9924C80.4266 53.0909 81.6484 53.3648 82.6578 53.9126C83.6673 54.4543 84.4367 55.2083 84.9661 56.1747C85.5016 57.1349 85.7694 58.2429 85.7694 59.4986C85.7694 60.7543 85.4985 61.8622 84.9569 62.8224C84.4152 63.7827 83.6304 64.5305 82.6025 65.0661C81.5807 65.6016 80.3435 65.8693 78.8908 65.8693H74.1358V62.6655H78.2445C79.0139 62.6655 79.6479 62.5331 80.1465 62.2685C80.6512 61.9976 81.0267 61.6252 81.2729 61.1513C81.5253 60.6712 81.6515 60.1203 81.6515 59.4986C81.6515 58.8707 81.5253 58.3229 81.2729 57.8551C81.0267 57.3812 80.6512 57.0149 80.1465 56.7564C79.6417 56.4917 79.0016 56.3594 78.226 56.3594H75.53V72H71.5321ZM94.6076 74.3636V50.7273H96.1218V74.3636H94.6076ZM98.6239 58.5291C98.5501 57.7843 98.2331 57.2057 97.6729 56.7933C97.1128 56.3809 96.3526 56.1747 95.3924 56.1747C94.7399 56.1747 94.189 56.267 93.7397 56.4517C93.2904 56.6302 92.9457 56.8795 92.7056 57.1996C92.4717 57.5196 92.3548 57.8828 92.3548 58.2891C92.3424 58.6276 92.4132 58.9231 92.5671 59.1754C92.7272 59.4278 92.9457 59.6463 93.2227 59.831C93.4996 60.0095 93.8197 60.1664 94.1829 60.3018C94.546 60.4311 94.9338 60.5419 95.3462 60.6342L97.0451 61.0405C97.8699 61.2251 98.627 61.4714 99.3164 61.7791C100.006 62.0869 100.603 62.4654 101.108 62.9148C101.612 63.3641 102.003 63.8935 102.28 64.5028C102.563 65.1122 102.708 65.8108 102.714 66.5987C102.708 67.7559 102.413 68.7592 101.828 69.6087C101.249 70.4519 100.412 71.1075 99.3164 71.5753C98.2269 72.0369 96.9128 72.2678 95.3739 72.2678C93.8474 72.2678 92.5179 72.0339 91.3853 71.5661C90.2589 71.0982 89.3787 70.4058 88.7447 69.4886C88.1168 68.5653 87.7875 67.4235 87.7567 66.0632H91.6254C91.6684 66.6972 91.85 67.2266 92.1701 67.6513C92.4963 68.0698 92.9303 68.3868 93.4719 68.6023C94.0198 68.8116 94.6384 68.9162 95.3278 68.9162C96.0049 68.9162 96.5927 68.8177 97.0913 68.6207C97.596 68.4238 97.9869 68.1499 98.2638 67.799C98.5408 67.4482 98.6793 67.045 98.6793 66.5895C98.6793 66.1648 98.5531 65.8078 98.3008 65.5185C98.0546 65.2292 97.6914 64.983 97.2113 64.7798C96.7373 64.5767 96.1557 64.392 95.4663 64.2259L93.4073 63.7088C91.8131 63.321 90.5543 62.7147 89.631 61.8899C88.7077 61.0651 88.2492 59.9541 88.2553 58.5568C88.2492 57.4119 88.5539 56.4117 89.1694 55.5561C89.7911 54.7005 90.6436 54.0327 91.7269 53.5526C92.8103 53.0724 94.0413 52.8324 95.4201 52.8324C96.8235 52.8324 98.0484 53.0724 99.0948 53.5526C100.147 54.0327 100.966 54.7005 101.551 55.5561C102.136 56.4117 102.437 57.4027 102.456 58.5291H98.6239Z" fill="#F7F6FB"/>
</g>
<path d="M18.11 46.2034L17.5856 48.4768C17.2819 48.4505 17.001 48.475 16.7431 48.5503C16.4818 48.6249 16.2466 48.7437 16.0377 48.9069C15.8288 49.0701 15.6507 49.2732 15.5035 49.5162C15.3572 49.7558 15.2489 50.0278 15.1786 50.3323C15.0517 50.8825 15.0778 51.3933 15.257 51.8647C15.4327 52.3352 15.7542 52.7428 16.2213 53.0875C16.685 53.4313 17.2854 53.6883 18.0224 53.8583C18.7802 54.0331 19.4428 54.0675 20.0103 53.9615C20.5786 53.8521 21.0413 53.6235 21.3985 53.2759C21.7556 52.9282 21.9961 52.4862 22.1198 51.9499C22.1892 51.6489 22.2137 51.3611 22.1932 51.0867C22.1735 50.8088 22.1106 50.552 22.0047 50.3162C21.8952 50.0795 21.745 49.87 21.5538 49.6874C21.3635 49.5013 21.1325 49.3496 20.8607 49.2323L21.3955 46.9613C21.8698 47.1327 22.3065 47.3883 22.7055 47.7281C23.1019 48.0637 23.4328 48.4699 23.6982 48.9466C23.9609 49.419 24.1334 49.9508 24.2157 50.5419C24.2954 51.1288 24.2566 51.7631 24.0993 52.4448C23.8806 53.3929 23.4705 54.1912 22.869 54.8396C22.2684 55.4846 21.5115 55.9296 20.5986 56.1745C19.6865 56.416 18.6525 56.4035 17.4968 56.1369C16.3376 55.8695 15.4017 55.424 14.6891 54.8004C13.9765 54.1769 13.4936 53.4423 13.2404 52.5967C12.9838 51.7503 12.9632 50.8599 13.1787 49.9257C13.3208 49.3097 13.539 48.7588 13.8334 48.2727C14.1285 47.7832 14.4892 47.3726 14.9156 47.0409C15.3385 46.7084 15.8183 46.4692 16.3549 46.3233C16.8922 46.174 17.4773 46.134 18.11 46.2034Z" fill="white"/>
<path d="M28.7694 30.0417C29.7564 30.7058 30.4702 31.4579 30.9108 32.298C31.3534 33.1351 31.5412 33.9977 31.4744 34.8858C31.4066 35.769 31.104 36.6098 30.5668 37.4082C30.0255 38.2125 29.3572 38.8114 28.5616 39.2049C27.7661 39.5984 26.8972 39.7478 25.9551 39.6532C25.0129 39.5585 24.0498 39.1801 23.0658 38.518C22.0788 37.8538 21.364 37.1032 20.9215 36.2661C20.4789 35.429 20.2915 34.5688 20.3593 33.6856C20.4242 32.8005 20.7272 31.9557 21.2685 31.1514C21.8057 30.353 22.4721 29.757 23.2677 29.3635C24.0622 28.9651 24.9306 28.8132 25.8728 28.9079C26.8169 28.9996 27.7825 29.3775 28.7694 30.0417ZM27.464 31.9818C26.8246 31.5515 26.221 31.2845 25.6532 31.1806C25.0873 31.0738 24.575 31.1164 24.1162 31.3084C23.6574 31.5005 23.2723 31.8278 22.9611 32.2904C22.6498 32.7529 22.4916 33.2329 22.4866 33.7302C22.4815 34.2276 22.634 34.7197 22.9441 35.2066C23.2562 35.6906 23.7319 36.1477 24.3713 36.5779C25.0106 37.0081 25.6132 37.2766 26.1791 37.3834C26.7469 37.4873 27.2602 37.4432 27.7191 37.2512C28.1779 37.0591 28.5629 36.7318 28.8742 36.2692C29.1854 35.8067 29.3436 35.3267 29.3487 34.8294C29.3538 34.332 29.2003 33.8414 28.8882 33.3574C28.578 32.8705 28.1033 32.412 27.464 31.9818Z" fill="white"/>
<path d="M37.9784 28.4916L31.4185 19.7752L33.2613 18.3882L38.6778 25.5852L42.4146 22.7729L43.5581 24.2923L37.9784 28.4916Z" fill="white"/>
<path d="M64.903 6.13739L67.7434 6.29025L70.3494 13.7706L70.4771 13.7775L73.8708 6.62L76.7112 6.77286L76.125 17.6662L73.891 17.546L74.2726 10.4557L74.1821 10.4509L70.9844 17.3362L69.4631 17.2543L67.0242 10.039L66.9338 10.0341L66.5508 17.1509L64.3168 17.0307L64.903 6.13739Z" fill="white"/>
<path d="M82.5989 19.5488L87.0408 9.58494L91.0302 11.3634C91.7633 11.6902 92.3262 12.0714 92.7191 12.5071C93.112 12.9427 93.3456 13.4085 93.4201 13.9043C93.496 14.3969 93.4226 14.893 93.1999 15.3925C93.0264 15.7817 92.796 16.0892 92.5087 16.3149C92.2229 16.5374 91.9018 16.682 91.5455 16.7487C91.1939 16.8135 90.8272 16.8075 90.4455 16.7307L90.4021 16.828C90.7743 17.0133 91.0818 17.2787 91.3244 17.624C91.5703 17.9708 91.7175 18.3689 91.766 18.8182C91.816 19.2643 91.7318 19.7322 91.5135 20.2219C91.2778 20.7506 90.9361 21.164 90.4883 21.462C90.0452 21.7583 89.5155 21.9129 88.8993 21.9259C88.2831 21.9389 87.602 21.7791 86.856 21.4466L82.5989 19.5488ZM85.4733 18.7656L87.1907 19.5313C87.7778 19.793 88.2558 19.8719 88.6248 19.7681C88.9952 19.6611 89.2643 19.4195 89.432 19.0432C89.5549 18.7676 89.5969 18.4947 89.5579 18.2245C89.5189 17.9544 89.4029 17.7044 89.2099 17.4745C89.0201 17.2461 88.7566 17.0567 88.4193 16.9063L86.6532 16.119L85.4733 18.7656ZM87.2887 14.6935L88.8504 15.3897C89.1391 15.5184 89.4177 15.5824 89.6863 15.5816C89.9597 15.579 90.2031 15.5126 90.4167 15.3823C90.6336 15.2535 90.8005 15.0577 90.9177 14.795C91.0782 14.4349 91.0794 14.0875 90.9215 13.7528C90.7669 13.4194 90.456 13.1486 89.989 12.9404L88.3883 12.2269L87.2887 14.6935Z" fill="white"/>
<path d="M104.092 19.6082L97.1634 28.0344L95.3819 26.5695L102.311 18.1433L104.092 19.6082Z" fill="white"/>
<path d="M103.583 34.5814L102.203 32.5309L113.357 29.5651L115.016 32.0311L108.065 41.2414L106.685 39.1908L112.142 32.2252L112.094 32.1544L103.583 34.5814ZM107.055 32.0594L110.314 36.903L108.82 37.9081L105.561 33.0645L107.055 32.0594Z" fill="white"/>
<path d="M123.428 53.77L112.798 56.2221L112.35 54.2809L117.973 48.1129L117.956 48.035L111.265 49.5784L110.747 47.3309L121.377 44.8788L121.832 46.8512L116.205 52.9816L116.226 53.0751L122.912 51.5329L123.428 53.77Z" fill="white"/>
<path d="M43.9771 111.636L49.4309 102.188L53.1584 104.34C53.875 104.754 54.4065 105.243 54.7529 105.808C55.101 106.369 55.268 106.968 55.2538 107.604C55.2444 108.238 55.0586 108.869 54.6964 109.496C54.3343 110.124 53.8794 110.599 53.3318 110.923C52.7842 111.246 52.1763 111.393 51.5083 111.365C50.8433 111.337 50.1479 111.114 49.4221 110.695L47.0462 109.324L47.9703 107.723L50.0232 108.908C50.4077 109.13 50.7626 109.247 51.0881 109.258C51.4184 109.269 51.7134 109.191 51.9731 109.025C52.2377 108.858 52.4596 108.619 52.6389 108.308C52.82 107.995 52.915 107.685 52.9238 107.378C52.9375 107.07 52.8555 106.779 52.6779 106.504C52.502 106.226 52.2203 105.976 51.8328 105.752L50.4858 104.974L45.9746 112.789L43.9771 111.636Z" fill="white"/>
<path d="M58.0245 118.179L59.7374 107.405L66.9971 108.559L66.6985 110.437L61.7167 109.645L61.3085 112.212L65.9168 112.945L65.6182 114.823L61.0099 114.09L60.6009 116.663L65.6038 117.458L65.3052 119.336L58.0245 118.179Z" fill="white"/>
<path d="M77.6665 110.436C77.536 110.024 77.2881 109.735 76.9227 109.569C76.5574 109.403 76.1037 109.378 75.5617 109.492C75.1934 109.57 74.8934 109.688 74.6618 109.845C74.4295 110 74.2646 110.182 74.1673 110.391C74.0734 110.599 74.0507 110.818 74.0992 111.048C74.1326 111.24 74.2078 111.399 74.3247 111.523C74.4451 111.646 74.5945 111.743 74.7729 111.815C74.9505 111.882 75.1499 111.933 75.3711 111.966C75.5915 111.996 75.8236 112.012 76.0674 112.015L77.0748 112.042C77.5624 112.047 78.0191 112.096 78.4449 112.188C78.8708 112.279 79.2529 112.422 79.5914 112.615C79.9299 112.809 80.2136 113.061 80.4427 113.372C80.6751 113.682 80.8401 114.059 80.9375 114.503C81.072 115.157 81.0249 115.759 80.7961 116.308C80.57 116.853 80.1757 117.323 79.613 117.717C79.0531 118.108 78.3388 118.395 77.4702 118.578C76.6085 118.76 75.8301 118.787 75.1351 118.658C74.4435 118.528 73.864 118.242 73.3968 117.8C72.9323 117.354 72.6103 116.748 72.4307 115.984L74.6144 115.523C74.7143 115.876 74.88 116.153 75.1113 116.354C75.3453 116.552 75.6281 116.679 75.9595 116.736C76.2937 116.789 76.6554 116.774 77.0445 116.692C77.4267 116.611 77.7467 116.485 78.0047 116.315C78.2661 116.143 78.4541 115.942 78.5686 115.711C78.6831 115.48 78.7132 115.236 78.6589 114.979C78.6083 114.739 78.4945 114.553 78.3175 114.419C78.144 114.286 77.9097 114.19 77.6145 114.132C77.3227 114.074 76.9724 114.039 76.5634 114.028L75.3395 113.981C74.3934 113.953 73.6106 113.761 72.9911 113.405C72.3716 113.05 71.9802 112.477 71.8171 111.688C71.6771 111.042 71.7298 110.441 71.9753 109.885C72.2242 109.328 72.6257 108.849 73.18 108.449C73.7342 108.049 74.4005 107.767 75.1788 107.602C75.971 107.435 76.691 107.424 77.3389 107.57C77.9903 107.716 78.532 107.995 78.9641 108.409C79.3962 108.822 79.6846 109.345 79.8294 109.979L77.6665 110.436Z" fill="white"/>
<path d="M93.6053 104.664C94.2754 105.647 94.6593 106.611 94.7568 107.554C94.8572 108.496 94.7116 109.366 94.3201 110.166C93.9295 110.961 93.3366 111.63 92.5415 112.172C91.7405 112.718 90.8976 113.026 90.0129 113.097C89.1281 113.167 88.2658 112.983 87.426 112.546C86.5862 112.109 85.8322 111.4 85.1641 110.42C84.4939 109.437 84.1086 108.475 84.0082 107.533C83.9077 106.592 84.0528 105.723 84.4435 104.928C84.8321 104.13 85.4269 103.458 86.2279 102.912C87.023 102.37 87.8629 102.064 88.7477 101.994C89.6334 101.918 90.4961 102.1 91.3359 102.537C92.1787 102.972 92.9351 103.682 93.6053 104.664ZM91.6732 105.982C91.2391 105.345 90.7777 104.873 90.2889 104.566C89.803 104.257 89.3114 104.106 88.8141 104.115C88.3168 104.123 87.8378 104.284 87.3772 104.598C86.9165 104.912 86.5916 105.299 86.4023 105.759C86.2131 106.219 86.1721 106.733 86.2795 107.3C86.3898 107.865 86.662 108.466 87.0961 109.103C87.5302 109.739 87.9902 110.212 88.4761 110.521C88.9648 110.828 89.4579 110.978 89.9552 110.97C90.4525 110.962 90.9315 110.801 91.3922 110.487C91.8528 110.172 92.1778 109.785 92.367 109.325C92.5562 108.865 92.5957 108.353 92.4854 107.788C92.3781 107.22 92.1073 106.619 91.6732 105.982Z" fill="white"/>
<path d="M56.1747 11.5643C56.6586 12.6511 56.8643 13.6673 56.7917 14.6132C56.7224 15.5575 56.4237 16.3883 55.8956 17.1054C55.3693 17.8179 54.6666 18.3699 53.7875 18.7613C52.9018 19.1556 52.0175 19.3084 51.1344 19.2196C50.2513 19.1308 49.4357 18.7962 48.6875 18.2158C47.9393 17.6355 47.3239 16.8035 46.8415 15.72C46.3576 14.6332 46.1503 13.6176 46.2196 12.6733C46.2889 11.7289 46.5867 10.9005 47.113 10.188C47.6379 9.47232 48.3431 8.9173 49.2288 8.52296C50.1079 8.13151 50.989 7.9802 51.8721 8.06902C52.757 8.15315 53.5735 8.4854 54.3217 9.06576C55.0732 9.64468 55.6908 10.4775 56.1747 11.5643ZM54.0385 12.5155C53.7251 11.8115 53.3553 11.2648 52.9292 10.8753C52.5064 10.4844 52.0495 10.2485 51.5588 10.1677C51.068 10.0869 50.5679 10.1599 50.0586 10.3867C49.5493 10.6135 49.1604 10.9363 48.8921 11.3551C48.6238 11.7738 48.4918 12.2719 48.4961 12.8491C48.5037 13.4249 48.6643 14.0648 48.9777 14.7688C49.2912 15.4728 49.6593 16.0202 50.0822 16.4111C50.5082 16.8006 50.9667 17.0358 51.4575 17.1166C51.9482 17.1974 52.4483 17.1244 52.9576 16.8976C53.4669 16.6708 53.8558 16.348 54.1241 15.9292C54.3924 15.5104 54.5228 15.0131 54.5152 14.4373C54.5108 13.86 54.3519 13.2194 54.0385 12.5155Z" fill="white"/>
<defs>
<filter id="filter0_d_4302_4" x="0" y="0" width="136" height="131.564" filterUnits="userSpaceOnUse" color-interpolation-filters="sRGB">
<feFlood flood-opacity="0" result="BackgroundImageFix"/>
<feColorMatrix in="SourceAlpha" type="matrix" values="0 0 0 0 0 0 0 0 0 0 0 0 0 0 0 0 0 0 127 0" result="hardAlpha"/>
<feOffset dy="4"/>
<feGaussianBlur stdDeviation="2"/>
<feComposite in2="hardAlpha" operator="out"/>
<feColorMatrix type="matrix" values="0 0 0 0 0 0 0 0 0 0 0 0 0 0 0 0 0 0 0.25 0"/>
<feBlend mode="normal" in2="BackgroundImageFix" result="effect1_dropShadow_4302_4"/>
<feBlend mode="normal" in="SourceGraphic" in2="effect1_dropShadow_4302_4" result="shape"/>
</filter>
</defs>
</svg>
