<svg width="136" height="132" viewBox="0 0 136 132" fill="none" xmlns="http://www.w3.org/2000/svg">
<g filter="url(#filter0_d_4509_209)">
<ellipse cx="68" cy="61.7821" rx="64" ry="61.7821" fill="#0F73A5"/>
<ellipse cx="68" cy="61.7821" rx="40" ry="38.6138" fill="#2FC1F4"/>
<path d="M80.9361 78H54.5156V71.6612H80.9361V78ZM73.9048 63.5291H54.4268V57.4744H73.9048V63.5291ZM65.7017 51.9169L66.2699 67.027C66.3291 68.6487 66.0036 70.004 65.2933 71.093C64.5949 72.1702 63.3875 73.0876 61.6712 73.8452L56.8416 71.6612C57.3625 71.5547 57.7531 71.2884 58.0135 70.8622C58.2857 70.4242 58.4633 69.9034 58.5462 69.2997C58.6409 68.696 58.6823 68.0805 58.6705 67.4531L58.1378 51.9169C58.0431 49.6087 58.487 47.6555 59.4695 46.0575C60.4638 44.4477 61.8369 43.2285 63.5888 42.3999C65.3407 41.5594 67.3175 41.1392 69.5192 41.1392C71.3776 41.1392 73.0289 41.3996 74.473 41.9205C75.9171 42.4294 77.1364 43.1574 78.1307 44.1044C79.1368 45.0395 79.8826 46.1463 80.3679 47.4247C80.8532 48.7031 81.0663 50.1058 81.0071 51.6328L73.8161 51.4375C73.8397 50.4313 73.6622 49.6264 73.2834 49.0227C72.9046 48.419 72.3956 47.9811 71.7564 47.7088C71.1172 47.4366 70.4129 47.3004 69.6435 47.3004C68.8977 47.3004 68.223 47.4721 67.6193 47.8153C67.0275 48.1468 66.554 48.6558 66.1989 49.3423C65.8556 50.017 65.6899 50.8752 65.7017 51.9169Z" fill="#F7F6FB"/>
</g>
<path d="M27.8673 40.4326L19.0556 34.0011L21.6307 30.473C22.1038 29.8248 22.5946 29.3542 23.1029 29.0614C23.6112 28.7685 24.1156 28.6377 24.616 28.6688C25.1136 28.6978 25.5832 28.8736 26.025 29.196C26.3692 29.4472 26.6215 29.7369 26.7821 30.0651C26.9397 30.3912 27.0138 30.7355 27.0043 31.0978C26.9941 31.4552 26.9113 31.8125 26.7562 32.1697L26.8422 32.2325C27.1015 31.9074 27.4254 31.6624 27.8139 31.4975C28.2045 31.3298 28.6246 31.2692 29.0741 31.316C29.5207 31.3606 29.9606 31.541 30.3938 31.8571C30.8613 32.1983 31.1939 32.6191 31.3914 33.1194C31.5882 33.6148 31.6284 34.1651 31.512 34.7703C31.3956 35.3756 31.0966 36.0081 30.6151 36.6678L27.8673 40.4326ZM27.7039 37.4579L28.8125 35.9391C29.1914 35.4199 29.3688 34.969 29.3446 34.5865C29.3176 34.2019 29.1377 33.8881 28.805 33.6453C28.5612 33.4673 28.3031 33.3691 28.0309 33.3506C27.7586 33.3322 27.4898 33.3932 27.2246 33.5337C26.9614 33.6714 26.721 33.8894 26.5033 34.1877L25.3633 35.7495L27.7039 37.4579ZM24.1027 34.8294L25.1107 33.4483C25.2971 33.193 25.418 32.9339 25.4735 32.6711C25.5283 32.4033 25.5144 32.1514 25.4317 31.9152C25.3512 31.6762 25.1948 31.4719 24.9624 31.3023C24.644 31.0699 24.3046 30.9958 23.9442 31.0801C23.5858 31.1615 23.2559 31.4087 22.9545 31.8217L21.9213 33.2373L24.1027 34.8294Z" fill="white"/>
<path d="M37.2093 29.273L30.9026 20.3717L34.4144 17.8835C35.0867 17.4072 35.7456 17.1209 36.3912 17.0247C37.0376 16.9236 37.6405 17.0035 38.1996 17.2645C38.7597 17.5205 39.2481 17.9426 39.6648 18.5309C40.0836 19.122 40.3164 19.7208 40.3632 20.3274C40.408 20.9311 40.2685 21.5174 39.9447 22.0863C39.6238 22.6531 39.1215 23.1787 38.4377 23.6632L36.0863 25.3292L35.0146 23.8167L37.0618 22.3662C37.4211 22.1117 37.6846 21.851 37.8524 21.5841C38.0202 21.3172 38.0923 21.0442 38.0686 20.7651C38.0478 20.4839 37.9337 20.1969 37.7263 19.9043C37.5169 19.6087 37.281 19.4016 37.0185 19.283C36.7589 19.1623 36.4719 19.135 36.1575 19.201C35.8439 19.2622 35.506 19.421 35.1438 19.6777L33.8747 20.5769L39.0913 27.9396L37.2093 29.273ZM39.1463 21.8163L44.2287 24.2997L42.1511 25.7716L37.1166 23.2544L39.1463 21.8163Z" fill="white"/>
<path d="M49.5663 10.1227L52.7123 20.5683L50.5038 21.2335L47.3578 10.7879L49.5663 10.1227Z" fill="white"/>
<path d="M62.4737 9.00258L62.5134 7.10136L71.4709 7.28856L71.4312 9.18978L68.0921 9.12L67.9039 18.1255L65.6246 18.0779L65.8128 9.07236L62.4737 9.00258Z" fill="white"/>
<path d="M84.4746 9.65959L81.4379 20.1375L79.2226 19.4955L82.2593 9.01756L84.4746 9.65959Z" fill="white"/>
<path d="M97.5102 19.1867C97.704 18.8008 97.7279 18.421 97.5821 18.0471C97.4362 17.6733 97.1292 17.3382 96.6611 17.042C96.343 16.8407 96.046 16.7158 95.7699 16.6672C95.4958 16.6156 95.2509 16.6308 95.0351 16.7128C94.8223 16.7967 94.6533 16.9376 94.5279 17.1357C94.4175 17.2969 94.3609 17.4628 94.358 17.6333C94.3582 17.8057 94.3973 17.9796 94.4754 18.1551C94.5554 18.3276 94.663 18.5029 94.7982 18.6809C94.9354 18.856 95.0903 19.0296 95.2629 19.2018L95.9658 19.924C96.3109 20.2685 96.604 20.622 96.8452 20.9848C97.0863 21.3475 97.2606 21.7162 97.3681 22.091C97.4755 22.4657 97.5028 22.8444 97.4498 23.2269C97.3999 23.6114 97.2549 23.9966 97.0148 24.3826C96.6548 24.9448 96.2013 25.3428 95.6542 25.5765C95.1119 25.8091 94.5016 25.8705 93.8231 25.7605C93.1496 25.6495 92.4377 25.3566 91.6875 24.8819C90.9433 24.411 90.3673 23.8868 89.9594 23.3093C89.5546 22.7338 89.3391 22.1247 89.313 21.482C89.2917 20.8382 89.4834 20.1799 89.8881 19.5072L91.7741 20.7007C91.5995 21.0231 91.5247 21.3371 91.5497 21.6429C91.5797 21.9476 91.6934 22.236 91.891 22.5082C92.0935 22.7792 92.3628 23.0211 92.6989 23.2337C93.029 23.4426 93.346 23.5759 93.6498 23.6337C93.9566 23.6934 94.2317 23.6804 94.475 23.5948C94.7182 23.5092 94.9101 23.3554 95.0506 23.1334C95.1817 22.9263 95.2303 22.7133 95.1965 22.4944C95.1657 22.2774 95.0646 22.0454 94.8932 21.7982C94.7248 21.553 94.4982 21.2835 94.2134 20.9898L93.3691 20.1026C92.7115 19.4217 92.2849 18.7378 92.0892 18.0509C91.8936 17.364 92.0128 16.6808 92.4468 16.0016C92.797 15.4415 93.2541 15.0479 93.8181 14.8207C94.3851 14.5953 95.0068 14.5327 95.683 14.6329C96.3593 14.733 97.0335 14.9957 97.7057 15.4211C98.3899 15.854 98.913 16.3489 99.275 16.9058C99.64 17.4646 99.8331 18.0427 99.8542 18.6402C99.8754 19.2377 99.7167 19.8139 99.3782 20.3688L97.5102 19.1867Z" fill="white"/>
<path d="M101.663 32.3643L110.338 25.7501L111.736 27.5843L108.157 30.3133L110.996 34.0367L114.575 31.3078L115.97 33.1377L107.295 39.7519L105.9 37.9219L109.484 35.1897L106.645 31.4662L103.061 34.1984L101.663 32.3643Z" fill="white"/>
<path d="M36.0558 106.015L42.0589 96.9059L45.6527 99.2743C46.3435 99.7296 46.8451 100.249 47.1575 100.834C47.4718 101.415 47.6031 102.023 47.5513 102.656C47.5044 103.289 47.2816 103.908 46.883 104.513C46.4843 105.117 46.0021 105.565 45.4364 105.856C44.8706 106.146 44.2551 106.257 43.5899 106.189C42.9277 106.123 42.2467 105.859 41.5469 105.398L39.2564 103.888L40.2735 102.345L42.2527 103.649C42.6234 103.893 42.9708 104.031 43.295 104.062C43.6241 104.091 43.9232 104.031 44.1923 103.881C44.4663 103.73 44.702 103.505 44.8993 103.205C45.0986 102.903 45.2118 102.599 45.2387 102.293C45.2706 101.987 45.206 101.691 45.0449 101.406C44.8858 101.119 44.6195 100.852 44.2458 100.605L42.9471 99.7496L37.9817 107.284L36.0558 106.015Z" fill="white"/>
<path d="M59.4723 110.634C59.1449 111.778 58.6496 112.689 57.9864 113.367C57.3265 114.046 56.5639 114.491 55.6985 114.701C54.8374 114.909 53.9443 114.88 53.0191 114.615C52.0871 114.349 51.3112 113.898 50.6916 113.262C50.0719 112.627 49.6618 111.846 49.4613 110.921C49.2608 109.996 49.3237 108.963 49.6501 107.822C49.9775 106.679 50.4711 105.767 51.1309 105.088C51.7907 104.409 52.5511 103.965 53.4122 103.758C54.2742 103.546 55.1712 103.574 56.1033 103.841C57.0285 104.106 57.8009 104.556 58.4206 105.191C59.0446 105.824 59.4569 106.603 59.6574 107.529C59.8614 108.455 59.7996 109.49 59.4723 110.634ZM57.2241 109.99C57.4362 109.25 57.5041 108.593 57.4278 108.021C57.3549 107.45 57.1563 106.975 56.8321 106.598C56.5079 106.221 56.0778 105.956 55.5418 105.802C55.0058 105.649 54.5005 105.646 54.0258 105.795C53.5511 105.943 53.13 106.24 52.7625 106.685C52.3984 107.132 52.1103 107.725 51.8982 108.466C51.6862 109.207 51.6166 109.863 51.6895 110.434C51.7658 111.006 51.966 111.481 52.2902 111.858C52.6144 112.235 53.0445 112.501 53.5805 112.654C54.1165 112.808 54.6219 112.81 55.0966 112.661C55.5713 112.513 55.9907 112.216 56.3548 111.769C56.7223 111.324 57.0121 110.731 57.2241 109.99Z" fill="white"/>
<path d="M71.8262 106.173L74.1313 106.093L74.3788 113.173C74.4065 113.968 74.241 114.67 73.8821 115.28C73.5267 115.889 73.016 116.373 72.3498 116.73C71.6835 117.084 70.8996 117.276 69.9981 117.308C69.0932 117.339 68.296 117.202 67.6066 116.896C66.9171 116.586 66.3738 116.139 65.9768 115.556C65.5797 114.973 65.3673 114.284 65.3395 113.489L65.092 106.409L67.3971 106.328L67.6377 113.212C67.6522 113.627 67.7556 113.993 67.9479 114.309C68.1437 114.626 68.4117 114.87 68.7517 115.043C69.0918 115.216 69.4836 115.295 69.9272 115.279C70.3744 115.264 70.7598 115.158 71.0834 114.962C71.4106 114.766 71.659 114.503 71.8287 114.174C72.002 113.844 72.0813 113.472 72.0668 113.057L71.8262 106.173Z" fill="white"/>
<path d="M87.4281 102.01L91.3555 112.187L89.4968 112.904L82.5971 108.207L82.5226 108.236L84.9944 114.642L82.8426 115.472L78.9153 105.294L80.8037 104.566L87.6667 109.271L87.7562 109.237L85.2863 102.836L87.4281 102.01Z" fill="white"/>
<path d="M101.578 105.562L98.5762 108L91.6997 99.5308L94.7266 97.073C95.5785 96.3814 96.4495 95.9555 97.3395 95.7954C98.2274 95.6325 99.093 95.7325 99.9365 96.0952C100.783 96.4556 101.563 97.0755 102.277 97.955C102.993 98.8371 103.442 99.7307 103.623 100.636C103.807 101.538 103.727 102.411 103.382 103.254C103.04 104.094 102.438 104.864 101.578 105.562ZM99.121 105.012L100.258 104.088C100.787 103.659 101.157 103.203 101.366 102.723C101.575 102.237 101.61 101.722 101.469 101.177C101.329 100.627 101.003 100.037 100.49 99.4055C99.9823 98.7797 99.4747 98.3433 98.9677 98.0963C98.4634 97.847 97.9546 97.7753 97.4412 97.8811C96.9279 97.9869 96.4065 98.2546 95.8772 98.6844L94.7359 99.6111L99.121 105.012Z" fill="white"/>
<defs>
<filter id="filter0_d_4509_209" x="0" y="0" width="136" height="131.564" filterUnits="userSpaceOnUse" color-interpolation-filters="sRGB">
<feFlood flood-opacity="0" result="BackgroundImageFix"/>
<feColorMatrix in="SourceAlpha" type="matrix" values="0 0 0 0 0 0 0 0 0 0 0 0 0 0 0 0 0 0 127 0" result="hardAlpha"/>
<feOffset dy="4"/>
<feGaussianBlur stdDeviation="2"/>
<feComposite in2="hardAlpha" operator="out"/>
<feColorMatrix type="matrix" values="0 0 0 0 0 0 0 0 0 0 0 0 0 0 0 0 0 0 0.25 0"/>
<feBlend mode="normal" in2="BackgroundImageFix" result="effect1_dropShadow_4509_209"/>
<feBlend mode="normal" in="SourceGraphic" in2="effect1_dropShadow_4509_209" result="shape"/>
</filter>
</defs>
</svg>
