<svg width="136" height="136" viewBox="0 0 136 136" fill="none" xmlns="http://www.w3.org/2000/svg">
<g filter="url(#filter0_d_4149_1037)">
<circle cx="68" cy="64" r="64" fill="#0F73A5"/>
<ellipse cx="68" cy="64" rx="40" ry="40" fill="#2FC1F4"/>
<path d="M91.2663 57.1303V61.0366H43.0774V57.1303H91.2663ZM91.2663 64.0373V67.9435H43.0774V64.0373H91.2663ZM49.9489 47.0274L56.5717 72.2937H56.8736L63.6918 47.0274H70.652L77.4702 72.347H77.772L84.3949 47.0274H91.4261L81.7848 83.391H73.9545L67.3317 59.6161H67.0476L60.3892 83.391H52.5589L42.9176 47.0274H49.9489Z" fill="#F7F6FB"/>
<path d="M54.4038 120.207L51.2823 109.298H53.8018L55.6076 116.878H55.6982L57.6903 109.298H59.8477L61.8345 116.894H61.9304L63.7362 109.298H66.2557L63.1342 120.207H60.8864L58.8089 113.075H58.7237L56.6516 120.207H54.4038ZM76.8998 114.753C76.8998 115.942 76.6743 116.955 76.2233 117.789C75.7758 118.624 75.165 119.261 74.3909 119.701C73.6203 120.138 72.7538 120.357 71.7915 120.357C70.822 120.357 69.952 120.136 69.1814 119.696C68.4108 119.256 67.8018 118.618 67.3543 117.784C66.9069 116.949 66.6831 115.939 66.6831 114.753C66.6831 113.563 66.9069 112.551 67.3543 111.717C67.8018 110.882 68.4108 110.246 69.1814 109.81C69.952 109.369 70.822 109.149 71.7915 109.149C72.7538 109.149 73.6203 109.369 74.3909 109.81C75.165 110.246 75.7758 110.882 76.2233 111.717C76.6743 112.551 76.8998 113.563 76.8998 114.753ZM74.5613 114.753C74.5613 113.982 74.4459 113.332 74.2151 112.803C73.9878 112.274 73.6665 111.873 73.251 111.599C72.8355 111.326 72.349 111.189 71.7915 111.189C71.2339 111.189 70.7474 111.326 70.3319 111.599C69.9165 111.873 69.5933 112.274 69.3625 112.803C69.1352 113.332 69.0216 113.982 69.0216 114.753C69.0216 115.523 69.1352 116.173 69.3625 116.702C69.5933 117.232 69.9165 117.633 70.3319 117.906C70.7474 118.18 71.2339 118.316 71.7915 118.316C72.349 118.316 72.8355 118.18 73.251 117.906C73.6665 117.633 73.9878 117.232 74.2151 116.702C74.4459 116.173 74.5613 115.523 74.5613 114.753ZM87.733 109.298V120.207H85.7408L80.9947 113.341H80.9148V120.207H78.6083V109.298H80.6325L85.3413 116.159H85.4371V109.298H87.733Z" fill="white"/>
<path d="M31.885 38.4221L23.0509 32.0216L24.3839 30.1393L28.279 32.9614L28.3621 32.844L26.7358 26.8181L28.3335 24.562L29.9494 30.7316L37.1953 30.9234L35.6007 33.1752L30.2417 32.9824L30.7075 34.7209L33.218 36.5398L31.885 38.4221Z" fill="white"/>
<path d="M47.355 16.3119C47.9843 17.3215 48.3295 18.3016 48.3906 19.2523C48.4548 20.2011 48.2769 21.0705 47.8571 21.8604C47.4384 22.6454 46.8234 23.2967 46.012 23.8141C45.1946 24.3353 44.3445 24.6163 43.4619 24.6569C42.5792 24.6975 41.7286 24.484 40.9099 24.0164C40.0912 23.5488 39.3682 22.8116 38.7408 21.8051C38.1116 20.7955 37.7649 19.8163 37.7007 18.8675C37.6366 17.9187 37.8139 17.0518 38.2326 16.2668C38.6494 15.4788 39.2665 14.8241 40.0839 14.3029C40.8953 13.7854 41.7423 13.5064 42.625 13.4658C43.5088 13.4202 44.36 13.6313 45.1786 14.0989C46.0003 14.5647 46.7258 15.3023 47.355 16.3119ZM45.3834 17.5692C44.9758 16.9152 44.5347 16.4258 44.0602 16.1008C43.5887 15.774 43.1055 15.6062 42.6106 15.5976C42.1156 15.5889 41.6331 15.7345 41.163 16.0342C40.6929 16.334 40.355 16.7116 40.1494 17.1671C39.9437 17.6225 39.8835 18.1368 39.9687 18.71C40.057 19.2812 40.3049 19.8938 40.7125 20.5478C41.1201 21.2017 41.5596 21.6921 42.0311 22.019C42.5056 22.3439 42.9903 22.5107 43.4853 22.5194C43.9802 22.528 44.4628 22.3825 44.9328 22.0827C45.4029 21.783 45.7408 21.4054 45.9465 20.9499C46.1522 20.4945 46.2109 19.9811 46.1227 19.4099C46.0374 18.8367 45.791 18.2232 45.3834 17.5692Z" fill="white"/>
<path d="M56.4301 18.6137L54.419 7.89158L58.6458 7.0804C59.4549 6.92513 60.1726 6.93746 60.7989 7.11739C61.428 7.29316 61.942 7.61578 62.3407 8.08525C62.7423 8.55056 63.0096 9.13748 63.1425 9.846C63.2761 10.558 63.2375 11.2 63.0268 11.772C62.8155 12.3405 62.4442 12.8167 61.9128 13.2007C61.385 13.584 60.7095 13.8547 59.8865 14.0126L57.0564 14.5558L56.7146 12.7339L59.1786 12.261C59.611 12.178 59.9591 12.0497 60.2228 11.8762C60.4865 11.7026 60.6659 11.4838 60.7608 11.2197C60.8593 10.9549 60.8755 10.6463 60.8094 10.2938C60.7426 9.93775 60.6148 9.65131 60.426 9.43443C60.2407 9.21688 59.9915 9.07306 59.6784 9.00296C59.3682 8.9287 58.9952 8.9334 58.5592 9.01706L57.0317 9.31021L58.6953 18.179L56.4301 18.6137ZM61.3006 12.6239L64.8786 16.9923L62.378 17.4722L58.8577 13.0928L61.3006 12.6239Z" fill="white"/>
<path d="M70.8999 17.0072L72.662 6.2414L79.9119 7.45543L79.6047 9.33209L74.6296 8.49899L74.2097 11.0643L78.8119 11.8349L78.5047 13.7116L73.9026 12.941L73.4819 15.5115L78.478 16.3481L78.1709 18.2248L70.8999 17.0072Z" fill="white"/>
<path d="M86.6471 21.4368L84.5324 20.1574L93.3074 12.7168L95.8505 14.2554L93.5152 25.5922L91.4005 24.3128L93.3465 15.6539L93.2736 15.6098L86.6471 21.4368ZM88.6976 17.6659L93.6925 20.688L92.7761 22.2378L87.7811 19.2156L88.6976 17.6659Z" fill="white"/>
<path d="M112.566 31.0314L103.808 37.5354L102.638 35.9231L105.362 27.9886L105.315 27.9239L99.8029 32.0175L98.4481 30.1509L107.206 23.6469L108.395 25.285L105.653 33.1862L105.71 33.2638L111.218 29.1734L112.566 31.0314Z" fill="white"/>
</g>
<defs>
<filter id="filter0_d_4149_1037" x="0" y="0" width="136" height="136" filterUnits="userSpaceOnUse" color-interpolation-filters="sRGB">
<feFlood flood-opacity="0" result="BackgroundImageFix"/>
<feColorMatrix in="SourceAlpha" type="matrix" values="0 0 0 0 0 0 0 0 0 0 0 0 0 0 0 0 0 0 127 0" result="hardAlpha"/>
<feOffset dy="4"/>
<feGaussianBlur stdDeviation="2"/>
<feComposite in2="hardAlpha" operator="out"/>
<feColorMatrix type="matrix" values="0 0 0 0 0 0 0 0 0 0 0 0 0 0 0 0 0 0 0.25 0"/>
<feBlend mode="normal" in2="BackgroundImageFix" result="effect1_dropShadow_4149_1037"/>
<feBlend mode="normal" in="SourceGraphic" in2="effect1_dropShadow_4149_1037" result="shape"/>
</filter>
</defs>
</svg>
