<svg width="136" height="136" viewBox="0 0 136 136" fill="none" xmlns="http://www.w3.org/2000/svg">
<g filter="url(#filter0_d_4143_63)">
<circle cx="68" cy="64" r="64" fill="#0F73A5"/>
<circle cx="68" cy="64" r="40" fill="#2FC1F4"/>
<path d="M90.0085 58.0078V66.9815H41.1378V58.0078H90.0085ZM59.2344 39.0909V90H48.5206V39.0909H59.2344ZM94.5575 39.0909L68.581 66.4844L66.3935 69.2436L58.0909 78.1179V61.0156H59.9304L80.4879 39.0909H94.5575ZM80.4879 90L63.2862 67.2301L70.8928 60.7173L93.3146 90H80.4879Z" fill="white"/>
<path d="M30.4744 37.7188L21.9984 30.851L23.4505 29.059L30.4489 34.7296L33.3932 31.0958L34.8707 32.293L30.4744 37.7188Z" fill="white"/>
<path d="M41.2266 26.7116L39.1345 28.0275L36.5142 16.7881L39.0303 15.2056L48.0217 22.4378L45.9295 23.7537L39.1356 18.0844L39.0634 18.1297L41.2266 26.7116ZM38.8129 23.1641L43.7548 20.0559L44.7133 21.58L39.7715 24.6882L38.8129 23.1641Z" fill="white"/>
<path d="M62.9215 12.5782C63.1594 13.7438 63.1407 14.7805 62.8657 15.6884C62.5941 16.5955 62.1231 17.3422 61.4526 17.9284C60.7849 18.5104 59.9795 18.8976 59.0366 19.09C58.0867 19.2838 57.1902 19.242 56.3472 18.9646C55.5041 18.6872 54.7799 18.1844 54.1747 17.4562C53.5695 16.728 53.1483 15.7828 52.9112 14.6207C52.6733 13.455 52.6902 12.4187 52.9618 11.5116C53.2334 10.6044 53.703 9.85986 54.3707 9.27783C55.0377 8.69233 55.8462 8.30267 56.7961 8.10886C57.739 7.91647 58.632 7.95897 59.4751 8.23637C60.3209 8.50958 61.0465 9.0103 61.6517 9.73852C62.2604 10.466 62.6837 11.4126 62.9215 12.5782ZM60.6303 13.0457C60.4763 12.2907 60.2333 11.677 59.9013 11.2047C59.5729 10.7317 59.1777 10.4028 58.716 10.2179C58.2542 10.033 57.7502 9.99635 57.2039 10.1078C56.6577 10.2193 56.2083 10.4505 55.8559 10.8015C55.5034 11.1524 55.267 11.6102 55.1467 12.1748C55.0297 12.7387 55.0483 13.3981 55.2024 14.1532C55.3564 14.9082 55.5977 15.5222 55.9262 15.9952C56.2581 16.4675 56.6549 16.7961 57.1167 16.981C57.5785 17.1658 58.0825 17.2025 58.6288 17.0911C59.175 16.9796 59.6244 16.7484 59.9768 16.3974C60.3292 16.0464 60.5639 15.589 60.6808 15.0251C60.8012 14.4605 60.7844 13.8007 60.6303 13.0457Z" fill="white"/>
<path d="M79.2325 19.085L82.86 8.79671L85.0352 9.56367L83.4358 14.1L83.5714 14.1478L88.8733 10.9169L91.4805 11.8362L86.0383 15.0967L87.8981 22.1405L85.2959 21.2229L83.9691 15.9994L82.4385 16.9282L81.4077 19.852L79.2325 19.085Z" fill="white"/>
<path d="M101.603 17.8894L95.3146 26.8034L93.4299 25.4738L99.7188 16.5598L101.603 17.8894Z" fill="white"/>
<path d="M100.989 31.4629L109.392 24.5057L112.136 27.8209C112.664 28.4582 112.992 29.1019 113.12 29.7521C113.251 30.3999 113.199 31.0193 112.964 31.6101C112.734 32.2013 112.34 32.7279 111.782 33.1899C111.224 33.6519 110.632 33.9392 110.006 34.0518C109.38 34.1644 108.759 34.0908 108.143 33.8311C107.529 33.574 106.955 33.1228 106.421 32.4772L104.671 30.3642L106.095 29.1855L107.607 31.0113C107.89 31.3532 108.182 31.5862 108.483 31.7104C108.789 31.835 109.092 31.8649 109.394 31.7999C109.7 31.7354 109.991 31.5888 110.267 31.36C110.546 31.129 110.743 30.8714 110.858 30.5872C110.978 30.3034 111.003 30.0018 110.932 29.6824C110.864 29.3607 110.687 29.0275 110.402 28.6829L109.41 27.4848L102.46 33.2394L100.989 31.4629Z" fill="white"/>
<path d="M29.4938 104.643L37.1895 96.9107L38.8243 98.5378L32.47 104.922L35.7848 108.221L34.4433 109.569L29.4938 104.643Z" fill="white"/>
<path d="M41.9453 114.091L39.7692 112.919L48.2581 105.101L50.8749 106.51L49.0126 117.898L46.8366 116.726L48.4219 108.02L48.3468 107.98L41.9453 114.091ZM43.8427 110.243L48.9826 113.011L48.1288 114.596L42.9889 111.828L43.8427 110.243Z" fill="white"/>
<path d="M66.9956 116.823C66.786 117.994 66.3857 118.95 65.7948 119.692C65.2073 120.435 64.4937 120.955 63.6541 121.252C62.8186 121.546 61.9272 121.608 60.9799 121.439C60.0256 121.268 59.208 120.898 58.527 120.329C57.8461 119.759 57.3589 119.025 57.0655 118.124C56.7721 117.224 56.7299 116.19 56.9389 115.023C57.1485 113.852 57.547 112.895 58.1345 112.152C58.722 111.41 59.4335 110.891 60.269 110.597C61.1051 110.299 62.0003 110.236 62.9546 110.407C63.9019 110.576 64.716 110.946 65.397 111.515C66.082 112.081 66.5713 112.815 66.8647 113.715C67.1616 114.616 67.2052 115.652 66.9956 116.823ZM64.6938 116.411C64.8296 115.652 64.8305 114.992 64.6965 114.431C64.566 113.87 64.3203 113.418 63.9595 113.076C63.5987 112.733 63.1439 112.513 62.5951 112.415C62.0463 112.317 61.5433 112.366 61.0862 112.562C60.629 112.757 60.2402 113.096 59.9198 113.576C59.6028 114.057 59.3765 114.676 59.2407 115.435C59.1049 116.193 59.1023 116.853 59.2328 117.414C59.3667 117.975 59.6141 118.427 59.9749 118.77C60.3358 119.112 60.7906 119.332 61.3394 119.431C61.8882 119.529 62.3912 119.48 62.8483 119.284C63.3055 119.088 63.6925 118.75 64.0095 118.269C64.3299 117.789 64.558 117.169 64.6938 116.411Z" fill="white"/>
<path d="M86.5308 120.423L81.9189 110.537L84.0091 109.561L86.0426 113.92L86.1729 113.86L87.6972 107.841L90.2025 106.672L88.5988 112.81L94.8579 116.538L92.3573 117.705L87.7531 114.903L87.3104 116.638L88.621 119.448L86.5308 120.423Z" fill="white"/>
<path d="M96.5558 102.914L103.259 111.521L101.439 112.938L94.7361 104.331L96.5558 102.914Z" fill="white"/>
<path d="M109.398 106.34L101.774 98.5364L104.853 95.5288C105.445 94.9506 106.06 94.571 106.697 94.3901C107.332 94.2067 107.954 94.2076 108.562 94.393C109.17 94.5734 109.727 94.9227 110.233 95.4409C110.739 95.9591 111.074 96.5255 111.238 97.1401C111.401 97.7548 111.379 98.3798 111.171 99.0152C110.965 99.6482 110.562 100.257 109.963 100.843L108.001 102.76L106.709 101.438L108.405 99.7815C108.722 99.4713 108.93 99.1611 109.029 98.8509C109.129 98.5356 109.133 98.2305 109.044 97.9357C108.954 97.6358 108.784 97.3576 108.534 97.101C108.281 96.8419 108.008 96.6667 107.715 96.5754C107.422 96.4791 107.12 96.4793 106.807 96.5761C106.492 96.6704 106.175 96.8739 105.855 97.1865L104.742 98.2735L111.048 104.728L109.398 106.34Z" fill="white"/>
</g>
<defs>
<filter id="filter0_d_4143_63" x="0" y="0" width="136" height="136" filterUnits="userSpaceOnUse" color-interpolation-filters="sRGB">
<feFlood flood-opacity="0" result="BackgroundImageFix"/>
<feColorMatrix in="SourceAlpha" type="matrix" values="0 0 0 0 0 0 0 0 0 0 0 0 0 0 0 0 0 0 127 0" result="hardAlpha"/>
<feOffset dy="4"/>
<feGaussianBlur stdDeviation="2"/>
<feComposite in2="hardAlpha" operator="out"/>
<feColorMatrix type="matrix" values="0 0 0 0 0 0 0 0 0 0 0 0 0 0 0 0 0 0 0.25 0"/>
<feBlend mode="normal" in2="BackgroundImageFix" result="effect1_dropShadow_4143_63"/>
<feBlend mode="normal" in="SourceGraphic" in2="effect1_dropShadow_4143_63" result="shape"/>
</filter>
</defs>
</svg>
