<svg width="136" height="132" viewBox="0 0 136 132" fill="none" xmlns="http://www.w3.org/2000/svg">
<g filter="url(#filter0_d_4241_604)">
<ellipse cx="68" cy="61.7821" rx="64" ry="61.7821" fill="#0F73A5"/>
<ellipse cx="68" cy="61.7821" rx="40" ry="38.6138" fill="#2FC1F4"/>
<path d="M56.7926 82V38.3636H66.0185V74.3935H84.7259V82H56.7926Z" fill="#F7F6FB"/>
<path d="M55.9482 117V106.091H58.2546V115.098H62.9315V117H55.9482ZM64.4589 117V106.091H71.8097V107.993H66.7654V110.592H71.4316V112.494H66.7654V115.098H71.8311V117H64.4589ZM80.3817 106.091H82.6882V113.175C82.6882 113.971 82.4982 114.667 82.1183 115.263C81.7418 115.86 81.2145 116.325 80.5362 116.659C79.858 116.989 79.0678 117.154 78.1658 117.154C77.2603 117.154 76.4684 116.989 75.7901 116.659C75.1119 116.325 74.5845 115.86 74.2081 115.263C73.8317 114.667 73.6435 113.971 73.6435 113.175V106.091H75.9499V112.978C75.9499 113.394 76.0405 113.763 76.2216 114.086C76.4063 114.409 76.6655 114.663 76.9993 114.848C77.3331 115.033 77.7219 115.125 78.1658 115.125C78.6133 115.125 79.0021 115.033 79.3324 114.848C79.6662 114.663 79.9237 114.409 80.1048 114.086C80.2894 113.763 80.3817 113.394 80.3817 112.978V106.091Z" fill="white"/>
</g>
<path d="M12.2134 47.4096L13.3417 44.7985L21.2617 44.948L21.3124 44.8306L15.7758 39.1655L16.9041 36.5544L26.9182 40.8816L26.0308 42.9353L19.5128 40.1188L19.4769 40.2019L24.8262 45.5888L24.2219 46.9873L16.6085 46.7729L16.5726 46.8561L23.115 49.6831L22.2276 51.7368L12.2134 47.4096Z" fill="white"/>
<path d="M33.8639 24.3589C34.7164 25.1887 35.2843 26.0563 35.5677 26.9615C35.8536 27.8642 35.8844 28.7465 35.6599 29.6084C35.4354 30.4652 34.9875 31.2385 34.3163 31.9281C33.6401 32.6228 32.8754 33.0926 32.0224 33.3377C31.1694 33.5827 30.2878 33.5745 29.3777 33.313C28.4676 33.0516 27.5876 32.5072 26.7377 31.6799C25.8852 30.8501 25.3161 29.9839 25.0302 29.0812C24.7443 28.1784 24.7136 27.2987 24.9381 26.4418C25.1601 25.5825 25.6091 24.8055 26.2854 24.1108C26.9566 23.4212 27.7188 22.9539 28.5718 22.7088C29.4248 22.4587 30.3063 22.4644 31.2164 22.7259C32.129 22.9848 33.0115 23.5292 33.8639 24.3589ZM32.2328 26.0346C31.6807 25.4971 31.1345 25.1265 30.5943 24.9229C30.0566 24.7166 29.5449 24.667 29.0592 24.774C28.5735 24.881 28.1361 25.1343 27.7473 25.5338C27.3584 25.9333 27.117 26.3773 27.0231 26.8657C26.9293 27.3542 26.9914 27.8656 27.2096 28.4001C27.4302 28.932 27.8166 29.4668 28.3688 30.0043C28.921 30.5418 29.4659 30.9136 30.0036 31.1198C30.5437 31.3235 31.0567 31.3718 31.5424 31.2648C32.0282 31.1578 32.4655 30.9046 32.8544 30.5051C33.2432 30.1055 33.4846 29.6616 33.5785 29.1731C33.6724 28.6847 33.609 28.1745 33.3883 27.6426C33.1702 27.1081 32.785 26.5721 32.2328 26.0346Z" fill="white"/>
<path d="M43.1741 24.4009L38.0844 14.7519L40.1245 13.6758L44.327 21.6428L48.4636 19.4608L49.3508 21.1428L43.1741 24.4009Z" fill="white"/>
<path d="M59.3609 18.1119L55.5576 18.8119L53.5828 8.08304L57.4176 7.37722C58.4967 7.17859 59.4653 7.22238 60.3231 7.50861C61.1804 7.79134 61.8922 8.29402 62.4585 9.01666C63.0283 9.73866 63.4157 10.6567 63.6208 11.7708C63.8265 12.8884 63.7919 13.8877 63.5172 14.7688C63.246 15.6492 62.757 16.3765 62.0502 16.9507C61.347 17.5243 60.4505 17.9113 59.3609 18.1119ZM57.4682 16.4508L58.9088 16.1857C59.5794 16.0622 60.1216 15.8397 60.5354 15.518C60.952 15.1922 61.2293 14.7566 61.3673 14.2112C61.5081 13.6618 61.5048 12.9871 61.3576 12.1873C61.2117 11.3946 60.9755 10.7682 60.6489 10.3084C60.3258 9.8479 59.9137 9.54102 59.4125 9.38774C58.9112 9.23446 58.3254 9.21954 57.6548 9.34296L56.2089 9.60909L57.4682 16.4508Z" fill="white"/>
<path d="M81.7311 13.1054C81.5513 14.2814 81.1755 15.2478 80.6035 16.0045C80.0351 16.7619 79.335 17.2997 78.5032 17.618C77.6755 17.9333 76.786 18.0183 75.8347 17.8729C74.8763 17.7264 74.0496 17.3773 73.3543 16.8255C72.6591 16.2738 72.1534 15.5517 71.8372 14.6591C71.521 13.7666 71.4525 12.7341 71.6317 11.5616C71.8115 10.3857 72.1856 9.41901 72.754 8.66169C73.3224 7.90436 74.0205 7.36803 74.8482 7.0527C75.6765 6.73385 76.5698 6.64768 77.5281 6.79417C78.4795 6.93958 79.3027 7.28815 79.9979 7.83988C80.6972 8.38863 81.2049 9.10928 81.5211 10.0018C81.8408 10.8949 81.9108 11.9294 81.7311 13.1054ZM79.4195 12.7521C79.5359 11.9903 79.52 11.3305 79.3718 10.7726C79.2271 10.2152 78.97 9.76993 78.6007 9.43685C78.2313 9.10378 77.771 8.89511 77.2199 8.81087C76.6687 8.72662 76.1672 8.78826 75.7151 8.99578C75.2631 9.20329 74.883 9.55113 74.5749 10.0393C74.2703 10.528 74.0598 11.1532 73.9433 11.915C73.8269 12.6767 73.841 13.3363 73.9857 13.8937C74.1339 14.4516 74.3928 14.8971 74.7621 15.2302C75.1315 15.5633 75.5918 15.7719 76.1429 15.8562C76.6941 15.9404 77.1956 15.8788 77.6477 15.6713C78.0997 15.4637 78.478 15.1156 78.7826 14.6269C79.0908 14.1388 79.303 13.5138 79.4195 12.7521Z" fill="white"/>
<path d="M94.0519 11.9107L92.4306 20.4558L92.5196 20.504L98.7848 14.4687L101.034 15.6844L92.5388 23.4933L89.9239 22.0801L91.7979 10.6924L94.0519 11.9107Z" fill="white"/>
<path d="M102.367 30.7865L100.716 28.9471L111.35 24.4628L113.336 26.6748L107.729 36.7604L106.078 34.921L110.516 27.2657L110.459 27.2023L102.367 30.7865ZM105.455 27.8073L109.355 32.1519L108.015 33.3545L104.115 29.0099L105.455 27.8073Z" fill="white"/>
<path d="M124.85 46.724L114.75 50.8478L113.997 49.0034L118.56 42.014L118.53 41.94L112.173 44.5355L111.301 42.4002L121.401 38.2764L122.166 40.1504L117.594 47.1033L117.63 47.192L123.982 44.5986L124.85 46.724Z" fill="white"/>
<defs>
<filter id="filter0_d_4241_604" x="0" y="0" width="136" height="131.564" filterUnits="userSpaceOnUse" color-interpolation-filters="sRGB">
<feFlood flood-opacity="0" result="BackgroundImageFix"/>
<feColorMatrix in="SourceAlpha" type="matrix" values="0 0 0 0 0 0 0 0 0 0 0 0 0 0 0 0 0 0 127 0" result="hardAlpha"/>
<feOffset dy="4"/>
<feGaussianBlur stdDeviation="2"/>
<feComposite in2="hardAlpha" operator="out"/>
<feColorMatrix type="matrix" values="0 0 0 0 0 0 0 0 0 0 0 0 0 0 0 0 0 0 0.25 0"/>
<feBlend mode="normal" in2="BackgroundImageFix" result="effect1_dropShadow_4241_604"/>
<feBlend mode="normal" in="SourceGraphic" in2="effect1_dropShadow_4241_604" result="shape"/>
</filter>
</defs>
</svg>
