<svg width="136" height="132" viewBox="0 0 136 132" fill="none" xmlns="http://www.w3.org/2000/svg">
<g filter="url(#filter0_d_4235_141)">
<ellipse cx="68" cy="61.7821" rx="64" ry="61.7821" fill="#0F73A5"/>
<ellipse cx="68" cy="61.7821" rx="40" ry="38.6138" fill="#2FC1F4"/>
<path d="M84.3185 58.2259V61.4219H51.7191V58.2259H84.3185ZM84.3185 65.1293V68.3253H51.7191V65.1293H84.3185ZM81.7138 46.2727V79H75.7372L61.5149 58.4016H61.2592V79H54.3558V46.2727H60.4123L74.5547 66.8551H74.8263V46.2727H81.7138Z" fill="#F7F6FB"/>
</g>
<path d="M20.9943 35.3647L30.6611 40.4205L29.7378 42.1858L21.454 43.2094L21.417 43.2802L27.5012 46.4623L26.4323 48.5061L16.7655 43.4503L17.7036 41.6566L25.9654 40.6637L26.0098 40.5787L19.9303 37.3991L20.9943 35.3647Z" fill="white"/>
<path d="M28.5608 24.4851L37.3555 30.9397L35.9909 32.7991L27.1961 26.3446L28.5608 24.4851Z" fill="white"/>
<path d="M43.9066 15.2236C43.6995 15.0509 43.4843 14.92 43.261 14.8311C43.0357 14.7392 42.8034 14.6907 42.564 14.6857C42.3256 14.6756 42.0826 14.7095 41.835 14.7872C41.5903 14.8629 41.3445 14.9844 41.0975 15.1518C40.636 15.4645 40.308 15.8541 40.1135 16.3204C39.922 16.7848 39.8777 17.3017 39.9805 17.8712C40.0813 18.4378 40.3448 19.0356 40.7711 19.6647C41.1974 20.2939 41.6555 20.7642 42.1454 21.0756C42.6353 21.3871 43.1338 21.5405 43.641 21.5356C44.1463 21.5279 44.637 21.3627 45.1132 21.0399C45.5454 20.7471 45.8625 20.4207 46.0647 20.0606C46.2678 19.6957 46.3545 19.3173 46.325 18.9255C46.2984 18.5317 46.1546 18.1423 45.8936 17.7572L46.3205 17.5515L43.9922 19.1293L43.0181 17.6917L46.7972 15.1309L47.5681 16.2686C48.106 17.0624 48.4006 17.8579 48.4519 18.6553C48.5012 19.4498 48.3365 20.2006 47.9577 20.9077C47.5769 21.6118 47.0073 22.2209 46.2488 22.7348C45.4022 23.3085 44.5319 23.6258 43.6381 23.6868C42.7422 23.7447 41.8809 23.5498 41.0541 23.102C40.2283 22.6493 39.4926 21.9466 38.8472 20.9941C38.3512 20.2621 38.0148 19.5378 37.838 18.8211C37.6622 18.0995 37.6313 17.4083 37.7455 16.7475C37.8597 16.0868 38.1019 15.4787 38.4719 14.9234C38.842 14.368 39.3255 13.8882 39.9222 13.4838C40.4338 13.1372 40.9608 12.8894 41.5034 12.7405C42.0439 12.5887 42.5764 12.5325 43.1006 12.5719C43.6279 12.6093 44.1267 12.7409 44.5973 12.9669C45.0658 13.1899 45.4824 13.5039 45.8469 13.9089L43.9066 15.2236Z" fill="white"/>
<path d="M56.4225 17.458L54.3615 6.74537L61.5799 5.3566L61.9392 7.22399L56.9857 8.177L57.4768 10.7296L62.0589 9.84806L62.4182 11.7154L57.836 12.597L58.3281 15.1549L63.3026 14.1978L63.6619 16.0652L56.4225 17.458Z" fill="white"/>
<path d="M70.8034 15.927L72.8645 5.21438L77.0909 6.02751C77.9 6.18316 78.5626 6.46072 79.0788 6.86018C79.5992 7.25683 79.9586 7.74728 80.1572 8.33155C80.36 8.91299 80.3933 9.55767 80.2571 10.2656C80.1202 10.977 79.849 11.5594 79.4435 12.013C79.0387 12.4631 78.5189 12.7681 77.8843 12.9281C77.2531 13.0887 76.526 13.0899 75.703 12.9315L72.8731 12.3871L73.2233 10.5668L75.687 11.0408C76.1195 11.124 76.49 11.1338 76.7988 11.0702C77.1076 11.0067 77.3545 10.8698 77.5396 10.6595C77.7282 10.4498 77.8564 10.1689 77.9241 9.81673C77.9926 9.46104 77.9788 9.14739 77.8828 8.87578C77.7902 8.60484 77.6113 8.37876 77.3461 8.19753C77.0849 8.01349 76.7364 7.87954 76.3005 7.79568L74.7731 7.50182L73.0684 16.3628L70.8034 15.927ZM77.5266 12.165L79.2512 17.5523L76.7508 17.0712L75.0838 11.695L77.5266 12.165Z" fill="white"/>
<path d="M92.022 11.6207L86.7265 21.1583L84.71 20.0387L90.0055 10.5011L92.022 11.6207Z" fill="white"/>
<path d="M94.0639 26.5381L92.4308 24.6829L103.108 20.3014L105.071 22.5324L99.368 32.5634L97.7349 30.7082L102.246 23.0961L102.19 23.0321L94.0639 26.5381ZM97.1804 23.5888L101.038 27.9709L99.6865 29.1605L95.829 24.7784L97.1804 23.5888Z" fill="white"/>
<path d="M118.012 38.9858L108.801 44.8299L107.734 43.1477L110.989 35.4618L110.946 35.3944L105.148 39.0726L103.913 37.125L113.124 31.2809L114.209 32.9901L110.938 40.6416L110.989 40.7226L116.783 37.0472L118.012 38.9858Z" fill="white"/>
<path d="M54.1938 104.714L47.315 113.181L45.7688 111.925L46.4146 103.603L46.3526 103.553L42.0231 108.882L40.233 107.428L47.1118 98.9607L48.6829 100.237L48.0114 108.531L48.0858 108.592L52.412 103.267L54.1938 104.714Z" fill="white"/>
<path d="M56.7255 117.634L54.3245 117.047L60.5715 107.343L63.4589 108.048L64.5236 119.538L62.1226 118.952L61.4651 110.128L61.3823 110.107L56.7255 117.634ZM57.5929 113.431L63.2643 114.817L62.8371 116.566L57.1657 115.18L57.5929 113.431Z" fill="white"/>
<path d="M73.2291 108.348L74.4483 119.189L72.1563 119.447L70.9371 108.606L73.2291 108.348Z" fill="white"/>
<path d="M82.4431 117.491L77.821 107.609L81.7196 105.786C82.4659 105.436 83.1652 105.272 83.8176 105.292C84.4717 105.308 85.0507 105.494 85.5545 105.85C86.0601 106.202 86.4655 106.704 86.771 107.357C87.0779 108.013 87.2004 108.644 87.1385 109.249C87.0751 109.851 86.8335 110.403 86.4137 110.905C85.9971 111.406 85.4092 111.834 84.6501 112.189L82.0398 113.41L81.2544 111.731L83.527 110.668C83.9258 110.481 84.2316 110.272 84.4442 110.039C84.6568 109.806 84.7763 109.55 84.8026 109.271C84.8322 108.991 84.771 108.688 84.619 108.363C84.4656 108.035 84.2702 107.79 84.033 107.626C83.799 107.461 83.5215 107.383 83.2003 107.392C82.8809 107.397 82.5201 107.493 82.1181 107.681L80.7092 108.34L84.5323 116.513L82.4431 117.491ZM85.6761 110.498L90.2354 113.846L87.9291 114.925L83.4228 111.552L85.6761 110.498Z" fill="white"/>
<path d="M97.1777 108.256L95.5543 110.12L89.8021 100.115L91.7544 97.8736L102.45 102.203L100.827 104.067L92.686 100.599L92.63 100.664L97.1777 108.256ZM93.843 105.556L97.6776 101.154L99.0352 102.337L95.2006 106.739L93.843 105.556Z" fill="white"/>
<defs>
<filter id="filter0_d_4235_141" x="0" y="0" width="136" height="131.564" filterUnits="userSpaceOnUse" color-interpolation-filters="sRGB">
<feFlood flood-opacity="0" result="BackgroundImageFix"/>
<feColorMatrix in="SourceAlpha" type="matrix" values="0 0 0 0 0 0 0 0 0 0 0 0 0 0 0 0 0 0 127 0" result="hardAlpha"/>
<feOffset dy="4"/>
<feGaussianBlur stdDeviation="2"/>
<feComposite in2="hardAlpha" operator="out"/>
<feColorMatrix type="matrix" values="0 0 0 0 0 0 0 0 0 0 0 0 0 0 0 0 0 0 0.25 0"/>
<feBlend mode="normal" in2="BackgroundImageFix" result="effect1_dropShadow_4235_141"/>
<feBlend mode="normal" in="SourceGraphic" in2="effect1_dropShadow_4235_141" result="shape"/>
</filter>
</defs>
</svg>
