<svg width="136" height="135" viewBox="0 0 136 135" fill="none" xmlns="http://www.w3.org/2000/svg">
<g filter="url(#filter0_d_4149_865)">
<ellipse cx="68" cy="63.2724" rx="64" ry="63.2724" fill="#0F73A5"/>
<ellipse cx="68" cy="63.2724" rx="40" ry="39.5453" fill="#2FC1F4"/>
<path d="M42.1605 80.9269V44.5633H56.5071C59.2533 44.5633 61.5971 45.0545 63.5384 46.037C65.4915 47.0077 66.977 48.3867 67.995 50.1741C69.0249 51.9497 69.5398 54.0389 69.5398 56.4419C69.5398 58.8566 69.0189 60.934 67.9773 62.6741C66.9356 64.4023 65.4264 65.7281 63.4496 66.6514C61.4846 67.5747 59.1054 68.0363 56.3118 68.0363H46.706V61.8573H55.0689C56.5367 61.8573 57.7559 61.6561 58.7266 61.2536C59.6972 60.8512 60.4193 60.2475 60.8928 59.4426C61.3781 58.6376 61.6207 57.6374 61.6207 56.4419C61.6207 55.2345 61.3781 54.2165 60.8928 53.3879C60.4193 52.5593 59.6913 51.9319 58.7088 51.5058C57.7382 51.0678 56.513 50.8488 55.0334 50.8488H49.8487V80.9269H42.1605ZM61.7983 64.3786L70.8359 80.9269H62.3487L53.5064 64.3786H61.7983ZM97.5227 61.4312L90.598 61.8573C90.4796 61.2655 90.2251 60.7328 89.8345 60.2593C89.4439 59.774 88.929 59.3893 88.2898 59.1052C87.6624 58.8093 86.9107 58.6613 86.0348 58.6613C84.8629 58.6613 83.8745 58.9099 83.0696 59.4071C82.2647 59.8924 81.8622 60.5434 81.8622 61.3602C81.8622 62.0112 82.1226 62.5616 82.6435 63.0115C83.1643 63.4613 84.058 63.8223 85.3246 64.0946L90.2607 65.0889C92.9122 65.6334 94.889 66.5093 96.1911 67.7167C97.4931 68.9241 98.1442 70.5103 98.1442 72.4752C98.1442 74.2626 97.6174 75.8311 96.5639 77.1805C95.5223 78.5299 94.09 79.5834 92.267 80.341C90.456 81.0867 88.3667 81.4596 85.9993 81.4596C82.389 81.4596 79.5125 80.708 77.37 79.2046C75.2393 77.6895 73.9905 75.6298 73.6236 73.0257L81.0632 72.635C81.2881 73.7359 81.8326 74.5763 82.6967 75.1563C83.5608 75.7245 84.6676 76.0086 86.017 76.0086C87.3428 76.0086 88.4081 75.7541 89.2131 75.2451C90.0298 74.7243 90.4441 74.0555 90.456 73.2387C90.4441 72.5522 90.1541 71.9899 89.5859 71.5519C89.0178 71.1021 88.1418 70.7589 86.9581 70.5221L82.2351 69.5811C79.5717 69.0484 77.589 68.1251 76.2869 66.8112C74.9967 65.4973 74.3516 63.8223 74.3516 61.7863C74.3516 60.0344 74.825 58.5252 75.772 57.2586C76.7308 55.992 78.0743 55.0155 79.8026 54.3289C81.5426 53.6424 83.5786 53.2991 85.9105 53.2991C89.3551 53.2991 92.0658 54.0271 94.0426 55.483C96.0313 56.939 97.1913 58.9217 97.5227 61.4312Z" fill="#F7F6FB"/>
<line x1="34" y1="54.8699" x2="74" y2="54.8699" stroke="#F7F6FB" stroke-width="4"/>
<path d="M24.7192 53.9251L14.2336 50.9149L15.4263 46.7795C15.6556 45.9844 16.0028 45.3508 16.468 44.8784C16.9297 44.405 17.4708 44.0986 18.0913 43.959C18.7094 43.815 19.3666 43.8429 20.0629 44.0428C20.7592 44.2427 21.3303 44.5692 21.7762 45.0224C22.2221 45.4755 22.5113 46.0296 22.6439 46.6847C22.7775 47.3363 22.7282 48.0648 22.496 48.87L21.7358 51.5058L19.9592 50.9958L20.6161 48.7182C20.7391 48.2917 20.767 47.9192 20.7 47.6007C20.6305 47.2778 20.484 47.0104 20.2606 46.7985C20.0347 46.5821 19.7493 46.4245 19.4046 46.3255C19.0565 46.2256 18.7325 46.2083 18.4327 46.2737C18.1306 46.3348 17.8675 46.4846 17.6434 46.7232C17.4159 46.9609 17.2402 47.2947 17.1162 47.7246L16.6852 49.2191L25.3583 51.709L24.7192 53.9251Z" fill="white"/>
<path d="M30.7629 38.7727L29.3042 40.768L22.7061 31.3089L24.4602 28.9094L35.5003 32.2924L34.0417 34.2877L25.6239 31.5415L25.5736 31.6103L30.7629 38.7727ZM27.2046 36.3744L30.65 31.6614L32.1058 32.7208L28.6604 37.4338L27.2046 36.3744Z" fill="white"/>
<path d="M40.3539 27.783L34.3687 18.6624L36.2997 17.401L38.9387 21.4225L39.0591 21.3438L39.7068 15.1754L42.0213 13.6635L41.312 19.9613L48.0466 22.7579L45.7366 24.2669L40.7741 22.1514L40.584 23.9298L42.2849 26.5217L40.3539 27.783Z" fill="white"/>
<path d="M53.0754 9.34192L56.257 19.7767L54.0499 20.4466L50.8683 10.0118L53.0754 9.34192Z" fill="white"/>
<path d="M69.1497 10.2861C69.0977 9.85745 68.9075 9.52772 68.5792 9.2969C68.2509 9.06608 67.8099 8.95672 67.256 8.96881C66.8797 8.97702 66.5631 9.03721 66.3063 9.14938C66.0494 9.258 65.8537 9.40612 65.7193 9.59376C65.5884 9.78132 65.5256 9.99226 65.5307 10.2266C65.5279 10.422 65.5725 10.5915 65.6644 10.7351C65.7599 10.8787 65.8887 11.002 66.0508 11.105C66.2128 11.2045 66.3994 11.291 66.6106 11.3645C66.8217 11.4345 67.0468 11.4935 67.2858 11.5416L68.2708 11.7545C68.7489 11.8506 69.1887 11.9831 69.5902 12.1519C69.9918 12.3208 70.3409 12.5316 70.6377 12.7844C70.9345 13.0372 71.1667 13.3376 71.3341 13.6856C71.5052 14.0335 71.5974 14.4347 71.6109 14.889C71.622 15.5566 71.4643 16.139 71.1378 16.6363C70.8147 17.13 70.3402 17.5186 69.7141 17.8022C69.0916 18.0822 68.3365 18.2319 67.4489 18.2513C66.5685 18.2705 65.7986 18.1523 65.1395 17.8967C64.4838 17.6411 63.9674 17.2528 63.5901 16.7318C63.2163 16.2071 63.0119 15.5527 62.977 14.7685L65.2083 14.7198C65.2412 15.0849 65.3526 15.3879 65.5426 15.6289C65.7361 15.8662 65.9904 16.0436 66.3055 16.161C66.6241 16.2748 66.9823 16.3274 67.3799 16.3187C67.7704 16.3102 68.1082 16.246 68.3933 16.1261C68.682 16.0061 68.9039 15.8432 69.0593 15.6374C69.2146 15.4315 69.2894 15.1972 69.2836 14.9345C69.2782 14.6895 69.2009 14.4852 69.0517 14.3215C68.9061 14.1578 68.6935 14.0203 68.414 13.9092C68.138 13.798 67.8002 13.6988 67.4005 13.6116L66.2064 13.3393C65.2819 13.1358 64.5482 12.8019 64.0052 12.3378C63.4623 11.8737 63.1837 11.2386 63.1696 10.4326C63.1516 9.77235 63.3147 9.19159 63.6589 8.69036C64.0066 8.18904 64.4899 7.7931 65.1087 7.50254C65.7274 7.21198 66.4345 7.05802 67.2297 7.04066C68.0392 7.02299 68.7487 7.14603 69.3584 7.40977C69.9715 7.67344 70.4522 8.04834 70.8003 8.53447C71.1484 9.0206 71.3349 9.58839 71.3598 10.2379L69.1497 10.2861Z" fill="white"/>
<path d="M80.3313 10.1851L80.9257 8.37872L89.4402 11.1674L88.8458 12.9738L85.6719 11.9342L82.8567 20.4905L80.6901 19.7809L83.5053 11.2246L80.3313 10.1851Z" fill="white"/>
<path d="M93.7428 25.8679L91.8163 24.3195L101.605 18.191L103.922 20.053L99.9997 30.8967L98.0733 29.3484L101.23 21.0883L101.164 21.0349L93.7428 25.8679ZM96.3161 22.4348L100.867 26.0922L99.7356 27.493L95.1851 23.8357L96.3161 22.4348Z" fill="white"/>
<path d="M118.359 38.393L108.891 43.8118L107.898 42.0847L111.491 34.5596L111.451 34.4903L105.492 37.9009L104.343 35.9013L113.811 30.4826L114.82 32.2374L111.212 39.7275L111.26 39.8106L117.214 36.4027L118.359 38.393Z" fill="white"/>
<path d="M122.419 50.6894L111.784 53.1232L111.268 50.8754L121.902 48.4416L122.419 50.6894Z" fill="white"/>
<path d="M40.2436 109.233L47.1805 100.816L50.5086 103.547C51.1457 104.069 51.5957 104.629 51.8586 105.226C52.1265 105.823 52.208 106.424 52.1032 107.032C52.0034 107.639 51.7243 108.22 51.2659 108.777C50.8052 109.335 50.2881 109.717 49.7145 109.922C49.1432 110.123 48.5402 110.143 47.9054 109.981C47.2735 109.82 46.6335 109.474 45.9854 108.943L43.7571 107.114L44.9359 105.684L46.8759 107.276C47.2164 107.555 47.5376 107.741 47.8395 107.832C48.1415 107.924 48.4241 107.922 48.6875 107.825C48.9537 107.731 49.2008 107.546 49.4288 107.269C49.6592 106.99 49.7971 106.708 49.8426 106.424C49.8908 106.142 49.8416 105.858 49.695 105.573C49.5534 105.287 49.3109 105.003 48.9677 104.721L47.765 103.734L42.0271 110.696L40.2436 109.233ZM47.9559 109.14L46.8956 114.69L44.9268 113.075L46.0324 107.562L47.9559 109.14Z" fill="white"/>
<path d="M62.6942 109.498L64.9032 110.163L62.8544 116.944C62.6244 117.705 62.2411 118.316 61.7047 118.778C61.1716 119.241 60.532 119.534 59.7859 119.658C59.0407 119.779 58.2362 119.709 57.3723 119.449C56.5051 119.188 55.7944 118.802 55.2403 118.291C54.6872 117.776 54.3166 117.179 54.1286 116.499C53.9407 115.82 53.9617 115.099 54.1917 114.338L56.2405 107.557L58.4496 108.222L56.4578 114.814C56.3376 115.212 56.3175 115.591 56.3975 115.953C56.4809 116.315 56.6558 116.633 56.9221 116.906C57.1884 117.179 57.5341 117.379 57.9593 117.507C58.3878 117.636 58.7869 117.659 59.1566 117.578C59.5297 117.497 59.8498 117.328 60.1167 117.071C60.387 116.815 60.5822 116.488 60.7024 116.091L62.6942 109.498Z" fill="white"/>
<path d="M69.3011 121.24L68.1812 110.388L72.4626 109.949C73.2857 109.864 74.0031 109.949 74.6149 110.204C75.2263 110.455 75.7125 110.843 76.0735 111.366C76.4377 111.886 76.657 112.506 76.7314 113.226C76.8058 113.947 76.716 114.599 76.462 115.182C76.208 115.765 75.8019 116.24 75.2437 116.608C74.689 116.976 73.9948 117.202 73.1611 117.288L70.4323 117.568L70.2425 115.73L72.6005 115.487C73.042 115.442 73.398 115.329 73.6685 115.147C73.9421 114.962 74.1356 114.726 74.2488 114.44C74.3652 114.149 74.405 113.826 74.3682 113.469C74.331 113.109 74.2261 112.802 74.0536 112.548C73.8842 112.291 73.647 112.103 73.342 111.984C73.0367 111.862 72.6615 111.824 72.2164 111.869L70.6691 112.028L71.5955 121.004L69.3011 121.24Z" fill="white"/>
<path d="M84.5364 118.24L79.438 108.594L85.9425 105.172L86.8313 106.853L82.3677 109.202L83.5825 111.5L87.7114 109.328L88.6002 111.009L84.4712 113.182L85.6885 115.485L90.171 113.127L91.0597 114.808L84.5364 118.24Z" fill="white"/>
<path d="M97.5409 109.779L89.2078 102.735L93.9649 97.1328L95.4175 98.3606L92.153 102.205L94.1386 103.883L97.1583 100.327L98.6109 101.555L95.5912 105.111L97.5809 106.793L100.859 102.933L102.312 104.16L97.5409 109.779Z" fill="white"/>
</g>
<defs>
<filter id="filter0_d_4149_865" x="0" y="0" width="136" height="134.545" filterUnits="userSpaceOnUse" color-interpolation-filters="sRGB">
<feFlood flood-opacity="0" result="BackgroundImageFix"/>
<feColorMatrix in="SourceAlpha" type="matrix" values="0 0 0 0 0 0 0 0 0 0 0 0 0 0 0 0 0 0 127 0" result="hardAlpha"/>
<feOffset dy="4"/>
<feGaussianBlur stdDeviation="2"/>
<feComposite in2="hardAlpha" operator="out"/>
<feColorMatrix type="matrix" values="0 0 0 0 0 0 0 0 0 0 0 0 0 0 0 0 0 0 0.25 0"/>
<feBlend mode="normal" in2="BackgroundImageFix" result="effect1_dropShadow_4149_865"/>
<feBlend mode="normal" in="SourceGraphic" in2="effect1_dropShadow_4149_865" result="shape"/>
</filter>
</defs>
</svg>
