<svg width="136" height="134" viewBox="0 0 136 134" fill="none" xmlns="http://www.w3.org/2000/svg">
<g filter="url(#filter0_d_4144_476)">
<ellipse cx="68" cy="62.8182" rx="64" ry="62.8182" fill="#0F73A5"/>
<ellipse cx="68" cy="62.8181" rx="40" ry="39.2614" fill="#2FC1F4"/>
<path d="M85.6847 53.2755L83.87 60.186H50.5355L52.3253 53.2755H85.6847ZM68.3587 91.5568L51.3558 71.3224L51.3807 65.1079H59.7827C61.6553 65.1079 63.2214 64.7599 64.4808 64.0639C65.7403 63.3678 66.6849 62.4232 67.3146 61.2301C67.9444 60.0369 68.2675 58.678 68.2841 57.1534C68.2675 54.8664 67.5964 53.0021 66.2706 51.5603C64.9614 50.102 62.7988 49.3728 59.7827 49.3728H50.5355L52.5739 40.6477H59.7827C64.0085 40.6477 67.5301 41.2857 70.3473 42.5617C73.1811 43.8212 75.3023 45.6193 76.7109 47.9559C78.1361 50.2926 78.857 53.0766 78.8736 56.3082C78.857 59.1751 78.3764 61.6775 77.4318 63.8153C76.5038 65.9531 75.0372 67.7346 73.032 69.1597C71.0433 70.5849 68.4498 71.6455 65.2514 72.3416L64.8537 72.4907L80.0668 91.1093V91.5568H68.3587ZM85.7344 40.6477L83.87 47.6576H56.4268L58.2912 40.6477H85.7344Z" fill="white"/>
<path d="M26.5272 22.9799L33.8482 31.0677L32.1099 32.5836L24.7889 24.4959L26.5272 22.9799Z" fill="white"/>
<path d="M42.7189 12.8839L47.7496 22.5638L45.9682 23.4557L38.558 19.4881L38.4866 19.5238L41.6529 25.6163L39.5905 26.6489L34.5598 16.969L36.3698 16.0628L43.7441 20.0424L43.8298 19.9995L40.666 13.9117L42.7189 12.8839Z" fill="white"/>
<path d="M58.5673 19.6904L54.748 20.2968L52.974 9.53292L56.8249 8.92147C57.9086 8.7494 58.877 8.81676 59.7302 9.12355C60.5827 9.42684 61.2856 9.94627 61.8387 10.6818C62.3953 11.4168 62.7657 12.3432 62.9499 13.4609C63.1347 14.5822 63.0813 15.5794 62.7898 16.4527C62.5017 17.3254 61.9986 18.0399 61.2806 18.5962C60.566 19.1519 59.6616 19.5166 58.5673 19.6904ZM56.7045 17.9852L58.1512 17.7555C58.8246 17.6486 59.3714 17.4395 59.7916 17.1283C60.2147 16.813 60.5004 16.3847 60.6487 15.8434C60.8 15.2981 60.8095 14.6242 60.6772 13.8218C60.5461 13.0264 60.3215 12.3951 60.0034 11.9279C59.6888 11.46 59.2821 11.1435 58.7834 10.9782C58.2847 10.8129 57.6986 10.7837 57.0252 10.8906L55.5733 11.1211L56.7045 17.9852Z" fill="white"/>
<path d="M73.4883 8.31758L72.5459 19.1859L70.2474 18.9939L71.1898 8.12557L73.4883 8.31758Z" fill="white"/>
<path d="M81.5667 20.7589L79.2316 19.9491L86.4844 10.9186L89.2927 11.8925L89.151 23.389L86.8158 22.5792L87.0845 13.7651L87.004 13.7372L81.5667 20.7589ZM82.8731 16.6737L88.3889 18.5865L87.7791 20.2805L82.2633 18.3677L82.8731 16.6737Z" fill="white"/>
<path d="M109.034 23.3988L102.264 31.9534L100.68 30.7456L101.166 22.4839L101.103 22.4355L96.8421 27.8197L95.0079 26.4214L101.777 17.8667L103.387 19.0939L102.874 27.3288L102.951 27.3869L107.208 22.0069L109.034 23.3988Z" fill="white"/>
<path d="M34.7882 106.537L41.8238 98.2257L45.1652 100.951C45.8049 101.472 46.2557 102.03 46.5178 102.623C46.7849 103.216 46.8641 103.813 46.7553 104.415C46.6517 105.017 46.3674 105.592 45.9025 106.141C45.4353 106.693 44.912 107.069 44.3327 107.269C43.7558 107.466 43.1477 107.482 42.5087 107.318C41.8724 107.156 41.2289 106.809 40.5783 106.279L38.3409 104.454L39.5364 103.042L41.4843 104.63C41.8261 104.909 42.149 105.095 42.453 105.187C42.7569 105.279 43.0419 105.279 43.3079 105.185C43.5767 105.093 43.8267 104.91 44.058 104.637C44.2916 104.361 44.4321 104.082 44.4794 103.801C44.5294 103.521 44.4812 103.24 44.3348 102.956C44.1935 102.671 43.9505 102.389 43.6059 102.107L42.3983 101.123L36.5789 107.997L34.7882 106.537ZM42.5638 106.485L41.467 111.984L39.4903 110.372L40.6325 104.91L42.5638 106.485Z" fill="white"/>
<path d="M57.6669 107.729L59.8253 108.552L57.2231 115.13C56.9309 115.869 56.4974 116.447 55.9227 116.866C55.3513 117.285 54.687 117.529 53.9297 117.597C53.1736 117.662 52.3736 117.533 51.5295 117.212C50.6821 116.889 50.0017 116.453 49.4883 115.904C48.9762 115.353 48.6536 114.733 48.5205 114.044C48.3874 113.356 48.4669 112.643 48.7591 111.904L51.3613 105.326L53.5197 106.149L50.9898 112.544C50.8372 112.93 50.7863 113.305 50.8371 113.669C50.8912 114.035 51.0405 114.364 51.2851 114.654C51.5296 114.945 51.8596 115.169 52.275 115.327C52.6937 115.487 53.0915 115.54 53.4684 115.486C53.8486 115.434 54.1827 115.29 54.4709 115.054C54.7624 114.82 54.9845 114.51 55.1371 114.124L57.6669 107.729Z" fill="white"/>
<path d="M63.1476 120.176L63.6745 109.286L67.976 109.486C68.803 109.525 69.4999 109.716 70.0666 110.058C70.6336 110.397 71.0562 110.852 71.3345 111.423C71.6165 111.991 71.74 112.636 71.7051 113.359C71.6701 114.082 71.483 114.713 71.1439 115.252C70.8049 115.79 70.3315 116.2 69.7239 116.48C69.1198 116.761 68.399 116.882 67.5614 116.843L64.8197 116.716L64.909 114.87L67.278 114.981C67.7216 115.001 68.0909 114.942 68.3857 114.803C68.6843 114.661 68.9112 114.456 69.0664 114.19C69.2253 113.92 69.3134 113.606 69.3307 113.248C69.3482 112.887 69.2907 112.568 69.1582 112.292C69.0295 112.012 68.8232 111.791 68.5394 111.629C68.2557 111.463 67.8903 111.369 67.4431 111.348L65.8886 111.276L65.4527 120.284L63.1476 120.176Z" fill="white"/>
<path d="M78.6469 119.758L75.7375 109.237L82.8365 107.346L83.3436 109.18L78.4721 110.478L79.1654 112.985L83.6716 111.784L84.1788 113.618L79.6725 114.819L80.3672 117.331L85.2593 116.027L85.7664 117.861L78.6469 119.758Z" fill="white"/>
<path d="M93.2411 114.643L87.198 105.541L93.3813 101.586L94.4347 103.172L90.1915 105.886L91.6315 108.055L95.5565 105.545L96.6099 107.131L92.6849 109.642L94.1278 111.815L98.3889 109.09L99.4423 110.676L93.2411 114.643Z" fill="white"/>
<path d="M103.159 95.9607C102.795 95.7256 102.417 95.6583 102.025 95.7588C101.633 95.8593 101.261 96.1227 100.909 96.5493C100.67 96.8391 100.51 97.117 100.429 97.383C100.345 97.6468 100.331 97.8895 100.388 98.1113C100.447 98.3303 100.569 98.5129 100.752 98.659C100.901 98.7862 101.061 98.861 101.231 98.8834C101.404 98.9031 101.583 98.8847 101.768 98.828C101.95 98.7692 102.139 98.6835 102.333 98.5709C102.525 98.4561 102.717 98.3237 102.91 98.1737L103.716 97.5652C104.102 97.2653 104.491 97.0175 104.883 96.822C105.275 96.6265 105.665 96.4974 106.053 96.4348C106.441 96.3723 106.824 96.389 107.201 96.4852C107.581 96.5786 107.95 96.7656 108.309 97.0462C108.83 97.4652 109.176 97.9572 109.346 98.5225C109.515 99.0828 109.505 99.6904 109.315 100.345C109.125 100.995 108.747 101.662 108.183 102.346C107.624 103.024 107.031 103.53 106.404 103.865C105.779 104.197 105.144 104.339 104.496 104.291C103.848 104.237 103.211 103.973 102.584 103.497L104.002 101.779C104.305 101.988 104.611 102.098 104.92 102.108C105.229 102.114 105.532 102.035 105.828 101.872C106.123 101.704 106.397 101.467 106.65 101.161C106.898 100.86 107.069 100.563 107.163 100.271C107.259 99.976 107.278 99.7039 107.221 99.4546C107.163 99.2054 107.032 98.9989 106.826 98.8351C106.634 98.6823 106.426 98.61 106.202 98.618C105.981 98.6233 105.737 98.6961 105.469 98.8363C105.203 98.9738 104.907 99.1657 104.579 99.4121L103.59 100.141C102.83 100.709 102.095 101.05 101.383 101.164C100.672 101.277 100.001 101.081 99.371 100.576C98.8508 100.167 98.5099 99.672 98.3484 99.0909C98.1892 98.507 98.1994 97.8882 98.3793 97.2343C98.5591 96.5804 98.9017 95.9473 99.4071 95.3348C99.9214 94.7115 100.479 94.2537 101.08 93.9616C101.683 93.6668 102.285 93.5434 102.886 93.5913C103.488 93.6393 104.047 93.8618 104.563 94.2587L103.159 95.9607Z" fill="white"/>
</g>
<defs>
<filter id="filter0_d_4144_476" x="0" y="0" width="136" height="133.636" filterUnits="userSpaceOnUse" color-interpolation-filters="sRGB">
<feFlood flood-opacity="0" result="BackgroundImageFix"/>
<feColorMatrix in="SourceAlpha" type="matrix" values="0 0 0 0 0 0 0 0 0 0 0 0 0 0 0 0 0 0 127 0" result="hardAlpha"/>
<feOffset dy="4"/>
<feGaussianBlur stdDeviation="2"/>
<feComposite in2="hardAlpha" operator="out"/>
<feColorMatrix type="matrix" values="0 0 0 0 0 0 0 0 0 0 0 0 0 0 0 0 0 0 0.25 0"/>
<feBlend mode="normal" in2="BackgroundImageFix" result="effect1_dropShadow_4144_476"/>
<feBlend mode="normal" in="SourceGraphic" in2="effect1_dropShadow_4144_476" result="shape"/>
</filter>
</defs>
</svg>
