<svg width="136" height="140" viewBox="0 0 136 140" fill="none" xmlns="http://www.w3.org/2000/svg">
<g filter="url(#filter0_d_4508_130)">
<ellipse cx="68" cy="67.1085" rx="64" ry="61.7821" fill="#0F73A5"/>
<ellipse cx="68" cy="67.1085" rx="40" ry="38.6138" fill="#2FC1F4"/>
<path d="M61.021 63.1925C60.9215 62.1899 60.4948 61.4111 59.7408 60.8559C58.9867 60.3007 57.9634 60.0231 56.6708 60.0231C55.7925 60.0231 55.0509 60.1474 54.446 60.396C53.8411 60.6363 53.3771 60.9719 53.054 61.4028C52.7391 61.8336 52.5817 62.3225 52.5817 62.8694C52.5651 63.3251 52.6604 63.7228 52.8675 64.0626C53.083 64.4023 53.3771 64.6964 53.75 64.945C54.1229 65.1853 54.5537 65.3966 55.0426 65.5789C55.5315 65.7529 56.0535 65.9021 56.6087 66.0263L58.8956 66.5732C60.0059 66.8218 61.0251 67.1532 61.9531 67.5675C62.8812 67.9818 63.6849 68.4914 64.3643 69.0963C65.0438 69.7012 65.57 70.4138 65.9428 71.2341C66.324 72.0544 66.5187 72.9949 66.527 74.0555C66.5187 75.6132 66.121 76.9638 65.3338 78.1073C64.5549 79.2425 63.428 80.1249 61.9531 80.7547C60.4865 81.3761 58.7174 81.6869 56.646 81.6869C54.591 81.6869 52.8013 81.372 51.2766 80.7423C49.7603 80.1125 48.5754 79.1803 47.7219 77.9457C46.8768 76.7028 46.4335 75.1658 46.392 73.3346H51.5998C51.6578 74.188 51.9022 74.9006 52.3331 75.4724C52.7723 76.0358 53.3564 76.4625 54.0856 76.7526C54.823 77.0343 55.6558 77.1751 56.5838 77.1751C57.4953 77.1751 58.2866 77.0426 58.9577 76.7774C59.6372 76.5123 60.1634 76.1435 60.5362 75.6712C60.9091 75.1989 61.0955 74.6562 61.0955 74.043C61.0955 73.4713 60.9257 72.9907 60.5859 72.6013C60.2545 72.2118 59.7656 71.8804 59.1193 71.607C58.4813 71.3335 57.6983 71.0849 56.7702 70.8612L53.9986 70.1652C51.8525 69.6432 50.158 68.827 48.9151 67.7167C47.6722 66.6064 47.0549 65.1107 47.0632 63.2298C47.0549 61.6886 47.4651 60.3422 48.2937 59.1904C49.1306 58.0387 50.2782 57.1396 51.7365 56.4933C53.1948 55.847 54.852 55.5239 56.7081 55.5239C58.5973 55.5239 60.2462 55.847 61.6548 56.4933C63.0717 57.1396 64.1738 58.0387 64.9609 59.1904C65.7481 60.3422 66.1541 61.6762 66.179 63.1925H61.021ZM78.5489 84.5082V52.6901H80.5873V84.5082H78.5489ZM83.9555 63.1925C83.8561 62.1899 83.4294 61.4111 82.6753 60.8559C81.9213 60.3007 80.898 60.0231 79.6054 60.0231C78.7271 60.0231 77.9855 60.1474 77.3806 60.396C76.7757 60.6363 76.3117 60.9719 75.9885 61.4028C75.6737 61.8336 75.5162 62.3225 75.5162 62.8694C75.4997 63.3251 75.595 63.7228 75.8021 64.0626C76.0175 64.4023 76.3117 64.6964 76.6846 64.945C77.0574 65.1853 77.4883 65.3966 77.9772 65.5789C78.4661 65.7529 78.9881 65.9021 79.5432 66.0263L81.8302 66.5732C82.9405 66.8218 83.9597 67.1532 84.8877 67.5675C85.8157 67.9818 86.6195 68.4914 87.2989 69.0963C87.9784 69.7012 88.5045 70.4138 88.8774 71.2341C89.2586 72.0544 89.4533 72.9949 89.4616 74.0555C89.4533 75.6132 89.0555 76.9638 88.2684 78.1073C87.4895 79.2425 86.3626 80.1249 84.8877 80.7547C83.4211 81.3761 81.652 81.6869 79.5805 81.6869C77.5256 81.6869 75.7358 81.372 74.2112 80.7423C72.6949 80.1125 71.51 79.1803 70.6565 77.9457C69.8113 76.7028 69.368 75.1658 69.3266 73.3346H74.5344C74.5924 74.188 74.8368 74.9006 75.2677 75.4724C75.7068 76.0358 76.291 76.4625 77.0202 76.7526C77.7576 77.0343 78.5903 77.1751 79.5184 77.1751C80.4298 77.1751 81.2211 77.0426 81.8923 76.7774C82.5718 76.5123 83.0979 76.1435 83.4708 75.6712C83.8437 75.1989 84.0301 74.6562 84.0301 74.043C84.0301 73.4713 83.8602 72.9907 83.5205 72.6013C83.1891 72.2118 82.7002 71.8804 82.0539 71.607C81.4159 71.3335 80.6328 71.0849 79.7048 70.8612L76.9332 70.1652C74.7871 69.6432 73.0926 68.827 71.8497 67.7167C70.6068 66.6064 69.9895 65.1107 69.9978 63.2298C69.9895 61.6886 70.3997 60.3422 71.2282 59.1904C72.0651 58.0387 73.2127 57.1396 74.6711 56.4933C76.1294 55.847 77.7866 55.5239 79.6427 55.5239C81.5319 55.5239 83.1808 55.847 84.5894 56.4933C86.0063 57.1396 87.1083 58.0387 87.8955 59.1904C88.6827 60.3422 89.0887 61.6762 89.1135 63.1925H83.9555Z" fill="#F7F6FB"/>
</g>
<path d="M19.367 44.3021C18.9863 44.0983 18.6072 44.0645 18.2297 44.2005C17.8522 44.3366 17.5092 44.6348 17.2009 45.095C16.9914 45.4078 16.8588 45.7015 16.803 45.9761C16.7443 46.2488 16.7531 46.4941 16.8295 46.7119C16.9078 46.9268 17.0443 47.0995 17.239 47.2299C17.3973 47.3445 17.5617 47.4054 17.732 47.4127C17.9044 47.417 18.0793 47.3825 18.2567 47.309C18.4312 47.2335 18.6092 47.1305 18.7908 46.9999C18.9693 46.8674 19.1469 46.7171 19.3236 46.549L20.0638 45.8652C20.4172 45.5291 20.7783 45.2453 21.1471 45.0137C21.516 44.7821 21.8892 44.6174 22.2666 44.5198C22.6441 44.4221 23.0233 44.4048 23.4043 44.4677C23.7873 44.5276 24.1686 44.6826 24.5482 44.9326C25.1009 45.3071 25.4869 45.7709 25.7063 46.3239C25.9248 46.872 25.9702 47.4838 25.8426 48.1591C25.7141 48.8296 25.4027 49.5336 24.9086 50.2711C24.4185 51.0028 23.8795 51.565 23.2916 51.9577C22.7057 52.3474 22.0911 52.5469 21.448 52.5563C20.8038 52.5608 20.1508 52.352 19.4889 51.93L20.7311 50.0757C21.0488 50.2586 21.3608 50.3415 21.6672 50.3245C21.9725 50.3025 22.2638 50.1963 22.541 50.0059C22.8172 49.8105 23.066 49.5476 23.2874 49.2171C23.5048 48.8926 23.6463 48.5792 23.712 48.277C23.7796 47.9718 23.7738 47.6965 23.6946 47.4511C23.6154 47.2057 23.4666 47.0099 23.2483 46.8636C23.0447 46.7272 22.8331 46.6731 22.6134 46.7012C22.3956 46.7263 22.161 46.8213 21.9095 46.9862C21.66 47.1481 21.3847 47.3677 21.0837 47.6447L20.1747 48.4656C19.477 49.1052 18.7822 49.5139 18.0904 49.6916C17.3986 49.8693 16.7188 49.7324 16.0511 49.2808C15.5003 48.9161 15.1187 48.4489 14.9063 47.8792C14.6958 47.3065 14.6494 46.6834 14.7671 46.01C14.8849 45.3366 15.1651 44.6694 15.6078 44.0086C16.0584 43.3359 16.5668 42.8258 17.1329 42.4785C17.701 42.1281 18.2839 41.9501 18.8818 41.9446C19.4797 41.939 20.0515 42.1127 20.5973 42.4655L19.367 44.3021Z" fill="white"/>
<path d="M24.8835 34.7986L32.6248 42.4849L30.9997 44.1216L23.2584 36.4353L24.8835 34.7986Z" fill="white"/>
<path d="M36.34 22.6747L43.8061 30.6286L42.3536 31.9921L34.194 30.2341L34.1357 30.2888L38.8349 35.2949L37.1532 36.8735L29.6871 28.9195L31.1629 27.5342L39.2916 29.3138L39.3616 29.2482L34.6661 24.2459L36.34 22.6747Z" fill="white"/>
<path d="M51.4827 18.4869C51.2983 18.29 51.1007 18.1338 50.89 18.0182C50.6777 17.8994 50.4531 17.8228 50.2161 17.7884C49.9807 17.7492 49.7354 17.7531 49.4801 17.7998C49.228 17.845 48.9692 17.9355 48.7036 18.0713C48.2072 18.3251 47.8339 18.6716 47.5838 19.1106C47.3368 19.548 47.2295 20.0556 47.2617 20.6334C47.2923 21.208 47.4806 21.8337 47.8266 22.5103C48.1726 23.1869 48.5696 23.7098 49.0177 24.0789C49.4657 24.4481 49.9417 24.6614 50.4457 24.7187C50.948 24.773 51.4553 24.6691 51.9675 24.4072C52.4323 24.1695 52.787 23.8844 53.0318 23.5518C53.2781 23.2145 53.4106 22.8496 53.4292 22.4571C53.4511 22.0631 53.3561 21.659 53.1443 21.2448L53.5932 21.093L51.0891 22.3735L50.2985 20.8274L54.3628 18.749L54.9886 19.9726C55.4251 20.8263 55.62 21.6519 55.5732 22.4496C55.5248 23.2442 55.2693 23.9691 54.8068 24.6244C54.3426 25.2766 53.7026 25.8113 52.8869 26.2284C51.9763 26.6941 51.0737 26.9024 50.1791 26.8533C49.2829 26.8011 48.452 26.5021 47.6863 25.9563C46.9222 25.4058 46.2782 24.6183 45.7543 23.5939C45.3517 22.8067 45.1066 22.0466 45.019 21.3136C44.9329 20.5759 44.987 19.8861 45.1813 19.2443C45.3756 18.6025 45.6904 18.0287 46.1258 17.5229C46.5611 17.0171 47.0997 16.6001 47.7415 16.2719C48.2917 15.9906 48.8451 15.8092 49.4018 15.728C49.9569 15.6435 50.4922 15.653 51.0077 15.7563C51.5264 15.858 52.0054 16.0498 52.4447 16.3317C52.8823 16.6104 53.2573 16.9731 53.5694 17.4198L51.4827 18.4869Z" fill="white"/>
<path d="M63.7369 23.753L61.2775 23.9981L63.943 12.7693L66.9007 12.4745L71.7247 22.9568L69.2653 23.202L65.7115 15.0983L65.6267 15.1067L63.7369 23.753ZM63.1579 19.5014L68.9672 18.9224L69.1458 20.714L63.3365 21.293L63.1579 19.5014Z" fill="white"/>
<path d="M77.4043 23.7784L79.4984 13.0722L83.7224 13.8984C84.5344 14.0573 85.1959 14.3477 85.7067 14.7696C86.2183 15.1881 86.5704 15.7003 86.7631 16.306C86.96 16.909 86.9889 17.566 86.8498 18.277C86.7108 18.9879 86.4347 19.5852 86.0217 20.0689C85.6086 20.5526 85.0815 20.8891 84.4402 21.0785C83.8023 21.2685 83.0722 21.2831 82.2497 21.1222L79.5575 20.5956L79.9123 18.7816L82.2386 19.2367C82.6742 19.3219 83.0478 19.3172 83.3594 19.2225C83.6752 19.1251 83.929 18.9558 84.1209 18.7147C84.317 18.4708 84.4494 18.1729 84.5183 17.8209C84.5878 17.4654 84.5771 17.1413 84.486 16.8485C84.3991 16.5528 84.227 16.3039 83.9699 16.1016C83.7134 15.8959 83.3656 15.75 82.9265 15.6641L81.4 15.3656L79.6679 24.2212L77.4043 23.7784Z" fill="white"/>
<path d="M98.1329 25.906C97.5894 26.9642 96.9265 27.7615 96.1441 28.2978C95.3648 28.8358 94.5303 29.1238 93.6405 29.1619C92.7555 29.1984 91.8849 28.9969 91.0289 28.5572C90.1665 28.1144 89.4931 27.5211 89.0088 26.7774C88.5244 26.0336 88.2738 25.1884 88.257 24.2416C88.2402 23.2949 88.5027 22.294 89.0446 21.2389C89.588 20.1806 90.2493 19.3825 91.0286 18.8446C91.8078 18.3066 92.64 18.0194 93.525 17.9828C94.4116 17.9431 95.2862 18.1447 96.1486 18.5876C97.0046 19.0272 97.6748 19.6189 98.1592 20.3626C98.6483 21.1048 98.9013 21.9493 98.9181 22.896C98.938 23.8444 98.6763 24.8477 98.1329 25.906ZM96.0527 24.8377C96.4047 24.1523 96.5989 23.5214 96.6353 22.9453C96.6748 22.3708 96.5723 21.867 96.3276 21.434C96.0829 21.001 95.7126 20.6571 95.2166 20.4024C94.7206 20.1477 94.2254 20.0471 93.7309 20.1005C93.2364 20.154 92.7656 20.3633 92.3186 20.7286C91.8747 21.0954 91.4767 21.6216 91.1247 22.3071C90.7727 22.9926 90.5769 23.6226 90.5374 24.1971C90.501 24.7732 90.6052 25.2778 90.8499 25.7108C91.0945 26.1439 91.4649 26.4877 91.9608 26.7424C92.4568 26.9971 92.952 27.0977 93.4465 27.0443C93.941 26.9909 94.4102 26.7807 94.8541 26.4138C95.3011 26.0486 95.7007 25.5232 96.0527 24.8377Z" fill="white"/>
<path d="M99.1338 33.7162L107.133 26.299L110.06 29.4551C110.62 30.0593 110.99 30.6751 111.17 31.3025C111.355 31.9302 111.354 32.5383 111.169 33.1268C110.988 33.7155 110.634 34.255 110.105 34.7451C109.574 35.2376 109.01 35.5468 108.415 35.6726C107.823 35.7959 107.223 35.7343 106.617 35.4878C106.013 35.2438 105.426 34.8146 104.856 34.2L102.897 32.0868L104.256 30.8265L105.962 32.6662C106.261 32.9891 106.554 33.2163 106.841 33.3478C107.127 33.4792 107.407 33.5149 107.681 33.4549C107.957 33.3975 108.227 33.2468 108.49 33.003C108.755 32.7567 108.93 32.4957 109.013 32.2199C109.099 31.9467 109.088 31.6586 108.982 31.3556C108.88 31.0527 108.678 30.7385 108.376 30.413L107.319 29.2724L100.702 35.4075L99.1338 33.7162ZM106.78 34.6609L104.983 40.0245L103.252 38.1574L105.089 32.8368L106.78 34.6609Z" fill="white"/>
<path d="M108.839 45.8006L118.984 41.7909L121.686 48.6271L119.918 49.3261L118.064 44.6348L115.646 45.5903L117.361 49.9298L115.593 50.6288L113.878 46.2892L111.455 47.2467L113.317 51.9578L111.549 52.6567L108.839 45.8006Z" fill="white"/>
<path d="M32.0688 110.954L28.911 108.722L35.2085 99.8137L38.3923 102.065C39.2883 102.698 39.9336 103.422 40.3281 104.235C40.7246 105.046 40.8622 105.907 40.7407 106.817C40.6221 107.729 40.2359 108.647 39.5819 109.572C38.926 110.5 38.1868 111.174 37.3644 111.593C36.545 112.014 35.683 112.172 34.7784 112.067C33.8767 111.965 32.9735 111.594 32.0688 110.954ZM31.9352 108.439L33.1313 109.285C33.6881 109.679 34.2261 109.911 34.7453 109.982C35.2695 110.053 35.7749 109.947 36.2615 109.665C36.753 109.382 37.2335 108.908 37.7029 108.244C38.1683 107.586 38.4514 106.979 38.5523 106.424C38.6561 105.871 38.5878 105.362 38.3473 104.896C38.1069 104.431 37.7082 104.001 37.1515 103.607L35.951 102.759L31.9352 108.439Z" fill="white"/>
<path d="M54.0987 115.436C53.7159 116.562 53.1768 117.448 52.4812 118.093C51.7891 118.739 51.0057 119.146 50.131 119.314C49.2609 119.479 48.3702 119.407 47.459 119.098C46.5411 118.786 45.7882 118.297 45.2002 117.633C44.6123 116.968 44.2408 116.168 44.0856 115.234C43.9305 114.3 44.0437 113.271 44.4254 112.148C44.8081 111.022 45.3456 110.136 46.0378 109.49C46.7299 108.843 47.5111 108.438 48.3812 108.272C49.2525 108.103 50.1471 108.174 51.065 108.486C51.9762 108.796 52.7258 109.283 53.3137 109.948C53.9062 110.611 54.28 111.409 54.4351 112.343C54.5936 113.279 54.4815 114.309 54.0987 115.436ZM51.8846 114.683C52.1326 113.954 52.2324 113.301 52.1841 112.726C52.1391 112.152 51.964 111.669 51.6586 111.276C51.3531 110.883 50.9365 110.597 50.4086 110.418C49.8807 110.239 49.3761 110.212 48.8947 110.337C48.4134 110.462 47.9783 110.738 47.5895 111.165C47.2041 111.592 46.8874 112.171 46.6394 112.901C46.3915 113.63 46.29 114.282 46.3349 114.856C46.3832 115.432 46.5601 115.916 46.8655 116.308C47.1709 116.701 47.5875 116.987 48.1154 117.166C48.6433 117.346 49.1479 117.373 49.6293 117.247C50.1107 117.122 50.5441 116.846 50.9295 116.418C51.3183 115.991 51.6367 115.413 51.8846 114.683Z" fill="white"/>
<path d="M59.627 121.824L60.251 110.933L62.5537 111.065L62.0384 120.057L66.7076 120.325L66.5988 122.224L59.627 121.824Z" fill="white"/>
<path d="M73.9593 121.76L71.9317 111.041L74.1979 110.612L75.8721 119.463L80.4675 118.594L80.8209 120.462L73.9593 121.76Z" fill="white"/>
<path d="M89.6194 117.489L87.4017 118.58L85.9641 107.129L88.631 105.817L96.8219 113.944L94.6043 115.036L88.4365 108.691L88.36 108.728L89.6194 117.489ZM87.5875 113.71L92.8257 111.132L93.6206 112.747L88.3824 115.325L87.5875 113.71Z" fill="white"/>
<path d="M102.976 109.627L95.6495 101.545L98.8383 98.6542C99.4487 98.1009 100.069 97.7379 100.698 97.5651C101.328 97.3874 101.936 97.3946 102.522 97.5868C103.109 97.7739 103.644 98.1346 104.128 98.6687C104.615 99.2054 104.918 99.7721 105.037 100.369C105.153 100.963 105.085 101.562 104.832 102.165C104.581 102.766 104.145 103.348 103.524 103.911L101.389 105.846L100.144 104.473L102.003 102.788C102.329 102.492 102.56 102.202 102.694 101.917C102.829 101.632 102.868 101.352 102.811 101.078C102.757 100.801 102.609 100.53 102.368 100.264C102.125 99.9959 101.866 99.8185 101.591 99.7321C101.319 99.6433 101.031 99.6505 100.726 99.7538C100.422 99.852 100.106 100.05 99.7772 100.348L98.6247 101.393L104.685 108.078L102.976 109.627ZM104.007 101.993L109.35 103.85L107.463 105.56L102.164 103.663L104.007 101.993Z" fill="white"/>
<defs>
<filter id="filter0_d_4508_130" x="0" y="5.32639" width="136" height="131.564" filterUnits="userSpaceOnUse" color-interpolation-filters="sRGB">
<feFlood flood-opacity="0" result="BackgroundImageFix"/>
<feColorMatrix in="SourceAlpha" type="matrix" values="0 0 0 0 0 0 0 0 0 0 0 0 0 0 0 0 0 0 127 0" result="hardAlpha"/>
<feOffset dy="4"/>
<feGaussianBlur stdDeviation="2"/>
<feComposite in2="hardAlpha" operator="out"/>
<feColorMatrix type="matrix" values="0 0 0 0 0 0 0 0 0 0 0 0 0 0 0 0 0 0 0.25 0"/>
<feBlend mode="normal" in2="BackgroundImageFix" result="effect1_dropShadow_4508_130"/>
<feBlend mode="normal" in="SourceGraphic" in2="effect1_dropShadow_4508_130" result="shape"/>
</filter>
</defs>
</svg>
