<svg width="136" height="132" viewBox="0 0 136 132" fill="none" xmlns="http://www.w3.org/2000/svg">
<g filter="url(#filter0_d_4237_388)">
<ellipse cx="68" cy="61.7821" rx="64" ry="61.7821" fill="#0F73A5"/>
<ellipse cx="68" cy="61.7821" rx="40" ry="38.6138" fill="#2FC1F4"/>
<path d="M35.2429 52.9826V48.5455H56.1484V52.9826H48.3555V74H43.0359V52.9826H35.2429ZM73.3999 55.8661C73.3004 54.8635 72.8737 54.0846 72.1197 53.5295C71.3656 52.9743 70.3423 52.6967 69.0497 52.6967C68.1714 52.6967 67.4298 52.821 66.8249 53.0696C66.2201 53.3099 65.756 53.6455 65.4329 54.0763C65.118 54.5072 64.9606 54.9961 64.9606 55.543C64.944 55.9987 65.0393 56.3964 65.2464 56.7362C65.4619 57.0759 65.756 57.37 66.1289 57.6186C66.5018 57.8589 66.9326 58.0702 67.4215 58.2525C67.9104 58.4265 68.4324 58.5756 68.9876 58.6999L71.2745 59.2468C72.3848 59.4954 73.404 59.8268 74.332 60.2411C75.2601 60.6554 76.0638 61.165 76.7433 61.7699C77.4227 62.3748 77.9489 63.0874 78.3217 63.9077C78.7029 64.728 78.8976 65.6684 78.9059 66.729C78.8976 68.2868 78.4999 69.6374 77.7127 70.7809C76.9338 71.9161 75.8069 72.7985 74.332 73.4283C72.8654 74.0497 71.0964 74.3604 69.0249 74.3604C66.9699 74.3604 65.1802 74.0456 63.6555 73.4158C62.1392 72.7861 60.9543 71.8539 60.1009 70.6193C59.2557 69.3764 58.8124 67.8394 58.771 66.0082H63.9787C64.0367 66.8616 64.2811 67.5742 64.712 68.146C65.1512 68.7094 65.7353 69.1361 66.4645 69.4261C67.2019 69.7079 68.0347 69.8487 68.9627 69.8487C69.8742 69.8487 70.6655 69.7161 71.3366 69.451C72.0161 69.1858 72.5423 68.8171 72.9151 68.3448C73.288 67.8725 73.4744 67.3298 73.4744 66.7166C73.4744 66.1449 73.3046 65.6643 72.9648 65.2749C72.6334 64.8854 72.1445 64.554 71.4982 64.2805C70.8602 64.0071 70.0772 63.7585 69.1491 63.5348L66.3775 62.8388C64.2314 62.3168 62.5369 61.5006 61.294 60.3903C60.0511 59.2799 59.4338 57.7843 59.4421 55.9034C59.4338 54.3622 59.844 53.0157 60.6726 51.864C61.5095 50.7122 62.6571 49.8132 64.1154 49.1669C65.5737 48.5206 67.2309 48.1974 69.087 48.1974C70.9762 48.1974 72.6251 48.5206 74.0337 49.1669C75.4506 49.8132 76.5527 50.7122 77.3398 51.864C78.127 53.0157 78.533 54.3498 78.5579 55.8661H73.3999ZM87.7211 62.9631V74H82.4264V48.5455H87.572V58.2773H87.7957C88.2266 57.1504 88.9226 56.268 89.8838 55.63C90.845 54.9837 92.0506 54.6605 93.5006 54.6605C94.8264 54.6605 95.9823 54.9505 96.9683 55.5305C97.9626 56.1023 98.7332 56.9267 99.2801 58.0039C99.8353 59.0728 100.109 60.353 100.1 61.8445V74H94.8057V62.7891C94.814 61.6125 94.5157 60.6969 93.9108 60.0423C93.3142 59.3877 92.4773 59.0604 91.4001 59.0604C90.6792 59.0604 90.0412 59.2137 89.4861 59.5202C88.9392 59.8268 88.5083 60.2743 88.1934 60.8626C87.8869 61.4426 87.7294 62.1428 87.7211 62.9631Z" fill="#F7F6FB"/>
</g>
<path d="M31.3716 94.3671C31.6659 94.051 31.7955 93.6931 31.7604 93.2934C31.7253 92.8936 31.5246 92.4859 31.1584 92.0702C30.9096 91.7878 30.6595 91.5845 30.4082 91.4605C30.1595 91.334 29.9202 91.2799 29.6901 91.298C29.4623 91.3188 29.2605 91.4067 29.0846 91.5617C28.9334 91.6854 28.8325 91.8288 28.7819 91.9916C28.7337 92.1572 28.7225 92.3351 28.7482 92.5254C28.7765 92.7134 28.8306 92.9118 28.9105 93.1207C28.9931 93.3272 29.093 93.5373 29.2103 93.751L29.6824 94.6414C29.917 95.0689 30.0992 95.4905 30.2289 95.9063C30.3585 96.3221 30.4224 96.7249 30.4204 97.1148C30.4183 97.5047 30.3383 97.8757 30.1801 98.228C30.0243 98.583 29.777 98.9121 29.4383 99.2152C28.935 99.6539 28.388 99.9086 27.7973 99.9794C27.2116 100.051 26.6086 99.9382 25.9882 99.6423C25.3729 99.3468 24.7718 98.8659 24.1849 98.1998C23.6027 97.539 23.1969 96.8742 22.9675 96.2055C22.7404 95.5395 22.7045 94.8944 22.8597 94.2702C23.0199 93.6463 23.3886 93.0683 23.9657 92.5361L25.4411 94.2108C25.1831 94.4712 25.0232 94.7517 24.9614 95.0523C24.9047 95.3531 24.9329 95.6619 25.0463 95.9785C25.1646 96.2955 25.3552 96.6032 25.6181 96.9016C25.8764 97.1947 26.1432 97.4116 26.4186 97.5523C26.6963 97.6957 26.964 97.7604 27.2215 97.7465C27.479 97.7326 27.7064 97.6388 27.9035 97.4651C28.0874 97.3031 28.1938 97.1123 28.2228 96.8927C28.2541 96.6758 28.2222 96.4247 28.127 96.1394C28.0342 95.8568 27.8923 95.5346 27.7013 95.1727L27.1399 94.0843C26.6998 93.2463 26.4822 92.4701 26.4871 91.7559C26.492 91.0416 26.7981 90.4194 27.4053 89.8892C27.8985 89.4499 28.4477 89.2003 29.0529 89.1405C29.6603 89.0833 30.2746 89.1976 30.8956 89.4835C31.5166 89.7693 32.09 90.2107 32.6158 90.8075C33.151 91.4151 33.5143 92.0369 33.7055 92.6729C33.8991 93.3117 33.9222 93.9208 33.7749 94.5002C33.6275 95.0796 33.3135 95.5881 32.833 96.0257L31.3716 94.3671Z" fill="white"/>
<path d="M32.4361 106.024L38.3623 96.8648L40.2988 98.1178L37.8536 101.897L41.7847 104.44L44.2298 100.661L46.1618 101.911L40.2356 111.07L38.3036 109.82L40.7517 106.037L36.8206 103.493L34.3726 107.277L32.4361 106.024Z" fill="white"/>
<path d="M53.4238 104.854L49.7564 115.128L47.5842 114.352L51.2516 104.078L53.4238 104.854Z" fill="white"/>
<path d="M57.442 117.304L58.9334 106.498L61.2182 106.813L59.9868 115.736L64.6197 116.375L64.3598 118.259L57.442 117.304Z" fill="white"/>
<path d="M71.7268 118.4L70.6067 107.548L72.901 107.311L73.8258 116.271L78.4779 115.791L78.6732 117.683L71.7268 118.4Z" fill="white"/>
<path d="M84.6736 104.906L87.9867 115.3L85.7892 116.001L82.4761 105.607L84.6736 104.906Z" fill="white"/>
<path d="M97.7223 98.4003L103.331 107.757L101.622 108.781L94.0215 105.332L93.9529 105.373L97.4831 111.263L95.5048 112.448L89.896 103.092L91.6322 102.051L99.1983 105.515L99.2806 105.465L95.7532 99.5806L97.7223 98.4003Z" fill="white"/>
<path d="M109.278 92.28C109.037 92.1605 108.797 92.0835 108.559 92.0492C108.318 92.0125 108.081 92.0197 107.847 92.0707C107.613 92.1167 107.385 92.2064 107.162 92.3398C106.942 92.4706 106.731 92.6462 106.53 92.8666C106.155 93.2786 105.927 93.734 105.847 94.2329C105.769 94.7291 105.847 95.2421 106.08 95.7718C106.31 96.2992 106.706 96.8188 107.268 97.3309C107.829 97.843 108.384 98.1932 108.934 98.3816C109.483 98.5699 110.003 98.6025 110.495 98.4793C110.985 98.3537 111.423 98.0784 111.811 97.6533C112.163 97.2676 112.395 96.8761 112.507 96.4787C112.619 96.0764 112.615 95.6882 112.495 95.3142C112.377 94.9376 112.146 94.5925 111.803 94.279L112.17 93.9793L110.274 96.0575L108.991 94.8874L112.067 91.5143L113.083 92.4404C113.791 93.0864 114.264 93.7911 114.5 94.5545C114.733 95.3154 114.749 96.0839 114.546 96.8599C114.34 97.6336 113.929 98.3589 113.311 99.0358C112.622 99.7915 111.85 100.303 110.995 100.572C110.138 100.837 109.255 100.849 108.346 100.607C107.437 100.36 106.558 99.8484 105.708 99.0731C105.054 98.4773 104.558 97.8516 104.219 97.1961C103.879 96.5356 103.687 95.8707 103.644 95.2016C103.601 94.5324 103.694 93.8846 103.924 93.2581C104.154 92.6317 104.512 92.0521 104.998 91.5195C105.414 91.0629 105.869 90.6989 106.361 90.4273C106.852 90.1534 107.356 89.9743 107.875 89.89C108.396 89.8032 108.912 89.8146 109.423 89.9243C109.93 90.0317 110.409 90.2396 110.858 90.5482L109.278 92.28Z" fill="white"/>
<path d="M14.0125 57.5611L12.1364 57.2502L13.601 48.4112L15.477 48.7221L14.9311 52.017L23.8174 53.4894L23.4447 55.7386L14.5584 54.2662L14.0125 57.5611Z" fill="white"/>
<path d="M27.5028 41.9096L26.2601 44.046L18.7238 35.3056L20.2183 32.7363L31.539 34.9708L30.2962 37.1072L21.6473 35.2376L21.6045 35.3112L27.5028 41.9096ZM23.7186 39.8871L26.654 34.8407L28.2103 35.7459L25.2749 40.7924L23.7186 39.8871Z" fill="white"/>
<path d="M36.2351 15.7056L43.0123 24.2541L41.4512 25.4917L33.4665 23.0598L33.4039 23.1095L37.6694 28.4899L35.862 29.9227L29.0848 21.3742L30.671 20.1167L38.6231 22.5676L38.6983 22.5081L34.436 17.1318L36.2351 15.7056Z" fill="white"/>
<path d="M49.4116 20.7271L48.997 19.4224L51.8718 10.4939L46.6735 12.1459L46.0975 10.3335L54.0575 7.80396L54.4722 9.10863L51.5923 18.0387L56.7957 16.3852L57.3716 18.1975L49.4116 20.7271Z" fill="white"/>
<path d="M66.4726 17.1342L64.0047 16.9985L68.3641 6.31266L71.332 6.47589L74.4878 17.575L72.02 17.4393L69.7537 8.88575L69.6686 8.88107L66.4726 17.1342ZM66.5538 12.8442L72.3831 13.1648L72.2842 14.9625L66.455 14.6419L66.5538 12.8442Z" fill="white"/>
<path d="M93.7821 13.0003L89.2486 22.9227L87.4366 22.0948L85.9731 13.8774L85.9004 13.8441L83.047 20.0893L80.9492 19.1308L85.4827 9.20832L87.3238 10.0495L88.7556 18.2467L88.8428 18.2865L91.6939 12.0462L93.7821 13.0003Z" fill="white"/>
<path d="M104.272 20.6781L97.0357 28.8416L95.3097 27.3116L102.546 19.1482L104.272 20.6781Z" fill="white"/>
<path d="M103.187 35.63L101.897 33.5214L113.169 31.0432L114.719 33.579L107.374 42.4785L106.085 40.3698L111.84 33.648L111.795 33.5753L103.187 35.63ZM106.764 33.2612L109.81 38.2419L108.274 39.1812L105.228 34.2005L106.764 33.2612Z" fill="white"/>
<path d="M122.094 55.7644L111.352 57.6658L111.005 55.7041L116.939 49.8339L116.925 49.7552L110.164 50.952L109.762 48.6808L120.504 46.7794L120.857 48.7725L114.922 54.6051L114.938 54.6995L121.694 53.5037L122.094 55.7644Z" fill="white"/>
<defs>
<filter id="filter0_d_4237_388" x="0" y="0" width="136" height="131.564" filterUnits="userSpaceOnUse" color-interpolation-filters="sRGB">
<feFlood flood-opacity="0" result="BackgroundImageFix"/>
<feColorMatrix in="SourceAlpha" type="matrix" values="0 0 0 0 0 0 0 0 0 0 0 0 0 0 0 0 0 0 127 0" result="hardAlpha"/>
<feOffset dy="4"/>
<feGaussianBlur stdDeviation="2"/>
<feComposite in2="hardAlpha" operator="out"/>
<feColorMatrix type="matrix" values="0 0 0 0 0 0 0 0 0 0 0 0 0 0 0 0 0 0 0.25 0"/>
<feBlend mode="normal" in2="BackgroundImageFix" result="effect1_dropShadow_4237_388"/>
<feBlend mode="normal" in="SourceGraphic" in2="effect1_dropShadow_4237_388" result="shape"/>
</filter>
</defs>
</svg>
