<svg width="136" height="132" viewBox="0 0 136 132" fill="none" xmlns="http://www.w3.org/2000/svg">
<g filter="url(#filter0_d_4303_62)">
<ellipse cx="68" cy="61.7821" rx="64" ry="61.7821" fill="#0F73A5"/>
<ellipse cx="68" cy="61.7821" rx="40" ry="38.6138" fill="#2FC1F4"/>
<path d="M79.5469 54.1051V59.375L55.2855 68.9205V63.8494L79.5469 54.1051ZM79.5469 64.5455V69.8153L55.2855 79.3608V74.2898L79.5469 64.5455ZM46.4858 47.9652V39.0909H88.2969V47.9652H72.7109V90H62.0717V47.9652H46.4858Z" fill="#F7F6FB"/>
</g>
<path d="M46.0898 10.8715L48.2907 10.1818L50.4093 16.9421C50.6472 17.7012 50.6741 18.4222 50.4899 19.1051C50.3091 19.7869 49.945 20.3885 49.3976 20.9099C48.8491 21.4279 48.1446 21.8217 47.2838 22.0915C46.4197 22.3623 45.6147 22.4415 44.8687 22.3292C44.1217 22.2135 43.4793 21.9273 42.9417 21.4706C42.4041 21.0139 42.0164 20.406 41.7785 19.6469L39.6599 12.8866L41.8608 12.1969L43.9205 18.7691C44.0447 19.1656 44.2416 19.4909 44.511 19.7451C44.7839 19.9983 45.1072 20.163 45.4809 20.2394C45.8547 20.3158 46.2534 20.2876 46.6769 20.1549C47.1039 20.0211 47.4473 19.8167 47.7073 19.5417C47.9706 19.2657 48.1403 18.9464 48.2165 18.5839C48.2961 18.2203 48.2737 17.8403 48.1495 17.4438L46.0898 10.8715Z" fill="white"/>
<path d="M63.0418 10.7655C62.9466 10.3443 62.724 10.0356 62.374 9.83923C62.024 9.64291 61.5741 9.57886 61.0244 9.64708C60.6508 9.69344 60.342 9.78544 60.0978 9.92309C59.8533 10.0572 59.6736 10.2244 59.5589 10.4247C59.4477 10.6246 59.4066 10.8408 59.4354 11.0734C59.4524 11.2681 59.514 11.4323 59.62 11.5658C59.7296 11.6989 59.8702 11.8085 60.0419 11.8946C60.2132 11.9771 60.4076 12.0442 60.6251 12.0959C60.8422 12.1441 61.0721 12.18 61.3148 12.2036L62.3163 12.3155C62.8016 12.3626 63.2526 12.4498 63.6692 12.577C64.0857 12.7042 64.4545 12.8785 64.7754 13.0999C65.0963 13.3213 65.3577 13.5966 65.5595 13.9258C65.7649 14.2546 65.8974 14.6443 65.9569 15.095C66.0356 15.7579 65.9377 16.3534 65.6633 16.8812C65.3919 17.4051 64.9592 17.8399 64.3651 18.1856C63.7742 18.5273 63.0382 18.7528 62.1572 18.8622C61.2832 18.9706 60.5053 18.9312 59.8237 18.7438C59.1455 18.556 58.5924 18.2221 58.1642 17.742C57.7392 17.258 57.4695 16.6277 57.3553 15.851L59.5702 15.5762C59.6399 15.9361 59.7814 16.2263 59.9949 16.4467C60.2114 16.6632 60.4824 16.8138 60.8078 16.8987C61.1363 16.9796 61.4979 16.9956 61.8926 16.9466C62.2803 16.8985 62.6098 16.8003 62.8813 16.6521C63.1563 16.5035 63.3606 16.3189 63.4942 16.0984C63.6279 15.8778 63.6785 15.6371 63.6462 15.3763C63.616 15.1332 63.5184 14.9378 63.3534 14.79C63.1918 14.6419 62.9664 14.5267 62.6771 14.4446C62.3913 14.3619 62.0452 14.2975 61.6387 14.2514L60.4231 14.1016C59.4828 13.9929 58.7191 13.7352 58.1319 13.3285C57.5446 12.9219 57.2032 12.3184 57.1074 11.518C57.0225 10.8629 57.1259 10.2686 57.4176 9.73503C57.7127 9.20101 58.1533 8.75808 58.7395 8.40623C59.3256 8.05439 60.0134 7.82948 60.8028 7.73153C61.6063 7.63182 62.3246 7.68223 62.9578 7.88277C63.5946 8.08287 64.1107 8.40707 64.5063 8.85538C64.9019 9.30369 65.145 9.84964 65.2356 10.4932L63.0418 10.7655Z" fill="white"/>
<path d="M76.6819 18.1613L72.8209 17.9419L73.4399 7.05035L77.3328 7.27159C78.4283 7.33385 79.359 7.60549 80.1249 8.08651C80.8909 8.56399 81.4636 9.22076 81.8429 10.0568C82.2258 10.8931 82.385 11.8768 82.3208 13.0077C82.2563 14.1423 81.9864 15.1051 81.511 15.8961C81.0392 16.6874 80.3921 17.2784 79.5696 17.6692C78.7506 18.0601 77.7881 18.2242 76.6819 18.1613ZM75.2358 16.0997L76.6983 16.1828C77.379 16.2215 77.9585 16.1335 78.4366 15.9188C78.9185 15.7008 79.291 15.3431 79.554 14.8459C79.8207 14.3453 79.9772 13.6891 80.0233 12.8772C80.0691 12.0724 79.9877 11.4079 79.7792 10.8839C79.5742 10.3601 79.2463 9.9644 78.7956 9.69692C78.3448 9.42943 77.7791 9.27635 77.0984 9.23766L75.6306 9.15424L75.2358 16.0997Z" fill="white"/>
<path d="M90.2504 10.6081L90.7076 8.76225L99.4043 10.9165L98.947 12.7623L95.7052 11.9593L93.5394 20.7025L91.3265 20.1543L93.4922 11.4111L90.2504 10.6081Z" fill="white"/>
<path d="M52.1986 104.783L54.4423 105.318L52.7998 112.21C52.6154 112.983 52.2692 113.616 51.7612 114.109C51.2568 114.602 50.6359 114.932 49.8988 115.099C49.1624 115.263 48.3555 115.241 47.4781 115.032C46.5972 114.822 45.8652 114.478 45.282 113.999C44.6996 113.517 44.2945 112.942 44.0666 112.275C43.8388 111.607 43.817 110.886 44.0015 110.113L45.644 103.221L47.8876 103.756L46.2908 110.456C46.1945 110.86 46.1969 111.24 46.2982 111.596C46.4029 111.954 46.5962 112.261 46.8781 112.518C47.16 112.775 47.5168 112.955 47.9486 113.058C48.3839 113.161 48.7835 113.162 49.1476 113.059C49.5151 112.956 49.8244 112.769 50.0755 112.497C50.3301 112.225 50.5055 111.887 50.6018 111.483L52.1986 104.783Z" fill="white"/>
<path d="M65.392 109.483C65.3726 109.052 65.2079 108.709 64.898 108.454C64.5881 108.199 64.1565 108.057 63.6033 108.027C63.2275 108.007 62.9072 108.043 62.6427 108.135C62.3783 108.224 62.172 108.357 62.0237 108.534C61.8791 108.711 61.8005 108.917 61.7879 109.151C61.7703 109.345 61.8019 109.518 61.8827 109.668C61.9671 109.818 62.0862 109.951 62.2401 110.066C62.3941 110.177 62.5736 110.278 62.7787 110.367C62.9839 110.453 63.2038 110.528 63.4386 110.594L64.4047 110.881C64.8741 111.013 65.3026 111.178 65.6903 111.377C66.0779 111.576 66.4101 111.812 66.687 112.087C66.9638 112.361 67.1726 112.678 67.3133 113.038C67.4575 113.398 67.5192 113.805 67.4983 114.259C67.4589 114.925 67.2576 115.494 66.8944 115.965C66.5349 116.433 66.0324 116.785 65.3867 117.02C64.7447 117.253 63.9805 117.345 63.094 117.297C62.2146 117.25 61.4559 117.074 60.8179 116.769C60.1835 116.465 59.6979 116.039 59.3611 115.491C59.028 114.939 58.8737 114.271 58.8981 113.487L61.1268 113.607C61.1319 113.973 61.2201 114.284 61.3914 114.538C61.5663 114.79 61.8065 114.986 62.1119 115.127C62.421 115.264 62.7741 115.344 63.1713 115.365C63.5613 115.386 63.903 115.347 64.1964 115.249C64.4932 115.152 64.7269 115.006 64.8973 114.812C65.0678 114.619 65.1601 114.391 65.1742 114.128C65.1873 113.884 65.1257 113.674 64.9893 113.5C64.8564 113.325 64.6548 113.172 64.3845 113.04C64.1178 112.909 63.7884 112.784 63.3964 112.667L62.2263 112.306C61.3199 112.033 60.6135 111.644 60.1072 111.141C59.6008 110.637 59.3711 109.983 59.4179 109.178C59.4499 108.518 59.6564 107.951 60.0375 107.478C60.4222 107.004 60.934 106.646 61.5729 106.403C62.2119 106.16 62.9286 106.059 63.7229 106.102C64.5314 106.146 65.2296 106.322 65.8175 106.631C66.409 106.94 66.8599 107.35 67.1703 107.861C67.4806 108.372 67.6237 108.952 67.5994 109.602L65.392 109.483Z" fill="white"/>
<path d="M78.1527 116.658L74.3164 117.146L72.9401 106.324L76.8081 105.832C77.8967 105.693 78.8613 105.791 79.702 106.124C80.5422 106.454 81.225 106.995 81.7503 107.748C82.2791 108.501 82.615 109.439 82.7579 110.563C82.9013 111.69 82.8114 112.686 82.4882 113.55C82.1685 114.414 81.6399 115.113 80.9023 115.648C80.1683 116.181 79.2518 116.518 78.1527 116.658ZM76.3551 114.894L77.8083 114.709C78.4846 114.623 79.0383 114.431 79.4693 114.133C79.9034 113.831 80.2045 113.411 80.3725 112.874C80.5435 112.334 80.5778 111.66 80.4752 110.853C80.3735 110.053 80.1724 109.415 79.8718 108.938C79.5748 108.46 79.1803 108.131 78.6884 107.95C78.1964 107.769 77.6123 107.722 76.9359 107.808L75.4775 107.993L76.3551 114.894Z" fill="white"/>
<path d="M87.1828 105.992L86.5981 104.182L95.1236 101.427L95.7083 103.237L92.5303 104.264L95.2999 112.835L93.1305 113.536L90.3609 104.965L87.1828 105.992Z" fill="white"/>
<defs>
<filter id="filter0_d_4303_62" x="0" y="0" width="136" height="131.564" filterUnits="userSpaceOnUse" color-interpolation-filters="sRGB">
<feFlood flood-opacity="0" result="BackgroundImageFix"/>
<feColorMatrix in="SourceAlpha" type="matrix" values="0 0 0 0 0 0 0 0 0 0 0 0 0 0 0 0 0 0 127 0" result="hardAlpha"/>
<feOffset dy="4"/>
<feGaussianBlur stdDeviation="2"/>
<feComposite in2="hardAlpha" operator="out"/>
<feColorMatrix type="matrix" values="0 0 0 0 0 0 0 0 0 0 0 0 0 0 0 0 0 0 0.25 0"/>
<feBlend mode="normal" in2="BackgroundImageFix" result="effect1_dropShadow_4303_62"/>
<feBlend mode="normal" in="SourceGraphic" in2="effect1_dropShadow_4303_62" result="shape"/>
</filter>
</defs>
</svg>
