<svg width="136" height="132" viewBox="0 0 136 132" fill="none" xmlns="http://www.w3.org/2000/svg">
<g filter="url(#filter0_d_4241_678)">
<ellipse cx="68" cy="61.7821" rx="64" ry="61.7821" fill="#0F73A5"/>
<ellipse cx="68" cy="61.7821" rx="40" ry="38.6138" fill="#2FC1F4"/>
<path d="M40.4929 79V74.8931L56.8246 51.9776H40.4609V46.2727H65.5178V50.3796L49.1701 73.2951H65.5497V79H40.4929ZM70.8591 79V46.2727H77.7785V60.7028H78.21L89.9873 46.2727H98.281L86.1361 60.9265L98.4248 79H90.1471L81.1823 65.5447L77.7785 69.6996V79H70.8591Z" fill="#F7F6FB"/>
</g>
<path d="M27.5919 41.3957L26.4007 40.7211L22.4363 32.2202L19.7486 36.9666L18.0938 36.0296L22.2094 28.7616L23.4006 29.4362L27.3624 37.9418L30.0527 33.1907L31.7074 34.1277L27.5919 41.3957Z" fill="white"/>
<path d="M37.6682 27.1754L35.7602 28.7465L31.7327 17.9313L34.0272 16.0418L43.8649 22.0726L41.957 23.6437L34.4975 18.8839L34.4317 18.938L37.6682 27.1754ZM34.8231 23.9634L39.3298 20.2523L40.4743 21.6421L35.9676 25.3533L34.8231 23.9634Z" fill="white"/>
<path d="M46.5021 8.29026L49.2287 7.47991L54.1965 13.6498L54.3191 13.6134L55.1107 5.73173L57.8373 4.92138L60.9452 15.3784L58.8007 16.0158L56.7778 9.20951L56.691 9.2353L55.9925 16.7948L54.5322 17.2288L49.8108 11.2523L49.724 11.2781L51.7544 18.1099L49.6099 18.7473L46.5021 8.29026Z" fill="white"/>
<path d="M67.6667 15.0289L68.6351 4.16288L72.9858 4.55062C73.7852 4.62187 74.4413 4.79978 74.9543 5.08437C75.4673 5.36896 75.8395 5.73369 76.0708 6.17857C76.3024 6.6199 76.3939 7.11293 76.3454 7.65765C76.3075 8.0821 76.1894 8.4477 75.9909 8.75445C75.7928 9.05766 75.536 9.2986 75.2206 9.47727C74.909 9.65272 74.5603 9.76602 74.1742 9.81718L74.1648 9.9233C74.577 9.97787 74.9539 10.1291 75.2955 10.377C75.6406 10.6253 75.909 10.954 76.1007 11.3633C76.2927 11.769 76.3649 12.2389 76.3173 12.773C76.2659 13.3496 76.0768 13.8514 75.7499 14.2787C75.4269 14.7027 74.9761 15.0208 74.3974 15.233C73.8188 15.4453 73.1227 15.5152 72.3092 15.4427L67.6667 15.0289ZM70.1314 13.3554L72.0043 13.5224C72.6446 13.5794 73.1223 13.499 73.4377 13.2811C73.7533 13.0597 73.9294 12.7438 73.966 12.3335C73.9928 12.0328 73.9439 11.7611 73.8194 11.5183C73.6949 11.2754 73.504 11.0766 73.2469 10.9218C72.9932 10.7672 72.6825 10.6736 72.3146 10.6408L70.3887 10.4691L70.1314 13.3554ZM70.5272 8.91459L72.2303 9.06638C72.5452 9.09443 72.8295 9.06451 73.0833 8.97661C73.341 8.88549 73.5497 8.74366 73.7095 8.55112C73.8728 8.35889 73.9672 8.11952 73.9927 7.83302C74.0277 7.4404 73.9162 7.11137 73.6582 6.84594C73.4038 6.58083 73.0219 6.42558 72.5125 6.38018L70.767 6.22461L70.5272 8.91459Z" fill="white"/>
<path d="M88.0784 8.20125L84.1674 18.3852L82.0142 17.5583L85.9252 7.37437L88.0784 8.20125Z" fill="white"/>
<path d="M92.3006 22.5906L90.3582 21.0622L100.064 14.8177L102.4 16.6557L98.6091 27.5545L96.6667 26.0261L99.7236 17.7222L99.6566 17.6695L92.3006 22.5906ZM94.8307 19.1252L99.4188 22.7353L98.3055 24.1502L93.7174 20.5401L94.8307 19.1252Z" fill="white"/>
<path d="M117.009 34.9536L107.577 40.4341L106.576 38.7116L110.128 31.1585L110.088 31.0894L104.151 34.5388L102.993 32.5445L112.425 27.064L113.442 28.8142L109.875 36.3324L109.924 36.4153L115.856 32.9685L117.009 34.9536Z" fill="white"/>
<path d="M26.2091 99.838L33.5852 91.8006L35.2846 93.3601L32.0323 96.9039L32.1383 97.0012L38.2829 96.1117L40.3198 97.9809L34.0344 98.8425L32.979 106.051L30.9461 104.185L31.777 98.8602L30.0046 99.1135L27.9085 101.398L26.2091 99.838Z" fill="white"/>
<path d="M41.1685 111.377L42.6785 100.131L44.987 101.141L43.6051 108.809L43.6881 108.845L48.5499 102.698L50.5265 103.562L49.3042 111.318L49.392 111.356L54.0894 105.12L56.3979 106.129L49.1678 114.874L47.1082 113.974L48.0619 106.607L47.9838 106.573L43.2281 112.278L41.1685 111.377Z" fill="white"/>
<path d="M61.0312 117.642L58.5661 117.462L63.1164 106.856L66.0808 107.072L69.0372 118.226L66.5722 118.046L64.4596 109.454L64.3746 109.447L61.0312 117.642ZM61.1893 113.354L67.0119 113.779L66.8808 115.575L61.0582 115.15L61.1893 113.354Z" fill="white"/>
<path d="M84.3295 108.557L82.0582 109.09C81.9477 108.806 81.8017 108.565 81.6202 108.367C81.4379 108.165 81.2274 108.007 80.9887 107.891C80.75 107.776 80.4892 107.706 80.2062 107.681C79.9266 107.656 79.6347 107.679 79.3305 107.75C78.7808 107.879 78.3341 108.128 77.9903 108.497C77.6457 108.863 77.4219 109.331 77.319 109.902C77.2153 110.47 77.2499 111.122 77.4229 111.859C77.6007 112.616 77.8625 113.226 78.2081 113.688C78.5573 114.149 78.9667 114.464 79.4363 114.63C79.906 114.797 80.4087 114.818 80.9446 114.692C81.2453 114.621 81.5143 114.516 81.7514 114.377C81.992 114.236 82.1947 114.066 82.3595 113.867C82.5235 113.665 82.6452 113.437 82.7246 113.185C82.8074 112.932 82.8415 112.658 82.8268 112.362L85.1005 111.839C85.1562 112.34 85.1197 112.845 84.991 113.353C84.8649 113.857 84.6467 114.333 84.3362 114.782C84.0284 115.226 83.6275 115.616 83.1334 115.951C82.642 116.281 82.0558 116.527 81.3748 116.687C80.4275 116.909 79.5302 116.894 78.6828 116.64C77.8388 116.386 77.1054 115.904 76.4824 115.193C75.8629 114.481 75.4176 113.548 75.1464 112.393C74.8744 111.235 74.8608 110.199 75.1055 109.284C75.3503 108.369 75.7961 107.612 76.4429 107.011C77.089 106.407 77.8787 105.995 78.8121 105.776C79.4275 105.632 80.0182 105.584 80.5843 105.634C81.1538 105.682 81.6815 105.825 82.1674 106.061C82.6524 106.293 83.0789 106.618 83.4468 107.035C83.8181 107.451 84.1124 107.958 84.3295 108.557Z" fill="white"/>
<path d="M93.2543 112.598L87.6993 103.21L89.6843 102.035L91.9763 105.909L96.006 103.525L93.714 99.6509L95.6944 98.4791L101.249 107.868L99.269 109.04L96.9743 105.161L92.9447 107.546L95.2394 111.424L93.2543 112.598Z" fill="white"/>
<path d="M108.911 101.387L107.257 103.224L101.669 93.1258L103.658 90.9168L114.282 95.4208L112.628 97.2577L104.545 93.6576L104.488 93.7209L108.911 101.387ZM105.621 98.6326L109.527 94.2937L110.865 95.4984L106.959 99.8372L105.621 98.6326Z" fill="white"/>
<defs>
<filter id="filter0_d_4241_678" x="0" y="0" width="136" height="131.564" filterUnits="userSpaceOnUse" color-interpolation-filters="sRGB">
<feFlood flood-opacity="0" result="BackgroundImageFix"/>
<feColorMatrix in="SourceAlpha" type="matrix" values="0 0 0 0 0 0 0 0 0 0 0 0 0 0 0 0 0 0 127 0" result="hardAlpha"/>
<feOffset dy="4"/>
<feGaussianBlur stdDeviation="2"/>
<feComposite in2="hardAlpha" operator="out"/>
<feColorMatrix type="matrix" values="0 0 0 0 0 0 0 0 0 0 0 0 0 0 0 0 0 0 0.25 0"/>
<feBlend mode="normal" in2="BackgroundImageFix" result="effect1_dropShadow_4241_678"/>
<feBlend mode="normal" in="SourceGraphic" in2="effect1_dropShadow_4241_678" result="shape"/>
</filter>
</defs>
</svg>
