<svg width="31" height="26" viewBox="0 0 31 26" fill="none" xmlns="http://www.w3.org/2000/svg">
<path d="M1.9201 17.9324H3.4201V13.9324C3.42055 13.5347 3.57873 13.1534 3.85994 12.8722C4.14115 12.591 4.52242 12.4328 4.9201 12.4324H14.4201V8.43237H12.4201C12.0224 8.43191 11.6412 8.27373 11.36 7.99252C11.0788 7.71132 10.9206 7.33006 10.9201 6.93237V2.43237C10.9206 2.03469 11.0788 1.65343 11.36 1.37222C11.6412 1.09102 12.0224 0.932836 12.4201 0.932373H18.4201C18.8178 0.932836 19.199 1.09102 19.4803 1.37222C19.7615 1.65343 19.9196 2.03469 19.9201 2.43237V6.93237C19.9196 7.33006 19.7615 7.71132 19.4803 7.99252C19.199 8.27373 18.8178 8.43191 18.4201 8.43237H16.4201V12.4324H25.9201C26.3178 12.4328 26.6991 12.591 26.9803 12.8722C27.2615 13.1534 27.4197 13.5347 27.4201 13.9324V17.9324H28.9201C29.3178 17.9328 29.699 18.091 29.9803 18.3722C30.2615 18.6534 30.4196 19.0347 30.4201 19.4324V23.9324C30.4196 24.3301 30.2615 24.7113 29.9803 24.9925C29.699 25.2737 29.3178 25.4319 28.9201 25.4324H23.9201C23.5224 25.4319 23.1412 25.2737 22.86 24.9925C22.5788 24.7113 22.4206 24.3301 22.4201 23.9324V19.4324C22.4206 19.0347 22.5788 18.6534 22.86 18.3722C23.1412 18.091 23.5224 17.9328 23.9201 17.9324H25.4201V14.4324H16.4201V17.9324H17.9201C18.3178 17.9328 18.699 18.091 18.9803 18.3722C19.2615 18.6534 19.4196 19.0347 19.4201 19.4324V23.9324C19.4196 24.3301 19.2615 24.7113 18.9803 24.9925C18.699 25.2737 18.3178 25.4319 17.9201 25.4324H12.9201C12.5224 25.4319 12.1412 25.2737 11.86 24.9925C11.5788 24.7113 11.4206 24.3301 11.4201 23.9324V19.4324C11.4206 19.0347 11.5788 18.6534 11.86 18.3722C12.1412 18.091 12.5224 17.9328 12.9201 17.9324H14.4201V14.4324H5.4201V17.9324H6.9201C7.31779 17.9328 7.69905 18.091 7.98025 18.3722C8.26146 18.6534 8.41964 19.0347 8.4201 19.4324V23.9324C8.41964 24.3301 8.26146 24.7113 7.98025 24.9925C7.69905 25.2737 7.31779 25.4319 6.9201 25.4324H1.9201C1.52242 25.4319 1.14116 25.2737 0.859957 24.9925C0.578753 24.7113 0.420568 24.3301 0.420105 23.9324V19.4324C0.420568 19.0347 0.578753 18.6534 0.859957 18.3722C1.14116 18.091 1.52242 17.9328 1.9201 17.9324ZM17.9201 2.93237H12.9201V6.43237H17.9201V2.93237ZM24.4201 19.9324V23.4324H28.4201V19.9324H24.4201ZM13.4201 19.9324V23.4324H17.4201V19.9324H13.4201ZM2.4201 23.4324H6.4201V19.9324H2.4201V23.4324Z" fill="#BFBFBF"/>
</svg>
