<svg width="23" height="23" viewBox="0 0 23 23" fill="none" xmlns="http://www.w3.org/2000/svg">
<path d="M1.46162 9.76706C1.22149 9.76706 0.991196 9.67167 0.8214 9.50188C0.651604 9.33208 0.556213 9.10179 0.556213 8.86166V1.62025C0.556213 1.38012 0.651604 1.14983 0.8214 0.98003C0.991196 0.810234 1.22149 0.714844 1.46162 0.714844H8.70484C8.94497 0.714844 9.17526 0.810234 9.34506 0.98003C9.51485 1.14983 9.61024 1.38012 9.61024 1.62025V8.86166C9.61024 9.10179 9.51485 9.33208 9.34506 9.50188C9.17526 9.67167 8.94497 9.76706 8.70484 9.76706H1.46162ZM14.1373 9.76706C13.8971 9.76706 13.6668 9.67167 13.497 9.50188C13.3272 9.33208 13.2319 9.10179 13.2319 8.86166V1.62025C13.2319 1.38012 13.3272 1.14983 13.497 0.98003C13.6668 0.810234 13.8971 0.714844 14.1373 0.714844H21.3787C21.6188 0.714844 21.8491 0.810234 22.0189 0.98003C22.1887 1.14983 22.2841 1.38012 22.2841 1.62025V8.86166C22.2841 9.10179 22.1887 9.33208 22.0189 9.50188C21.8491 9.67167 21.6188 9.76706 21.3787 9.76706H14.1373ZM1.46162 22.4427C1.22149 22.4427 0.991196 22.3473 0.8214 22.1775C0.651604 22.0077 0.556213 21.7774 0.556213 21.5373V14.2941C0.556213 14.0539 0.651604 13.8237 0.8214 13.6539C0.991196 13.4841 1.22149 13.3887 1.46162 13.3887H8.70484C8.94497 13.3887 9.17526 13.4841 9.34506 13.6539C9.51485 13.8237 9.61024 14.0539 9.61024 14.2941V21.5373C9.61024 21.7774 9.51485 22.0077 9.34506 22.1775C9.17526 22.3473 8.94497 22.4427 8.70484 22.4427H1.46162ZM14.1373 22.4427C13.8971 22.4427 13.6668 22.3473 13.497 22.1775C13.3272 22.0077 13.2319 21.7774 13.2319 21.5373V14.2941C13.2319 14.0539 13.3272 13.8237 13.497 13.6539C13.6668 13.4841 13.8971 13.3887 14.1373 13.3887H21.3787C21.6188 13.3887 21.8491 13.4841 22.0189 13.6539C22.1887 13.8237 22.2841 14.0539 22.2841 14.2941V21.5373C22.2841 21.7774 22.1887 22.0077 22.0189 22.1775C21.8491 22.3473 21.6188 22.4427 21.3787 22.4427H14.1373Z" fill="#BFBFBF"/>
</svg>
