<svg width="139" height="148" viewBox="0 0 139 148" fill="none" xmlns="http://www.w3.org/2000/svg">
<g filter="url(#filter0_d_4508_67)">
<ellipse cx="68" cy="77.7821" rx="64" ry="61.7821" fill="#0F73A5"/>
<ellipse cx="68" cy="77.7822" rx="40" ry="38.6138" fill="#2FC1F4"/>
<path d="M41.657 89H36.7138L44.2457 67.1818H50.1903L57.7116 89H52.7685L47.3033 72.1676H47.1328L41.657 89ZM41.348 80.424H53.0241V84.0249H41.348V80.424ZM60.3377 89V67.1818H68.9457C70.5934 67.1818 71.9996 67.4766 73.1644 68.0661C74.3363 68.6484 75.2276 69.4759 75.8384 70.5483C76.4563 71.6136 76.7653 72.8672 76.7653 74.3089C76.7653 75.7578 76.4528 77.0043 75.8278 78.0483C75.2028 79.0852 74.2972 79.8807 73.1112 80.4347C71.9322 80.9886 70.5046 81.2656 68.8285 81.2656H63.065V77.5582H68.0827C68.9634 77.5582 69.695 77.4375 70.2773 77.196C70.8597 76.9545 71.293 76.5923 71.5771 76.1094C71.8683 75.6264 72.0138 75.0263 72.0138 74.3089C72.0138 73.5845 71.8683 72.9737 71.5771 72.4766C71.293 71.9794 70.8562 71.603 70.2667 71.3473C69.6843 71.0845 68.9492 70.9531 68.0614 70.9531H64.9506V89H60.3377ZM72.1204 79.071L77.543 89H72.4506L67.1452 79.071H72.1204ZM87.2269 91.7273V64.4545H88.9741V91.7273H87.2269ZM91.8612 73.4567C91.7759 72.5973 91.4102 71.9297 90.7638 71.4538C90.1175 70.978 89.2404 70.7401 88.1325 70.7401C87.3796 70.7401 86.744 70.8466 86.2255 71.0597C85.707 71.2656 85.3093 71.5533 85.0323 71.9226C84.7624 72.2919 84.6275 72.7109 84.6275 73.1797C84.6133 73.5703 84.695 73.9112 84.8725 74.2024C85.0572 74.4936 85.3093 74.7457 85.6289 74.9588C85.9485 75.1648 86.3178 75.3459 86.7369 75.5021C87.1559 75.6513 87.6033 75.7791 88.0792 75.8857L90.0394 76.3544C90.9911 76.5675 91.8647 76.8516 92.6602 77.2067C93.4556 77.5618 94.1445 77.9986 94.7269 78.517C95.3093 79.0355 95.7603 79.6463 96.0799 80.3494C96.4066 81.0526 96.5735 81.8587 96.5806 82.7678C96.5735 84.103 96.2326 85.2607 95.5579 86.2408C94.8903 87.2138 93.9244 87.9702 92.6602 88.5099C91.4031 89.0426 89.8867 89.3089 88.1112 89.3089C86.3498 89.3089 84.8157 89.0391 83.5089 88.4993C82.2092 87.9595 81.1935 87.1605 80.462 86.1023C79.7376 85.0369 79.3576 83.7195 79.3221 82.1499H83.7859C83.8356 82.8814 84.0451 83.4922 84.4144 83.9822C84.7908 84.4652 85.2915 84.831 85.9165 85.0795C86.5487 85.321 87.2624 85.4418 88.0579 85.4418C88.8391 85.4418 89.5174 85.3281 90.0927 85.1009C90.6751 84.8736 91.1261 84.5575 91.4457 84.1527C91.7653 83.7479 91.9251 83.2827 91.9251 82.7571C91.9251 82.267 91.7795 81.8551 91.4883 81.5213C91.2042 81.1875 90.7852 80.9034 90.2312 80.669C89.6843 80.4347 89.0131 80.2216 88.2177 80.0298L85.842 79.4332C84.0025 78.9858 82.5501 78.2862 81.4847 77.3345C80.4194 76.3828 79.8903 75.1009 79.8974 73.4886C79.8903 72.1676 80.2418 71.0135 80.9521 70.0263C81.6694 69.0391 82.6531 68.2685 83.9031 67.7145C85.1531 67.1605 86.5735 66.8835 88.1644 66.8835C89.7837 66.8835 91.1971 67.1605 92.4045 67.7145C93.619 68.2685 94.5636 69.0391 95.2383 70.0263C95.913 71.0135 96.261 72.157 96.2823 73.4567H91.8612Z" fill="#F7F6FB"/>
</g>
<path d="M48.9482 132V121.091H53.2521C54.0795 121.091 54.7844 121.249 55.3668 121.565C55.9492 121.877 56.3931 122.312 56.6985 122.87C57.0075 123.424 57.1619 124.063 57.1619 124.788C57.1619 125.512 57.0057 126.151 56.6932 126.705C56.3807 127.259 55.9279 127.691 55.3349 128C54.7454 128.309 54.0316 128.463 53.1935 128.463H50.4503V126.615H52.8207C53.2646 126.615 53.6303 126.538 53.918 126.386C54.2092 126.229 54.4258 126.015 54.5678 125.741C54.7134 125.464 54.7862 125.146 54.7862 124.788C54.7862 124.425 54.7134 124.109 54.5678 123.839C54.4258 123.566 54.2092 123.355 53.918 123.206C53.6268 123.053 53.2575 122.977 52.81 122.977H51.2546V132H48.9482ZM58.6601 132V121.091H66.0109V122.993H60.9665V125.592H65.6327V127.494H60.9665V130.098H66.0322V132H58.6601ZM73.7626 124.228C73.72 123.799 73.5371 123.465 73.214 123.227C72.8908 122.989 72.4522 122.87 71.8983 122.87C71.5218 122.87 71.204 122.923 70.9448 123.03C70.6855 123.133 70.4867 123.277 70.3482 123.461C70.2132 123.646 70.1458 123.855 70.1458 124.09C70.1387 124.285 70.1795 124.456 70.2683 124.601C70.3606 124.747 70.4867 124.873 70.6465 124.979C70.8063 125.082 70.9909 125.173 71.2005 125.251C71.41 125.326 71.6337 125.39 71.8716 125.443L72.8517 125.677C73.3276 125.784 73.7644 125.926 74.1621 126.103C74.5598 126.281 74.9043 126.499 75.1955 126.759C75.4867 127.018 75.7122 127.323 75.872 127.675C76.0353 128.026 76.1188 128.429 76.1223 128.884C76.1188 129.551 75.9483 130.13 75.611 130.62C75.2772 131.107 74.7942 131.485 74.1621 131.755C73.5336 132.021 72.7754 132.154 71.8876 132.154C71.0069 132.154 70.2399 132.02 69.5865 131.75C68.9366 131.48 68.4288 131.08 68.063 130.551C67.7008 130.018 67.5108 129.36 67.4931 128.575H69.725C69.7498 128.941 69.8546 129.246 70.0392 129.491C70.2275 129.733 70.4778 129.915 70.7903 130.04C71.1064 130.161 71.4632 130.221 71.861 130.221C72.2516 130.221 72.5907 130.164 72.8784 130.05C73.1696 129.937 73.3951 129.779 73.5549 129.576C73.7147 129.374 73.7946 129.141 73.7946 128.879C73.7946 128.634 73.7218 128.428 73.5762 128.261C73.4341 128.094 73.2246 127.952 72.9476 127.835C72.6742 127.717 72.3386 127.611 71.9409 127.515L70.753 127.217C69.8333 126.993 69.1071 126.643 68.5744 126.167C68.0417 125.691 67.7772 125.05 67.7807 124.244C67.7772 123.584 67.9529 123.007 68.3081 122.513C68.6667 122.02 69.1586 121.634 69.7836 121.357C70.4086 121.08 71.1188 120.942 71.9142 120.942C72.7239 120.942 73.4306 121.08 74.0343 121.357C74.6415 121.634 75.1138 122.02 75.4512 122.513C75.7885 123.007 75.9625 123.578 75.9732 124.228H73.7626ZM87.6986 126.545C87.6986 127.735 87.4731 128.747 87.0221 129.582C86.5747 130.416 85.9639 131.054 85.1897 131.494C84.4191 131.931 83.5526 132.149 82.5903 132.149C81.6208 132.149 80.7508 131.929 79.9802 131.489C79.2096 131.048 78.6006 130.411 78.1531 129.576C77.7057 128.742 77.482 127.732 77.482 126.545C77.482 125.356 77.7057 124.344 78.1531 123.509C78.6006 122.675 79.2096 122.039 79.9802 121.602C80.7508 121.162 81.6208 120.942 82.5903 120.942C83.5526 120.942 84.4191 121.162 85.1897 121.602C85.9639 122.039 86.5747 122.675 87.0221 123.509C87.4731 124.344 87.6986 125.356 87.6986 126.545ZM85.3602 126.545C85.3602 125.775 85.2448 125.125 85.0139 124.596C84.7867 124.067 84.4653 123.665 84.0498 123.392C83.6343 123.119 83.1478 122.982 82.5903 122.982C82.0328 122.982 81.5463 123.119 81.1308 123.392C80.7153 123.665 80.3921 124.067 80.1613 124.596C79.934 125.125 79.8204 125.775 79.8204 126.545C79.8204 127.316 79.934 127.966 80.1613 128.495C80.3921 129.024 80.7153 129.425 81.1308 129.699C81.5463 129.972 82.0328 130.109 82.5903 130.109C83.1478 130.109 83.6343 129.972 84.0498 129.699C84.4653 129.425 84.7867 129.024 85.0139 128.495C85.2448 127.966 85.3602 127.316 85.3602 126.545Z" fill="white"/>
<path d="M25.3968 64.4163L24.6078 66.7586L15.4716 59.7073L16.4204 56.8905L27.9592 56.8089L27.1703 59.1512L18.3221 59.0543L18.2949 59.135L25.3968 64.4163ZM21.2838 63.1939L23.1474 57.6613L24.8536 58.236L22.99 63.7686L21.2838 63.1939Z" fill="white"/>
<path d="M31.8253 51.9206L23.3765 45.0195L26.0991 41.6862C26.6203 41.0481 27.1793 40.5968 27.7759 40.3322C28.3721 40.0626 28.9745 39.9791 29.583 40.0818C30.1909 40.1795 30.7741 40.4564 31.3324 40.9124C31.8935 41.3707 32.2773 41.8859 32.4839 42.4582C32.6877 43.0282 32.7094 43.6305 32.5487 44.265C32.3903 44.8967 32.0461 45.5372 31.5159 46.1862L29.6929 48.4181L28.2573 47.2454L29.8444 45.3024C30.1229 44.9613 30.3076 44.6399 30.3983 44.338C30.489 44.0361 30.4857 43.7537 30.3886 43.491C30.2936 43.2254 30.1073 42.9792 29.8295 42.7523C29.549 42.5232 29.2664 42.3864 28.9818 42.3419C28.6994 42.2947 28.4155 42.3447 28.13 42.4921C27.8441 42.6345 27.5607 42.8776 27.2799 43.2214L26.2959 44.4261L33.2844 50.1343L31.8253 51.9206ZM31.7073 44.2173L37.2673 45.258L35.6566 47.23L30.1337 46.1439L31.7073 44.2173Z" fill="white"/>
<path d="M44.9729 30.6712C44.7762 30.4866 44.569 30.3434 44.3513 30.2416C44.1318 30.1368 43.9027 30.0748 43.664 30.0558C43.4266 30.0318 43.182 30.0514 42.9302 30.1146C42.6816 30.1759 42.4291 30.2828 42.1728 30.4355C41.6938 30.7207 41.3436 31.0905 41.1222 31.5447C40.904 31.9971 40.8295 32.5106 40.8989 33.0851C40.9664 33.6566 41.1946 34.2688 41.5835 34.9217C41.9723 35.5746 42.4022 36.0709 42.8731 36.4104C43.3439 36.7499 43.8327 36.9321 44.3393 36.9569C44.8441 36.9787 45.3437 36.8424 45.8379 36.548C46.2864 36.2809 46.6221 35.9735 46.8449 35.6259C47.069 35.2734 47.1777 34.9007 47.171 34.5079C47.1675 34.1132 47.0467 33.7161 46.8086 33.3164L47.2468 33.136L44.8304 34.5751L43.9418 33.0832L47.8639 30.7474L48.5671 31.9281C49.0578 32.7519 49.3054 33.5633 49.3101 34.3624C49.313 35.1583 49.1047 35.8982 48.6853 36.582C48.264 37.2627 47.6598 37.8375 46.8727 38.3063C45.994 38.8296 45.1067 39.0956 44.2108 39.1042C43.3131 39.1098 42.4646 38.8649 41.6654 38.3696C40.8674 37.8694 40.174 37.1251 39.5853 36.1365C39.1328 35.3768 38.8393 34.6341 38.7046 33.9083C38.5712 33.1776 38.5808 32.4858 38.7333 31.8329C38.8859 31.1799 39.1631 30.587 39.565 30.0542C39.9669 29.5214 40.4775 29.0706 41.0968 28.7017C41.6277 28.3856 42.1683 28.169 42.7187 28.052C43.2672 27.932 43.802 27.907 44.3231 27.9769C44.8472 28.045 45.3375 28.2056 45.7941 28.4586C46.2488 28.7086 46.6463 29.0463 46.9866 29.4719L44.9729 30.6712Z" fill="white"/>
<path d="M56.5332 34.199L54.3697 23.5066L61.5745 22.0488L61.9517 23.9126L57.0075 24.913L57.523 27.4608L62.0965 26.5354L62.4736 28.3993L57.9001 29.3247L58.4167 31.8777L63.3818 30.8731L63.7589 32.737L56.5332 34.199Z" fill="white"/>
<path d="M80.579 22.9495L78.9584 33.7376L76.9883 33.4416L73.3149 25.9466L73.2359 25.9347L72.2159 32.7247L69.935 32.382L71.5556 21.594L73.5573 21.8947L77.1947 29.3789L77.2895 29.3931L78.3087 22.6085L80.579 22.9495Z" fill="white"/>
<path d="M88.5099 27.7259L89.3226 26.0067L97.4226 29.8359L96.6099 31.5551L93.5905 30.1277L89.7407 38.2711L87.6796 37.2967L91.5293 29.1533L88.5099 27.7259Z" fill="white"/>
<path d="M107.015 35.993L99.7982 44.1739L98.0685 42.6481L105.285 34.4672L107.015 35.993Z" fill="white"/>
<path d="M117.6 53.8116L108.023 59.0339L107.069 57.2848L110.825 49.831L110.787 49.7608L104.759 53.0477L103.654 51.0227L113.232 45.8004L114.201 47.5775L110.432 54.9961L110.478 55.0803L116.501 51.7959L117.6 53.8116Z" fill="white"/>
<path d="M111.472 66.3485L121.709 62.5786L124.25 69.4766L122.465 70.1337L120.722 65.4001L118.283 66.2984L119.895 70.6771L118.111 71.3343L116.498 66.9556L114.054 67.8557L115.805 72.6093L114.02 73.2665L111.472 66.3485Z" fill="white"/>
<defs>
<filter id="filter0_d_4508_67" x="0" y="16" width="136" height="131.564" filterUnits="userSpaceOnUse" color-interpolation-filters="sRGB">
<feFlood flood-opacity="0" result="BackgroundImageFix"/>
<feColorMatrix in="SourceAlpha" type="matrix" values="0 0 0 0 0 0 0 0 0 0 0 0 0 0 0 0 0 0 127 0" result="hardAlpha"/>
<feOffset dy="4"/>
<feGaussianBlur stdDeviation="2"/>
<feComposite in2="hardAlpha" operator="out"/>
<feColorMatrix type="matrix" values="0 0 0 0 0 0 0 0 0 0 0 0 0 0 0 0 0 0 0.25 0"/>
<feBlend mode="normal" in2="BackgroundImageFix" result="effect1_dropShadow_4508_67"/>
<feBlend mode="normal" in="SourceGraphic" in2="effect1_dropShadow_4508_67" result="shape"/>
</filter>
</defs>
</svg>
