<svg width="136" height="136" viewBox="0 0 136 136" fill="none" xmlns="http://www.w3.org/2000/svg">
<g filter="url(#filter0_d_4143_200)">
<circle cx="68" cy="64" r="64" fill="#0F73A5"/>
<circle cx="68" cy="64" r="40" fill="#2FC1F4"/>
<path d="M62.2955 82.6214C59.3954 82.6214 56.7687 81.8757 54.4155 80.3842C52.0788 78.8762 50.2228 76.6638 48.8473 73.7472C47.4884 70.8139 46.8089 67.2178 46.8089 62.9588C46.8089 58.5838 47.5133 54.9463 48.9219 52.0462C50.3305 49.1295 52.2031 46.9503 54.5398 45.5085C56.893 44.0502 59.4699 43.321 62.2706 43.321C64.4084 43.321 66.1899 43.6856 67.6151 44.4148C69.0568 45.1274 70.2169 46.0223 71.0952 47.0994C71.9901 48.16 72.6695 49.2041 73.1335 50.2315H73.4567V31.0909H84.0213V82H73.581V75.8849H73.1335C72.6364 76.9455 71.9321 77.9979 71.0206 79.0419C70.1257 80.0694 68.9574 80.9228 67.5156 81.6023C66.0904 82.2817 64.3504 82.6214 62.2955 82.6214ZM65.6513 74.1946C67.3582 74.1946 68.8 73.7306 69.9766 72.8026C71.1697 71.858 72.0812 70.5405 72.7109 68.8501C73.3572 67.1598 73.6804 65.1794 73.6804 62.9091C73.6804 60.6387 73.3655 58.6667 72.7358 56.9929C72.1061 55.3191 71.1946 54.0265 70.0014 53.1151C68.8082 52.2036 67.3582 51.7479 65.6513 51.7479C63.9112 51.7479 62.4446 52.2202 61.2514 53.1648C60.0582 54.1094 59.1551 55.4186 58.5419 57.0923C57.9287 58.7661 57.6222 60.705 57.6222 62.9091C57.6222 65.1297 57.9287 67.0935 58.5419 68.8004C59.1716 70.4908 60.0748 71.8165 61.2514 72.7777C62.4446 73.7223 63.9112 74.1946 65.6513 74.1946ZM63.5632 41.2081V34.9688H88.3715V41.2081H63.5632ZM82.679 86.723V94.7521H49.245V86.723H82.679Z" fill="white"/>
<path d="M14.1114 63.0496L22.4181 60.4713L22.4188 60.3701L14.1493 57.6698L14.1673 55.113L25.0496 58.9504L25.0287 61.9227L14.0933 65.6117L14.1114 63.0496Z" fill="white"/>
<path d="M16.9474 43.1305L27.3339 46.4667L26.6285 48.6626L16.2421 45.3265L16.9474 43.1305Z" fill="white"/>
<path d="M30.1058 39.6898L21.0534 33.6018L25.1557 27.5021L26.7336 28.5633L23.9186 32.7492L26.0756 34.1998L28.6796 30.3278L30.2576 31.389L27.6535 35.261L29.815 36.7146L32.6419 32.5111L34.2199 33.5723L30.1058 39.6898Z" fill="white"/>
<path d="M33.4054 21.216L32.2851 19.6794L39.5246 14.401L40.645 15.9376L37.9463 17.9052L43.253 25.1835L41.4108 26.5266L36.1041 19.2484L33.4054 21.216Z" fill="white"/>
<path d="M58.2173 7.14931L61.0087 17.6952L59.0828 18.205L52.7378 12.7818L52.6606 12.8023L54.4175 19.4398L52.1878 20.03L49.3964 9.48406L51.3532 8.96613L57.6607 14.3937L57.7534 14.3691L55.9979 7.73675L58.2173 7.14931Z" fill="white"/>
<path d="M70.2511 17.2421L67.7984 16.937L72.8822 6.57618L75.8318 6.94306L78.2171 18.2329L75.7644 17.9278L74.0915 9.23871L74.007 9.22819L70.2511 17.2421ZM70.6271 12.9678L76.4205 13.6884L76.1983 15.4751L70.4049 14.7545L70.6271 12.9678Z" fill="white"/>
<path d="M90.0768 10.7105L92.5328 12.1454L91.4294 19.9895L91.5398 20.054L97.8312 15.2409L100.287 16.6758L94.7841 26.0951L92.8524 24.9665L96.4343 18.8357L96.3561 18.79L90.3635 23.4507L89.0481 22.6822L90.1789 15.1502L90.1007 15.1045L86.5054 21.2584L84.5737 20.1298L90.0768 10.7105Z" fill="white"/>
<path d="M99.6193 30.771L108.24 24.0864L112.745 29.8956L111.242 31.0608L108.151 27.0744L106.097 28.6672L108.956 32.3547L107.453 33.52L104.594 29.8324L102.535 31.4285L105.639 35.4318L104.137 36.597L99.6193 30.771Z" fill="white"/>
<path d="M116.88 46.0354C117.274 45.8589 117.532 45.5798 117.656 45.198C117.779 44.8161 117.753 44.3624 117.578 43.8369C117.459 43.4799 117.308 43.1952 117.125 42.9831C116.945 42.7697 116.745 42.6266 116.526 42.5537C116.309 42.4841 116.088 42.4865 115.866 42.5606C115.679 42.6157 115.53 42.7084 115.42 42.8387C115.311 42.9724 115.231 43.1318 115.181 43.3172C115.134 43.5013 115.106 43.7052 115.098 43.9286C115.094 44.151 115.104 44.3834 115.129 44.626L115.217 45.6299C115.266 46.115 115.27 46.5743 115.227 47.0078C115.185 47.4413 115.087 47.8371 114.933 48.1954C114.779 48.5537 114.561 48.8642 114.278 49.1271C113.996 49.3933 113.64 49.6001 113.21 49.7473C112.576 49.9552 111.973 49.9767 111.401 49.8118C110.834 49.6492 110.322 49.3107 109.866 48.7966C109.415 48.2846 109.048 47.6076 108.767 46.7654C108.489 45.93 108.374 45.1597 108.423 44.4545C108.473 43.7526 108.692 43.1445 109.078 42.63C109.468 42.1178 110.033 41.7291 110.772 41.4639L111.478 43.581C111.139 43.7204 110.883 43.9164 110.709 44.1691C110.539 44.4241 110.445 44.7195 110.426 45.0552C110.412 45.3932 110.467 45.7509 110.593 46.1282C110.717 46.4987 110.878 46.8024 111.077 47.0393C111.277 47.2796 111.498 47.4435 111.741 47.531C111.983 47.6185 112.229 47.6207 112.479 47.5375C112.711 47.46 112.883 47.3257 112.996 47.1348C113.109 46.9472 113.177 46.7035 113.201 46.4037C113.225 46.1072 113.22 45.7551 113.185 45.3475L113.092 44.1263C113.013 43.183 113.115 42.3835 113.398 41.7276C113.681 41.0717 114.205 40.6178 114.971 40.3661C115.597 40.1536 116.2 40.1377 116.78 40.3184C117.362 40.5024 117.883 40.8469 118.344 41.3521C118.804 41.8573 119.16 42.4872 119.412 43.2418C119.668 44.0098 119.761 44.724 119.689 45.3843C119.618 46.048 119.402 46.618 119.041 47.0942C118.68 47.5705 118.192 47.9165 117.579 48.1323L116.88 46.0354Z" fill="white"/>
<path d="M111.187 56.9627L122.095 57.1312L121.981 64.4812L120.08 64.4518L120.158 59.408L117.559 59.3679L117.487 64.0335L115.585 64.0041L115.657 59.3385L113.053 59.2982L112.975 64.3633L111.073 64.3339L111.187 56.9627Z" fill="white"/>
<path d="M44.2832 117.445L40.6263 116.187L44.1745 105.871L47.8616 107.139C48.8993 107.496 49.7215 108.01 50.3282 108.681C50.9362 109.348 51.3094 110.135 51.4478 111.043C51.5897 111.952 51.4764 112.942 51.1079 114.013C50.7383 115.087 50.2175 115.941 49.5455 116.574C48.8769 117.207 48.0938 117.601 47.1962 117.754C46.3019 117.908 45.3309 117.805 44.2832 117.445ZM43.4501 115.068L44.8353 115.545C45.48 115.767 46.0616 115.839 46.5801 115.762C47.103 115.683 47.5585 115.439 47.9464 115.032C48.3389 114.623 48.6674 114.033 48.9319 113.264C49.1941 112.502 49.2958 111.84 49.2372 111.28C49.1819 110.72 48.9735 110.25 48.6122 109.87C48.2508 109.491 47.7477 109.19 47.103 108.968L45.7128 108.49L43.4501 115.068Z" fill="white"/>
<path d="M67.5157 117.129C67.3503 118.307 66.9863 119.278 66.4237 120.042C65.8646 120.806 65.1711 121.352 64.3432 121.681C63.5194 122.006 62.631 122.102 61.6779 121.968C60.7179 121.833 59.8869 121.494 59.185 120.951C58.4832 120.408 57.9687 119.692 57.6416 118.803C57.3145 117.915 57.2334 116.883 57.3983 115.708C57.5637 114.53 57.926 113.559 58.4851 112.795C59.0443 112.031 59.7357 111.486 60.5596 111.161C61.3839 110.832 62.2761 110.735 63.2361 110.869C64.1892 111.003 65.0166 111.342 65.7185 111.885C66.4244 112.425 66.9409 113.14 67.268 114.028C67.5985 114.917 67.6811 115.951 67.5157 117.129ZM65.2 116.804C65.3072 116.041 65.2832 115.381 65.1282 114.825C64.9767 114.269 64.7142 113.827 64.3408 113.499C63.9674 113.17 63.5046 112.967 62.9525 112.89C62.4004 112.812 61.8996 112.88 61.4501 113.093C61.0007 113.306 60.6249 113.658 60.3227 114.15C60.0241 114.643 59.8212 115.27 59.7141 116.034C59.6069 116.797 59.6291 117.456 59.7806 118.012C59.9356 118.568 60.1998 119.01 60.5733 119.339C60.9467 119.667 61.4095 119.87 61.9616 119.948C62.5137 120.025 63.0145 119.957 63.464 119.744C63.9134 119.531 64.2875 119.179 64.5861 118.686C64.8882 118.194 65.0929 117.567 65.2 116.804Z" fill="white"/>
<path d="M80.6597 109.361L83.6347 119.857L81.718 120.4L75.2794 115.089L75.2025 115.11L77.075 121.716L74.8559 122.345L71.8809 111.85L73.8283 111.298L80.2297 116.614L80.3219 116.588L78.4509 109.987L80.6597 109.361Z" fill="white"/>
<path d="M93.1027 108.481C92.9305 108.273 92.7427 108.106 92.5394 107.978C92.3346 107.846 92.115 107.756 91.8806 107.708C91.6479 107.654 91.4028 107.643 91.1452 107.675C90.8908 107.705 90.627 107.779 90.3537 107.899C89.8429 108.122 89.4495 108.446 89.1733 108.869C88.9004 109.29 88.7627 109.791 88.76 110.369C88.756 110.945 88.9062 111.581 89.2108 112.277C89.5154 112.973 89.8802 113.519 90.3052 113.914C90.7302 114.31 91.1925 114.552 91.6921 114.639C92.1902 114.724 92.7028 114.65 93.2299 114.42C93.7082 114.211 94.0794 113.947 94.3438 113.63C94.61 113.308 94.7642 112.952 94.8065 112.561C94.852 112.169 94.7816 111.76 94.5951 111.334L95.0523 111.21L92.4756 112.337L91.7796 110.746L95.9618 108.916L96.5127 110.175C96.897 111.054 97.0418 111.89 96.947 112.683C96.8508 113.473 96.5521 114.182 96.0509 114.808C95.5483 115.431 94.8772 115.926 94.0379 116.293C93.1009 116.703 92.1874 116.857 91.2974 116.754C90.4059 116.648 89.5945 116.299 88.8631 115.708C88.1336 115.113 87.5382 114.288 87.077 113.234C86.7226 112.424 86.5237 111.65 86.4804 110.913C86.4389 110.172 86.5345 109.486 86.7671 108.857C86.9997 108.229 87.3486 107.675 87.8136 107.196C88.2786 106.717 88.8414 106.334 89.5018 106.045C90.0679 105.797 90.6313 105.649 91.1919 105.602C91.751 105.551 92.2848 105.593 92.7931 105.727C93.3047 105.86 93.7713 106.08 94.1928 106.388C94.6129 106.692 94.9653 107.077 95.25 107.542L93.1027 108.481Z" fill="white"/>
</g>
<defs>
<filter id="filter0_d_4143_200" x="0" y="0" width="136" height="136" filterUnits="userSpaceOnUse" color-interpolation-filters="sRGB">
<feFlood flood-opacity="0" result="BackgroundImageFix"/>
<feColorMatrix in="SourceAlpha" type="matrix" values="0 0 0 0 0 0 0 0 0 0 0 0 0 0 0 0 0 0 127 0" result="hardAlpha"/>
<feOffset dy="4"/>
<feGaussianBlur stdDeviation="2"/>
<feComposite in2="hardAlpha" operator="out"/>
<feColorMatrix type="matrix" values="0 0 0 0 0 0 0 0 0 0 0 0 0 0 0 0 0 0 0.25 0"/>
<feBlend mode="normal" in2="BackgroundImageFix" result="effect1_dropShadow_4143_200"/>
<feBlend mode="normal" in="SourceGraphic" in2="effect1_dropShadow_4143_200" result="shape"/>
</filter>
</defs>
</svg>
