<svg width="136" height="134" viewBox="0 0 136 134" fill="none" xmlns="http://www.w3.org/2000/svg">
<g filter="url(#filter0_d_4145_685)">
<ellipse cx="68" cy="62.6052" rx="64" ry="62.6052" fill="#0F73A5"/>
<ellipse cx="68" cy="62.6052" rx="40" ry="39.1282" fill="#2FC1F4"/>
<path d="M77.7344 54.6941L75.2734 60.138H42.0384L44.0518 54.6941H77.7344ZM72.9865 65.1096L70.277 70.6777H42.0384L44.0518 65.1096H72.9865ZM84.1974 41.0968L80.2202 49.5982C79.5573 49.1342 78.7536 48.6287 77.809 48.0819C76.8809 47.5184 75.812 47.0461 74.6023 46.665C73.4091 46.2672 72.0833 46.0684 70.625 46.0684C68.3215 46.0684 66.3163 46.6484 64.6094 47.8084C62.9025 48.9685 61.5767 50.7748 60.6321 53.2275C59.7041 55.6801 59.2401 58.8288 59.2401 62.6735C59.2401 66.5513 59.7041 69.7083 60.6321 72.1444C61.5767 74.5639 62.9025 76.3454 64.6094 77.4888C66.3163 78.6157 68.3215 79.1792 70.625 79.1792C72.0833 79.1792 73.4091 78.9886 74.6023 78.6074C75.7955 78.2263 76.8395 77.7705 77.7344 77.2402C78.6458 76.7099 79.4081 76.2211 80.0213 75.7736L84.0483 84.275C82.242 85.7665 80.1953 86.8934 77.9084 87.6557C75.6214 88.4015 73.1937 88.7743 70.625 88.7743C66.2831 88.7743 62.4384 87.7469 59.0909 85.6919C55.7599 83.6204 53.1499 80.6458 51.2607 76.7679C49.3714 72.8735 48.4268 68.1754 48.4268 62.6735C48.4268 57.1882 49.3714 52.49 51.2607 48.579C53.1499 44.668 55.7599 41.6768 59.0909 39.6053C62.4384 37.5172 66.2831 36.4732 70.625 36.4732C73.2931 36.4732 75.7623 36.8709 78.0327 37.6664C80.303 38.4618 82.358 39.6053 84.1974 41.0968Z" fill="white"/>
<path d="M42.3895 26.6757L35.6602 18.0878L41.4283 13.5325L42.6014 15.0295L38.6431 18.1555L40.2465 20.2018L43.9081 17.3102L45.0811 18.8073L41.4196 21.6989L43.0263 23.7494L47.0013 20.6102L48.1744 22.1072L42.3895 26.6757Z" fill="white"/>
<path d="M58.7202 6.68538L60.9726 6.18932L62.4851 13.1109C62.655 13.8881 62.618 14.6089 62.3744 15.2735C62.1341 15.9374 61.7185 16.5053 61.1274 16.9773C60.5356 17.4458 59.7992 17.7771 58.9184 17.9711C58.0341 18.1658 57.2255 18.1748 56.4927 17.9981C55.759 17.8178 55.1447 17.4767 54.6498 16.9748C54.1548 16.4729 53.8224 15.8334 53.6526 15.0562L52.14 8.13462L54.3924 7.63856L55.8629 14.3676C55.9516 14.7735 56.1188 15.1149 56.3647 15.3916C56.614 15.6676 56.9214 15.8599 57.2868 15.9686C57.6522 16.0772 58.0516 16.0838 58.4851 15.9883C58.922 15.8921 59.2821 15.7182 59.5651 15.4668C59.8517 15.2146 60.0489 14.9111 60.1568 14.5565C60.2681 14.201 60.2794 13.8203 60.1907 13.4144L58.7202 6.68538Z" fill="white"/>
<path d="M69.7409 17.0051L72.2674 6.39312L76.4528 7.39743C77.254 7.58967 77.9036 7.8971 78.4017 8.31971C78.904 8.7397 79.2416 9.24613 79.4144 9.83901C79.5915 10.4293 79.5965 11.075 79.4295 11.7763C79.2618 12.481 78.9655 13.0507 78.5407 13.4856C78.1167 13.917 77.5843 14.1983 76.9435 14.3293C76.3061 14.4612 75.5799 14.4294 74.7649 14.2338L71.9626 13.5614L72.3919 11.7582L74.8316 12.3436C75.2598 12.4464 75.6295 12.473 75.9406 12.4235C76.2518 12.374 76.5044 12.2484 76.6984 12.0466C76.8959 11.8457 77.0362 11.5708 77.1193 11.2219C77.2032 10.8695 77.2031 10.5555 77.1191 10.2797C77.0386 10.0047 76.8698 9.7707 76.6128 9.57757C76.36 9.3818 76.0178 9.23213 75.5862 9.12855L74.0736 8.76561L71.9838 17.5433L69.7409 17.0051ZM76.6196 13.5505L78.1064 19.0124L75.6304 18.4183L74.2006 12.97L76.6196 13.5505Z" fill="white"/>
<path d="M94.5685 23.8789C93.8042 24.7903 92.9817 25.4202 92.101 25.7684C91.2231 26.1189 90.347 26.213 89.4728 26.0506C88.6035 25.8878 87.8013 25.4957 87.0662 24.8745C86.3257 24.2486 85.8026 23.5183 85.4968 22.6834C85.1911 21.8486 85.1354 20.9671 85.3298 20.0388C85.5242 19.1106 86.0024 18.1921 86.7644 17.2834C87.5287 16.372 88.3498 15.741 89.2277 15.3905C90.1057 15.0399 90.9792 14.9461 91.8485 15.1089C92.72 15.269 93.5261 15.662 94.2666 16.2878C95.0017 16.9091 95.5221 17.6371 95.8278 18.472C96.1386 19.3064 96.1967 20.1877 96.0024 21.1159C95.8107 22.0465 95.3328 22.9674 94.5685 23.8789ZM92.7822 22.3693C93.2773 21.7789 93.6067 21.2065 93.7703 20.6521C93.9366 20.1 93.9489 19.5851 93.8072 19.1073C93.6655 18.6296 93.3818 18.2108 92.9559 17.8509C92.53 17.491 92.0706 17.2816 91.5775 17.2229C91.0845 17.1642 90.5798 17.263 90.0635 17.5194C89.55 17.7781 89.0457 18.2026 88.5506 18.793C88.0555 19.3834 87.7248 19.9547 87.5585 20.5068C87.3949 21.0612 87.3839 21.5772 87.5256 22.055C87.6673 22.5327 87.9511 22.9515 88.3769 23.3114C88.8028 23.6713 89.2623 23.8806 89.7553 23.9394C90.2484 23.9981 90.7517 23.8981 91.2652 23.6394C91.7815 23.3831 92.2871 22.9597 92.7822 22.3693Z" fill="white"/>
<path d="M43.1573 113.379L48.9588 104.136L55.1691 108.065L54.1578 109.676L49.8961 106.98L48.5137 109.182L52.4559 111.676L51.4446 113.287L47.5024 110.793L46.1172 113L50.3969 115.708L49.3856 117.319L43.1573 113.379Z" fill="white"/>
<path d="M65.3063 110.628L67.5871 110.969L66.5479 117.978C66.4312 118.765 66.1412 119.426 65.678 119.96C65.2182 120.494 64.6285 120.877 63.9088 121.107C63.1896 121.333 62.3841 121.38 61.4921 121.246C60.5966 121.113 59.8378 120.832 59.2155 120.405C58.5937 119.975 58.1405 119.437 57.8557 118.791C57.571 118.145 57.487 117.429 57.6037 116.642L58.6429 109.633L60.9237 109.974L59.9134 116.787C59.8525 117.198 59.8878 117.577 60.0195 117.924C60.1547 118.271 60.3738 118.56 60.6769 118.792C60.9799 119.024 61.3508 119.173 61.7898 119.239C62.2323 119.305 62.6303 119.271 62.984 119.137C63.3412 119.004 63.633 118.79 63.8595 118.498C64.0895 118.205 64.235 117.853 64.296 117.442L65.3063 110.628Z" fill="white"/>
<path d="M73.5522 121.218L70.6872 110.693L74.8382 109.554C75.6328 109.336 76.3497 109.292 76.9888 109.422C77.6304 109.548 78.1689 109.83 78.6043 110.266C79.0421 110.698 79.3557 111.262 79.545 111.958C79.7353 112.656 79.7483 113.299 79.584 113.885C79.4187 114.468 79.0865 114.972 78.5873 115.396C78.0915 115.819 77.4394 116.142 76.6311 116.363L73.8518 117.126L73.3649 115.338L75.7847 114.674C76.2094 114.557 76.5463 114.402 76.7954 114.209C77.0446 114.015 77.2059 113.783 77.2795 113.512C77.3565 113.241 77.3479 112.932 77.2537 112.586C77.1586 112.237 77.0082 111.961 76.8025 111.76C76.6002 111.558 76.3401 111.434 76.0223 111.389C75.7069 111.339 75.3352 111.373 74.9071 111.49L73.4069 111.902L75.7767 120.607L73.5522 121.218ZM77.9304 114.869L81.8492 118.941L79.3935 119.615L75.5312 115.527L77.9304 114.869Z" fill="white"/>
<path d="M92.3842 105.138C93.1437 106.054 93.6169 106.977 93.8037 107.908C93.9932 108.837 93.9315 109.72 93.6187 110.555C93.3063 111.386 92.781 112.11 92.0426 112.728C91.2988 113.35 90.4907 113.739 89.6183 113.895C88.7459 114.051 87.8716 113.951 86.9955 113.596C86.1194 113.241 85.3027 112.608 84.5454 111.695C83.7859 110.78 83.3113 109.858 83.1218 108.929C82.9323 108 82.9937 107.12 83.3061 106.289C83.6162 105.456 84.1432 104.728 84.887 104.106C85.6254 103.489 86.4307 103.102 87.3031 102.946C88.176 102.785 89.0505 102.882 89.9266 103.237C90.8054 103.589 91.6246 104.223 92.3842 105.138ZM90.59 106.639C90.098 106.046 89.5945 105.621 89.0796 105.362C88.5674 105.101 88.0646 104.998 87.5712 105.054C87.0779 105.111 86.6173 105.318 86.1896 105.676C85.7618 106.033 85.4758 106.451 85.3316 106.928C85.1874 107.405 85.1957 107.921 85.3564 108.476C85.5198 109.029 85.8476 109.602 86.3396 110.195C86.8316 110.787 87.3337 111.214 87.8459 111.476C88.3608 111.734 88.865 111.836 89.3583 111.779C89.8517 111.723 90.3123 111.516 90.74 111.158C91.1678 110.8 91.4538 110.383 91.598 109.906C91.7422 109.429 91.7325 108.914 91.5691 108.361C91.4084 107.806 91.082 107.232 90.59 106.639Z" fill="white"/>
</g>
<defs>
<filter id="filter0_d_4145_685" x="0" y="0" width="136" height="133.21" filterUnits="userSpaceOnUse" color-interpolation-filters="sRGB">
<feFlood flood-opacity="0" result="BackgroundImageFix"/>
<feColorMatrix in="SourceAlpha" type="matrix" values="0 0 0 0 0 0 0 0 0 0 0 0 0 0 0 0 0 0 127 0" result="hardAlpha"/>
<feOffset dy="4"/>
<feGaussianBlur stdDeviation="2"/>
<feComposite in2="hardAlpha" operator="out"/>
<feColorMatrix type="matrix" values="0 0 0 0 0 0 0 0 0 0 0 0 0 0 0 0 0 0 0.25 0"/>
<feBlend mode="normal" in2="BackgroundImageFix" result="effect1_dropShadow_4145_685"/>
<feBlend mode="normal" in="SourceGraphic" in2="effect1_dropShadow_4145_685" result="shape"/>
</filter>
</defs>
</svg>
