<svg width="136" height="132" viewBox="0 0 136 132" fill="none" xmlns="http://www.w3.org/2000/svg">
<g filter="url(#filter0_d_4235_79)">
<ellipse cx="68" cy="61.7821" rx="64" ry="61.7821" fill="#0F73A5"/>
<ellipse cx="68" cy="61.7821" rx="40" ry="38.6138" fill="#2FC1F4"/>
<path d="M48.4545 58.25C48.2955 57.697 48.072 57.2083 47.7841 56.7841C47.4962 56.3523 47.1439 55.9886 46.7273 55.6932C46.3182 55.3902 45.8485 55.1591 45.3182 55C44.7955 54.8409 44.2159 54.7614 43.5795 54.7614C42.3902 54.7614 41.3447 55.0568 40.4432 55.6477C39.5492 56.2386 38.8523 57.0985 38.3523 58.2273C37.8523 59.3485 37.6023 60.7197 37.6023 62.3409C37.6023 63.9621 37.8485 65.3409 38.3409 66.4773C38.8333 67.6136 39.5303 68.4811 40.4318 69.0795C41.3333 69.6705 42.3977 69.9659 43.625 69.9659C44.7386 69.9659 45.6894 69.7689 46.4773 69.375C47.2727 68.9735 47.8788 68.4091 48.2955 67.6818C48.7197 66.9545 48.9318 66.0947 48.9318 65.1023L49.9318 65.25H43.9318V61.5455H53.6705V64.4773C53.6705 66.5227 53.2386 68.2803 52.375 69.75C51.5114 71.2121 50.322 72.3409 48.8068 73.1364C47.2917 73.9242 45.5568 74.3182 43.6023 74.3182C41.4205 74.3182 39.5038 73.8371 37.8523 72.875C36.2008 71.9053 34.9129 70.5303 33.9886 68.75C33.072 66.9621 32.6136 64.8409 32.6136 62.3864C32.6136 60.5 32.8864 58.8182 33.4318 57.3409C33.9848 55.8561 34.7576 54.5985 35.75 53.5682C36.7424 52.5379 37.8977 51.7538 39.2159 51.2159C40.5341 50.678 41.9621 50.4091 43.5 50.4091C44.8182 50.4091 46.0455 50.6023 47.1818 50.9886C48.3182 51.3674 49.3258 51.9053 50.2045 52.6023C51.0909 53.2992 51.8144 54.1288 52.375 55.0909C52.9356 56.0455 53.2955 57.0985 53.4545 58.25H48.4545ZM57.3665 74V50.7273H62.2869V60.3295H72.2756V50.7273H77.1847V74H72.2756V64.3864H62.2869V74H57.3665ZM93.2301 47.8182V76.9091H89.6506V47.8182H93.2301ZM101.776 58.875H96.7983C96.7074 58.2311 96.5218 57.6591 96.2415 57.1591C95.9612 56.6515 95.6013 56.2197 95.1619 55.8636C94.7225 55.5076 94.215 55.2348 93.6392 55.0455C93.071 54.8561 92.4536 54.7614 91.7869 54.7614C90.5824 54.7614 89.5331 55.0606 88.6392 55.6591C87.7453 56.25 87.0521 57.1136 86.5597 58.25C86.0672 59.3788 85.821 60.75 85.821 62.3636C85.821 64.0227 86.0672 65.4167 86.5597 66.5455C87.0597 67.6742 87.7566 68.5265 88.6506 69.1023C89.5445 69.678 90.5786 69.9659 91.7528 69.9659C92.4119 69.9659 93.0218 69.8788 93.5824 69.7045C94.1506 69.5303 94.6544 69.2765 95.0938 68.9432C95.5331 68.6023 95.8968 68.1894 96.1847 67.7045C96.4801 67.2197 96.6847 66.6667 96.7983 66.0455L101.776 66.0682C101.647 67.1364 101.325 68.1667 100.81 69.1591C100.302 70.1439 99.6165 71.0265 98.7528 71.8068C97.8968 72.5795 96.8741 73.1932 95.6847 73.6477C94.5028 74.0947 93.1657 74.3182 91.6733 74.3182C89.5975 74.3182 87.7415 73.8485 86.1051 72.9091C84.4763 71.9697 83.1884 70.6098 82.2415 68.8295C81.3021 67.0492 80.8324 64.8939 80.8324 62.3636C80.8324 59.8258 81.3097 57.6667 82.2642 55.8864C83.2188 54.1061 84.5142 52.75 86.1506 51.8182C87.7869 50.8788 89.6278 50.4091 91.6733 50.4091C93.0218 50.4091 94.2718 50.5985 95.4233 50.9773C96.5824 51.3561 97.6089 51.9091 98.5028 52.6364C99.3968 53.3561 100.124 54.2386 100.685 55.2841C101.253 56.3295 101.616 57.5265 101.776 58.875Z" fill="#F7F6FB"/>
</g>
<path d="M21.1208 44.1398C20.8577 44.0803 20.6065 44.0619 20.3672 44.0844C20.1249 44.1052 19.896 44.1679 19.6805 44.2724C19.4637 44.3721 19.2628 44.5129 19.0777 44.6949C18.8944 44.8737 18.7309 45.0939 18.5873 45.3553C18.3189 45.844 18.2043 46.3402 18.2436 46.8439C18.2847 47.3446 18.4806 47.825 18.8315 48.2851C19.1793 48.7436 19.6863 49.1558 20.3523 49.5216C21.0184 49.8875 21.6404 50.0975 22.2184 50.1517C22.7964 50.2058 23.3101 50.1153 23.7595 49.8799C24.2057 49.6429 24.5673 49.2723 24.8443 48.7681C25.0956 48.3106 25.2292 47.8755 25.2452 47.4629C25.2598 47.0455 25.1647 46.6691 24.9599 46.3338C24.7569 45.9953 24.4515 45.7141 24.0437 45.4902L24.3301 45.1127L22.976 47.5777L21.454 46.7417L23.6519 42.7406L24.8564 43.4023C25.6968 43.8639 26.3214 44.438 26.7303 45.1245C27.1361 45.8093 27.3314 46.5527 27.3163 47.3547C27.298 48.155 27.0684 48.9566 26.6272 49.7597C26.1348 50.656 25.5046 51.3349 24.7366 51.7963C23.9655 52.256 23.11 52.4748 22.1699 52.4527C21.2285 52.4258 20.2536 52.1354 19.2452 51.5815C18.4702 51.1557 17.8407 50.6641 17.3569 50.1066C16.8717 49.5443 16.5294 48.943 16.3301 48.3028C16.1308 47.6625 16.0694 47.0109 16.1459 46.348C16.2224 45.685 16.4342 45.0376 16.7812 44.4058C17.0787 43.8642 17.4351 43.4036 17.8503 43.0239C18.2624 42.6425 18.7107 42.35 19.1954 42.1462C19.6818 41.9394 20.1859 41.8293 20.7077 41.8161C21.2264 41.8012 21.7402 41.8911 22.2492 42.0856L21.1208 44.1398Z" fill="white"/>
<path d="M32.9422 37.6529L24.2066 31.1186L25.5881 29.2717L29.1924 31.9677L31.9969 28.2184L28.3926 25.5224L29.771 23.6797L38.5066 30.214L37.1283 32.0567L33.5197 29.3575L30.7152 33.1068L34.3237 35.806L32.9422 37.6529Z" fill="white"/>
<path d="M45.4257 24.3561L43.2855 25.5924L41.09 14.2623L43.6637 12.7756L52.3767 20.341L50.2365 21.5772L43.6607 15.6563L43.5869 15.6989L45.4257 24.3561ZM43.1471 20.7203L48.2024 17.8002L49.103 19.3593L44.0477 22.2794L43.1471 20.7203Z" fill="white"/>
<path d="M66.4057 6.29789L67.7013 17.1298L65.7233 17.3664L60.1953 11.1125L60.116 11.122L60.9314 17.9395L58.6413 18.2135L57.3456 7.38159L59.3555 7.14119L64.8458 13.3942L64.941 13.3828L64.1262 6.57056L66.4057 6.29789Z" fill="white"/>
<path d="M76.8792 18.0781L74.5078 17.3815L81.1958 7.97612L84.0476 8.81384L84.5811 20.3406L82.2097 19.644L81.96 10.7988L81.8782 10.7748L76.8792 18.0781ZM77.9396 13.9204L83.5409 15.5659L83.0335 17.2933L77.4321 15.6479L77.9396 13.9204Z" fill="white"/>
<path d="M98.4863 16.0532L92.2624 25.0126L90.3682 23.6967L96.592 14.7373L98.4863 16.0532Z" fill="white"/>
<path d="M99.0908 31.0679L97.6104 29.0888L108.602 25.5701L110.382 27.9503L103.899 37.496L102.419 35.5168L107.521 28.2875L107.47 28.2193L99.0908 31.0679ZM102.432 28.3758L105.929 33.0508L104.487 34.1292L100.99 29.4542L102.432 28.3758Z" fill="white"/>
<path d="M120.902 46.2292L111.124 51.0671L110.241 49.2815L114.29 41.9827L114.255 41.9111L108.101 44.9561L107.078 42.8888L116.856 38.0509L117.753 39.8651L113.692 47.1281L113.735 47.2141L119.884 44.1715L120.902 46.2292Z" fill="white"/>
<path d="M58.8555 109.93L56.8508 108.736C56.9686 108.455 57.031 108.18 57.038 107.911C57.0468 107.64 57.0054 107.38 56.9138 107.131C56.8222 106.882 56.6831 106.65 56.4966 106.436C56.3132 106.224 56.0872 106.037 55.8187 105.878C55.3336 105.589 54.8392 105.458 54.3356 105.484C53.8339 105.508 53.3476 105.69 52.8768 106.029C52.4078 106.366 51.9798 106.859 51.5929 107.509C51.195 108.177 50.9599 108.798 50.8876 109.37C50.8183 109.945 50.8947 110.455 51.1167 110.902C51.3387 111.348 51.6862 111.712 52.1591 111.993C52.4246 112.151 52.6911 112.263 52.9587 112.327C53.2293 112.393 53.4931 112.411 53.75 112.383C54.0087 112.351 54.2542 112.272 54.4864 112.145C54.7216 112.021 54.9366 111.847 55.1314 111.624L57.1306 112.827C56.8226 113.226 56.4459 113.564 56.0004 113.84C55.5598 114.115 55.0721 114.306 54.5371 114.413C54.007 114.519 53.4479 114.521 52.8599 114.419C52.2767 114.316 51.6846 114.085 51.0834 113.727C50.2474 113.23 49.6124 112.595 49.1786 111.825C48.7478 111.056 48.5552 110.199 48.6007 109.255C48.6492 108.313 48.9768 107.332 49.5836 106.313C50.1921 105.291 50.9021 104.535 51.7134 104.047C52.5248 103.559 53.3717 103.324 54.2543 103.341C55.1386 103.355 55.9927 103.607 56.8166 104.097C57.3597 104.421 57.8178 104.797 58.1907 105.225C58.5668 105.656 58.8476 106.125 59.0333 106.632C59.2208 107.136 59.3021 107.666 59.2772 108.222C59.2553 108.779 59.1148 109.348 58.8555 109.93Z" fill="white"/>
<path d="M62.9401 118.411L63.9483 107.549L71.2677 108.228L71.0919 110.122L66.0691 109.656L65.8289 112.244L70.4751 112.675L70.2994 114.569L65.6532 114.137L65.4125 116.731L70.4565 117.199L70.2808 119.093L62.9401 118.411Z" fill="white"/>
<path d="M82.1872 117.057L78.5388 118.339L74.9212 108.047L78.5997 106.754C79.6349 106.39 80.5985 106.283 81.4904 106.433C82.3812 106.579 83.1624 106.965 83.8341 107.591C84.5092 108.215 85.0345 109.062 85.4102 110.131C85.787 111.203 85.9082 112.195 85.7736 113.108C85.6425 114.02 85.2724 114.815 84.6634 115.492C84.0578 116.168 83.2324 116.689 82.1872 117.057ZM80.0594 115.71L81.4414 115.224C82.0846 114.998 82.5856 114.694 82.9444 114.312C83.3054 113.925 83.5116 113.452 83.5632 112.892C83.6169 112.327 83.5089 111.661 83.2392 110.894C82.9719 110.133 82.6413 109.551 82.2472 109.148C81.8565 108.743 81.4017 108.504 80.8828 108.43C80.3638 108.357 79.7827 108.433 79.1395 108.659L77.7525 109.147L80.0594 115.71Z" fill="white"/>
<path d="M88.0567 101.337L95.0772 109.686L93.3118 111.171L86.2913 102.821L88.0567 101.337Z" fill="white"/>
<defs>
<filter id="filter0_d_4235_79" x="0" y="0" width="136" height="131.564" filterUnits="userSpaceOnUse" color-interpolation-filters="sRGB">
<feFlood flood-opacity="0" result="BackgroundImageFix"/>
<feColorMatrix in="SourceAlpha" type="matrix" values="0 0 0 0 0 0 0 0 0 0 0 0 0 0 0 0 0 0 127 0" result="hardAlpha"/>
<feOffset dy="4"/>
<feGaussianBlur stdDeviation="2"/>
<feComposite in2="hardAlpha" operator="out"/>
<feColorMatrix type="matrix" values="0 0 0 0 0 0 0 0 0 0 0 0 0 0 0 0 0 0 0.25 0"/>
<feBlend mode="normal" in2="BackgroundImageFix" result="effect1_dropShadow_4235_79"/>
<feBlend mode="normal" in="SourceGraphic" in2="effect1_dropShadow_4235_79" result="shape"/>
</filter>
</defs>
</svg>
