<svg width="136" height="132" viewBox="0 0 136 132" fill="none" xmlns="http://www.w3.org/2000/svg">
<g filter="url(#filter0_d_4239_160)">
<ellipse cx="68" cy="62.0344" rx="64" ry="61.7821" fill="#0F73A5"/>
<ellipse cx="68" cy="62.0344" rx="40" ry="38.6138" fill="#2FC1F4"/>
<path d="M61.3125 42.3636L70.3253 64.3523L64.0824 69.0824L51.8523 42.3636H61.3125ZM66.1065 64.1392L75.0128 42.3636H84.473L72.179 69.0824L66.1065 64.1392ZM72.6051 63.0312V86H63.4858V63.0312H72.6051ZM81.2131 63.5V68.7628H54.196V63.5H81.2131ZM81.2131 71.9375V77.2003H54.196V71.9375H81.2131Z" fill="#F7F6FB"/>
</g>
<path d="M16.6922 41.8312L17.4555 39.6829L24.6231 42.2294C25.2856 42.4648 25.8083 42.8182 26.191 43.2896C26.575 43.7576 26.8058 44.3013 26.8835 44.9205C26.9612 45.5398 26.8764 46.1975 26.6291 46.8935C26.4092 47.5125 26.1007 48.036 25.7037 48.4641C25.3045 48.8875 24.8284 49.1668 24.2754 49.302C23.7191 49.436 23.1002 49.38 22.4187 49.1342L23.1873 46.9708C23.4607 47.0604 23.7129 47.0878 23.9438 47.0531C24.1726 47.0138 24.3716 46.9205 24.5407 46.7733C24.7076 46.6216 24.8363 46.4186 24.9267 46.1643C25.0218 45.8966 25.0451 45.6505 24.9967 45.426C24.9462 45.197 24.8261 44.9942 24.6363 44.8175C24.4466 44.6408 24.1878 44.4942 23.8599 44.3777L16.6922 41.8312Z" fill="white"/>
<path d="M32.0285 35.6874L30.4653 37.6019L24.397 27.7853L26.2769 25.483L37.1054 29.4695L35.5423 31.384L27.2949 28.1778L27.241 28.2438L32.0285 35.6874ZM28.6093 33.0951L32.3017 28.573L33.6963 29.7117L30.0039 34.2338L28.6093 33.0951Z" fill="white"/>
<path d="M42.2493 25.2451L36.7189 15.8418L40.4289 13.6599C41.1421 13.2404 41.8298 13.0193 42.492 12.9965C43.1524 12.9706 43.7556 13.1205 44.3015 13.4463C44.8486 13.7672 45.3058 14.2398 45.6731 14.8643C46.0403 15.4887 46.2297 16.1189 46.2412 16.7548C46.2526 17.3908 46.0811 17.9922 45.7265 18.5592C45.375 19.1243 44.8381 19.6193 44.1157 20.0442L41.7511 21.4349L40.814 19.8416L42.8573 18.64C43.2399 18.4149 43.5165 18.1637 43.687 17.8863C43.8588 17.604 43.9366 17.3089 43.9204 17.0012C43.9055 16.6887 43.8071 16.3778 43.6253 16.0687C43.4416 15.7564 43.2187 15.5209 42.9564 15.3621C42.6953 15.1984 42.4015 15.1261 42.0748 15.1451C41.7464 15.1611 41.3894 15.2826 41.0037 15.5094L39.663 16.2979L44.2374 24.0759L42.2493 25.2451Z" fill="white"/>
<path d="M57.0843 18.3976L54.6514 18.8333L56.4352 7.43116L59.361 6.90718L64.9859 16.9825L62.553 17.4182L58.3795 9.61551L58.2956 9.63054L57.0843 18.3976ZM56.1763 14.204L61.9229 13.1748L62.2403 14.947L56.4937 15.9762L56.1763 14.204Z" fill="white"/>
<path d="M82.7333 8.13345L80.5728 18.8265L78.62 18.4319L75.3278 10.7618L75.2495 10.746L73.8896 17.4761L71.6289 17.0193L73.7894 6.32632L75.7734 6.7272L79.0302 14.3847L79.1242 14.4037L80.483 7.67877L82.7333 8.13345Z" fill="white"/>
<path d="M87.4765 21.5605L93.2138 12.282L99.466 16.148L98.4659 17.7654L94.1754 15.1124L92.8083 17.3233L96.7771 19.7774L95.777 21.3948L91.8082 18.9407L90.4383 21.1562L94.7469 23.8203L93.7468 25.4377L87.4765 21.5605Z" fill="white"/>
<path d="M109.001 29.761C109.307 29.4563 109.45 29.1035 109.429 28.7027C109.409 28.3019 109.224 27.887 108.874 27.4579C108.636 27.1663 108.393 26.9538 108.147 26.8204C107.903 26.6847 107.666 26.6216 107.435 26.6311C107.207 26.6434 107.002 26.7236 106.821 26.8719C106.665 26.9899 106.559 27.1293 106.502 27.2902C106.448 27.4538 106.43 27.6312 106.448 27.8223C106.469 28.0112 106.516 28.2115 106.588 28.4232C106.663 28.6327 106.755 28.8464 106.864 29.0644L107.302 29.9718C107.521 30.4078 107.687 30.836 107.801 31.2563C107.915 31.6767 107.964 32.0817 107.947 32.4712C107.93 32.8607 107.837 33.2285 107.665 33.5746C107.496 33.9235 107.237 34.2431 106.887 34.5333C106.368 34.9528 105.811 35.1868 105.219 35.2355C104.631 35.2846 104.032 35.1497 103.423 34.8308C102.819 34.5123 102.237 34.0093 101.675 33.3216C101.118 32.6394 100.738 31.9599 100.534 31.2831C100.332 30.6091 100.32 29.963 100.498 29.3451C100.682 28.7276 101.072 28.1638 101.669 27.6537L103.08 29.3825C102.813 29.6331 102.642 29.9074 102.569 30.2054C102.501 30.5039 102.518 30.8135 102.619 31.1342C102.726 31.4554 102.905 31.77 103.156 32.0781C103.403 32.3806 103.662 32.6074 103.932 32.7583C104.204 32.912 104.469 32.9867 104.727 32.9825C104.985 32.9783 105.215 32.8931 105.419 32.7269C105.609 32.5719 105.722 32.3852 105.759 32.1669C105.799 31.9513 105.776 31.6992 105.692 31.4105C105.61 31.1246 105.48 30.7973 105.303 30.4286L104.783 29.3198C104.374 28.4659 104.186 27.6821 104.218 26.9686C104.249 26.255 104.578 25.6447 105.205 25.1376C105.714 24.7171 106.273 24.4883 106.88 24.4512C107.489 24.4168 108.098 24.5541 108.708 24.863C109.318 25.172 109.874 25.6345 110.378 26.2507C110.89 26.8778 111.229 27.5128 111.396 28.1556C111.566 28.8012 111.566 29.4107 111.397 29.9842C111.228 30.5577 110.895 31.0541 110.399 31.4733L109.001 29.761Z" fill="white"/>
<path d="M108.29 42.181L117.634 36.5503L121.428 42.8463L119.799 43.8278L117.196 39.5073L114.969 40.849L117.378 44.8456L115.749 45.8271L113.341 41.8305L111.11 43.175L113.724 47.5137L112.095 48.4952L108.29 42.181Z" fill="white"/>
<path d="M51.988 104.071L54.4911 104.71L55.739 109.878L55.8423 109.904L59.4148 105.968L61.918 106.607L56.3178 112.456L55.3637 116.192L53.1444 115.626L54.0985 111.889L51.988 104.071Z" fill="white"/>
<path d="M65.9364 117.925L66.0216 107.016L73.3723 107.074L73.3574 108.975L68.3132 108.936L68.2929 111.535L72.9589 111.572L72.9441 113.473L68.278 113.437L68.2577 116.041L73.3232 116.081L73.3083 117.983L65.9364 117.925Z" fill="white"/>
<path d="M87.5213 104.482L90.1376 115.073L88.2036 115.551L81.9493 110.023L81.8717 110.043L83.5184 116.708L81.2793 117.262L78.663 106.671L80.6281 106.185L86.8448 111.717L86.9379 111.694L85.2925 105.033L87.5213 104.482Z" fill="white"/>
<defs>
<filter id="filter0_d_4239_160" x="0" y="0.252289" width="136" height="131.564" filterUnits="userSpaceOnUse" color-interpolation-filters="sRGB">
<feFlood flood-opacity="0" result="BackgroundImageFix"/>
<feColorMatrix in="SourceAlpha" type="matrix" values="0 0 0 0 0 0 0 0 0 0 0 0 0 0 0 0 0 0 127 0" result="hardAlpha"/>
<feOffset dy="4"/>
<feGaussianBlur stdDeviation="2"/>
<feComposite in2="hardAlpha" operator="out"/>
<feColorMatrix type="matrix" values="0 0 0 0 0 0 0 0 0 0 0 0 0 0 0 0 0 0 0.25 0"/>
<feBlend mode="normal" in2="BackgroundImageFix" result="effect1_dropShadow_4239_160"/>
<feBlend mode="normal" in="SourceGraphic" in2="effect1_dropShadow_4239_160" result="shape"/>
</filter>
</defs>
</svg>
