<svg width="136" height="132" viewBox="0 0 136 132" fill="none" xmlns="http://www.w3.org/2000/svg">
<g filter="url(#filter0_d_4235_211)">
<ellipse cx="68" cy="61.7821" rx="64" ry="61.7821" fill="#0F73A5"/>
<ellipse cx="68" cy="61.7821" rx="40" ry="38.6138" fill="#2FC1F4"/>
<path d="M36.2124 74V48.5455H41.5941V59.7688H41.9297L51.0898 48.5455H57.5405L48.0945 59.9428L57.6523 74H51.2141L44.2415 63.5348L41.5941 66.7663V74H36.2124ZM73.9467 55.8661C73.8473 54.8635 73.4206 54.0846 72.6665 53.5295C71.9125 52.9743 70.8892 52.6967 69.5966 52.6967C68.7183 52.6967 67.9767 52.821 67.3718 53.0696C66.7669 53.3099 66.3029 53.6455 65.9798 54.0763C65.6649 54.5072 65.5075 54.9961 65.5075 55.543C65.4909 55.9987 65.5862 56.3964 65.7933 56.7362C66.0088 57.0759 66.3029 57.37 66.6758 57.6186C67.0487 57.8589 67.4795 58.0702 67.9684 58.2525C68.4573 58.4265 68.9793 58.5756 69.5344 58.6999L71.8214 59.2468C72.9317 59.4954 73.9509 59.8268 74.8789 60.2411C75.8069 60.6554 76.6107 61.165 77.2901 61.7699C77.9696 62.3748 78.4957 63.0874 78.8686 63.9077C79.2498 64.728 79.4445 65.6684 79.4528 66.729C79.4445 68.2868 79.0468 69.6374 78.2596 70.7809C77.4807 71.9161 76.3538 72.7985 74.8789 73.4283C73.4123 74.0497 71.6432 74.3604 69.5717 74.3604C67.5168 74.3604 65.727 74.0456 64.2024 73.4158C62.6861 72.7861 61.5012 71.8539 60.6477 70.6193C59.8026 69.3764 59.3593 67.8394 59.3178 66.0082H64.5256C64.5836 66.8616 64.828 67.5742 65.2589 68.146C65.698 68.7094 66.2822 69.1361 67.0114 69.4261C67.7488 69.7079 68.5816 69.8487 69.5096 69.8487C70.421 69.8487 71.2124 69.7161 71.8835 69.451C72.563 69.1858 73.0891 68.8171 73.462 68.3448C73.8349 67.8725 74.0213 67.3298 74.0213 66.7166C74.0213 66.1449 73.8514 65.6643 73.5117 65.2749C73.1803 64.8854 72.6914 64.554 72.0451 64.2805C71.4071 64.0071 70.6241 63.7585 69.696 63.5348L66.9244 62.8388C64.7783 62.3168 63.0838 61.5006 61.8409 60.3903C60.598 59.2799 59.9807 57.7843 59.989 55.9034C59.9807 54.3622 60.3909 53.0157 61.2195 51.864C62.0563 50.7122 63.204 49.8132 64.6623 49.1669C66.1206 48.5206 67.7778 48.1974 69.6339 48.1974C71.5231 48.1974 73.172 48.5206 74.5806 49.1669C75.9975 49.8132 77.0996 50.7122 77.8867 51.864C78.6739 53.0157 79.0799 54.3498 79.1048 55.8661H73.9467ZM88.268 62.9631V74H82.9733V48.5455H88.1189V58.2773H88.3426C88.7735 57.1504 89.4695 56.268 90.4307 55.63C91.3918 54.9837 92.5974 54.6605 94.0475 54.6605C95.3733 54.6605 96.5291 54.9505 97.5152 55.5305C98.5095 56.1023 99.2801 56.9267 99.827 58.0039C100.382 59.0728 100.656 60.353 100.647 61.8445V74H95.3525V62.7891C95.3608 61.6125 95.0625 60.6969 94.4577 60.0423C93.8611 59.3877 93.0242 59.0604 91.947 59.0604C91.2261 59.0604 90.5881 59.2137 90.0329 59.5202C89.4861 59.8268 89.0552 60.2743 88.7403 60.8626C88.4337 61.4426 88.2763 62.1428 88.268 62.9631Z" fill="#F7F6FB"/>
</g>
<path d="M30.88 37.608L23.0897 29.9713L24.7043 28.3242L28.1392 31.6914L28.2399 31.5887L27.5532 25.4181L29.4885 23.4439L30.1427 29.7542L37.3123 31.0464L35.3808 33.0168L30.086 32.011L30.2808 33.7907L32.4946 35.9609L30.88 37.608Z" fill="white"/>
<path d="M41.9829 26.9591L34.978 18.5962L40.6131 13.876L41.8342 15.3338L37.9672 18.5729L39.6363 20.5657L43.2134 17.5694L44.4345 19.0272L40.8574 22.0235L42.53 24.0203L46.4134 20.7675L47.6345 22.2253L41.9829 26.9591Z" fill="white"/>
<path d="M59.7736 5.73911L62.5757 16.2822L60.6503 16.7939L54.2999 11.3772L54.2227 11.3977L55.9863 18.0335L53.7572 18.6259L50.9551 8.08281L52.9114 7.5629L59.2244 12.984L59.3171 12.9594L57.5549 6.3288L59.7736 5.73911Z" fill="white"/>
<path d="M71.3435 5.09324L73.8797 5.58471L75.4281 10.6703L75.5327 10.6906L78.8686 6.55145L81.4049 7.04292L76.1568 13.2097L75.4232 16.9958L73.1745 16.5601L73.9082 12.774L71.3435 5.09324Z" fill="white"/>
<path d="M86.2114 21.2626L84.2327 19.7815L93.785 13.3049L96.1645 15.0861L92.6377 26.0731L90.659 24.5919L93.5149 16.2168L93.4467 16.1657L86.2114 21.2626ZM88.6573 17.7372L93.331 21.2358L92.2521 22.6771L87.5784 19.1786L88.6573 17.7372Z" fill="white"/>
<path d="M111.745 29.605L103.469 36.7116L102.171 35.2001L104.288 27.1264L104.236 27.0658L99.0269 31.5386L97.5244 29.7887L105.801 22.6821L107.12 24.2178L104.982 32.2598L105.044 32.3326L110.25 27.8632L111.745 29.605Z" fill="white"/>
<path d="M31.3716 94.3671C31.6659 94.051 31.7955 93.6931 31.7604 93.2934C31.7253 92.8936 31.5246 92.4859 31.1584 92.0702C30.9096 91.7878 30.6595 91.5845 30.4082 91.4605C30.1595 91.334 29.9202 91.2799 29.6901 91.298C29.4623 91.3188 29.2605 91.4067 29.0846 91.5617C28.9334 91.6854 28.8325 91.8288 28.7819 91.9916C28.7337 92.1572 28.7225 92.3351 28.7482 92.5254C28.7765 92.7134 28.8306 92.9118 28.9105 93.1207C28.9931 93.3272 29.093 93.5373 29.2103 93.751L29.6824 94.6414C29.917 95.0689 30.0992 95.4905 30.2289 95.9063C30.3585 96.3221 30.4224 96.7249 30.4204 97.1148C30.4183 97.5047 30.3383 97.8757 30.1801 98.228C30.0243 98.583 29.777 98.9121 29.4383 99.2152C28.935 99.6539 28.388 99.9086 27.7973 99.9794C27.2116 100.051 26.6086 99.9382 25.9882 99.6423C25.3729 99.3468 24.7718 98.8659 24.1849 98.1998C23.6027 97.539 23.1969 96.8742 22.9675 96.2055C22.7404 95.5395 22.7045 94.8944 22.8597 94.2702C23.0199 93.6463 23.3886 93.0683 23.9657 92.5361L25.4411 94.2108C25.1831 94.4712 25.0232 94.7517 24.9614 95.0523C24.9047 95.3531 24.9329 95.6619 25.0463 95.9785C25.1646 96.2955 25.3552 96.6032 25.6181 96.9016C25.8764 97.1947 26.1432 97.4116 26.4186 97.5523C26.6963 97.6957 26.964 97.7604 27.2215 97.7465C27.479 97.7326 27.7064 97.6388 27.9035 97.4651C28.0874 97.3031 28.1938 97.1123 28.2228 96.8927C28.2541 96.6758 28.2222 96.4247 28.127 96.1394C28.0342 95.8568 27.8923 95.5346 27.7013 95.1727L27.1399 94.0843C26.6998 93.2463 26.4822 92.4701 26.4871 91.7559C26.492 91.0416 26.7981 90.4194 27.4053 89.8892C27.8985 89.4499 28.4477 89.2003 29.0529 89.1405C29.6603 89.0833 30.2746 89.1976 30.8956 89.4835C31.5166 89.7693 32.09 90.2107 32.6158 90.8075C33.151 91.4151 33.5143 92.0369 33.7055 92.6729C33.8991 93.3117 33.9222 93.9208 33.7749 94.5002C33.6275 95.0796 33.3135 95.5881 32.833 96.0257L31.3716 94.3671Z" fill="white"/>
<path d="M32.4361 106.024L38.3623 96.8648L40.2988 98.1178L37.8536 101.897L41.7847 104.44L44.2298 100.661L46.1618 101.911L40.2356 111.07L38.3036 109.82L40.7517 106.037L36.8206 103.493L34.3726 107.277L32.4361 106.024Z" fill="white"/>
<path d="M53.4238 104.854L49.7564 115.128L47.5842 114.352L51.2516 104.078L53.4238 104.854Z" fill="white"/>
<path d="M57.442 117.304L58.9334 106.498L61.2182 106.813L59.9868 115.736L64.6197 116.375L64.3598 118.259L57.442 117.304Z" fill="white"/>
<path d="M71.7268 118.4L70.6067 107.548L72.901 107.311L73.8258 116.271L78.4779 115.791L78.6732 117.683L71.7268 118.4Z" fill="white"/>
<path d="M84.6736 104.906L87.9867 115.3L85.7892 116.001L82.4761 105.607L84.6736 104.906Z" fill="white"/>
<path d="M97.7223 98.4003L103.331 107.757L101.622 108.781L94.0215 105.332L93.9529 105.373L97.4831 111.263L95.5048 112.448L89.896 103.092L91.6322 102.051L99.1983 105.515L99.2806 105.465L95.7532 99.5806L97.7223 98.4003Z" fill="white"/>
<path d="M109.278 92.28C109.037 92.1605 108.797 92.0835 108.559 92.0492C108.318 92.0125 108.081 92.0197 107.847 92.0707C107.613 92.1167 107.385 92.2064 107.162 92.3398C106.942 92.4706 106.731 92.6462 106.53 92.8666C106.155 93.2786 105.927 93.734 105.847 94.2329C105.769 94.7291 105.847 95.2421 106.08 95.7718C106.31 96.2992 106.706 96.8188 107.268 97.3309C107.829 97.843 108.384 98.1932 108.934 98.3816C109.483 98.5699 110.003 98.6025 110.495 98.4793C110.985 98.3537 111.423 98.0784 111.811 97.6533C112.163 97.2676 112.395 96.8761 112.507 96.4787C112.619 96.0764 112.615 95.6882 112.495 95.3142C112.377 94.9376 112.146 94.5925 111.803 94.279L112.17 93.9793L110.274 96.0575L108.991 94.8874L112.067 91.5143L113.083 92.4404C113.791 93.0864 114.264 93.7911 114.5 94.5545C114.733 95.3154 114.749 96.0839 114.546 96.8599C114.34 97.6336 113.929 98.3589 113.311 99.0358C112.622 99.7915 111.85 100.303 110.995 100.572C110.138 100.837 109.255 100.849 108.346 100.607C107.437 100.36 106.558 99.8484 105.708 99.0731C105.054 98.4773 104.558 97.8516 104.219 97.1961C103.879 96.5356 103.687 95.8707 103.644 95.2016C103.601 94.5324 103.694 93.8846 103.924 93.2581C104.154 92.6317 104.512 92.0521 104.998 91.5195C105.414 91.0629 105.869 90.6989 106.361 90.4273C106.852 90.1534 107.356 89.9743 107.875 89.89C108.396 89.8032 108.912 89.8146 109.423 89.9243C109.93 90.0317 110.409 90.2396 110.858 90.5482L109.278 92.28Z" fill="white"/>
<defs>
<filter id="filter0_d_4235_211" x="0" y="0" width="136" height="131.564" filterUnits="userSpaceOnUse" color-interpolation-filters="sRGB">
<feFlood flood-opacity="0" result="BackgroundImageFix"/>
<feColorMatrix in="SourceAlpha" type="matrix" values="0 0 0 0 0 0 0 0 0 0 0 0 0 0 0 0 0 0 127 0" result="hardAlpha"/>
<feOffset dy="4"/>
<feGaussianBlur stdDeviation="2"/>
<feComposite in2="hardAlpha" operator="out"/>
<feColorMatrix type="matrix" values="0 0 0 0 0 0 0 0 0 0 0 0 0 0 0 0 0 0 0.25 0"/>
<feBlend mode="normal" in2="BackgroundImageFix" result="effect1_dropShadow_4235_211"/>
<feBlend mode="normal" in="SourceGraphic" in2="effect1_dropShadow_4235_211" result="shape"/>
</filter>
</defs>
</svg>
