<svg width="136" height="132" viewBox="0 0 136 132" fill="none" xmlns="http://www.w3.org/2000/svg">
<g filter="url(#filter0_d_4326_232)">
<ellipse cx="68" cy="61.7821" rx="64" ry="61.7821" fill="#0F73A5"/>
<ellipse cx="68" cy="61.7821" rx="40" ry="38.6138" fill="#2FC1F4"/>
<path d="M71.6612 51.7933V90H60.9474V51.7933H71.6612ZM87.3715 51.7933V60.5433H45.5355V51.7933H87.3715ZM87.3715 39.0909V47.8409H45.5355V39.0909H87.3715Z" fill="#F7F6FB"/>
</g>
<path d="M21.4391 71.4494L10.5411 71.9414L10.4371 69.6373L15.2422 69.4203L15.2357 69.2767L10.2536 65.5718L10.1289 62.81L15.1911 66.6339L21.0247 62.2702L21.1491 65.0266L16.8034 68.2141L18.2381 69.2851L21.3351 69.1453L21.4391 71.4494Z" fill="white"/>
<path d="M22.2868 54.1093L21.5744 56.476L12.2138 49.7254L13.0705 46.8793L24.6006 46.4227L23.8882 48.7894L15.0415 48.9801L15.017 49.0617L22.2868 54.1093ZM18.1362 53.0213L19.819 47.431L21.543 47.9499L19.8603 53.5402L18.1362 53.0213Z" fill="white"/>
<path d="M27.5484 40.5601L26.4422 39.7537L23.4763 30.855L20.2633 35.2628L18.7266 34.1426L23.6465 27.3932L24.7527 28.1996L27.7155 37.1026L30.9316 32.6905L32.4683 33.8106L27.5484 40.5601Z" fill="white"/>
<path d="M39.1151 27.4576L37.08 28.8601L33.9905 17.7405L36.4379 16.0539L45.7249 22.9025L43.6898 24.305L36.6639 18.9257L36.5938 18.974L39.1151 27.4576ZM36.5547 24.0145L41.3618 20.7017L42.3834 22.1842L37.5763 25.497L36.5547 24.0145Z" fill="white"/>
<path d="M51.8031 20.1369L48.9363 9.6112L51.1617 9.00509L52.4257 13.6461L52.5645 13.6083L55.0883 7.93565L57.7557 7.20916L55.1333 12.9859L60.6687 17.7222L58.0064 18.4473L53.9446 14.9052L53.2138 16.5396L54.0285 19.5308L51.8031 20.1369Z" fill="white"/>
<path d="M67.0322 17.032L67.8125 6.15081L70.1131 6.31579L69.7911 10.8053L74.4613 11.1402L74.7833 6.65071L77.0785 6.81531L76.2982 17.6965L74.0029 17.5319L74.3253 13.037L69.6551 12.7021L69.3328 17.1969L67.0322 17.032Z" fill="white"/>
<path d="M91.8555 14.5625C91.9831 14.15 91.9442 13.7714 91.7388 13.4267C91.5335 13.0819 91.1755 12.802 90.665 12.5868C90.3182 12.4406 90.0046 12.3663 89.7243 12.3638C89.4455 12.358 89.2064 12.4133 89.007 12.5296C88.8109 12.6474 88.6674 12.8143 88.5764 13.0302C88.494 13.2075 88.4654 13.3804 88.4907 13.5491C88.5192 13.7191 88.5864 13.8842 88.6923 14.0444C88.7996 14.2014 88.9346 14.3566 89.0973 14.5099C89.2614 14.66 89.4427 14.8058 89.6413 14.9473L90.4534 15.5439C90.8506 15.8269 91.1979 16.1274 91.4955 16.4455C91.793 16.7636 92.0256 17.0986 92.1933 17.4506C92.3609 17.8026 92.4501 18.1716 92.4608 18.5576C92.4748 18.945 92.3952 19.3488 92.2219 19.7691C91.9594 20.3829 91.5775 20.8501 91.0763 21.1707C90.5797 21.4894 89.9878 21.6503 89.3005 21.6535C88.6179 21.6548 87.8675 21.4831 87.0494 21.1383C86.2379 20.7963 85.5834 20.374 85.0861 19.8716C84.5921 19.3705 84.2793 18.8051 84.1477 18.1755C84.0208 17.5439 84.1016 16.8631 84.39 16.133L86.4467 16.9998C86.3276 17.3465 86.3055 17.6687 86.3805 17.9662C86.4602 18.2618 86.6198 18.5275 86.8595 18.7634C87.1039 18.9975 87.4093 19.1917 87.7758 19.3462C88.1358 19.4979 88.4704 19.5772 88.7796 19.5842C89.092 19.5926 89.3612 19.5345 89.5871 19.4101C89.8129 19.2856 89.9769 19.1023 90.079 18.8601C90.1741 18.6344 90.187 18.4163 90.1177 18.2059C90.0516 17.997 89.9137 17.7847 89.704 17.5691C89.4975 17.355 89.2296 17.1264 88.9004 16.8836L87.9216 16.1474C87.1609 15.5841 86.6276 14.9797 86.3215 14.3343C86.0155 13.6889 86.0206 12.9955 86.337 12.2541C86.5902 11.644 86.9763 11.1805 87.4953 10.8636C88.0175 10.548 88.6203 10.384 89.3039 10.3715C89.9874 10.359 90.6956 10.5072 91.4286 10.8161C92.1747 11.1306 92.7722 11.5326 93.2209 12.0223C93.6729 12.5134 93.9585 13.0519 94.0777 13.6378C94.1968 14.2237 94.1351 14.8181 93.8926 15.4211L91.8555 14.5625Z" fill="white"/>
<path d="M102.005 18.8742L103.253 17.4394L110.013 23.3195L108.765 24.7543L106.245 22.5624L100.334 29.3585L98.6134 27.8622L104.525 21.0661L102.005 18.8742Z" fill="white"/>
<path d="M108.379 38.5156L107.156 36.3675L118.5 34.2448L119.97 36.8281L112.349 45.4923L111.127 43.3442L117.09 36.8065L117.048 36.7325L108.379 38.5156ZM112.029 36.2605L114.917 41.3344L113.352 42.2249L110.464 37.151L112.029 36.2605Z" fill="white"/>
<path d="M126.922 58.9145L116.169 60.7565L115.833 58.7929L121.799 52.9557L121.785 52.8769L115.018 54.0362L114.628 51.7629L125.381 49.9209L125.723 51.916L119.755 57.7156L119.772 57.8101L126.534 56.6517L126.922 58.9145Z" fill="white"/>
<path d="M126.661 71.7172L115.814 70.5578L116.059 68.2644L126.906 69.4238L126.661 71.7172Z" fill="white"/>
<path d="M39.0677 98.3543L40.1841 96.8149L47.4371 102.075L46.3206 103.614L43.617 101.654L38.3288 108.945L36.4832 107.607L41.7714 100.315L39.0677 98.3543Z" fill="white"/>
<path d="M48.0635 114.536L51.5317 104.193L58.5012 106.53L57.8966 108.333L53.1139 106.73L52.2875 109.194L56.7116 110.678L56.1071 112.481L51.683 110.997L50.8549 113.467L55.6578 115.077L55.0532 116.88L48.0635 114.536Z" fill="white"/>
<path d="M72.2296 107.672L72.1227 118.581L70.1306 118.561L65.452 111.649L65.3721 111.648L65.3048 118.514L62.9985 118.491L63.1054 107.583L65.1295 107.602L69.7708 114.509L69.8667 114.51L69.9339 107.649L72.2296 107.672Z" fill="white"/>
<path d="M84.9442 108.131C84.7911 107.909 84.6189 107.725 84.4277 107.58C84.2355 107.431 84.0247 107.321 83.7955 107.252C83.5685 107.179 83.3253 107.146 83.066 107.154C82.8099 107.161 82.5405 107.212 82.2577 107.307C81.7291 107.484 81.3085 107.772 80.9959 108.169C80.6866 108.564 80.505 109.05 80.451 109.627C80.3959 110.199 80.4891 110.846 80.7307 111.567C80.9723 112.287 81.2872 112.863 81.6754 113.295C82.0636 113.726 82.5026 114.008 82.9925 114.14C83.4812 114.268 83.9983 114.241 84.5437 114.058C85.0386 113.892 85.4318 113.663 85.7233 113.37C86.017 113.073 86.2022 112.732 86.279 112.347C86.3592 111.96 86.3253 111.546 86.1774 111.105L86.6439 111.022L83.9773 111.916L83.4252 110.27L87.7534 108.818L88.1903 110.121C88.4951 111.031 88.5651 111.876 88.4003 112.658C88.2344 113.436 87.874 114.115 87.3191 114.695C86.7632 115.271 86.0509 115.704 85.1822 115.995C84.2125 116.321 83.289 116.392 82.4116 116.211C81.5332 116.026 80.7559 115.607 80.0798 114.953C79.406 114.295 78.8862 113.421 78.5204 112.33C78.2393 111.492 78.1099 110.704 78.1321 109.966C78.1566 109.224 78.3127 108.549 78.6002 107.944C78.8877 107.338 79.2843 106.817 79.79 106.382C80.2957 105.946 80.8903 105.614 81.5737 105.385C82.1596 105.188 82.7338 105.091 83.2964 105.094C83.8579 105.093 84.3859 105.182 84.8803 105.36C85.3781 105.538 85.8232 105.799 86.2158 106.143C86.6072 106.484 86.924 106.898 87.1663 107.386L84.9442 108.131Z" fill="white"/>
<path d="M96.4849 110.669L89.9941 101.902L95.9022 97.5278L97.0336 99.0562L92.9793 102.058L94.5259 104.147L98.2763 101.37L99.4078 102.899L95.6574 105.675L97.2072 107.769L101.279 104.755L102.41 106.283L96.4849 110.669Z" fill="white"/>
<defs>
<filter id="filter0_d_4326_232" x="0" y="0" width="136" height="131.564" filterUnits="userSpaceOnUse" color-interpolation-filters="sRGB">
<feFlood flood-opacity="0" result="BackgroundImageFix"/>
<feColorMatrix in="SourceAlpha" type="matrix" values="0 0 0 0 0 0 0 0 0 0 0 0 0 0 0 0 0 0 127 0" result="hardAlpha"/>
<feOffset dy="4"/>
<feGaussianBlur stdDeviation="2"/>
<feComposite in2="hardAlpha" operator="out"/>
<feColorMatrix type="matrix" values="0 0 0 0 0 0 0 0 0 0 0 0 0 0 0 0 0 0 0.25 0"/>
<feBlend mode="normal" in2="BackgroundImageFix" result="effect1_dropShadow_4326_232"/>
<feBlend mode="normal" in="SourceGraphic" in2="effect1_dropShadow_4326_232" result="shape"/>
</filter>
</defs>
</svg>
