<svg width="136" height="132" viewBox="0 0 136 132" fill="none" xmlns="http://www.w3.org/2000/svg">
<g filter="url(#filter0_d_4239_219)">
<ellipse cx="68" cy="61.7821" rx="64" ry="61.7821" fill="#0F73A5"/>
<ellipse cx="68" cy="61.7821" rx="40" ry="38.6138" fill="#2FC1F4"/>
<path d="M72.5668 54.2514V87H63.3835V54.2514H72.5668ZM86.0327 54.2514V61.7514H50.1733V54.2514H86.0327ZM86.0327 43.3636V50.8636H50.1733V43.3636H86.0327Z" fill="#F7F6FB"/>
</g>
<path d="M22 66.3685L11.0909 66.368L11.091 64.0616L15.9011 64.0618L15.9011 63.9179L11.0912 59.9919L11.0913 57.2274L15.9757 61.2759L22.0004 57.1799L22.0003 59.9391L17.5151 62.9272L18.9 64.0619L22.0001 64.062L22 66.3685Z" fill="white"/>
<path d="M23.6876 49.1113L22.8395 51.4328L13.8852 44.152L14.9051 41.3602L26.4423 41.5714L25.5941 43.8929L16.7513 43.5715L16.722 43.6516L23.6876 49.1113ZM19.607 47.785L21.6104 42.3014L23.3015 42.9192L21.2981 48.4028L19.607 47.785Z" fill="white"/>
<path d="M29.7552 35.9222L28.7086 35.0398L26.3781 25.954L22.862 30.1241L21.4082 28.8983L26.7921 22.5128L27.8387 23.3953L30.1658 32.4851L33.6853 28.311L35.1391 29.5368L29.7552 35.9222Z" fill="white"/>
<path d="M42.2444 23.7266L40.0996 24.9548L37.9468 13.6166L40.5261 12.1396L49.2105 19.7377L47.0657 20.9659L40.5122 15.0202L40.4382 15.0626L42.2444 23.7266ZM39.9796 20.0823L45.0458 17.1812L45.9405 18.7436L40.8743 21.6447L39.9796 20.0823Z" fill="white"/>
<path d="M55.4999 17.5342L53.6563 6.78197L55.9296 6.39218L56.7425 11.133L56.8842 11.1087L59.9407 5.70444L62.6655 5.23724L59.5009 10.7357L64.5563 15.9813L61.8368 16.4476L58.1335 12.5321L57.2493 14.0888L57.7732 17.1444L55.4999 17.5342Z" fill="white"/>
<path d="M70.9444 15.9429L72.902 5.21088L75.1711 5.62477L74.3634 10.0528L78.9695 10.893L79.7772 6.46497L82.041 6.8779L80.0834 17.6099L77.8196 17.197L78.6283 12.7637L74.0221 11.9235L73.2135 16.3568L70.9444 15.9429Z" fill="white"/>
<path d="M95.9076 16.3338C96.0841 15.9397 96.0913 15.5591 95.9291 15.1921C95.7669 14.825 95.4454 14.5039 94.9647 14.2286C94.638 14.0415 94.3358 13.9298 94.0579 13.8935C93.7817 13.854 93.5377 13.88 93.3257 13.9714C93.1169 14.0646 92.9542 14.2129 92.8377 14.4163C92.7345 14.5823 92.6853 14.7505 92.6899 14.9209C92.6977 15.0932 92.7445 15.2652 92.8302 15.4371C92.9177 15.6058 93.033 15.7762 93.176 15.9481C93.3207 16.1169 93.4831 16.2836 93.6631 16.448L94.3972 17.1384C94.7572 17.4674 95.0656 17.8077 95.3225 18.1594C95.5795 18.5111 95.7699 18.8718 95.8937 19.2415C96.0176 19.6111 96.0615 19.9882 96.0255 20.3727C95.9926 20.759 95.8647 21.1502 95.6419 21.5464C95.3071 22.124 94.8715 22.5416 94.3353 22.7992C93.8038 23.0555 93.1968 23.1438 92.5141 23.0639C91.8363 22.9826 91.1122 22.7215 90.3418 22.2803C89.5776 21.8427 88.979 21.3444 88.5461 20.7855C88.1162 20.2284 87.8741 19.6293 87.8196 18.9884C87.77 18.3462 87.9324 17.6801 88.307 16.9902L90.2438 18.0993C90.0836 18.4291 90.0228 18.7462 90.0613 19.0506C90.1046 19.3536 90.231 19.6367 90.4404 19.8999C90.6547 20.1617 90.9344 20.3915 91.2795 20.5891C91.6185 20.7832 91.9411 20.9024 92.2471 20.9467C92.5563 20.9928 92.8305 20.9677 93.0698 20.8715C93.309 20.7753 93.494 20.6131 93.6245 20.3851C93.7463 20.1724 93.7855 19.9575 93.7421 19.7403C93.7017 19.5249 93.5905 19.2975 93.4084 19.0582C93.2293 18.8206 92.991 18.5614 92.6935 18.2806L91.8109 17.4314C91.124 16.7803 90.6676 16.1158 90.4418 15.4382C90.216 14.7606 90.3049 14.0729 90.7086 13.3751C91.0337 12.8001 91.473 12.3867 92.0265 12.1348C92.583 11.8847 93.2013 11.7948 93.8813 11.865C94.5613 11.9352 95.2465 12.1679 95.9368 12.5632C96.6394 12.9655 97.1838 13.4369 97.57 13.9772C97.9594 14.5193 98.1778 15.0884 98.2252 15.6844C98.2727 16.2804 98.1396 16.863 97.8259 17.4322L95.9076 16.3338Z" fill="white"/>
<path d="M105.504 21.9377L106.932 20.6813L112.851 27.4068L111.424 28.6632L109.217 26.1562L102.456 32.1073L100.949 30.3959L107.711 24.4448L105.504 21.9377Z" fill="white"/>
<path d="M109.153 42.2695L108.256 39.9665L119.788 39.5154L120.867 42.2849L112.067 49.7492L111.17 47.4462L118.02 41.8448L117.989 41.7654L109.153 42.2695ZM113.092 40.5689L115.212 46.0087L113.534 46.6623L111.415 41.2225L113.092 40.5689Z" fill="white"/>
<path d="M124.372 65.2878L113.463 65.4041L113.442 63.412L120.257 58.593L120.256 58.5131L113.391 58.5863L113.366 56.2799L124.275 56.1637L124.296 58.1877L117.486 62.9694L117.487 63.0653L124.347 62.9922L124.372 65.2878Z" fill="white"/>
<path d="M40.4245 98.7232L41.5967 97.2258L48.6515 102.749L47.4793 104.246L44.8495 102.187L39.297 109.28L37.5019 107.875L43.0543 100.782L40.4245 98.7232Z" fill="white"/>
<path d="M48.9708 115.103L52.3475 104.729L59.3373 107.005L58.7487 108.813L53.9521 107.251L53.1475 109.723L57.5845 111.167L56.9959 112.976L52.5589 111.531L51.7526 114.008L56.5696 115.576L55.981 117.384L48.9708 115.103Z" fill="white"/>
<path d="M72.6572 107.47L73.1598 118.367L71.1697 118.459L66.1123 111.819L66.0325 111.822L66.3489 118.681L64.0448 118.788L63.5422 107.89L65.5642 107.797L70.5841 114.433L70.6799 114.429L70.3638 107.575L72.6572 107.47Z" fill="white"/>
<path d="M84.9405 106.829C84.7647 106.624 84.5741 106.46 84.3686 106.335C84.1617 106.207 83.9406 106.121 83.7053 106.076C83.4718 106.027 83.2266 106.02 82.9695 106.056C82.7157 106.09 82.4531 106.169 82.1819 106.293C81.675 106.526 81.2871 106.855 81.0182 107.283C80.7526 107.71 80.6233 108.212 80.6305 108.791C80.6363 109.366 80.7973 109.999 81.1137 110.69C81.4301 111.381 81.8042 111.921 82.2358 112.309C82.6674 112.697 83.1338 112.931 83.6348 113.01C84.1343 113.086 84.6456 113.004 85.1687 112.765C85.6433 112.547 86.0101 112.278 86.269 111.956C86.5296 111.63 86.6778 111.271 86.7134 110.88C86.7523 110.487 86.6749 110.079 86.4812 109.656L86.9362 109.524L84.3791 110.695L83.6561 109.116L87.8066 107.215L88.3788 108.465C88.778 109.337 88.9369 110.17 88.8557 110.965C88.773 111.757 88.4864 112.47 87.9959 113.104C87.5039 113.736 86.8414 114.242 86.0084 114.624C85.0785 115.05 84.1678 115.219 83.2761 115.131C82.383 115.04 81.5658 114.705 80.8245 114.127C80.0849 113.544 79.4755 112.729 78.9965 111.683C78.6283 110.879 78.4164 110.109 78.3605 109.373C78.3064 108.632 78.3903 107.946 78.6122 107.313C78.8341 106.68 79.1734 106.12 79.6303 105.634C80.0871 105.147 80.6432 104.754 81.2986 104.454C81.8604 104.197 82.4212 104.04 82.9809 103.982C83.5391 103.922 84.0735 103.955 84.5841 104.08C85.0979 104.204 85.5681 104.417 85.9948 104.717C86.42 105.015 86.7789 105.393 87.0714 105.853L84.9405 106.829Z" fill="white"/>
<path d="M96.6362 107.927L88.8853 100.25L94.058 95.0275L95.4092 96.3657L91.8594 99.9497L93.7063 101.779L96.9899 98.4636L98.341 99.8017L95.0574 103.117L96.9081 104.95L100.473 101.351L101.824 102.689L96.6362 107.927Z" fill="white"/>
<defs>
<filter id="filter0_d_4239_219" x="0" y="0" width="136" height="131.564" filterUnits="userSpaceOnUse" color-interpolation-filters="sRGB">
<feFlood flood-opacity="0" result="BackgroundImageFix"/>
<feColorMatrix in="SourceAlpha" type="matrix" values="0 0 0 0 0 0 0 0 0 0 0 0 0 0 0 0 0 0 127 0" result="hardAlpha"/>
<feOffset dy="4"/>
<feGaussianBlur stdDeviation="2"/>
<feComposite in2="hardAlpha" operator="out"/>
<feColorMatrix type="matrix" values="0 0 0 0 0 0 0 0 0 0 0 0 0 0 0 0 0 0 0.25 0"/>
<feBlend mode="normal" in2="BackgroundImageFix" result="effect1_dropShadow_4239_219"/>
<feBlend mode="normal" in="SourceGraphic" in2="effect1_dropShadow_4239_219" result="shape"/>
</filter>
</defs>
</svg>
