<svg width="136" height="136" viewBox="0 0 136 136" fill="none" xmlns="http://www.w3.org/2000/svg">
<g filter="url(#filter0_d_4143_371)">
<ellipse cx="68" cy="63.8623" rx="64" ry="63.8623" fill="#0F73A5"/>
<ellipse cx="68" cy="63.8623" rx="40" ry="39.9139" fill="#2FC1F4"/>
<path d="M95.8366 52.9746V58.4433H45.375V52.9746H95.8366ZM95.8366 60.4817V65.9504H45.375V60.4817H95.8366ZM70.8793 76.2913H58.152V67.6408H70.8793C72.9176 67.6408 74.5582 67.2513 75.8011 66.4724C77.044 65.677 77.9472 64.6578 78.5107 63.4149C79.0741 62.1554 79.3641 60.8131 79.3807 59.3879C79.3641 57.9296 79.0741 56.5458 78.5107 55.2367C77.9472 53.9109 77.044 52.842 75.8011 52.03C74.5582 51.2014 72.9259 50.7871 70.9041 50.7871H61.8061V92.9462H51.1669V42.0371H70.9041C74.9808 42.0371 78.4527 42.8077 81.3196 44.3489C84.2031 45.8901 86.3989 47.9698 87.907 50.5882C89.4316 53.19 90.2022 56.1067 90.2188 59.3382C90.2022 62.52 89.4316 65.3953 87.907 67.9639C86.3823 70.516 84.1783 72.5461 81.2947 74.0541C78.4278 75.5456 74.956 76.2913 70.8793 76.2913Z" fill="white"/>
<path d="M23.7801 55.8469L13.2315 53.0659L14.3331 48.9053C14.5448 48.1055 14.8781 47.4643 15.3327 46.9819C15.784 46.4986 16.3182 46.1804 16.9355 46.0273C17.5503 45.8698 18.2079 45.8835 18.9084 46.0681C19.6089 46.2528 20.187 46.5668 20.6427 47.0101C21.0984 47.4534 21.3997 48.0011 21.5466 48.6531C21.6945 49.3017 21.6612 50.0311 21.4467 50.8413L20.7445 53.4932L18.9572 53.022L19.5639 50.7305C19.6775 50.3014 19.6973 49.9284 19.6233 49.6114C19.5467 49.2901 19.3944 49.0259 19.1664 48.8189C18.9358 48.6075 18.6471 48.4561 18.3003 48.3647C17.9501 48.2724 17.6258 48.2622 17.3276 48.3341C17.0268 48.4017 16.7671 48.5573 16.5483 48.8007C16.3261 49.0433 16.1578 49.3809 16.0433 49.8134L15.6452 51.317L24.3705 53.6173L23.7801 55.8469Z" fill="white"/>
<path d="M28.3957 42.0882L19.3843 35.9397L20.6881 34.0371L24.4062 36.5739L27.0529 32.7116L23.3348 30.1747L24.6356 28.2765L33.6469 34.425L32.3461 36.3233L28.6237 33.7834L25.977 37.6457L29.6994 40.1856L28.3957 42.0882Z" fill="white"/>
<path d="M33.7812 19.421L40.6745 27.8762L38.8838 29.3298L31.9905 20.8746L33.7812 19.421Z" fill="white"/>
<path d="M46.7208 23.7256L42.1966 13.7989L44.2969 12.8458L48.0325 21.0421L52.2913 19.1094L53.08 20.8398L46.7208 23.7256Z" fill="white"/>
<path d="M59.93 7.97675L61.7874 18.7266L59.5143 19.1176L57.657 8.36781L59.93 7.97675Z" fill="white"/>
<path d="M69.0877 18.0177L70.1337 7.15892L74.4179 7.57162C75.2415 7.65096 75.928 7.87585 76.4774 8.24629C77.0271 8.61319 77.4272 9.08877 77.6778 9.67301C77.9322 10.2541 78.0246 10.9051 77.9552 11.6262C77.8857 12.3473 77.6689 12.9686 77.3047 13.4901C76.9405 14.0115 76.4485 14.3976 75.8285 14.6482C75.2121 14.8992 74.4868 14.9846 73.6526 14.9042L70.922 14.6411L71.0993 12.8013L73.4587 13.0286C73.9006 13.0712 74.272 13.0302 74.5729 12.9058C74.8778 12.7782 75.114 12.5851 75.2816 12.3266C75.4531 12.0648 75.556 11.7554 75.5904 11.3984C75.6252 11.0379 75.583 10.7163 75.4639 10.4337C75.3488 10.1479 75.1534 9.91681 74.8779 9.74042C74.6027 9.56051 74.2424 9.4491 73.797 9.40619L72.2487 9.25705L71.3835 18.2389L69.0877 18.0177Z" fill="white"/>
<path d="M83.4222 20.4265L87.8401 10.452L91.7782 12.1887C92.5352 12.5226 93.1162 12.9515 93.5211 13.4755C93.9274 13.9963 94.1573 14.5731 94.211 15.2061C94.2693 15.8373 94.1518 16.4841 93.8584 17.1464C93.565 17.8088 93.1632 18.3302 92.6529 18.7106C92.1426 19.091 91.5536 19.3028 90.8859 19.346C90.2214 19.3906 89.5058 19.2438 88.739 18.9056L86.229 17.7987L86.9775 16.1087L89.1464 17.0652C89.5525 17.2443 89.9181 17.3221 90.2431 17.2985C90.5728 17.2732 90.858 17.1641 91.0987 16.9715C91.3441 16.7769 91.5395 16.5157 91.6847 16.1878C91.8314 15.8566 91.8928 15.5383 91.8689 15.2327C91.8496 14.9254 91.737 14.6448 91.531 14.3909C91.3264 14.1338 91.0194 13.915 90.61 13.7344L89.1868 13.1068L85.5325 21.3572L83.4222 20.4265Z" fill="white"/>
<path d="M104.918 20.3748L98.0245 28.8301L96.2338 27.3764L103.127 18.9212L104.918 20.3748Z" fill="white"/>
<path d="M117.596 35.1466L108.585 41.2952L107.459 39.6518L110.448 31.8669L110.402 31.801L104.731 35.6708L103.427 33.7682L112.438 27.6197L113.583 29.2894L110.577 37.0406L110.631 37.1197L116.298 33.2528L117.596 35.1466Z" fill="white"/>
<path d="M111.675 48.0327L122.223 45.2517L124.105 52.3577L122.266 52.8425L120.975 47.9661L118.461 48.6288L119.656 53.1396L117.817 53.6243L116.623 49.1136L114.104 49.7776L115.4 54.6745L113.562 55.1593L111.675 48.0327Z" fill="white"/>
<path d="M44.6791 116.929L48.4718 106.702L52.5098 108.193C53.2861 108.48 53.8925 108.872 54.329 109.37C54.7668 109.865 55.032 110.426 55.1247 111.055C55.222 111.681 55.1447 112.334 54.8928 113.013C54.6409 113.692 54.2721 114.237 53.7863 114.648C53.3005 115.059 52.7257 115.307 52.0619 115.391C51.4015 115.477 50.6781 115.374 49.8918 115.084L47.3181 114.134L47.9607 112.401L50.1846 113.222C50.6011 113.376 50.9708 113.431 51.2937 113.387C51.6213 113.342 51.8992 113.215 52.1275 113.008C52.3604 112.799 52.5392 112.526 52.6639 112.19C52.7898 111.85 52.8314 111.529 52.7886 111.225C52.7504 110.92 52.6207 110.647 52.3993 110.406C52.1792 110.162 51.8593 109.963 51.4395 109.808L49.9802 109.269L46.843 117.728L44.6791 116.929Z" fill="white"/>
<path d="M59.4221 121.313L60.2961 110.439L67.6238 111.026L67.4715 112.921L62.4429 112.519L62.2347 115.11L66.8862 115.482L66.7339 117.378L62.0823 117.005L61.8737 119.601L66.9235 120.006L66.7711 121.901L59.4221 121.313Z" fill="white"/>
<path d="M79.1068 112.777C78.9818 112.364 78.7377 112.071 78.3746 111.9C78.0115 111.729 77.5581 111.697 77.0146 111.804C76.6452 111.876 76.3437 111.99 76.1099 112.144C75.8755 112.295 75.7082 112.475 75.608 112.682C75.5114 112.89 75.4857 113.108 75.5311 113.338C75.5619 113.531 75.635 113.69 75.7503 113.816C75.869 113.941 76.0171 114.041 76.1946 114.114C76.3713 114.185 76.57 114.238 76.7907 114.274C77.0107 114.307 77.2426 114.327 77.4864 114.333L78.4934 114.374C78.981 114.387 79.437 114.442 79.8617 114.54C80.2863 114.637 80.6665 114.785 81.0024 114.983C81.3383 115.181 81.6187 115.438 81.8435 115.752C82.0719 116.065 82.2318 116.445 82.3232 116.89C82.449 117.546 82.3937 118.146 82.1576 118.692C81.9242 119.234 81.5235 119.698 80.9555 120.085C80.3903 120.467 79.6722 120.744 78.8011 120.915C77.9369 121.085 77.1582 121.1 76.4648 120.961C75.7749 120.822 75.1993 120.527 74.738 120.079C74.2795 119.626 73.9656 119.016 73.7963 118.25L75.9862 117.82C76.0814 118.174 76.2433 118.453 76.4719 118.658C76.7033 118.859 76.9844 118.99 77.3151 119.052C77.6486 119.109 78.0104 119.1 78.4007 119.023C78.784 118.948 79.1057 118.826 79.366 118.66C79.6297 118.492 79.8204 118.293 79.938 118.064C80.0556 117.835 80.089 117.591 80.0382 117.333C79.9907 117.093 79.8794 116.905 79.7043 116.769C79.5326 116.633 79.2995 116.534 79.0051 116.472C78.7141 116.41 78.3642 116.37 77.9554 116.353L76.7321 116.289C75.7863 116.247 75.0061 116.043 74.3913 115.679C73.7765 115.315 73.3929 114.737 73.2404 113.945C73.109 113.298 73.1698 112.698 73.4227 112.145C73.6791 111.592 74.0871 111.119 74.6468 110.727C75.2064 110.335 75.8765 110.062 76.657 109.909C77.4515 109.753 78.1717 109.752 78.8176 109.908C79.4671 110.062 80.0051 110.349 80.4317 110.769C80.8582 111.188 81.1396 111.715 81.2758 112.351L79.1068 112.777Z" fill="white"/>
<path d="M96.0379 108.16C96.5957 109.211 96.8708 110.211 96.8634 111.158C96.8591 112.105 96.618 112.953 96.1401 113.704C95.6637 114.45 95.0001 115.047 94.1493 115.497C93.2923 115.95 92.4199 116.162 91.5322 116.133C90.6445 116.104 89.8073 115.825 89.0205 115.297C88.2336 114.769 87.5622 113.981 87.0061 112.933C86.4483 111.882 86.1716 110.884 86.1759 109.937C86.1801 108.991 86.4205 108.145 86.8969 107.399C87.3717 106.65 88.0376 106.049 88.8947 105.596C89.7454 105.147 90.6146 104.936 91.5023 104.965C92.3915 104.99 93.2295 105.266 94.0163 105.794C94.8063 106.321 95.4801 107.109 96.0379 108.16ZM93.9707 109.253C93.6094 108.572 93.2026 108.052 92.7505 107.692C92.3015 107.331 91.8293 107.126 91.3338 107.079C90.8383 107.032 90.3441 107.138 89.8512 107.399C89.3583 107.659 88.9923 108.007 88.7532 108.443C88.5141 108.878 88.4166 109.384 88.4606 109.959C88.5078 110.533 88.712 111.16 89.0733 111.841C89.4346 112.521 89.8398 113.042 90.2888 113.404C90.7409 113.763 91.2147 113.967 91.7102 114.014C92.2057 114.062 92.6999 113.955 93.1928 113.695C93.6857 113.434 94.0516 113.086 94.2907 112.651C94.5298 112.215 94.6258 111.71 94.5786 111.137C94.5346 110.561 94.332 109.933 93.9707 109.253Z" fill="white"/>
</g>
<defs>
<filter id="filter0_d_4143_371" x="0" y="0" width="136" height="135.725" filterUnits="userSpaceOnUse" color-interpolation-filters="sRGB">
<feFlood flood-opacity="0" result="BackgroundImageFix"/>
<feColorMatrix in="SourceAlpha" type="matrix" values="0 0 0 0 0 0 0 0 0 0 0 0 0 0 0 0 0 0 127 0" result="hardAlpha"/>
<feOffset dy="4"/>
<feGaussianBlur stdDeviation="2"/>
<feComposite in2="hardAlpha" operator="out"/>
<feColorMatrix type="matrix" values="0 0 0 0 0 0 0 0 0 0 0 0 0 0 0 0 0 0 0.25 0"/>
<feBlend mode="normal" in2="BackgroundImageFix" result="effect1_dropShadow_4143_371"/>
<feBlend mode="normal" in="SourceGraphic" in2="effect1_dropShadow_4143_371" result="shape"/>
</filter>
</defs>
</svg>
