<svg width="136" height="132" viewBox="0 0 136 132" fill="none" xmlns="http://www.w3.org/2000/svg">
<g filter="url(#filter0_d_4240_286)">
<ellipse cx="68" cy="61.7821" rx="64" ry="61.7821" fill="#0F73A5"/>
<ellipse cx="68" cy="61.7821" rx="40" ry="38.6138" fill="#2FC1F4"/>
<path d="M73.0156 69.2116H49.7699V61.8182H72.7599C74.4929 61.8182 75.9134 61.5625 77.0213 61.0511C78.1293 60.5398 78.946 59.8153 79.4716 58.8778C79.9972 57.9403 80.2599 56.8324 80.2599 55.554C80.2599 54.304 79.9972 53.1747 79.4716 52.1662C78.946 51.1577 78.1435 50.3551 77.0639 49.7585C75.9844 49.1619 74.6349 48.8636 73.0156 48.8636H65.1321V85H55.9702V41.3636H73.0156C76.4673 41.3636 79.4219 41.9815 81.8793 43.2173C84.3509 44.4389 86.2401 46.1151 87.5469 48.2457C88.8537 50.3622 89.5 52.7628 89.4858 55.4474C89.5 58.2599 88.8395 60.696 87.5043 62.7557C86.169 64.8153 84.2656 66.4062 81.794 67.5284C79.3224 68.6506 76.3963 69.2116 73.0156 69.2116ZM74.6562 72.0241V79.4176H49.7699V72.0241H74.6562Z" fill="#F7F6FB"/>
</g>
<path d="M27.8673 40.4326L19.0556 34.0011L21.593 30.5247C22.0787 29.8592 22.6123 29.3782 23.1937 29.0815C23.7743 28.7799 24.3713 28.6638 24.9844 28.7333C25.5968 28.7978 26.1942 29.0425 26.7764 29.4675C27.3616 29.8946 27.7729 30.3882 28.0103 30.9484C28.2448 31.5064 28.2992 32.1066 28.1733 32.749C28.0495 33.3884 27.7405 34.0466 27.2465 34.7235L25.5475 37.0512L24.0502 35.9584L25.5293 33.9319C25.7889 33.5762 25.9558 33.2452 26.03 32.9388C26.1041 32.6324 26.0855 32.3506 25.9742 32.0935C25.865 31.8336 25.6655 31.5979 25.3758 31.3864C25.0833 31.1729 24.7937 31.0516 24.507 31.0227C24.2225 30.9909 23.9417 31.0563 23.6647 31.219C23.3869 31.3768 23.1172 31.6349 22.8555 31.9935L21.9385 33.2498L29.227 38.5696L27.8673 40.4326ZM27.3305 32.7471L32.9389 33.4839L31.4378 35.5406L25.864 34.7564L27.3305 32.7471Z" fill="white"/>
<path d="M36.4007 16.4762L38.2827 15.1428L42.3784 20.9234C42.8382 21.5725 43.0856 22.2502 43.1205 22.9567C43.1582 23.6611 42.9969 24.3455 42.6364 25.01C42.2739 25.6716 41.7247 26.2631 40.9887 26.7846C40.2498 27.3081 39.5082 27.6312 38.7638 27.7538C38.0174 27.8735 37.3182 27.7988 36.6661 27.5297C36.0141 27.2605 35.4581 26.8014 34.9983 26.1523L30.9026 20.3717L32.7846 19.0383L36.7663 24.6581C37.0065 24.9971 37.2939 25.2461 37.6285 25.4051C37.966 25.562 38.3243 25.6193 38.7034 25.577C39.0825 25.5347 39.4532 25.3852 39.8154 25.1286C40.1805 24.8699 40.4444 24.5698 40.6071 24.2282C40.7727 23.8846 40.836 23.5285 40.797 23.1602C40.7608 22.7897 40.6227 22.435 40.3825 22.096L36.4007 16.4762Z" fill="white"/>
<path d="M53.9292 12.0854C53.7644 11.6862 53.4931 11.4193 53.115 11.2847C52.737 11.1501 52.2827 11.1626 51.7523 11.3224C51.3919 11.431 51.1029 11.5736 50.8854 11.7504C50.6669 11.9237 50.518 12.1188 50.4386 12.3356C50.3626 12.5513 50.3585 12.7714 50.426 12.9958C50.4756 13.1848 50.5638 13.3363 50.6908 13.4501C50.8212 13.5629 50.9783 13.6472 51.162 13.7031C51.3447 13.7557 51.5477 13.7891 51.7708 13.8035C51.9929 13.8145 52.2256 13.8112 52.4688 13.7936L53.4748 13.7353C53.9612 13.7001 54.4204 13.7102 54.8524 13.7655C55.2844 13.8208 55.6772 13.9306 56.0308 14.0948C56.3844 14.2591 56.6884 14.4865 56.9428 14.777C57.2006 15.0665 57.3967 15.4284 57.5312 15.8626C57.7203 16.5029 57.7241 17.1063 57.5423 17.6728C57.363 18.2349 57.0097 18.7363 56.4822 19.177C55.9572 19.6133 55.2696 19.9594 54.4196 20.2155C53.5763 20.4694 52.8029 20.5614 52.0995 20.4914C51.3994 20.4204 50.7979 20.1844 50.2951 19.7832C49.7947 19.3776 49.4228 18.8016 49.1795 18.0553L51.3165 17.4117C51.4458 17.7547 51.6342 18.0169 51.8817 18.1983C52.1315 18.3752 52.424 18.4782 52.759 18.5071C53.0965 18.5315 53.4556 18.4864 53.8365 18.3717C54.2105 18.2591 54.5188 18.1069 54.7615 17.9151C55.0075 17.7223 55.1779 17.506 55.2725 17.2661C55.3672 17.0262 55.3766 16.7804 55.3008 16.5288C55.2301 16.2942 55.101 16.118 54.9135 16.0001C54.7293 15.8813 54.4878 15.8057 54.1888 15.7734C53.8931 15.74 53.5411 15.7348 53.1326 15.7577L51.9092 15.8146C50.964 15.8656 50.1678 15.7401 49.5205 15.4381C48.8732 15.1361 48.4351 14.5986 48.206 13.8257C48.0121 13.1943 48.014 12.5911 48.2117 12.016C48.4128 11.44 48.7726 10.9292 49.2912 10.4837C49.8098 10.0383 50.4499 9.70084 51.2115 9.47145C51.9868 9.23796 52.7034 9.16677 53.3613 9.2579C54.0226 9.348 54.586 9.58073 55.0513 9.95608C55.5167 10.3314 55.8482 10.8287 56.0458 11.4479L53.9292 12.0854Z" fill="white"/>
<path d="M70.7799 10.3704C70.7463 9.93996 70.5704 9.6024 70.2523 9.35777C69.9342 9.11315 69.4982 8.98505 68.9443 8.97347C68.568 8.96561 68.2491 9.01222 67.9877 9.11332C67.7264 9.21086 67.5246 9.3505 67.3823 9.53222C67.2435 9.71402 67.1716 9.92208 67.1667 10.1564C67.1556 10.3515 67.1928 10.5228 67.2786 10.6702C67.3678 10.8177 67.4912 10.9464 67.6488 11.0562C67.8064 11.1625 67.9891 11.2569 68.1969 11.3394C68.4049 11.4183 68.6272 11.4869 68.864 11.5452L69.839 11.8C70.3125 11.9164 70.7462 12.0675 71.1401 12.2534C71.5341 12.4392 71.8739 12.6647 72.1596 12.93C72.4453 13.1953 72.6644 13.5053 72.8168 13.8601C72.9728 14.215 73.0478 14.6197 73.0418 15.0743C73.0243 15.7417 72.8418 16.3168 72.4943 16.7997C72.1504 17.2791 71.6597 17.6472 71.0221 17.9038C70.3881 18.1569 69.6273 18.2742 68.7397 18.2557C67.8592 18.2373 67.0952 18.0863 66.4475 17.8028C65.8034 17.5194 65.3041 17.1094 64.9495 16.5728C64.5985 16.0326 64.4223 15.3701 64.4209 14.5851L66.6523 14.6317C66.6695 14.9979 66.7679 15.3054 66.9474 15.5543C67.1305 15.7996 67.377 15.9877 67.6868 16.1185C68.0003 16.2458 68.3558 16.3136 68.7535 16.3219C69.144 16.3301 69.4843 16.2804 69.7742 16.1728C70.0677 16.0653 70.2965 15.912 70.4605 15.7129C70.6245 15.5139 70.7092 15.283 70.7147 15.0203C70.7198 14.7753 70.6513 14.5679 70.5093 14.398C70.3707 14.2281 70.1642 14.0818 69.8897 13.9588C69.6188 13.8359 69.2855 13.7224 68.8899 13.6182L67.7085 13.2952C66.7937 13.0523 66.0749 12.6874 65.5523 12.2005C65.0297 11.7137 64.7786 11.0673 64.799 10.2614C64.8092 9.60099 64.997 9.02773 65.3624 8.54165C65.7313 8.05564 66.2311 7.6807 66.8617 7.41683C67.4924 7.15296 68.2053 7.02934 69.0006 7.04596C69.8101 7.06288 70.5137 7.21611 71.1115 7.50565C71.7128 7.79526 72.177 8.19035 72.5039 8.6909C72.8309 9.19144 72.9929 9.76669 72.99 10.4166L70.7799 10.3704Z" fill="white"/>
<path d="M84.4746 9.65959L81.4379 20.1375L79.2226 19.4955L82.2593 9.01756L84.4746 9.65959Z" fill="white"/>
<path d="M89.9426 23.595L87.854 22.2733L96.8697 15.0686L99.3814 16.658L96.7259 27.8874L94.6374 26.5657L96.8286 17.9926L96.7566 17.9471L89.9426 23.595ZM92.105 19.8889L97.0383 23.0106L96.0756 24.532L91.1422 21.4103L92.105 19.8889Z" fill="white"/>
<path d="M115.87 33.0064L107.195 39.6205L105.987 38.0363L108.57 30.0991L108.521 30.0356L103.061 34.1984L101.663 32.3643L110.338 25.7501L111.565 27.3598L108.964 35.2641L109.022 35.3404L114.478 31.1807L115.87 33.0064Z" fill="white"/>
<path d="M38.0369 109.649L43.555 100.238L47.2678 102.415C47.9784 102.832 48.5104 103.315 48.8637 103.864C49.2219 104.411 49.3971 104.994 49.3893 105.611C49.3864 106.227 49.2026 106.845 48.8379 107.467C48.4715 108.092 48.0215 108.551 47.4879 108.843C46.956 109.132 46.3643 109.246 45.7126 109.185C45.064 109.126 44.3782 108.884 43.6552 108.46L41.1693 107.003L42.107 105.404L44.2712 106.673C44.6511 106.896 44.9971 107.028 45.3094 107.072C45.6217 107.115 45.9001 107.068 46.1448 106.932C46.3926 106.797 46.6071 106.575 46.7886 106.266C46.9718 105.953 47.0635 105.653 47.0636 105.365C47.0668 105.078 46.9736 104.806 46.784 104.546C46.5993 104.286 46.3155 104.043 45.9326 103.818L44.5908 103.032L40.0265 110.816L38.0369 109.649ZM45.6301 108.346L45.4578 114L43.2614 112.712L43.4843 107.088L45.6301 108.346Z" fill="white"/>
<path d="M60.775 107.276L63.0289 107.766L61.5243 114.689C61.3553 115.466 61.0218 116.106 60.5238 116.608C60.0293 117.111 59.4152 117.454 58.6815 117.636C57.9486 117.815 57.1414 117.808 56.26 117.617C55.3751 117.424 54.6363 117.095 54.0437 116.628C53.4518 116.158 53.0353 115.591 52.7941 114.928C52.553 114.265 52.5169 113.545 52.6858 112.768L54.1905 105.845L56.4443 106.335L54.9816 113.065C54.8933 113.471 54.9034 113.851 55.0117 114.205C55.1235 114.56 55.3229 114.864 55.6099 115.115C55.8969 115.366 56.2572 115.539 56.691 115.633C57.1282 115.728 57.5278 115.721 57.8898 115.61C58.2552 115.501 58.5607 115.307 58.8063 115.03C59.0554 114.754 59.224 114.412 59.3123 114.006L60.775 107.276Z" fill="white"/>
<path d="M68.1426 118.772L67.0284 107.92L71.3735 107.474C72.1718 107.392 72.8499 107.442 73.4076 107.624C73.9653 107.806 74.4 108.093 74.7116 108.486C75.0229 108.875 75.2065 109.342 75.2623 109.886C75.3058 110.31 75.2593 110.691 75.1228 111.03C74.9858 111.365 74.7795 111.651 74.5038 111.886C74.2313 112.117 73.9104 112.295 73.5411 112.419L73.552 112.525C73.9671 112.5 74.3659 112.577 74.7484 112.755C75.1343 112.933 75.4603 113.205 75.7263 113.57C75.9919 113.932 76.1521 114.38 76.2069 114.913C76.266 115.489 76.1757 116.018 75.936 116.499C75.6994 116.977 75.3173 117.375 74.7895 117.693C74.2617 118.012 73.5916 118.212 72.7791 118.296L68.1426 118.772ZM70.2444 116.661L72.1149 116.469C72.7543 116.403 73.2081 116.233 73.4763 115.959C73.7441 115.682 73.857 115.338 73.8149 114.929C73.7841 114.628 73.6844 114.371 73.516 114.156C73.3476 113.941 73.1225 113.782 72.8406 113.679C72.5622 113.576 72.2393 113.543 71.872 113.581L69.9485 113.778L70.2444 116.661ZM69.7891 112.225L71.49 112.051C71.8044 112.019 72.0778 111.935 72.3103 111.801C72.546 111.662 72.724 111.483 72.8443 111.264C72.9681 111.044 73.0153 110.791 72.9859 110.505C72.9456 110.113 72.7736 109.811 72.4699 109.599C72.1697 109.388 71.7652 109.308 71.2566 109.36L69.5132 109.539L69.7891 112.225Z" fill="white"/>
<path d="M83.2962 116.055L79.0657 106L81.1917 105.105L84.6847 113.408L88.9956 111.594L89.733 113.347L83.2962 116.055Z" fill="white"/>
<path d="M96.1538 109.551L89.1749 101.166L94.8247 96.4638L96.0412 97.9254L92.1641 101.152L93.8271 103.15L97.4135 100.165L98.63 101.627L95.0436 104.612L96.71 106.614L100.603 103.373L101.82 104.835L96.1538 109.551Z" fill="white"/>
<defs>
<filter id="filter0_d_4240_286" x="0" y="0" width="136" height="131.564" filterUnits="userSpaceOnUse" color-interpolation-filters="sRGB">
<feFlood flood-opacity="0" result="BackgroundImageFix"/>
<feColorMatrix in="SourceAlpha" type="matrix" values="0 0 0 0 0 0 0 0 0 0 0 0 0 0 0 0 0 0 127 0" result="hardAlpha"/>
<feOffset dy="4"/>
<feGaussianBlur stdDeviation="2"/>
<feComposite in2="hardAlpha" operator="out"/>
<feColorMatrix type="matrix" values="0 0 0 0 0 0 0 0 0 0 0 0 0 0 0 0 0 0 0.25 0"/>
<feBlend mode="normal" in2="BackgroundImageFix" result="effect1_dropShadow_4240_286"/>
<feBlend mode="normal" in="SourceGraphic" in2="effect1_dropShadow_4240_286" result="shape"/>
</filter>
</defs>
</svg>
