<svg width="136" height="136" viewBox="0 0 136 136" fill="none" xmlns="http://www.w3.org/2000/svg">
<g filter="url(#filter0_d_4149_940)">
<circle cx="68" cy="64" r="64" fill="#0F73A5"/>
<ellipse cx="68" cy="64" rx="40" ry="40" fill="#2FC1F4"/>
<path d="M59.8871 55.4624C59.745 54.0301 59.1354 52.9175 58.0582 52.1244C56.9811 51.3313 55.5192 50.9347 53.6726 50.9347C52.4179 50.9347 51.3584 51.1123 50.4943 51.4674C49.6302 51.8107 48.9673 52.2901 48.5057 52.9056C48.0559 53.5212 47.831 54.2195 47.831 55.0008C47.8073 55.6518 47.9434 56.22 48.2393 56.7053C48.5471 57.1907 48.9673 57.6109 49.5 57.966C50.0327 58.3093 50.6482 58.6111 51.3466 58.8715C52.045 59.1201 52.7907 59.3332 53.5838 59.5107L56.8509 60.292C58.437 60.6471 59.893 61.1206 61.2188 61.7124C62.5445 62.3043 63.6927 63.0323 64.6634 63.8964C65.634 64.7605 66.3857 65.7785 66.9183 66.9504C67.4628 68.1222 67.741 69.4658 67.7528 70.9809C67.741 73.2063 67.1728 75.1357 66.0483 76.7693C64.9356 78.3909 63.3258 79.6516 61.2188 80.5512C59.1236 81.439 56.5964 81.8829 53.6371 81.8829C50.7015 81.8829 48.1446 81.4331 45.9666 80.5335C43.8004 79.6338 42.1077 78.3022 40.8885 76.5384C39.6811 74.7629 39.0478 72.5671 38.9886 69.9511H46.4283C46.5111 71.1703 46.8603 72.1883 47.4759 73.0051C48.1032 73.81 48.9377 74.4196 49.9794 74.8339C51.0329 75.2364 52.2225 75.4376 53.5483 75.4376C54.8504 75.4376 55.9808 75.2482 56.9396 74.8694C57.9103 74.4906 58.6619 73.9639 59.1946 73.2891C59.7273 72.6144 59.9936 71.8391 59.9936 70.9632C59.9936 70.1464 59.7509 69.4598 59.2656 68.9035C58.7921 68.3471 58.0938 67.8737 57.1705 67.483C56.259 67.0924 55.1404 66.7373 53.8146 66.4177L49.8551 65.4234C46.7893 64.6776 44.3686 63.5117 42.593 61.9255C40.8175 60.3393 39.9356 58.2027 39.9474 55.5157C39.9356 53.314 40.5215 51.3905 41.7053 49.7451C42.9008 48.0998 44.5402 46.8154 46.6236 45.8921C48.7069 44.9688 51.0743 44.5072 53.7259 44.5072C56.4247 44.5072 58.7803 44.9688 60.7926 45.8921C62.8168 46.8154 64.3911 48.0998 65.5156 49.7451C66.6402 51.3905 67.2202 53.2962 67.2557 55.4624H59.8871ZM88.6202 43.2998L76.9015 86.8367H70.3851L82.1039 43.2998H88.6202ZM94.6838 81.8296C93.5119 81.8296 92.5057 81.4153 91.6653 80.5867C90.8367 79.7463 90.4224 78.7401 90.4224 77.5683C90.4224 76.4082 90.8367 75.4139 91.6653 74.5853C92.5057 73.7567 93.5119 73.3424 94.6838 73.3424C95.8201 73.3424 96.8145 73.7567 97.6667 74.5853C98.519 75.4139 98.9451 76.4082 98.9451 77.5683C98.9451 78.3495 98.7439 79.0657 98.3414 79.7167C97.9508 80.3559 97.4359 80.8708 96.7967 81.2614C96.1575 81.6402 95.4532 81.8296 94.6838 81.8296Z" fill="#F7F6FB"/>
<path d="M24.9692 47.405L15.184 42.5824L17.0518 38.7048C17.4109 37.9594 17.8585 37.3942 18.3948 37.0092C18.9278 36.6227 19.5107 36.4151 20.1433 36.3864C20.7743 36.353 21.4147 36.4964 22.0645 36.8166C22.7143 37.1369 23.2198 37.5602 23.5811 38.0867C23.9424 38.6131 24.1329 39.2118 24.1527 39.8826C24.1739 40.5503 24.0027 41.2616 23.639 42.0167L22.4485 44.4881L20.7906 43.671L21.8193 41.5355C22.0119 41.1356 22.1022 40.7723 22.09 40.4456C22.0762 40.1142 21.9775 39.8241 21.7939 39.5752C21.6087 39.3216 21.3552 39.1155 21.0335 38.957C20.7086 38.7968 20.3935 38.7227 20.0882 38.7346C19.7813 38.7417 19.4978 38.8434 19.2376 39.0398C18.9743 39.2347 18.7455 39.5336 18.5513 39.9367L17.8763 41.338L25.9701 45.3271L24.9692 47.405Z" fill="white"/>
<path d="M32.2132 34.6053L24.3997 26.9924L29.469 21.6691L30.831 22.9962L27.3523 26.6492L29.2141 28.4632L32.4321 25.0841L33.7941 26.4111L30.5762 29.7902L32.4418 31.608L35.9352 27.9396L37.2972 29.2666L32.2132 34.6053Z" fill="white"/>
<path d="M43.0165 24.678L37.9201 15.0325L41.7063 12.9858C42.431 12.594 43.1184 12.3899 43.7684 12.3736C44.4199 12.3524 45.0052 12.5062 45.5244 12.8351C46.045 13.1592 46.4737 13.6399 46.8105 14.2773C47.1489 14.9178 47.3026 15.5431 47.2716 16.1533C47.2389 16.7603 47.0264 17.3273 46.6341 17.8542C46.2449 18.3794 45.6817 18.8413 44.9445 19.2399L42.4095 20.6103L41.5435 18.9713L43.7505 17.7782C44.1379 17.5688 44.4314 17.3415 44.6312 17.0963C44.8309 16.851 44.9369 16.5879 44.949 16.3068C44.9643 16.0241 44.8882 15.7241 44.7206 15.407C44.5514 15.0868 44.3447 14.8514 44.1005 14.7008C43.8594 14.5486 43.5793 14.486 43.2603 14.5132C42.9428 14.5355 42.5888 14.6522 42.1983 14.8633L40.83 15.6029L45.0455 23.5812L43.0165 24.678ZM45.8798 17.4869L50.5841 20.587L48.3443 21.7979L43.6915 18.6699L45.8798 17.4869Z" fill="white"/>
<path d="M61.1622 6.67818L63.4359 6.2903L64.6011 13.2783C64.7319 14.063 64.6591 14.7815 64.3827 15.4338C64.1097 16.0856 63.6664 16.6331 63.0527 17.0765C62.4384 17.5163 61.6867 17.812 60.7975 17.9637C59.9049 18.116 59.0971 18.0863 58.3742 17.8746C57.6507 17.6594 57.0543 17.2892 56.5852 16.7641C56.116 16.2389 55.816 15.584 55.6851 14.7994L54.5199 7.81136L56.7935 7.42348L57.9263 14.2171C57.9947 14.6269 58.1447 14.976 58.3764 15.2643C58.6115 15.552 58.9088 15.7588 59.2683 15.8849C59.6277 16.0109 60.0262 16.0365 60.4638 15.9619C60.9048 15.8866 61.2729 15.7302 61.5681 15.4925C61.8668 15.2542 62.0788 14.9605 62.2042 14.6113C62.3331 14.2615 62.3634 13.8816 62.295 13.4718L61.1622 6.67818Z" fill="white"/>
<path d="M75.6658 6.59913L76.8125 15.2309L76.9121 15.249L80.9593 7.55981L83.475 8.01638L77.8695 18.0863L74.9449 17.5555L73.1448 6.14161L75.6658 6.59913Z" fill="white"/>
<path d="M94.6921 12.6017L89.8983 22.401L87.8357 21.3687L92.6295 11.5693L94.6921 12.6017Z" fill="white"/>
<path d="M97.6577 27.4057L95.8444 25.7261L105.929 20.1982L108.109 22.218L103.547 32.8607L101.734 31.1811L105.377 23.0851L105.315 23.0271L97.6577 27.4057ZM100.422 24.1219L104.705 28.0892L103.497 29.4239L99.2139 25.4566L100.422 24.1219Z" fill="white"/>
<path d="M121.437 41.3885L111.756 46.4158L110.854 44.6394L114.8 37.243L114.764 37.1717L108.67 40.3359L107.626 38.2791L117.308 33.2518L118.224 35.0568L114.266 42.4175L114.309 42.503L120.398 39.3413L121.437 41.3885Z" fill="white"/>
<path d="M62.8661 112.436C62.8235 112.006 62.6406 111.672 62.3175 111.434C61.9943 111.196 61.5558 111.077 61.0018 111.077C60.6254 111.077 60.3075 111.131 60.0483 111.237C59.7891 111.34 59.5902 111.484 59.4517 111.669C59.3168 111.853 59.2493 112.063 59.2493 112.297C59.2422 112.493 59.283 112.663 59.3718 112.809C59.4641 112.954 59.5902 113.08 59.75 113.187C59.9098 113.29 60.0945 113.38 60.304 113.458C60.5135 113.533 60.7372 113.597 60.9751 113.65L61.9553 113.885C62.4311 113.991 62.8679 114.133 63.2656 114.311C63.6634 114.488 64.0078 114.707 64.299 114.966C64.5902 115.225 64.8157 115.531 64.9755 115.882C65.1388 116.234 65.2223 116.637 65.2259 117.091C65.2223 117.759 65.0518 118.338 64.7145 118.828C64.3807 119.314 63.8977 119.692 63.2656 119.962C62.6371 120.229 61.8789 120.362 60.9911 120.362C60.1104 120.362 59.3434 120.227 58.69 119.957C58.0401 119.687 57.5323 119.288 57.1665 118.759C56.8043 118.226 56.6143 117.567 56.5966 116.782H58.8285C58.8533 117.148 58.9581 117.453 59.1428 117.699C59.331 117.94 59.5813 118.123 59.8938 118.247C60.2099 118.368 60.5668 118.428 60.9645 118.428C61.3551 118.428 61.6942 118.371 61.9819 118.258C62.2731 118.144 62.4986 117.986 62.6584 117.784C62.8182 117.581 62.8981 117.349 62.8981 117.086C62.8981 116.841 62.8253 116.635 62.6797 116.468C62.5376 116.301 62.3281 116.159 62.0511 116.042C61.7777 115.925 61.4421 115.818 61.0444 115.722L59.8565 115.424C58.9368 115.2 58.2106 114.851 57.6779 114.375C57.1452 113.899 56.8807 113.258 56.8842 112.452C56.8807 111.791 57.0565 111.214 57.4116 110.721C57.7702 110.227 58.2621 109.842 58.8871 109.565C59.5121 109.288 60.2223 109.149 61.0178 109.149C61.8274 109.149 62.5341 109.288 63.1378 109.565C63.745 109.842 64.2173 110.227 64.5547 110.721C64.892 111.214 65.0661 111.786 65.0767 112.436H62.8661ZM76.8021 114.753C76.8021 115.942 76.5766 116.955 76.1256 117.789C75.6782 118.624 75.0674 119.261 74.2932 119.701C73.5226 120.138 72.6562 120.357 71.6938 120.357C70.7243 120.357 69.8543 120.136 69.0837 119.696C68.3131 119.256 67.7041 118.618 67.2567 117.784C66.8092 116.949 66.5855 115.939 66.5855 114.753C66.5855 113.563 66.8092 112.551 67.2567 111.717C67.7041 110.882 68.3131 110.246 69.0837 109.81C69.8543 109.369 70.7243 109.149 71.6938 109.149C72.6562 109.149 73.5226 109.369 74.2932 109.81C75.0674 110.246 75.6782 110.882 76.1256 111.717C76.5766 112.551 76.8021 113.563 76.8021 114.753ZM74.4637 114.753C74.4637 113.982 74.3483 113.332 74.1175 112.803C73.8902 112.274 73.5688 111.873 73.1533 111.599C72.7378 111.326 72.2513 111.189 71.6938 111.189C71.1363 111.189 70.6498 111.326 70.2343 111.599C69.8188 111.873 69.4956 112.274 69.2648 112.803C69.0376 113.332 68.9239 113.982 68.9239 114.753C68.9239 115.523 69.0376 116.173 69.2648 116.702C69.4956 117.232 69.8188 117.633 70.2343 117.906C70.6498 118.18 71.1363 118.316 71.6938 118.316C72.2513 118.316 72.7378 118.18 73.1533 117.906C73.5688 117.633 73.8902 117.232 74.1175 116.702C74.3483 116.173 74.4637 115.523 74.4637 114.753ZM78.5107 120.207V109.298H80.8171V118.306H85.494V120.207H78.5107Z" fill="white"/>
</g>
<defs>
<filter id="filter0_d_4149_940" x="0" y="0" width="136" height="136" filterUnits="userSpaceOnUse" color-interpolation-filters="sRGB">
<feFlood flood-opacity="0" result="BackgroundImageFix"/>
<feColorMatrix in="SourceAlpha" type="matrix" values="0 0 0 0 0 0 0 0 0 0 0 0 0 0 0 0 0 0 127 0" result="hardAlpha"/>
<feOffset dy="4"/>
<feGaussianBlur stdDeviation="2"/>
<feComposite in2="hardAlpha" operator="out"/>
<feColorMatrix type="matrix" values="0 0 0 0 0 0 0 0 0 0 0 0 0 0 0 0 0 0 0.25 0"/>
<feBlend mode="normal" in2="BackgroundImageFix" result="effect1_dropShadow_4149_940"/>
<feBlend mode="normal" in="SourceGraphic" in2="effect1_dropShadow_4149_940" result="shape"/>
</filter>
</defs>
</svg>
