<svg width="136" height="132" viewBox="0 0 136 132" fill="none" xmlns="http://www.w3.org/2000/svg">
<g filter="url(#filter0_d_4240_342)">
<ellipse cx="68" cy="61.7821" rx="64" ry="61.7821" fill="#0F73A5"/>
<ellipse cx="68" cy="61.7821" rx="40" ry="38.6138" fill="#2FC1F4"/>
<path d="M68.0241 39.3636V83L58.9048 83.0426V39.3636H68.0241ZM77.4631 62.6307H86.7315C86.7315 67.0341 85.9219 70.7983 84.3026 73.9233C82.6974 77.0483 80.4744 79.4418 77.6335 81.1037C74.8068 82.7656 71.5398 83.5966 67.8324 83.5966C65.9574 83.5966 64.2599 83.5398 62.7401 83.4261C61.2344 83.3267 59.956 83.1989 58.9048 83.0426L67.8324 76.0966C69.8494 76.0966 71.5682 75.6065 72.9886 74.6264C74.4233 73.6463 75.5241 72.1619 76.2912 70.1733C77.0724 68.1847 77.4631 65.6705 77.4631 62.6307ZM74.7997 42.8366V49.2074L54.2599 55.3224V49.0156L74.7997 42.8366ZM74.7997 52.6165V58.8594L54.2599 64.9744V58.6676L74.7997 52.6165Z" fill="#F7F6FB"/>
</g>
<path d="M24.5935 32.196L23.0301 31.1134L28.1311 23.7477L29.6944 24.8303L27.7929 27.5761L35.198 32.7043L33.9 34.5786L26.4949 29.4503L24.5935 32.196Z" fill="white"/>
<path d="M41.7095 12.1981L43.6413 10.9379L47.512 16.8716C47.9466 17.5378 48.1677 18.2246 48.1754 18.9319C48.1861 19.6372 47.9986 20.315 47.6129 20.9651C47.2253 21.6123 46.6537 22.1823 45.8982 22.6751C45.1398 23.1698 44.3863 23.4642 43.6378 23.5582C42.8873 23.6492 42.1915 23.5476 41.5503 23.2536C40.909 22.9596 40.3711 22.4795 39.9365 21.8132L36.0659 15.8796L37.9977 14.6194L41.7606 20.388C41.9876 20.736 42.2653 20.9959 42.5935 21.1676C42.9247 21.3373 43.2806 21.4084 43.661 21.3807C44.0415 21.3529 44.4176 21.2178 44.7894 20.9753C45.1642 20.7308 45.4394 20.4411 45.6151 20.106C45.7938 19.7689 45.8707 19.4156 45.8459 19.046C45.824 18.6744 45.6995 18.3147 45.4725 17.9667L41.7095 12.1981Z" fill="white"/>
<path d="M55.6365 17.6796L53.4371 6.99448L57.6527 6.12674C58.4596 5.96064 59.178 5.96322 59.8079 6.1345C60.4405 6.30158 60.9604 6.61694 61.3677 7.08057C61.7777 7.54002 62.0553 8.12278 62.2007 8.82885C62.3467 9.53841 62.3193 10.1803 62.1185 10.7546C61.917 11.3255 61.5537 11.8063 61.0287 12.1972C60.5071 12.5873 59.8359 12.8669 59.0151 13.0358L56.1925 13.6168L55.8188 11.8012L58.2761 11.2954C58.7074 11.2066 59.0535 11.0737 59.3144 10.8968C59.5752 10.7198 59.7509 10.4987 59.8413 10.2336C59.9353 9.96772 59.9461 9.65913 59.8738 9.30783C59.8007 8.95305 59.6679 8.6686 59.4751 8.45448C59.2859 8.23965 59.034 8.09933 58.7196 8.03354C58.4079 7.96356 58.0346 7.97331 57.5998 8.06281L56.0764 8.3764L57.8956 17.2145L55.6365 17.6796ZM60.406 11.6292L64.0625 15.9451L61.5686 16.4585L57.9695 12.1308L60.406 11.6292Z" fill="white"/>
<path d="M70.0061 15.8528L71.8732 5.10466L74.1456 5.4994L73.3224 10.2384L73.4641 10.2631L78.1552 6.19591L80.8789 6.66906L76.0544 10.7887L79.0591 17.4254L76.3406 16.9532L74.164 12.0228L72.8091 13.1931L72.2785 16.2475L70.0061 15.8528Z" fill="white"/>
<path d="M84.9658 19.7618L90.6399 10.4444L96.9182 14.2677L95.9291 15.8919L91.6208 13.2682L90.2687 15.4884L94.2541 17.9154L93.265 19.5395L89.2796 17.1125L87.9249 19.3372L92.2514 21.972L91.2623 23.5962L84.9658 19.7618Z" fill="white"/>
<path d="M105.031 21.119L106.592 23.1776L104.352 27.9985L104.416 28.0833L109.663 27.2267L111.224 29.2852L103.2 30.376L100.127 32.7063L98.7432 30.8812L101.816 28.551L105.031 21.119Z" fill="white"/>
<path d="M47.1321 112.966L52.7126 103.593L54.6944 104.772L50.0867 112.512L54.1053 114.905L53.1326 116.539L47.1321 112.966Z" fill="white"/>
<path d="M64.5527 108.581L62.5563 119.306L60.2888 118.884L62.2852 108.159L64.5527 108.581Z" fill="white"/>
<path d="M70.7722 119.91L68.7805 109.185L73.0121 108.399C73.8221 108.248 74.5403 108.265 75.1668 108.448C75.796 108.628 76.3097 108.953 76.7079 109.424C77.1089 109.892 77.3752 110.48 77.5068 111.189C77.6391 111.901 77.5993 112.542 77.3873 113.112C77.1747 113.679 76.8022 114.153 76.2697 114.534C75.7407 114.914 75.0642 115.18 74.2402 115.333L71.4069 115.859L71.0684 114.037L73.5352 113.579C73.9681 113.498 74.3167 113.372 74.5809 113.2C74.8452 113.028 75.0251 112.811 75.1207 112.547C75.2197 112.283 75.2365 111.975 75.171 111.622C75.1049 111.266 74.9776 110.979 74.789 110.761C74.604 110.543 74.3549 110.398 74.0418 110.326C73.7315 110.25 73.3581 110.252 72.9217 110.333L71.3925 110.617L73.0399 119.489L70.7722 119.91ZM75.6581 113.954L79.2303 118.34L76.7269 118.805L73.2124 114.408L75.6581 113.954Z" fill="white"/>
<path d="M87.3178 114.387L85.3565 115.891L81.7065 104.942L84.0651 103.134L93.6878 109.502L91.7265 111.006L84.4366 105.99L84.369 106.042L87.3178 114.387ZM84.5858 111.078L89.2186 107.525L90.3142 108.954L85.6814 112.507L84.5858 111.078Z" fill="white"/>
<defs>
<filter id="filter0_d_4240_342" x="0" y="0" width="136" height="131.564" filterUnits="userSpaceOnUse" color-interpolation-filters="sRGB">
<feFlood flood-opacity="0" result="BackgroundImageFix"/>
<feColorMatrix in="SourceAlpha" type="matrix" values="0 0 0 0 0 0 0 0 0 0 0 0 0 0 0 0 0 0 127 0" result="hardAlpha"/>
<feOffset dy="4"/>
<feGaussianBlur stdDeviation="2"/>
<feComposite in2="hardAlpha" operator="out"/>
<feColorMatrix type="matrix" values="0 0 0 0 0 0 0 0 0 0 0 0 0 0 0 0 0 0 0.25 0"/>
<feBlend mode="normal" in2="BackgroundImageFix" result="effect1_dropShadow_4240_342"/>
<feBlend mode="normal" in="SourceGraphic" in2="effect1_dropShadow_4240_342" result="shape"/>
</filter>
</defs>
</svg>
