<svg width="136" height="132" viewBox="0 0 136 132" fill="none" xmlns="http://www.w3.org/2000/svg">
<g filter="url(#filter0_d_4241_402)">
<ellipse cx="68" cy="61.7821" rx="64" ry="61.7821" fill="#0F73A5"/>
<ellipse cx="68" cy="61.7821" rx="40" ry="38.6138" fill="#2FC1F4"/>
<path d="M67.7983 46.267C66.1364 46.267 64.8793 46.6009 64.027 47.2685C63.1889 47.9361 62.7415 48.8949 62.6847 50.1449H53.3949C53.5511 47.7017 54.1761 45.6349 55.2699 43.9446C56.3636 42.2543 57.9332 40.9688 59.9787 40.0881C62.0384 39.2074 64.5881 38.767 67.6278 38.767C70.6534 38.767 73.2173 39.1861 75.3196 40.0241C77.4361 40.8622 79.0412 42.027 80.1349 43.5185C81.2287 45.0099 81.7756 46.7571 81.7756 48.7599C81.7756 49.7116 81.5909 50.6207 81.2216 51.4872C80.8523 52.3395 80.3622 53.1207 79.7514 53.831C79.1406 54.527 78.4801 55.1378 77.7699 55.6634L70.419 53.7031C71.1719 53.1349 71.733 52.5099 72.1023 51.8281C72.4858 51.1463 72.6705 50.3651 72.6562 49.4844C72.6705 48.5043 72.2656 47.723 71.4418 47.1406C70.6179 46.5582 69.4034 46.267 67.7983 46.267ZM84.5881 59.3494H50.4332V53.2344H84.5881V59.3494ZM84.5881 68.5327H50.4332V62.5668H84.5881V68.5327ZM67.6278 83.5966C62.7273 83.5966 59.0199 82.6591 56.5057 80.7841C54.0057 78.9091 52.7486 76.3381 52.7344 73.071C52.7486 72.0909 52.9616 71.1392 53.3736 70.2159C53.7855 69.2926 54.3253 68.4616 54.9929 67.723C55.6605 66.9844 56.392 66.4091 57.1875 65.9972L64.4744 67.7869C63.6506 68.3551 63.0256 69.0582 62.5994 69.8963C62.1733 70.7344 61.9531 71.5511 61.9389 72.3466C61.9531 73.5682 62.4645 74.5128 63.473 75.1804C64.4957 75.848 65.8807 76.1818 67.6278 76.1818C69.375 76.1818 70.7813 75.848 71.8466 75.1804C72.9261 74.5128 73.5085 73.3622 73.5938 71.7287H82.9901C82.8338 74.4702 82.1875 76.7145 81.0511 78.4616C79.929 80.2088 78.2599 81.5014 76.044 82.3395C73.8281 83.1776 71.0227 83.5966 67.6278 83.5966Z" fill="#F7F6FB"/>
</g>
<path d="M23.7179 29.7338L24.9496 27.7837L30.9394 31.5669C31.6119 31.9917 32.099 32.524 32.4005 33.1638C32.7039 33.8007 32.8156 34.4949 32.7356 35.2467C32.6526 35.9965 32.3703 36.7527 31.8886 37.5153C31.4051 38.2809 30.8426 38.8623 30.2011 39.2594C29.5567 39.6546 28.8818 39.852 28.1764 39.8517C27.471 39.8514 26.782 39.6388 26.1094 39.214L20.1196 35.4308L21.3513 33.4808L27.1745 37.1587C27.5258 37.3806 27.8864 37.5013 28.2563 37.5207C28.6281 37.5371 28.9812 37.4535 29.3156 37.2699C29.65 37.0863 29.9357 36.8069 30.1727 36.4315C30.4117 36.0532 30.5413 35.6752 30.5615 35.2973C30.5836 34.9165 30.5064 34.5632 30.3299 34.2376C30.1553 33.9089 29.8924 33.6336 29.5411 33.4117L23.7179 29.7338Z" fill="white"/>
<path d="M38.5704 28.8012L31.9748 20.1117L33.812 18.7173L36.7201 22.5486L36.8346 22.4617L37.0536 16.2568L39.2556 14.5854L38.9842 20.9237L45.8894 23.2459L43.6915 24.9141L38.5996 23.1483L38.5332 24.9374L40.4075 27.4068L38.5704 28.8012Z" fill="white"/>
<path d="M51.6078 20.4132L48.3606 9.9986L52.4695 8.71748C53.256 8.47225 53.9711 8.40365 54.6149 8.51169C55.2609 8.61527 55.8095 8.87757 56.2607 9.29858C56.7142 9.71515 57.0482 10.2675 57.2628 10.9557C57.4784 11.6473 57.5148 12.2888 57.3718 12.8802C57.2278 13.4682 56.914 13.9826 56.4302 14.4236C55.9499 14.8635 55.3097 15.2082 54.5096 15.4576L51.7585 16.3154L51.2068 14.5457L53.6019 13.799C54.0223 13.6679 54.3535 13.5014 54.5956 13.2994C54.8376 13.0975 54.9905 12.8601 55.0542 12.5873C55.1214 12.3134 55.1015 12.0053 54.9948 11.6629C54.887 11.3171 54.7266 11.0472 54.5136 10.8532C54.304 10.6582 54.0395 10.5435 53.72 10.5092C53.4029 10.4705 53.0325 10.5171 52.6087 10.6493L51.1238 11.1122L53.8097 19.7267L51.6078 20.4132ZM55.7544 13.9201L59.8205 17.8526L57.3897 18.6105L53.3796 14.6606L55.7544 13.9201Z" fill="white"/>
<path d="M67.6085 17.1363L65.1408 16.998L69.5111 6.31671L72.4788 6.48298L75.6233 17.5854L73.1556 17.4471L70.898 8.89122L70.813 8.88645L67.6085 17.1363ZM67.6941 12.8464L73.5231 13.173L73.4224 14.9706L67.5934 14.644L67.6941 12.8464Z" fill="white"/>
<path d="M88.0554 10.0402L84.2307 20.2568L82.0707 19.4482L85.8954 9.23155L88.0554 10.0402Z" fill="white"/>
<path d="M104.806 20.2276L98.1139 28.8427L96.5406 27.6206L97.0047 19.2867L96.9416 19.2377L92.7294 24.66L90.908 23.245L97.6004 14.6299L99.1989 15.8717L98.7086 24.1785L98.7844 24.2373L102.993 18.8192L104.806 20.2276Z" fill="white"/>
<path d="M103.067 34.3691L112.355 28.6471L116.211 34.9057L114.591 35.9031L111.946 31.6083L109.732 32.9717L112.18 36.9446L110.561 37.942L108.113 33.9692L105.896 35.3354L108.553 39.6483L106.934 40.6458L103.067 34.3691Z" fill="white"/>
<path d="M24.8584 93.5222L33.953 87.4975L35.2267 89.4203L31.4743 91.9061L34.0602 95.8094L37.8125 93.3236L39.0834 95.242L29.9888 101.267L28.718 99.3484L32.4748 96.8597L29.889 92.9563L26.1322 95.445L24.8584 93.5222Z" fill="white"/>
<path d="M35.6618 107.231L42.2016 98.4995L45.6464 101.08C46.3058 101.574 46.7803 102.113 47.0697 102.698C47.3641 103.282 47.4728 103.881 47.3958 104.493C47.3237 105.104 47.0716 105.699 46.6395 106.276C46.2052 106.856 45.7065 107.261 45.1435 107.491C44.5825 107.719 43.9817 107.766 43.341 107.632C42.7031 107.5 42.0488 107.183 41.378 106.681L39.0715 104.953L40.1828 103.47L42.1908 104.974C42.5433 105.238 42.8722 105.408 43.1777 105.486C43.4831 105.564 43.7651 105.549 44.0235 105.441C44.2848 105.335 44.523 105.139 44.738 104.852C44.9551 104.562 45.08 104.274 45.1124 103.987C45.1478 103.703 45.0858 103.422 44.9265 103.143C44.7722 102.863 44.5174 102.59 44.1622 102.324L42.9172 101.391L37.5078 108.614L35.6618 107.231ZM43.3532 106.789L42.5472 112.388L40.5093 110.862L41.3622 105.298L43.3532 106.789Z" fill="white"/>
<path d="M51.417 104.979L53.8768 105.769L54.8088 111.003L54.9102 111.035L58.7151 107.323L61.1748 108.113L55.2301 113.611L54.051 117.283L51.8702 116.583L53.0493 112.911L51.417 104.979Z" fill="white"/>
<path d="M66.2338 108.444L69.2232 116.611L69.3244 116.607L71.6089 108.213L74.1633 108.103L70.8735 119.164L67.904 119.291L63.674 108.553L66.2338 108.444Z" fill="white"/>
<path d="M86.1738 103.695L90.4937 113.713L88.6643 114.502L81.5873 110.076L81.5139 110.108L84.2328 116.413L82.1149 117.326L77.795 107.309L79.6537 106.507L86.6944 110.943L86.7825 110.905L84.0657 104.605L86.1738 103.695Z" fill="white"/>
<path d="M92.1347 99.209L99.1326 107.578L97.3633 109.057L90.3653 100.689L92.1347 99.209Z" fill="white"/>
<path d="M106.04 100.378L104.675 102.438L97.6602 93.2739L99.3017 90.796L110.473 93.6856L109.108 95.7461L100.583 93.3762L100.536 93.4472L106.04 100.378ZM102.38 98.1384L105.604 93.2714L107.105 94.2657L103.881 99.1327L102.38 98.1384Z" fill="white"/>
<defs>
<filter id="filter0_d_4241_402" x="0" y="0" width="136" height="131.564" filterUnits="userSpaceOnUse" color-interpolation-filters="sRGB">
<feFlood flood-opacity="0" result="BackgroundImageFix"/>
<feColorMatrix in="SourceAlpha" type="matrix" values="0 0 0 0 0 0 0 0 0 0 0 0 0 0 0 0 0 0 127 0" result="hardAlpha"/>
<feOffset dy="4"/>
<feGaussianBlur stdDeviation="2"/>
<feComposite in2="hardAlpha" operator="out"/>
<feColorMatrix type="matrix" values="0 0 0 0 0 0 0 0 0 0 0 0 0 0 0 0 0 0 0.25 0"/>
<feBlend mode="normal" in2="BackgroundImageFix" result="effect1_dropShadow_4241_402"/>
<feBlend mode="normal" in="SourceGraphic" in2="effect1_dropShadow_4241_402" result="shape"/>
</filter>
</defs>
</svg>
