<svg width="136" height="132" viewBox="0 0 136 132" fill="none" xmlns="http://www.w3.org/2000/svg">
<g filter="url(#filter0_d_4327_360)">
<ellipse cx="68" cy="61.7821" rx="64" ry="61.7821" fill="#0F73A5"/>
<ellipse cx="68" cy="61.7821" rx="40" ry="38.6138" fill="#2FC1F4"/>
<path d="M48.4261 59.3026L44.2713 59.5582C44.2003 59.2031 44.0476 58.8835 43.8132 58.5994C43.5788 58.3082 43.2699 58.0774 42.8864 57.907C42.5099 57.7294 42.0589 57.6406 41.5334 57.6406C40.8303 57.6406 40.2372 57.7898 39.7543 58.0881C39.2713 58.3793 39.0298 58.7699 39.0298 59.2599C39.0298 59.6506 39.1861 59.9808 39.4986 60.2507C39.8111 60.5206 40.3473 60.7372 41.1072 60.9006L44.0689 61.4972C45.6598 61.8239 46.8459 62.3494 47.6271 63.0739C48.4084 63.7983 48.799 64.75 48.799 65.929C48.799 67.0014 48.483 67.9425 47.8509 68.7521C47.2259 69.5618 46.3665 70.1939 45.2727 70.6484C44.1861 71.0959 42.9325 71.3196 41.5121 71.3196C39.3459 71.3196 37.62 70.8686 36.3345 69.9666C35.0561 69.0575 34.3068 67.8217 34.0866 66.2592L38.5504 66.0249C38.6854 66.6854 39.0121 67.1896 39.5305 67.5376C40.049 67.8786 40.7131 68.049 41.5227 68.049C42.3182 68.049 42.9574 67.8963 43.4403 67.5909C43.9304 67.2784 44.179 66.8771 44.1861 66.3871C44.179 65.9751 44.005 65.6378 43.6641 65.375C43.3232 65.1051 42.7976 64.8991 42.0874 64.7571L39.2536 64.1925C37.6555 63.8729 36.4659 63.3189 35.6847 62.5305C34.9105 61.7422 34.5234 60.7372 34.5234 59.5156C34.5234 58.4645 34.8075 57.5589 35.3757 56.799C35.951 56.0391 36.7571 55.4531 37.794 55.0412C38.8381 54.6293 40.0597 54.4233 41.4588 54.4233C43.5256 54.4233 45.152 54.8601 46.3381 55.7337C47.5313 56.6072 48.2273 57.7969 48.4261 59.3026ZM59.0502 71.3196C57.3954 71.3196 55.9643 70.968 54.7569 70.2649C53.5566 69.5547 52.6298 68.5675 51.9764 67.3033C51.323 66.032 50.9963 64.5582 50.9963 62.8821C50.9963 61.1918 51.323 59.7145 51.9764 58.4503C52.6298 57.179 53.5566 56.1918 54.7569 55.4886C55.9643 54.7784 57.3954 54.4233 59.0502 54.4233C60.7051 54.4233 62.1326 54.7784 63.3329 55.4886C64.5403 56.1918 65.4707 57.179 66.1241 58.4503C66.7775 59.7145 67.1042 61.1918 67.1042 62.8821C67.1042 64.5582 66.7775 66.032 66.1241 67.3033C65.4707 68.5675 64.5403 69.5547 63.3329 70.2649C62.1326 70.968 60.7051 71.3196 59.0502 71.3196ZM59.0716 67.804C59.8244 67.804 60.4529 67.5909 60.9572 67.1648C61.4615 66.7315 61.8414 66.142 62.0971 65.3963C62.3599 64.6506 62.4913 63.8018 62.4913 62.8501C62.4913 61.8984 62.3599 61.0497 62.0971 60.304C61.8414 59.5582 61.4615 58.9687 60.9572 58.5355C60.4529 58.1023 59.8244 57.8857 59.0716 57.8857C58.3116 57.8857 57.6724 58.1023 57.1539 58.5355C56.6426 58.9687 56.2555 59.5582 55.9927 60.304C55.737 61.0497 55.6092 61.8984 55.6092 62.8501C55.6092 63.8018 55.737 64.6506 55.9927 65.3963C56.2555 66.142 56.6426 66.7315 57.1539 67.1648C57.6724 67.5909 58.3116 67.804 59.0716 67.804ZM72.9743 49.1818V57.4702H69.7356V49.1818H72.9743ZM76.3248 71V54.6364H80.65V57.5234H80.8418C81.1827 56.5646 81.7509 55.8082 82.5463 55.2543C83.3418 54.7003 84.2935 54.4233 85.4015 54.4233C86.5236 54.4233 87.4789 54.7038 88.2672 55.2649C89.0556 55.8189 89.5811 56.5717 89.8439 57.5234H90.0144C90.3482 56.5859 90.9519 55.8366 91.8255 55.2756C92.7061 54.7074 93.7466 54.4233 94.9469 54.4233C96.4739 54.4233 97.7132 54.9098 98.665 55.8828C99.6238 56.8487 100.103 58.2195 100.103 59.995V71H95.5755V60.8899C95.5755 59.9808 95.334 59.299 94.851 58.8445C94.3681 58.3899 93.7644 58.1626 93.04 58.1626C92.2161 58.1626 91.5733 58.4254 91.1117 58.951C90.65 59.4695 90.4192 60.1548 90.4192 61.0071V71H86.0194V60.794C86.0194 59.9915 85.7885 59.3523 85.3269 58.8764C84.8723 58.4006 84.2722 58.1626 83.5265 58.1626C83.0222 58.1626 82.5676 58.2905 82.1628 58.5462C81.7651 58.7947 81.449 59.1463 81.2147 59.6009C80.9803 60.0483 80.8631 60.5739 80.8631 61.1776V71H76.3248Z" fill="#F7F6FB"/>
</g>
<path d="M58.8661 109.228C58.8235 108.799 58.6406 108.465 58.3175 108.227C57.9943 107.989 57.5558 107.87 57.0018 107.87C56.6254 107.87 56.3075 107.923 56.0483 108.03C55.7891 108.133 55.5902 108.277 55.4517 108.461C55.3168 108.646 55.2493 108.855 55.2493 109.09C55.2422 109.285 55.283 109.456 55.3718 109.601C55.4641 109.747 55.5902 109.873 55.75 109.979C55.9098 110.082 56.0945 110.173 56.304 110.251C56.5135 110.326 56.7372 110.39 56.9751 110.443L57.9553 110.677C58.4311 110.784 58.8679 110.926 59.2656 111.103C59.6634 111.281 60.0078 111.499 60.299 111.759C60.5902 112.018 60.8157 112.323 60.9755 112.675C61.1388 113.026 61.2223 113.429 61.2259 113.884C61.2223 114.551 61.0518 115.13 60.7145 115.62C60.3807 116.107 59.8977 116.485 59.2656 116.755C58.6371 117.021 57.8789 117.154 56.9911 117.154C56.1104 117.154 55.3434 117.02 54.69 116.75C54.0401 116.48 53.5323 116.08 53.1665 115.551C52.8043 115.018 52.6143 114.36 52.5966 113.575H54.8285C54.8533 113.941 54.9581 114.246 55.1428 114.491C55.331 114.733 55.5813 114.915 55.8938 115.04C56.2099 115.161 56.5668 115.221 56.9645 115.221C57.3551 115.221 57.6942 115.164 57.9819 115.05C58.2731 114.937 58.4986 114.779 58.6584 114.576C58.8182 114.374 58.8981 114.141 58.8981 113.879C58.8981 113.634 58.8253 113.428 58.6797 113.261C58.5376 113.094 58.3281 112.952 58.0511 112.835C57.7777 112.717 57.4421 112.611 57.0444 112.515L55.8565 112.217C54.9368 111.993 54.2106 111.643 53.6779 111.167C53.1452 110.691 52.8807 110.05 52.8842 109.244C52.8807 108.584 53.0565 108.007 53.4116 107.513C53.7702 107.02 54.2621 106.634 54.8871 106.357C55.5121 106.08 56.2223 105.942 57.0178 105.942C57.8274 105.942 58.5341 106.08 59.1378 106.357C59.745 106.634 60.2173 107.02 60.5547 107.513C60.892 108.007 61.0661 108.578 61.0767 109.228H58.8661ZM72.8021 111.545C72.8021 112.735 72.5766 113.747 72.1256 114.582C71.6782 115.416 71.0674 116.054 70.2932 116.494C69.5226 116.931 68.6562 117.149 67.6938 117.149C66.7243 117.149 65.8543 116.929 65.0837 116.489C64.3131 116.048 63.7041 115.411 63.2567 114.576C62.8092 113.742 62.5855 112.732 62.5855 111.545C62.5855 110.356 62.8092 109.344 63.2567 108.509C63.7041 107.675 64.3131 107.039 65.0837 106.602C65.8543 106.162 66.7243 105.942 67.6938 105.942C68.6562 105.942 69.5226 106.162 70.2932 106.602C71.0674 107.039 71.6782 107.675 72.1256 108.509C72.5766 109.344 72.8021 110.356 72.8021 111.545ZM70.4637 111.545C70.4637 110.775 70.3483 110.125 70.1175 109.596C69.8902 109.067 69.5688 108.665 69.1533 108.392C68.7378 108.119 68.2513 107.982 67.6938 107.982C67.1363 107.982 66.6498 108.119 66.2343 108.392C65.8188 108.665 65.4956 109.067 65.2648 109.596C65.0376 110.125 64.9239 110.775 64.9239 111.545C64.9239 112.316 65.0376 112.966 65.2648 113.495C65.4956 114.024 65.8188 114.425 66.2343 114.699C66.6498 114.972 67.1363 115.109 67.6938 115.109C68.2513 115.109 68.7378 114.972 69.1533 114.699C69.5688 114.425 69.8902 114.024 70.1175 113.495C70.3483 112.966 70.4637 112.316 70.4637 111.545ZM74.5107 106.091H77.3551L80.3594 113.42H80.4872L83.4915 106.091H86.3359V117H84.0987V109.9H84.0082L81.185 116.947H79.6616L76.8384 109.873H76.7479V117H74.5107V106.091Z" fill="white"/>
<path d="M14.3548 62.3879L14.1637 60.0894L21.2238 59.5024C22.0165 59.4364 22.7259 59.5681 23.3519 59.8973C23.9777 60.223 24.485 60.71 24.8738 61.3583C25.2591 62.0069 25.4892 62.7806 25.5639 63.6795C25.6389 64.5819 25.54 65.3848 25.2671 66.0881C24.9906 66.7917 24.5707 67.3557 24.0074 67.7803C23.444 68.2049 22.766 68.4501 21.9733 68.516L14.9131 69.103L14.722 66.8045L21.5857 66.2338C21.9998 66.1994 22.3603 66.0785 22.6674 65.8713C22.9741 65.6605 23.2057 65.3811 23.362 65.0331C23.5184 64.6852 23.5782 64.29 23.5414 63.8476C23.5043 63.4017 23.3801 63.0219 23.1687 62.7081C22.957 62.3907 22.6827 62.1552 22.3456 62.0015C22.0083 61.8442 21.6326 61.7828 21.2185 61.8172L14.3548 62.3879Z" fill="white"/>
<path d="M25.6238 52.814L24.3071 52.4395L18.4489 45.114L16.957 50.3605L15.1278 49.8404L17.4123 41.8066L18.7291 42.1811L24.5858 49.5117L26.0792 44.2601L27.9083 44.7802L25.6238 52.814Z" fill="white"/>
<path d="M31.0432 38.1673L22.2014 31.7774L24.7599 28.2372C25.23 27.5868 25.7185 27.1139 26.2254 26.8187C26.7323 26.5234 27.2361 26.3902 27.7367 26.419C28.2344 26.4457 28.7049 26.6192 29.1481 26.9395C29.4935 27.1891 29.7472 27.4777 29.9093 27.8051C30.0685 28.1305 30.1442 28.4743 30.1364 28.8368C30.1278 29.1942 30.0468 29.5519 29.8933 29.9098L29.9796 29.9722C30.2374 29.6458 30.5601 29.3993 30.9479 29.2326C31.3377 29.063 31.7574 29.0006 32.2072 29.0452C32.654 29.0877 33.0947 29.266 33.5293 29.5801C33.9985 29.9191 34.333 30.3383 34.5329 30.8377C34.7321 31.3321 34.7748 31.8822 34.6613 32.488C34.5477 33.0938 34.2517 33.7277 33.7733 34.3897L31.0432 38.1673ZM30.8659 35.1934L31.9673 33.6694C32.3438 33.1485 32.519 32.6968 32.4931 32.3144C32.4642 31.9299 32.2829 31.617 31.949 31.3757C31.7044 31.1989 31.4459 31.1019 31.1735 31.0847C30.9011 31.0675 30.6327 31.1298 30.3681 31.2716C30.1056 31.4105 29.8662 31.6296 29.6499 31.929L28.5173 33.4961L30.8659 35.1934ZM27.2523 32.5819L28.2539 31.1961C28.439 30.9399 28.5587 30.6803 28.613 30.4172C28.6665 30.1492 28.6514 29.8973 28.5677 29.6615C28.486 29.4229 28.3286 29.2193 28.0955 29.0508C27.776 28.82 27.4362 28.7475 27.0762 28.8334C26.7182 28.9165 26.3895 29.1652 26.09 29.5797L25.0635 31.0001L27.2523 32.5819Z" fill="white"/>
<path d="M40.4067 27.0664L34.1796 18.1091L40.2152 13.9132L41.3007 15.4745L37.1588 18.354L38.6426 20.4883L42.4739 17.8248L43.5594 19.3861L39.7281 22.0497L41.215 24.1884L45.3743 21.2968L46.4598 22.8582L40.4067 27.0664Z" fill="white"/>
<path d="M52.8897 19.6495L50.0983 9.10356L52.328 8.5134L53.5588 13.1633L53.6978 13.1265L56.2621 7.4721L58.9347 6.76473L56.271 12.5226L61.7724 17.2984L59.105 18.0044L55.0686 14.4332L54.3261 16.0624L55.1194 19.0593L52.8897 19.6495Z" fill="white"/>
<path d="M70.8787 6.19897L70.5106 17.1018L68.2054 17.024L68.5735 6.12114L70.8787 6.19897Z" fill="white"/>
<path d="M85.822 12.3587C85.9146 11.9369 85.8442 11.5629 85.6106 11.2366C85.3771 10.9102 84.997 10.6612 84.4702 10.4896C84.1123 10.373 83.7937 10.3252 83.5142 10.3461C83.2358 10.3637 83.0021 10.4389 82.8133 10.5715C82.6277 10.7053 82.4987 10.8836 82.4261 11.1065C82.3588 11.29 82.3448 11.4647 82.3841 11.6306C82.4268 11.7977 82.5076 11.9566 82.6265 12.1074C82.7466 12.2548 82.8941 12.3981 83.0691 12.5373C83.2452 12.6731 83.4381 12.8032 83.6478 12.9276L84.5071 13.4541C84.9265 13.7028 85.2978 13.9732 85.621 14.2652C85.9441 14.5572 86.204 14.8716 86.4005 15.2083C86.5971 15.545 86.7169 15.9052 86.7599 16.289C86.8063 16.6739 86.7607 17.083 86.6233 17.5162C86.4131 18.1499 86.0717 18.6475 85.5991 19.0089C85.131 19.368 84.5546 19.578 83.87 19.6388C83.1899 19.6973 82.4277 19.589 81.5836 19.3139C80.7463 19.0411 80.0588 18.6751 79.5212 18.2161C78.9869 17.7581 78.6278 17.221 78.444 16.6046C78.2646 15.9859 78.2881 15.3007 78.5143 14.549L80.6364 15.2405C80.5467 15.596 80.5517 15.9188 80.6514 16.209C80.7555 16.4969 80.9369 16.7483 81.1955 16.9633C81.4586 17.176 81.7792 17.344 82.1574 17.4672C82.5288 17.5882 82.8688 17.6393 83.1775 17.6204C83.4896 17.6025 83.753 17.5221 83.9676 17.3792C84.1823 17.2363 84.3303 17.0399 84.4117 16.79C84.4876 16.557 84.4822 16.3386 84.3955 16.1348C84.3121 15.9321 84.1569 15.7322 83.9299 15.5349C83.7062 15.3388 83.4202 15.1335 83.0717 14.9192L82.0347 14.2675C81.2295 13.7699 80.6474 13.2123 80.2884 12.5948C79.9294 11.9773 79.8764 11.2859 80.1295 10.5206C80.3308 9.89148 80.6767 9.39728 81.1673 9.03798C81.6612 8.67978 82.2482 8.46581 82.9283 8.39609C83.6083 8.32636 84.3265 8.41472 85.0828 8.66117C85.8527 8.91202 86.4817 9.26263 86.9698 9.71303C87.4614 10.1645 87.7911 10.6772 87.9589 11.251C88.1267 11.8249 88.1151 12.4224 87.9238 13.0436L85.822 12.3587Z" fill="white"/>
<path d="M96.459 16.0354L97.6306 14.5376L104.688 20.0573L103.516 21.5552L100.886 19.4976L95.3363 26.5927L93.5405 25.1881L99.0898 18.093L96.459 16.0354Z" fill="white"/>
<path d="M103.697 35.394L102.435 33.2687L113.738 30.9376L115.256 33.4933L107.795 42.2964L106.534 40.1711L112.375 33.5248L112.332 33.4515L103.697 35.394ZM107.305 33.072L110.286 38.0919L108.738 39.0111L105.757 33.9912L107.305 33.072Z" fill="white"/>
<path d="M122.247 55.8828L111.465 57.5486L111.161 55.5798L117.222 49.8409L117.21 49.7619L110.424 50.8104L110.072 48.531L120.853 46.8652L121.162 48.8656L115.101 54.5668L115.116 54.6616L121.896 53.6139L122.247 55.8828Z" fill="white"/>
<path d="M121.535 68.9293L110.749 67.2942L111.095 65.0138L121.881 66.6489L121.535 68.9293Z" fill="white"/>
<defs>
<filter id="filter0_d_4327_360" x="0" y="0" width="136" height="131.564" filterUnits="userSpaceOnUse" color-interpolation-filters="sRGB">
<feFlood flood-opacity="0" result="BackgroundImageFix"/>
<feColorMatrix in="SourceAlpha" type="matrix" values="0 0 0 0 0 0 0 0 0 0 0 0 0 0 0 0 0 0 127 0" result="hardAlpha"/>
<feOffset dy="4"/>
<feGaussianBlur stdDeviation="2"/>
<feComposite in2="hardAlpha" operator="out"/>
<feColorMatrix type="matrix" values="0 0 0 0 0 0 0 0 0 0 0 0 0 0 0 0 0 0 0.25 0"/>
<feBlend mode="normal" in2="BackgroundImageFix" result="effect1_dropShadow_4327_360"/>
<feBlend mode="normal" in="SourceGraphic" in2="effect1_dropShadow_4327_360" result="shape"/>
</filter>
</defs>
</svg>
