<svg width="136" height="132" viewBox="0 0 136 132" fill="none" xmlns="http://www.w3.org/2000/svg">
<g filter="url(#filter0_d_4235_336)">
<ellipse cx="68" cy="61.7821" rx="64" ry="61.7821" fill="#0F73A5"/>
<ellipse cx="68" cy="61.7821" rx="40" ry="38.6138" fill="#2FC1F4"/>
<path d="M31.7067 71V51.3636H44.7081V54.7866H35.8583V59.4656H43.8452V62.8885H35.8583V71H31.7067ZM48.8885 71.2493C48.2557 71.2493 47.7124 71.0256 47.2585 70.5781C46.8111 70.1243 46.5874 69.581 46.5874 68.9482C46.5874 68.3217 46.8111 67.7848 47.2585 67.3374C47.7124 66.8899 48.2557 66.6662 48.8885 66.6662C49.5021 66.6662 50.0391 66.8899 50.4993 67.3374C50.9595 67.7848 51.1896 68.3217 51.1896 68.9482C51.1896 69.37 51.081 69.7567 50.8636 70.1083C50.6527 70.4535 50.3746 70.7315 50.0295 70.9425C49.6843 71.147 49.304 71.2493 48.8885 71.2493ZM71.9454 58.2383H67.7458C67.6691 57.695 67.5125 57.2124 67.276 56.7905C67.0395 56.3622 66.7359 55.9979 66.3651 55.6974C65.9944 55.397 65.5661 55.1669 65.0803 55.0071C64.6009 54.8473 64.08 54.7674 63.5175 54.7674C62.5012 54.7674 61.6159 55.0199 60.8616 55.5249C60.1073 56.0234 59.5225 56.7521 59.107 57.7109C58.6915 58.6634 58.4838 59.8203 58.4838 61.1818C58.4838 62.5817 58.6915 63.7578 59.107 64.7102C59.5289 65.6626 60.1169 66.3817 60.8712 66.8675C61.6254 67.3533 62.498 67.5962 63.4887 67.5962C64.0448 67.5962 64.5594 67.5227 65.0324 67.3757C65.5118 67.2287 65.9369 67.0146 66.3076 66.7333C66.6784 66.4457 66.9852 66.0973 67.2281 65.6882C67.4774 65.2791 67.6499 64.8125 67.7458 64.2884L71.9454 64.3075C71.8367 65.2088 71.5651 66.0781 71.1304 66.9155C70.7021 67.7464 70.1237 68.4911 69.395 69.1495C68.6727 69.8015 67.8097 70.3192 66.8062 70.7028C65.809 71.0799 64.6808 71.2685 63.4216 71.2685C61.6702 71.2685 60.1041 70.8722 58.7235 70.0795C57.3492 69.2869 56.2625 68.1396 55.4635 66.6374C54.6709 65.1353 54.2746 63.3168 54.2746 61.1818C54.2746 59.0405 54.6773 57.2188 55.4827 55.7166C56.2881 54.2145 57.3811 53.0703 58.7618 52.2841C60.1425 51.4915 61.6958 51.0952 63.4216 51.0952C64.5594 51.0952 65.6141 51.255 66.5857 51.5746C67.5637 51.8942 68.4298 52.3608 69.184 52.9744C69.9383 53.5817 70.5519 54.3263 71.0249 55.2085C71.5044 56.0906 71.8112 57.1005 71.9454 58.2383ZM74.9225 71V51.3636H87.9239V54.7866H79.0741V59.4656H87.061V62.8885H79.0741V71H74.9225ZM91.6489 71H87.2L93.9788 51.3636H99.3289L106.098 71H101.649L96.7306 55.8509H96.5771L91.6489 71ZM91.3708 63.2816H101.879V66.5224H91.3708V63.2816Z" fill="#F7F6FB"/>
</g>
<path d="M26.2868 31.3312L25.1147 33.3485C24.8323 33.2337 24.5567 33.1742 24.2881 33.1701C24.0164 33.1641 23.7566 33.2083 23.5088 33.3025C23.261 33.3968 23.031 33.5383 22.8186 33.727C22.608 33.9127 22.4243 34.1406 22.2673 34.4108C21.9836 34.8991 21.8578 35.3948 21.8899 35.898C21.9188 36.3995 22.1056 36.8838 22.4502 37.351C22.7918 37.8164 23.2896 38.2391 23.9436 38.6191C24.616 39.0098 25.239 39.2383 25.8124 39.3045C26.3877 39.3677 26.8972 39.2859 27.3411 39.0592C27.785 38.8325 28.1452 38.4811 28.4217 38.0052C28.5769 37.7381 28.6852 37.4704 28.7466 37.2021C28.8098 36.9308 28.8256 36.6669 28.7939 36.4103C28.7592 36.1519 28.6775 35.9073 28.5488 35.6765C28.4219 35.4425 28.2459 35.2294 28.0209 35.037L29.2022 33.0251C29.6048 33.3288 29.9466 33.702 30.2275 34.1445C30.5071 34.5821 30.7034 35.0678 30.8163 35.6016C30.9278 36.1305 30.9357 36.6896 30.8398 37.2787C30.7427 37.8629 30.5184 38.4575 30.1669 39.0624C29.6781 39.9037 29.0507 40.5453 28.2846 40.9873C27.5203 41.4263 26.6658 41.628 25.7213 41.5926C24.7785 41.5541 23.7943 41.2369 22.7688 40.641C21.7402 40.0434 20.9775 39.3415 20.4807 38.5354C19.9839 37.7292 19.7394 36.8848 19.7471 36.0022C19.7517 35.1177 19.9948 34.261 20.4765 33.432C20.7941 32.8854 21.1652 32.4234 21.5899 32.0459C22.0164 31.6653 22.4823 31.3795 22.9875 31.1885C23.4898 30.9956 24.0187 30.9087 24.5745 30.9277C25.132 30.9436 25.7028 31.0781 26.2868 31.3312Z" fill="white"/>
<path d="M36.9743 29.6699L30.0397 21.2486L35.7142 16.5758L36.923 18.0437L33.029 21.2504L34.6814 23.257L38.2835 20.2908L39.4923 21.7588L35.8902 24.725L37.546 26.7357L41.4565 23.5156L42.6653 24.9835L36.9743 29.6699Z" fill="white"/>
<path d="M53.8314 7.90998L57.4008 18.2186L55.5183 18.8704L48.7869 13.9351L48.7114 13.9613L50.958 20.4495L48.7784 21.2041L45.2091 10.8955L47.1218 10.2332L53.8162 15.1757L53.9068 15.1443L51.662 8.66116L53.8314 7.90998Z" fill="white"/>
<path d="M64.6066 8.00752L64.67 6.10694L73.6245 6.40554L73.5611 8.30612L70.2231 8.19481L69.9229 17.1973L67.6444 17.1213L67.9446 8.11883L64.6066 8.00752Z" fill="white"/>
<path d="M80.1338 18.7311L84.1577 8.59128L88.1582 10.1788C88.924 10.4827 89.5231 10.879 89.9557 11.3678C90.393 11.8546 90.6546 12.4035 90.7407 13.0146C90.8314 13.6237 90.7438 14.2632 90.4779 14.9333C90.2106 15.6066 89.8355 16.1283 89.3525 16.4982C88.8708 16.8648 88.3033 17.0675 87.6499 17.1062C86.9998 17.1463 86.2853 17.0117 85.5063 16.7026L82.8277 15.6396L83.5115 13.9166L85.8434 14.8421C86.2527 15.0045 86.615 15.0833 86.9302 15.0785C87.2454 15.0736 87.5135 14.9852 87.7346 14.8132C87.959 14.6424 88.1374 14.3903 88.2697 14.057C88.4033 13.7203 88.4483 13.4096 88.4046 13.1248C88.3643 12.8414 88.2307 12.5859 88.0039 12.3583C87.7817 12.1288 87.4643 11.9322 87.0517 11.7684L85.606 11.1947L82.2776 19.5819L80.1338 18.7311ZM87.4409 16.2898L88.1298 21.9043L85.7632 20.9651L85.1288 15.3722L87.4409 16.2898Z" fill="white"/>
<path d="M94.6453 26.2359L92.809 24.5816L102.909 18.9975L105.117 20.987L100.609 31.609L98.7729 29.9547L102.376 21.8728L102.313 21.8158L94.6453 26.2359ZM97.4007 22.9468L101.738 26.8545L100.533 28.1921L96.1956 24.2844L97.4007 22.9468Z" fill="white"/>
<path d="M104.544 36.9871L114.154 31.824L115.246 33.8558L107.311 38.1189L109.525 42.2388L107.849 43.1388L104.544 36.9871Z" fill="white"/>
<path d="M26.7365 97.447L25.2321 95.486L36.1798 91.8338L37.989 94.192L31.6226 103.816L30.1182 101.855L35.1325 94.5641L35.0806 94.4965L26.7365 97.447ZM30.0447 94.7144L33.5982 99.3464L32.1697 100.442L28.6162 95.8103L30.0447 94.7144Z" fill="white"/>
<path d="M37.2901 108.861L43.391 99.8169L49.3789 103.856L48.3154 105.433L44.2396 102.683L42.7859 104.838L46.4643 107.32L45.4008 108.896L41.7224 106.415L39.2022 110.15L37.2901 108.861Z" fill="white"/>
<path d="M49.7885 116.048L52.9225 105.599L57.0451 106.835C57.8342 107.072 58.4654 107.415 58.9385 107.865C59.4161 108.312 59.7241 108.836 59.8626 109.437C60.0055 110.036 59.9734 110.681 59.7663 111.372C59.5582 112.066 59.2294 112.618 58.7801 113.028C58.3319 113.435 57.7839 113.686 57.1363 113.78C56.4921 113.876 55.7686 113.804 54.9659 113.563L52.2056 112.735L52.7382 110.96L55.1413 111.681C55.5631 111.807 55.9307 111.854 56.2444 111.822C56.558 111.79 56.8175 111.679 57.0229 111.489C57.2317 111.299 57.3877 111.033 57.4907 110.689C57.5948 110.342 57.6128 110.029 57.5447 109.749C57.4801 109.47 57.325 109.227 57.0794 109.02C56.8382 108.81 56.505 108.642 56.0799 108.514L54.59 108.067L51.9977 116.71L49.7885 116.048ZM56.8577 112.985L58.0284 118.519L55.5896 117.788L54.475 112.27L56.8577 112.985Z" fill="white"/>
<path d="M67.4237 108.39L67.0858 119.294L64.7804 119.223L65.1183 108.319L67.4237 108.39Z" fill="white"/>
<path d="M82.7713 109.754L80.5109 110.331C80.3948 110.05 80.2442 109.811 80.0588 109.617C79.8726 109.419 79.659 109.265 79.4181 109.154C79.1773 109.043 78.9151 108.978 78.6316 108.959C78.3516 108.939 78.0602 108.968 77.7574 109.045C77.2104 109.185 76.7686 109.443 76.4321 109.818C76.0947 110.19 75.8802 110.663 75.7885 111.236C75.6959 111.806 75.7433 112.457 75.9306 113.19C76.1232 113.944 76.3969 114.548 76.7515 115.004C77.1097 115.458 77.5251 115.764 77.9979 115.922C78.4708 116.08 78.9738 116.09 79.5071 115.954C79.8064 115.878 80.0733 115.767 80.3076 115.623C80.5454 115.478 80.7448 115.304 80.9056 115.102C81.0656 114.896 81.1828 114.666 81.2573 114.413C81.3352 114.158 81.3638 113.883 81.3433 113.588L83.6064 113.02C83.6719 113.52 83.6453 114.026 83.5266 114.536C83.4104 115.042 83.2015 115.523 82.8998 115.977C82.6008 116.428 82.2075 116.825 81.7202 117.17C81.2353 117.51 80.654 117.767 79.9762 117.94C79.0335 118.181 78.1361 118.183 77.2839 117.946C76.4351 117.709 75.6924 117.241 75.0556 116.542C74.4223 115.843 73.9588 114.918 73.665 113.769C73.3704 112.617 73.3365 111.581 73.5633 110.661C73.7901 109.742 74.221 108.976 74.856 108.363C75.4901 107.746 76.2716 107.319 77.2006 107.082C77.813 106.925 78.4026 106.866 78.9696 106.904C79.5399 106.942 80.0703 107.074 80.5607 107.3C81.0503 107.523 81.483 107.84 81.859 108.249C82.2384 108.658 82.5425 109.16 82.7713 109.754Z" fill="white"/>
<path d="M93.3259 112.344L91.2922 113.749L88.1913 102.632L90.637 100.943L99.931 107.782L97.8973 109.187L90.8659 103.815L90.7958 103.863L93.3259 112.344ZM90.7619 108.904L95.5656 105.586L96.5888 107.067L91.7851 110.385L90.7619 108.904Z" fill="white"/>
<path d="M101.703 88.6805L110.631 94.9496L109.486 96.58L101.139 96.5184L101.093 96.5838L106.712 100.53L105.387 102.417L96.4591 96.148L97.6223 94.4915L105.943 94.5805L105.998 94.502L100.383 90.5594L101.703 88.6805Z" fill="white"/>
<defs>
<filter id="filter0_d_4235_336" x="0" y="0" width="136" height="131.564" filterUnits="userSpaceOnUse" color-interpolation-filters="sRGB">
<feFlood flood-opacity="0" result="BackgroundImageFix"/>
<feColorMatrix in="SourceAlpha" type="matrix" values="0 0 0 0 0 0 0 0 0 0 0 0 0 0 0 0 0 0 127 0" result="hardAlpha"/>
<feOffset dy="4"/>
<feGaussianBlur stdDeviation="2"/>
<feComposite in2="hardAlpha" operator="out"/>
<feColorMatrix type="matrix" values="0 0 0 0 0 0 0 0 0 0 0 0 0 0 0 0 0 0 0.25 0"/>
<feBlend mode="normal" in2="BackgroundImageFix" result="effect1_dropShadow_4235_336"/>
<feBlend mode="normal" in="SourceGraphic" in2="effect1_dropShadow_4235_336" result="shape"/>
</filter>
</defs>
</svg>
